%TF.GenerationSoftware,KiCad,Pcbnew,(5.1.5)-3*%
%TF.CreationDate,2020-04-29T20:03:56+02:00*%
%TF.ProjectId,KicadJE_Util_Faceplate_Generic,4b696361-644a-4455-9f55-74696c5f4661,rev?*%
%TF.SameCoordinates,Original*%
%TF.FileFunction,Legend,Top*%
%TF.FilePolarity,Positive*%
%FSLAX46Y46*%
G04 Gerber Fmt 4.6, Leading zero omitted, Abs format (unit mm)*
G04 Created by KiCad (PCBNEW (5.1.5)-3) date 2020-04-29 20:03:56*
%MOMM*%
%LPD*%
G04 APERTURE LIST*
%ADD10C,0.120000*%
%ADD11C,0.100000*%
%ADD12C,0.500000*%
%ADD13C,0.050000*%
%ADD14C,1.000000*%
%ADD15C,0.150000*%
%ADD16C,0.010000*%
G04 APERTURE END LIST*
D10*
X97000000Y-110000000D02*
X95000000Y-110000000D01*
X101000000Y-115000000D02*
X97000000Y-110000000D01*
X97000000Y-120000000D02*
X95000000Y-120000000D01*
X101000000Y-125000000D02*
X97000000Y-120000000D01*
X125000000Y-130000000D02*
X126500000Y-130000000D01*
X121000000Y-135000000D02*
X125000000Y-130000000D01*
X125000000Y-120000000D02*
X126500000Y-120000000D01*
X121000000Y-125000000D02*
X125000000Y-120000000D01*
D11*
G36*
X116000000Y-148000000D02*
G01*
X106000000Y-148000000D01*
X106000000Y-142000000D01*
X116000000Y-142000000D01*
X116000000Y-148000000D01*
G37*
X116000000Y-148000000D02*
X106000000Y-148000000D01*
X106000000Y-142000000D01*
X116000000Y-142000000D01*
X116000000Y-148000000D01*
G36*
X116000000Y-138000000D02*
G01*
X106000000Y-138000000D01*
X106000000Y-132000000D01*
X116000000Y-132000000D01*
X116000000Y-138000000D01*
G37*
X116000000Y-138000000D02*
X106000000Y-138000000D01*
X106000000Y-132000000D01*
X116000000Y-132000000D01*
X116000000Y-138000000D01*
G36*
X116000000Y-128000000D02*
G01*
X106000000Y-128000000D01*
X106000000Y-122000000D01*
X116000000Y-122000000D01*
X116000000Y-128000000D01*
G37*
X116000000Y-128000000D02*
X106000000Y-128000000D01*
X106000000Y-122000000D01*
X116000000Y-122000000D01*
X116000000Y-128000000D01*
G36*
X129000000Y-105000000D02*
G01*
X93000000Y-105000000D01*
X93000000Y-93000000D01*
X129000000Y-93000000D01*
X129000000Y-105000000D01*
G37*
X129000000Y-105000000D02*
X93000000Y-105000000D01*
X93000000Y-93000000D01*
X129000000Y-93000000D01*
X129000000Y-105000000D01*
G36*
X116000000Y-118000000D02*
G01*
X106000000Y-118000000D01*
X106000000Y-112000000D01*
X116000000Y-112000000D01*
X116000000Y-118000000D01*
G37*
X116000000Y-118000000D02*
X106000000Y-118000000D01*
X106000000Y-112000000D01*
X116000000Y-112000000D01*
X116000000Y-118000000D01*
G36*
X99000000Y-77000000D02*
G01*
X92000000Y-77000000D01*
X92000000Y-73000000D01*
X99000000Y-73000000D01*
X99000000Y-77000000D01*
G37*
X99000000Y-77000000D02*
X92000000Y-77000000D01*
X92000000Y-73000000D01*
X99000000Y-73000000D01*
X99000000Y-77000000D01*
G36*
X130000000Y-77000000D02*
G01*
X123000000Y-77000000D01*
X123000000Y-73000000D01*
X130000000Y-73000000D01*
X130000000Y-77000000D01*
G37*
X130000000Y-77000000D02*
X123000000Y-77000000D01*
X123000000Y-73000000D01*
X130000000Y-73000000D01*
X130000000Y-77000000D01*
G36*
X130000000Y-57000000D02*
G01*
X123000000Y-57000000D01*
X123000000Y-53000000D01*
X130000000Y-53000000D01*
X130000000Y-57000000D01*
G37*
X130000000Y-57000000D02*
X123000000Y-57000000D01*
X123000000Y-53000000D01*
X130000000Y-53000000D01*
X130000000Y-57000000D01*
G36*
X99000000Y-57000000D02*
G01*
X92000000Y-57000000D01*
X92000000Y-53000000D01*
X99000000Y-53000000D01*
X99000000Y-57000000D01*
G37*
X99000000Y-57000000D02*
X92000000Y-57000000D01*
X92000000Y-53000000D01*
X99000000Y-53000000D01*
X99000000Y-57000000D01*
D10*
X97000000Y-130000000D02*
X95000000Y-130000000D01*
X101000000Y-135000000D02*
X97000000Y-130000000D01*
D12*
X94571428Y-131357142D02*
X93428571Y-131357142D01*
X94000000Y-131357142D02*
X94000000Y-128357142D01*
X93809523Y-128785714D01*
X93619047Y-129071428D01*
X93428571Y-129214285D01*
X126928571Y-128642857D02*
X127023809Y-128500000D01*
X127214285Y-128357142D01*
X127690476Y-128357142D01*
X127880952Y-128500000D01*
X127976190Y-128642857D01*
X128071428Y-128928571D01*
X128071428Y-129214285D01*
X127976190Y-129642857D01*
X126833333Y-131357142D01*
X128071428Y-131357142D01*
X101571428Y-76357142D02*
X100428571Y-76357142D01*
X101000000Y-76357142D02*
X101000000Y-73357142D01*
X100809523Y-73785714D01*
X100619047Y-74071428D01*
X100428571Y-74214285D01*
X101571428Y-56357142D02*
X100428571Y-56357142D01*
X101000000Y-56357142D02*
X101000000Y-53357142D01*
X100809523Y-53785714D01*
X100619047Y-54071428D01*
X100428571Y-54214285D01*
D10*
X121000000Y-57500000D02*
X121000000Y-145000000D01*
X101000000Y-145000000D02*
X101000000Y-65500000D01*
X121000000Y-115000000D02*
X125000000Y-110000000D01*
X125000000Y-110000000D02*
X126500000Y-110000000D01*
X127500000Y-145000000D02*
X127500000Y-142000000D01*
X121000000Y-145000000D02*
X127500000Y-145000000D01*
X94000000Y-145000000D02*
X94000000Y-142000000D01*
X101000000Y-145000000D02*
X94000000Y-145000000D01*
D12*
X94571428Y-121357142D02*
X93428571Y-121357142D01*
X94000000Y-121357142D02*
X94000000Y-118357142D01*
X93809523Y-118785714D01*
X93619047Y-119071428D01*
X93428571Y-119214285D01*
X91380952Y-138357142D02*
X91761904Y-138357142D01*
X91952380Y-138500000D01*
X92142857Y-138785714D01*
X92238095Y-139357142D01*
X92238095Y-140357142D01*
X92142857Y-140928571D01*
X91952380Y-141214285D01*
X91761904Y-141357142D01*
X91380952Y-141357142D01*
X91190476Y-141214285D01*
X91000000Y-140928571D01*
X90904761Y-140357142D01*
X90904761Y-139357142D01*
X91000000Y-138785714D01*
X91190476Y-138500000D01*
X91380952Y-138357142D01*
X93952380Y-139357142D02*
X93952380Y-141357142D01*
X93095238Y-139357142D02*
X93095238Y-140928571D01*
X93190476Y-141214285D01*
X93380952Y-141357142D01*
X93666666Y-141357142D01*
X93857142Y-141214285D01*
X93952380Y-141071428D01*
X94619047Y-139357142D02*
X95380952Y-139357142D01*
X94904761Y-138357142D02*
X94904761Y-140928571D01*
X95000000Y-141214285D01*
X95190476Y-141357142D01*
X95380952Y-141357142D01*
X97095238Y-141357142D02*
X95952380Y-141357142D01*
X96523809Y-141357142D02*
X96523809Y-138357142D01*
X96333333Y-138785714D01*
X96142857Y-139071428D01*
X95952380Y-139214285D01*
X94571428Y-111357142D02*
X93428571Y-111357142D01*
X94000000Y-111357142D02*
X94000000Y-108357142D01*
X93809523Y-108785714D01*
X93619047Y-109071428D01*
X93428571Y-109214285D01*
X124880952Y-138357142D02*
X125261904Y-138357142D01*
X125452380Y-138500000D01*
X125642857Y-138785714D01*
X125738095Y-139357142D01*
X125738095Y-140357142D01*
X125642857Y-140928571D01*
X125452380Y-141214285D01*
X125261904Y-141357142D01*
X124880952Y-141357142D01*
X124690476Y-141214285D01*
X124500000Y-140928571D01*
X124404761Y-140357142D01*
X124404761Y-139357142D01*
X124500000Y-138785714D01*
X124690476Y-138500000D01*
X124880952Y-138357142D01*
X127452380Y-139357142D02*
X127452380Y-141357142D01*
X126595238Y-139357142D02*
X126595238Y-140928571D01*
X126690476Y-141214285D01*
X126880952Y-141357142D01*
X127166666Y-141357142D01*
X127357142Y-141214285D01*
X127452380Y-141071428D01*
X128119047Y-139357142D02*
X128880952Y-139357142D01*
X128404761Y-138357142D02*
X128404761Y-140928571D01*
X128500000Y-141214285D01*
X128690476Y-141357142D01*
X128880952Y-141357142D01*
X129452380Y-138642857D02*
X129547619Y-138500000D01*
X129738095Y-138357142D01*
X130214285Y-138357142D01*
X130404761Y-138500000D01*
X130500000Y-138642857D01*
X130595238Y-138928571D01*
X130595238Y-139214285D01*
X130500000Y-139642857D01*
X129357142Y-141357142D01*
X130595238Y-141357142D01*
X126928571Y-118642857D02*
X127023809Y-118500000D01*
X127214285Y-118357142D01*
X127690476Y-118357142D01*
X127880952Y-118500000D01*
X127976190Y-118642857D01*
X128071428Y-118928571D01*
X128071428Y-119214285D01*
X127976190Y-119642857D01*
X126833333Y-121357142D01*
X128071428Y-121357142D01*
X126928571Y-108642857D02*
X127023809Y-108500000D01*
X127214285Y-108357142D01*
X127690476Y-108357142D01*
X127880952Y-108500000D01*
X127976190Y-108642857D01*
X128071428Y-108928571D01*
X128071428Y-109214285D01*
X127976190Y-109642857D01*
X126833333Y-111357142D01*
X128071428Y-111357142D01*
X120428571Y-73642857D02*
X120523809Y-73500000D01*
X120714285Y-73357142D01*
X121190476Y-73357142D01*
X121380952Y-73500000D01*
X121476190Y-73642857D01*
X121571428Y-73928571D01*
X121571428Y-74214285D01*
X121476190Y-74642857D01*
X120333333Y-76357142D01*
X121571428Y-76357142D01*
X120428571Y-53642857D02*
X120523809Y-53500000D01*
X120714285Y-53357142D01*
X121190476Y-53357142D01*
X121380952Y-53500000D01*
X121476190Y-53642857D01*
X121571428Y-53928571D01*
X121571428Y-54214285D01*
X121476190Y-54642857D01*
X120333333Y-56357142D01*
X121571428Y-56357142D01*
D13*
X91000000Y-164000000D02*
X91000000Y-36000000D01*
X131000000Y-164000000D02*
X91000000Y-164000000D01*
X131000000Y-36000000D02*
X131000000Y-164000000D01*
X91000000Y-36000000D02*
X131000000Y-36000000D01*
D14*
X108523809Y-39785714D02*
X108142857Y-39500000D01*
X107952380Y-39214285D01*
X107761904Y-38642857D01*
X107761904Y-38357142D01*
X107952380Y-37785714D01*
X108142857Y-37500000D01*
X108523809Y-37214285D01*
X109285714Y-37214285D01*
X109666666Y-37500000D01*
X109857142Y-37785714D01*
X110047619Y-38357142D01*
X110047619Y-38642857D01*
X109857142Y-39214285D01*
X109666666Y-39500000D01*
X109285714Y-39785714D01*
X108523809Y-39785714D01*
X108142857Y-40071428D01*
X107952380Y-40357142D01*
X107761904Y-40928571D01*
X107761904Y-42071428D01*
X107952380Y-42642857D01*
X108142857Y-42928571D01*
X108523809Y-43214285D01*
X109285714Y-43214285D01*
X109666666Y-42928571D01*
X109857142Y-42642857D01*
X110047619Y-42071428D01*
X110047619Y-40928571D01*
X109857142Y-40357142D01*
X109666666Y-40071428D01*
X109285714Y-39785714D01*
X111761904Y-37214285D02*
X111761904Y-42071428D01*
X111952380Y-42642857D01*
X112142857Y-42928571D01*
X112523809Y-43214285D01*
X113285714Y-43214285D01*
X113666666Y-42928571D01*
X113857142Y-42642857D01*
X114047619Y-42071428D01*
X114047619Y-37214285D01*
D15*
X121000000Y-76500000D02*
X121000000Y-77500000D01*
X116500000Y-89500000D02*
X115500000Y-90500000D01*
X126500000Y-90500000D02*
X125500000Y-89500000D01*
X116000000Y-90000000D02*
G75*
G02X126000000Y-90000000I5000000J5500000D01*
G01*
X96000000Y-90000000D02*
G75*
G02X106000000Y-90000000I5000000J5500000D01*
G01*
X106500000Y-90500000D02*
X105500000Y-89500000D01*
X96500000Y-89500000D02*
X95500000Y-90500000D01*
X101000000Y-76500000D02*
X101000000Y-77500000D01*
D16*
G36*
X116791200Y-159399800D02*
G01*
X116676900Y-159399800D01*
X116676900Y-159272800D01*
X116791200Y-159272800D01*
X116791200Y-159399800D01*
G37*
X116791200Y-159399800D02*
X116676900Y-159399800D01*
X116676900Y-159272800D01*
X116791200Y-159272800D01*
X116791200Y-159399800D01*
G36*
X113743200Y-159399800D02*
G01*
X113628900Y-159399800D01*
X113628900Y-159272800D01*
X113743200Y-159272800D01*
X113743200Y-159399800D01*
G37*
X113743200Y-159399800D02*
X113628900Y-159399800D01*
X113628900Y-159272800D01*
X113743200Y-159272800D01*
X113743200Y-159399800D01*
G36*
X117438114Y-159442318D02*
G01*
X117473195Y-159459123D01*
X117492674Y-159474926D01*
X117534150Y-159511953D01*
X117538239Y-159703526D01*
X117542329Y-159895100D01*
X117438900Y-159895100D01*
X117438900Y-159730907D01*
X117438314Y-159659817D01*
X117436253Y-159609877D01*
X117432258Y-159576854D01*
X117425870Y-159556520D01*
X117418942Y-159546757D01*
X117385287Y-159528974D01*
X117345560Y-159530874D01*
X117306502Y-159550204D01*
X117274851Y-159584714D01*
X117268062Y-159597154D01*
X117256927Y-159633806D01*
X117250505Y-159688629D01*
X117248400Y-159765050D01*
X117248400Y-159895100D01*
X117146800Y-159895100D01*
X117146800Y-159450600D01*
X117197600Y-159450600D01*
X117230192Y-159452142D01*
X117244681Y-159460281D01*
X117248330Y-159480282D01*
X117248400Y-159487430D01*
X117248400Y-159524260D01*
X117291580Y-159481080D01*
X117323768Y-159453238D01*
X117354315Y-159440684D01*
X117392979Y-159437900D01*
X117438114Y-159442318D01*
G37*
X117438114Y-159442318D02*
X117473195Y-159459123D01*
X117492674Y-159474926D01*
X117534150Y-159511953D01*
X117538239Y-159703526D01*
X117542329Y-159895100D01*
X117438900Y-159895100D01*
X117438900Y-159730907D01*
X117438314Y-159659817D01*
X117436253Y-159609877D01*
X117432258Y-159576854D01*
X117425870Y-159556520D01*
X117418942Y-159546757D01*
X117385287Y-159528974D01*
X117345560Y-159530874D01*
X117306502Y-159550204D01*
X117274851Y-159584714D01*
X117268062Y-159597154D01*
X117256927Y-159633806D01*
X117250505Y-159688629D01*
X117248400Y-159765050D01*
X117248400Y-159895100D01*
X117146800Y-159895100D01*
X117146800Y-159450600D01*
X117197600Y-159450600D01*
X117230192Y-159452142D01*
X117244681Y-159460281D01*
X117248330Y-159480282D01*
X117248400Y-159487430D01*
X117248400Y-159524260D01*
X117291580Y-159481080D01*
X117323768Y-159453238D01*
X117354315Y-159440684D01*
X117392979Y-159437900D01*
X117438114Y-159442318D01*
G36*
X116791200Y-159806200D02*
G01*
X116842000Y-159806200D01*
X116874525Y-159807545D01*
X116888979Y-159815854D01*
X116892686Y-159837533D01*
X116892800Y-159850650D01*
X116892800Y-159895100D01*
X116588000Y-159895100D01*
X116588000Y-159850650D01*
X116589965Y-159820858D01*
X116601057Y-159808640D01*
X116629066Y-159806205D01*
X116632450Y-159806200D01*
X116676900Y-159806200D01*
X116676900Y-159539500D01*
X116632450Y-159539500D01*
X116602658Y-159537534D01*
X116590440Y-159526442D01*
X116588005Y-159498433D01*
X116588000Y-159495050D01*
X116588000Y-159450600D01*
X116791200Y-159450600D01*
X116791200Y-159806200D01*
G37*
X116791200Y-159806200D02*
X116842000Y-159806200D01*
X116874525Y-159807545D01*
X116888979Y-159815854D01*
X116892686Y-159837533D01*
X116892800Y-159850650D01*
X116892800Y-159895100D01*
X116588000Y-159895100D01*
X116588000Y-159850650D01*
X116589965Y-159820858D01*
X116601057Y-159808640D01*
X116629066Y-159806205D01*
X116632450Y-159806200D01*
X116676900Y-159806200D01*
X116676900Y-159539500D01*
X116632450Y-159539500D01*
X116602658Y-159537534D01*
X116590440Y-159526442D01*
X116588005Y-159498433D01*
X116588000Y-159495050D01*
X116588000Y-159450600D01*
X116791200Y-159450600D01*
X116791200Y-159806200D01*
G36*
X116333699Y-159440912D02*
G01*
X116358516Y-159450885D01*
X116365016Y-159470931D01*
X116358113Y-159499630D01*
X116347462Y-159525131D01*
X116333608Y-159535481D01*
X116307593Y-159535040D01*
X116290351Y-159532606D01*
X116229116Y-159533141D01*
X116175228Y-159551791D01*
X116135106Y-159585879D01*
X116125293Y-159601368D01*
X116112681Y-159641577D01*
X116106047Y-159697735D01*
X116105400Y-159723019D01*
X116105400Y-159806200D01*
X116156200Y-159806200D01*
X116188725Y-159807545D01*
X116203179Y-159815854D01*
X116206886Y-159837533D01*
X116207000Y-159850650D01*
X116207000Y-159895100D01*
X115902200Y-159895100D01*
X115902200Y-159850650D01*
X115903737Y-159822190D01*
X115913233Y-159809542D01*
X115938010Y-159806299D01*
X115953000Y-159806200D01*
X116003800Y-159806200D01*
X116003800Y-159526800D01*
X115953000Y-159526800D01*
X115920426Y-159525295D01*
X115905946Y-159517142D01*
X115902280Y-159496881D01*
X115902200Y-159488700D01*
X115902200Y-159450600D01*
X116105400Y-159450600D01*
X116105400Y-159532890D01*
X116138393Y-159497307D01*
X116182463Y-159460769D01*
X116233745Y-159442216D01*
X116287201Y-159438094D01*
X116333699Y-159440912D01*
G37*
X116333699Y-159440912D02*
X116358516Y-159450885D01*
X116365016Y-159470931D01*
X116358113Y-159499630D01*
X116347462Y-159525131D01*
X116333608Y-159535481D01*
X116307593Y-159535040D01*
X116290351Y-159532606D01*
X116229116Y-159533141D01*
X116175228Y-159551791D01*
X116135106Y-159585879D01*
X116125293Y-159601368D01*
X116112681Y-159641577D01*
X116106047Y-159697735D01*
X116105400Y-159723019D01*
X116105400Y-159806200D01*
X116156200Y-159806200D01*
X116188725Y-159807545D01*
X116203179Y-159815854D01*
X116206886Y-159837533D01*
X116207000Y-159850650D01*
X116207000Y-159895100D01*
X115902200Y-159895100D01*
X115902200Y-159850650D01*
X115903737Y-159822190D01*
X115913233Y-159809542D01*
X115938010Y-159806299D01*
X115953000Y-159806200D01*
X116003800Y-159806200D01*
X116003800Y-159526800D01*
X115953000Y-159526800D01*
X115920426Y-159525295D01*
X115905946Y-159517142D01*
X115902280Y-159496881D01*
X115902200Y-159488700D01*
X115902200Y-159450600D01*
X116105400Y-159450600D01*
X116105400Y-159532890D01*
X116138393Y-159497307D01*
X116182463Y-159460769D01*
X116233745Y-159442216D01*
X116287201Y-159438094D01*
X116333699Y-159440912D01*
G36*
X114390114Y-159442318D02*
G01*
X114425195Y-159459123D01*
X114444674Y-159474926D01*
X114486150Y-159511953D01*
X114490239Y-159703526D01*
X114494329Y-159895100D01*
X114390900Y-159895100D01*
X114390900Y-159730907D01*
X114390314Y-159659817D01*
X114388253Y-159609877D01*
X114384258Y-159576854D01*
X114377870Y-159556520D01*
X114370942Y-159546757D01*
X114337287Y-159528974D01*
X114297560Y-159530874D01*
X114258502Y-159550204D01*
X114226851Y-159584714D01*
X114220062Y-159597154D01*
X114208927Y-159633806D01*
X114202505Y-159688629D01*
X114200400Y-159765050D01*
X114200400Y-159895100D01*
X114098800Y-159895100D01*
X114098800Y-159450600D01*
X114149600Y-159450600D01*
X114182192Y-159452142D01*
X114196681Y-159460281D01*
X114200330Y-159480282D01*
X114200400Y-159487430D01*
X114200400Y-159524260D01*
X114243580Y-159481080D01*
X114275768Y-159453238D01*
X114306315Y-159440684D01*
X114344979Y-159437900D01*
X114390114Y-159442318D01*
G37*
X114390114Y-159442318D02*
X114425195Y-159459123D01*
X114444674Y-159474926D01*
X114486150Y-159511953D01*
X114490239Y-159703526D01*
X114494329Y-159895100D01*
X114390900Y-159895100D01*
X114390900Y-159730907D01*
X114390314Y-159659817D01*
X114388253Y-159609877D01*
X114384258Y-159576854D01*
X114377870Y-159556520D01*
X114370942Y-159546757D01*
X114337287Y-159528974D01*
X114297560Y-159530874D01*
X114258502Y-159550204D01*
X114226851Y-159584714D01*
X114220062Y-159597154D01*
X114208927Y-159633806D01*
X114202505Y-159688629D01*
X114200400Y-159765050D01*
X114200400Y-159895100D01*
X114098800Y-159895100D01*
X114098800Y-159450600D01*
X114149600Y-159450600D01*
X114182192Y-159452142D01*
X114196681Y-159460281D01*
X114200330Y-159480282D01*
X114200400Y-159487430D01*
X114200400Y-159524260D01*
X114243580Y-159481080D01*
X114275768Y-159453238D01*
X114306315Y-159440684D01*
X114344979Y-159437900D01*
X114390114Y-159442318D01*
G36*
X113743200Y-159806200D02*
G01*
X113794000Y-159806200D01*
X113826525Y-159807545D01*
X113840979Y-159815854D01*
X113844686Y-159837533D01*
X113844800Y-159850650D01*
X113844800Y-159895100D01*
X113540000Y-159895100D01*
X113540000Y-159850650D01*
X113541965Y-159820858D01*
X113553057Y-159808640D01*
X113581066Y-159806205D01*
X113584450Y-159806200D01*
X113628900Y-159806200D01*
X113628900Y-159539500D01*
X113584450Y-159539500D01*
X113554658Y-159537534D01*
X113542440Y-159526442D01*
X113540005Y-159498433D01*
X113540000Y-159495050D01*
X113540000Y-159450600D01*
X113743200Y-159450600D01*
X113743200Y-159806200D01*
G37*
X113743200Y-159806200D02*
X113794000Y-159806200D01*
X113826525Y-159807545D01*
X113840979Y-159815854D01*
X113844686Y-159837533D01*
X113844800Y-159850650D01*
X113844800Y-159895100D01*
X113540000Y-159895100D01*
X113540000Y-159850650D01*
X113541965Y-159820858D01*
X113553057Y-159808640D01*
X113581066Y-159806205D01*
X113584450Y-159806200D01*
X113628900Y-159806200D01*
X113628900Y-159539500D01*
X113584450Y-159539500D01*
X113554658Y-159537534D01*
X113542440Y-159526442D01*
X113540005Y-159498433D01*
X113540000Y-159495050D01*
X113540000Y-159450600D01*
X113743200Y-159450600D01*
X113743200Y-159806200D01*
G36*
X112561314Y-159442318D02*
G01*
X112596395Y-159459123D01*
X112615874Y-159474926D01*
X112657350Y-159511953D01*
X112661439Y-159703526D01*
X112665529Y-159895100D01*
X112562100Y-159895100D01*
X112562100Y-159730907D01*
X112561514Y-159659817D01*
X112559453Y-159609877D01*
X112555458Y-159576854D01*
X112549070Y-159556520D01*
X112542142Y-159546757D01*
X112508487Y-159528974D01*
X112468760Y-159530874D01*
X112429702Y-159550204D01*
X112398051Y-159584714D01*
X112391262Y-159597154D01*
X112380127Y-159633806D01*
X112373705Y-159688629D01*
X112371600Y-159765050D01*
X112371600Y-159895100D01*
X112270000Y-159895100D01*
X112270000Y-159450600D01*
X112320800Y-159450600D01*
X112353392Y-159452142D01*
X112367881Y-159460281D01*
X112371530Y-159480282D01*
X112371600Y-159487430D01*
X112371600Y-159524260D01*
X112414780Y-159481080D01*
X112446968Y-159453238D01*
X112477515Y-159440684D01*
X112516179Y-159437900D01*
X112561314Y-159442318D01*
G37*
X112561314Y-159442318D02*
X112596395Y-159459123D01*
X112615874Y-159474926D01*
X112657350Y-159511953D01*
X112661439Y-159703526D01*
X112665529Y-159895100D01*
X112562100Y-159895100D01*
X112562100Y-159730907D01*
X112561514Y-159659817D01*
X112559453Y-159609877D01*
X112555458Y-159576854D01*
X112549070Y-159556520D01*
X112542142Y-159546757D01*
X112508487Y-159528974D01*
X112468760Y-159530874D01*
X112429702Y-159550204D01*
X112398051Y-159584714D01*
X112391262Y-159597154D01*
X112380127Y-159633806D01*
X112373705Y-159688629D01*
X112371600Y-159765050D01*
X112371600Y-159895100D01*
X112270000Y-159895100D01*
X112270000Y-159450600D01*
X112320800Y-159450600D01*
X112353392Y-159452142D01*
X112367881Y-159460281D01*
X112371530Y-159480282D01*
X112371600Y-159487430D01*
X112371600Y-159524260D01*
X112414780Y-159481080D01*
X112446968Y-159453238D01*
X112477515Y-159440684D01*
X112516179Y-159437900D01*
X112561314Y-159442318D01*
G36*
X112054100Y-159361700D02*
G01*
X111762000Y-159361700D01*
X111762000Y-159539500D01*
X111990600Y-159539500D01*
X111990600Y-159628400D01*
X111762000Y-159628400D01*
X111762000Y-159806200D01*
X112054100Y-159806200D01*
X112054100Y-159895100D01*
X111660400Y-159895100D01*
X111660400Y-159272800D01*
X112054100Y-159272800D01*
X112054100Y-159361700D01*
G37*
X112054100Y-159361700D02*
X111762000Y-159361700D01*
X111762000Y-159539500D01*
X111990600Y-159539500D01*
X111990600Y-159628400D01*
X111762000Y-159628400D01*
X111762000Y-159806200D01*
X112054100Y-159806200D01*
X112054100Y-159895100D01*
X111660400Y-159895100D01*
X111660400Y-159272800D01*
X112054100Y-159272800D01*
X112054100Y-159361700D01*
G36*
X110745214Y-159442318D02*
G01*
X110780295Y-159459123D01*
X110799774Y-159474926D01*
X110841250Y-159511953D01*
X110845339Y-159703526D01*
X110849429Y-159895100D01*
X110746000Y-159895100D01*
X110746000Y-159730907D01*
X110745414Y-159659817D01*
X110743353Y-159609877D01*
X110739358Y-159576854D01*
X110732970Y-159556520D01*
X110726042Y-159546757D01*
X110692387Y-159528974D01*
X110652660Y-159530874D01*
X110613602Y-159550204D01*
X110581951Y-159584714D01*
X110575162Y-159597154D01*
X110564027Y-159633806D01*
X110557605Y-159688629D01*
X110555500Y-159765050D01*
X110555500Y-159895100D01*
X110453900Y-159895100D01*
X110453900Y-159450600D01*
X110504700Y-159450600D01*
X110537292Y-159452142D01*
X110551781Y-159460281D01*
X110555430Y-159480282D01*
X110555500Y-159487430D01*
X110555500Y-159524260D01*
X110598680Y-159481080D01*
X110630868Y-159453238D01*
X110661415Y-159440684D01*
X110700079Y-159437900D01*
X110745214Y-159442318D01*
G37*
X110745214Y-159442318D02*
X110780295Y-159459123D01*
X110799774Y-159474926D01*
X110841250Y-159511953D01*
X110845339Y-159703526D01*
X110849429Y-159895100D01*
X110746000Y-159895100D01*
X110746000Y-159730907D01*
X110745414Y-159659817D01*
X110743353Y-159609877D01*
X110739358Y-159576854D01*
X110732970Y-159556520D01*
X110726042Y-159546757D01*
X110692387Y-159528974D01*
X110652660Y-159530874D01*
X110613602Y-159550204D01*
X110581951Y-159584714D01*
X110575162Y-159597154D01*
X110564027Y-159633806D01*
X110557605Y-159688629D01*
X110555500Y-159765050D01*
X110555500Y-159895100D01*
X110453900Y-159895100D01*
X110453900Y-159450600D01*
X110504700Y-159450600D01*
X110537292Y-159452142D01*
X110551781Y-159460281D01*
X110555430Y-159480282D01*
X110555500Y-159487430D01*
X110555500Y-159524260D01*
X110598680Y-159481080D01*
X110630868Y-159453238D01*
X110661415Y-159440684D01*
X110700079Y-159437900D01*
X110745214Y-159442318D01*
G36*
X108916414Y-159442318D02*
G01*
X108951495Y-159459123D01*
X108970974Y-159474926D01*
X109012450Y-159511953D01*
X109016539Y-159703526D01*
X109020629Y-159895100D01*
X108917200Y-159895100D01*
X108917200Y-159730907D01*
X108916614Y-159659817D01*
X108914553Y-159609877D01*
X108910558Y-159576854D01*
X108904170Y-159556520D01*
X108897242Y-159546757D01*
X108863587Y-159528974D01*
X108823860Y-159530874D01*
X108784802Y-159550204D01*
X108753151Y-159584714D01*
X108746362Y-159597154D01*
X108735227Y-159633806D01*
X108728805Y-159688629D01*
X108726700Y-159765050D01*
X108726700Y-159895100D01*
X108625100Y-159895100D01*
X108625100Y-159450600D01*
X108675900Y-159450600D01*
X108708492Y-159452142D01*
X108722981Y-159460281D01*
X108726630Y-159480282D01*
X108726700Y-159487430D01*
X108726700Y-159524260D01*
X108769880Y-159481080D01*
X108802068Y-159453238D01*
X108832615Y-159440684D01*
X108871279Y-159437900D01*
X108916414Y-159442318D01*
G37*
X108916414Y-159442318D02*
X108951495Y-159459123D01*
X108970974Y-159474926D01*
X109012450Y-159511953D01*
X109016539Y-159703526D01*
X109020629Y-159895100D01*
X108917200Y-159895100D01*
X108917200Y-159730907D01*
X108916614Y-159659817D01*
X108914553Y-159609877D01*
X108910558Y-159576854D01*
X108904170Y-159556520D01*
X108897242Y-159546757D01*
X108863587Y-159528974D01*
X108823860Y-159530874D01*
X108784802Y-159550204D01*
X108753151Y-159584714D01*
X108746362Y-159597154D01*
X108735227Y-159633806D01*
X108728805Y-159688629D01*
X108726700Y-159765050D01*
X108726700Y-159895100D01*
X108625100Y-159895100D01*
X108625100Y-159450600D01*
X108675900Y-159450600D01*
X108708492Y-159452142D01*
X108722981Y-159460281D01*
X108726630Y-159480282D01*
X108726700Y-159487430D01*
X108726700Y-159524260D01*
X108769880Y-159481080D01*
X108802068Y-159453238D01*
X108832615Y-159440684D01*
X108871279Y-159437900D01*
X108916414Y-159442318D01*
G36*
X107507500Y-159527200D02*
G01*
X107543179Y-159487268D01*
X107572611Y-159460600D01*
X107606477Y-159446655D01*
X107642965Y-159441176D01*
X107683943Y-159439143D01*
X107711809Y-159445321D01*
X107738423Y-159463284D01*
X107750161Y-159473485D01*
X107793250Y-159511953D01*
X107797339Y-159703526D01*
X107801429Y-159895100D01*
X107698000Y-159895100D01*
X107698000Y-159730907D01*
X107697414Y-159659817D01*
X107695353Y-159609877D01*
X107691358Y-159576854D01*
X107684970Y-159556520D01*
X107678042Y-159546757D01*
X107644387Y-159528974D01*
X107604660Y-159530874D01*
X107565602Y-159550204D01*
X107533951Y-159584714D01*
X107527162Y-159597154D01*
X107516027Y-159633806D01*
X107509605Y-159688629D01*
X107507500Y-159765050D01*
X107507500Y-159895100D01*
X107405900Y-159895100D01*
X107405900Y-159272800D01*
X107507500Y-159272800D01*
X107507500Y-159527200D01*
G37*
X107507500Y-159527200D02*
X107543179Y-159487268D01*
X107572611Y-159460600D01*
X107606477Y-159446655D01*
X107642965Y-159441176D01*
X107683943Y-159439143D01*
X107711809Y-159445321D01*
X107738423Y-159463284D01*
X107750161Y-159473485D01*
X107793250Y-159511953D01*
X107797339Y-159703526D01*
X107801429Y-159895100D01*
X107698000Y-159895100D01*
X107698000Y-159730907D01*
X107697414Y-159659817D01*
X107695353Y-159609877D01*
X107691358Y-159576854D01*
X107684970Y-159556520D01*
X107678042Y-159546757D01*
X107644387Y-159528974D01*
X107604660Y-159530874D01*
X107565602Y-159550204D01*
X107533951Y-159584714D01*
X107527162Y-159597154D01*
X107516027Y-159633806D01*
X107509605Y-159688629D01*
X107507500Y-159765050D01*
X107507500Y-159895100D01*
X107405900Y-159895100D01*
X107405900Y-159272800D01*
X107507500Y-159272800D01*
X107507500Y-159527200D01*
G36*
X115580413Y-159445787D02*
G01*
X115642081Y-159470491D01*
X115682518Y-159503111D01*
X115717361Y-159555044D01*
X115744231Y-159623481D01*
X115755115Y-159669675D01*
X115763650Y-159717300D01*
X115382044Y-159717300D01*
X115396231Y-159748437D01*
X115422015Y-159779278D01*
X115463617Y-159803967D01*
X115511480Y-159817471D01*
X115529469Y-159818621D01*
X115563706Y-159813124D01*
X115605711Y-159799704D01*
X115619304Y-159793985D01*
X115672959Y-159769628D01*
X115698501Y-159802101D01*
X115724044Y-159834573D01*
X115692542Y-159859353D01*
X115634692Y-159890285D01*
X115564466Y-159905651D01*
X115490081Y-159904756D01*
X115419751Y-159886909D01*
X115410914Y-159883118D01*
X115354086Y-159844411D01*
X115313056Y-159790243D01*
X115288965Y-159725896D01*
X115282956Y-159656654D01*
X115292211Y-159608435D01*
X115393971Y-159608435D01*
X115404865Y-159619892D01*
X115436586Y-159626036D01*
X115491057Y-159628276D01*
X115514850Y-159628400D01*
X115574137Y-159627503D01*
X115611624Y-159624482D01*
X115630856Y-159618842D01*
X115635500Y-159611563D01*
X115626899Y-159592145D01*
X115605878Y-159566977D01*
X115602726Y-159563938D01*
X115568051Y-159541118D01*
X115523684Y-159533285D01*
X115514850Y-159533150D01*
X115467831Y-159538951D01*
X115432384Y-159559083D01*
X115426973Y-159563938D01*
X115401981Y-159590254D01*
X115393971Y-159608435D01*
X115292211Y-159608435D01*
X115296172Y-159587800D01*
X115329753Y-159524617D01*
X115332623Y-159520889D01*
X115382212Y-159476662D01*
X115444216Y-159449191D01*
X115512370Y-159438794D01*
X115580413Y-159445787D01*
G37*
X115580413Y-159445787D02*
X115642081Y-159470491D01*
X115682518Y-159503111D01*
X115717361Y-159555044D01*
X115744231Y-159623481D01*
X115755115Y-159669675D01*
X115763650Y-159717300D01*
X115382044Y-159717300D01*
X115396231Y-159748437D01*
X115422015Y-159779278D01*
X115463617Y-159803967D01*
X115511480Y-159817471D01*
X115529469Y-159818621D01*
X115563706Y-159813124D01*
X115605711Y-159799704D01*
X115619304Y-159793985D01*
X115672959Y-159769628D01*
X115698501Y-159802101D01*
X115724044Y-159834573D01*
X115692542Y-159859353D01*
X115634692Y-159890285D01*
X115564466Y-159905651D01*
X115490081Y-159904756D01*
X115419751Y-159886909D01*
X115410914Y-159883118D01*
X115354086Y-159844411D01*
X115313056Y-159790243D01*
X115288965Y-159725896D01*
X115282956Y-159656654D01*
X115292211Y-159608435D01*
X115393971Y-159608435D01*
X115404865Y-159619892D01*
X115436586Y-159626036D01*
X115491057Y-159628276D01*
X115514850Y-159628400D01*
X115574137Y-159627503D01*
X115611624Y-159624482D01*
X115630856Y-159618842D01*
X115635500Y-159611563D01*
X115626899Y-159592145D01*
X115605878Y-159566977D01*
X115602726Y-159563938D01*
X115568051Y-159541118D01*
X115523684Y-159533285D01*
X115514850Y-159533150D01*
X115467831Y-159538951D01*
X115432384Y-159559083D01*
X115426973Y-159563938D01*
X115401981Y-159590254D01*
X115393971Y-159608435D01*
X115292211Y-159608435D01*
X115296172Y-159587800D01*
X115329753Y-159524617D01*
X115332623Y-159520889D01*
X115382212Y-159476662D01*
X115444216Y-159449191D01*
X115512370Y-159438794D01*
X115580413Y-159445787D01*
G36*
X114970813Y-159445787D02*
G01*
X115032481Y-159470491D01*
X115072918Y-159503111D01*
X115107761Y-159555044D01*
X115134631Y-159623481D01*
X115145515Y-159669675D01*
X115154050Y-159717300D01*
X114772444Y-159717300D01*
X114786631Y-159748437D01*
X114812415Y-159779278D01*
X114854017Y-159803967D01*
X114901880Y-159817471D01*
X114919869Y-159818621D01*
X114954106Y-159813124D01*
X114996111Y-159799704D01*
X115009704Y-159793985D01*
X115063359Y-159769628D01*
X115088901Y-159802101D01*
X115114444Y-159834573D01*
X115082942Y-159859353D01*
X115025092Y-159890285D01*
X114954866Y-159905651D01*
X114880481Y-159904756D01*
X114810151Y-159886909D01*
X114801314Y-159883118D01*
X114744486Y-159844411D01*
X114703456Y-159790243D01*
X114679365Y-159725896D01*
X114673356Y-159656654D01*
X114682611Y-159608435D01*
X114784371Y-159608435D01*
X114795265Y-159619892D01*
X114826986Y-159626036D01*
X114881457Y-159628276D01*
X114905250Y-159628400D01*
X114964537Y-159627503D01*
X115002024Y-159624482D01*
X115021256Y-159618842D01*
X115025900Y-159611563D01*
X115017299Y-159592145D01*
X114996278Y-159566977D01*
X114993126Y-159563938D01*
X114958451Y-159541118D01*
X114914084Y-159533285D01*
X114905250Y-159533150D01*
X114858231Y-159538951D01*
X114822784Y-159559083D01*
X114817373Y-159563938D01*
X114792381Y-159590254D01*
X114784371Y-159608435D01*
X114682611Y-159608435D01*
X114686572Y-159587800D01*
X114720153Y-159524617D01*
X114723023Y-159520889D01*
X114772612Y-159476662D01*
X114834616Y-159449191D01*
X114902770Y-159438794D01*
X114970813Y-159445787D01*
G37*
X114970813Y-159445787D02*
X115032481Y-159470491D01*
X115072918Y-159503111D01*
X115107761Y-159555044D01*
X115134631Y-159623481D01*
X115145515Y-159669675D01*
X115154050Y-159717300D01*
X114772444Y-159717300D01*
X114786631Y-159748437D01*
X114812415Y-159779278D01*
X114854017Y-159803967D01*
X114901880Y-159817471D01*
X114919869Y-159818621D01*
X114954106Y-159813124D01*
X114996111Y-159799704D01*
X115009704Y-159793985D01*
X115063359Y-159769628D01*
X115088901Y-159802101D01*
X115114444Y-159834573D01*
X115082942Y-159859353D01*
X115025092Y-159890285D01*
X114954866Y-159905651D01*
X114880481Y-159904756D01*
X114810151Y-159886909D01*
X114801314Y-159883118D01*
X114744486Y-159844411D01*
X114703456Y-159790243D01*
X114679365Y-159725896D01*
X114673356Y-159656654D01*
X114682611Y-159608435D01*
X114784371Y-159608435D01*
X114795265Y-159619892D01*
X114826986Y-159626036D01*
X114881457Y-159628276D01*
X114905250Y-159628400D01*
X114964537Y-159627503D01*
X115002024Y-159624482D01*
X115021256Y-159618842D01*
X115025900Y-159611563D01*
X115017299Y-159592145D01*
X114996278Y-159566977D01*
X114993126Y-159563938D01*
X114958451Y-159541118D01*
X114914084Y-159533285D01*
X114905250Y-159533150D01*
X114858231Y-159538951D01*
X114822784Y-159559083D01*
X114817373Y-159563938D01*
X114792381Y-159590254D01*
X114784371Y-159608435D01*
X114682611Y-159608435D01*
X114686572Y-159587800D01*
X114720153Y-159524617D01*
X114723023Y-159520889D01*
X114772612Y-159476662D01*
X114834616Y-159449191D01*
X114902770Y-159438794D01*
X114970813Y-159445787D01*
G36*
X110106713Y-159445787D02*
G01*
X110168381Y-159470491D01*
X110208818Y-159503111D01*
X110243661Y-159555044D01*
X110270531Y-159623481D01*
X110281415Y-159669675D01*
X110289950Y-159717300D01*
X109908344Y-159717300D01*
X109922531Y-159748437D01*
X109948315Y-159779278D01*
X109989917Y-159803967D01*
X110037780Y-159817471D01*
X110055769Y-159818621D01*
X110090006Y-159813124D01*
X110132011Y-159799704D01*
X110145604Y-159793985D01*
X110199259Y-159769628D01*
X110224801Y-159802101D01*
X110250344Y-159834573D01*
X110218842Y-159859353D01*
X110160992Y-159890285D01*
X110090766Y-159905651D01*
X110016381Y-159904756D01*
X109946051Y-159886909D01*
X109937214Y-159883118D01*
X109880386Y-159844411D01*
X109839356Y-159790243D01*
X109815265Y-159725896D01*
X109809256Y-159656654D01*
X109818511Y-159608435D01*
X109920271Y-159608435D01*
X109931165Y-159619892D01*
X109962886Y-159626036D01*
X110017357Y-159628276D01*
X110041150Y-159628400D01*
X110100437Y-159627503D01*
X110137924Y-159624482D01*
X110157156Y-159618842D01*
X110161800Y-159611563D01*
X110153199Y-159592145D01*
X110132178Y-159566977D01*
X110129026Y-159563938D01*
X110094351Y-159541118D01*
X110049984Y-159533285D01*
X110041150Y-159533150D01*
X109994131Y-159538951D01*
X109958684Y-159559083D01*
X109953273Y-159563938D01*
X109928281Y-159590254D01*
X109920271Y-159608435D01*
X109818511Y-159608435D01*
X109822472Y-159587800D01*
X109856053Y-159524617D01*
X109858923Y-159520889D01*
X109908512Y-159476662D01*
X109970516Y-159449191D01*
X110038670Y-159438794D01*
X110106713Y-159445787D01*
G37*
X110106713Y-159445787D02*
X110168381Y-159470491D01*
X110208818Y-159503111D01*
X110243661Y-159555044D01*
X110270531Y-159623481D01*
X110281415Y-159669675D01*
X110289950Y-159717300D01*
X109908344Y-159717300D01*
X109922531Y-159748437D01*
X109948315Y-159779278D01*
X109989917Y-159803967D01*
X110037780Y-159817471D01*
X110055769Y-159818621D01*
X110090006Y-159813124D01*
X110132011Y-159799704D01*
X110145604Y-159793985D01*
X110199259Y-159769628D01*
X110224801Y-159802101D01*
X110250344Y-159834573D01*
X110218842Y-159859353D01*
X110160992Y-159890285D01*
X110090766Y-159905651D01*
X110016381Y-159904756D01*
X109946051Y-159886909D01*
X109937214Y-159883118D01*
X109880386Y-159844411D01*
X109839356Y-159790243D01*
X109815265Y-159725896D01*
X109809256Y-159656654D01*
X109818511Y-159608435D01*
X109920271Y-159608435D01*
X109931165Y-159619892D01*
X109962886Y-159626036D01*
X110017357Y-159628276D01*
X110041150Y-159628400D01*
X110100437Y-159627503D01*
X110137924Y-159624482D01*
X110157156Y-159618842D01*
X110161800Y-159611563D01*
X110153199Y-159592145D01*
X110132178Y-159566977D01*
X110129026Y-159563938D01*
X110094351Y-159541118D01*
X110049984Y-159533285D01*
X110041150Y-159533150D01*
X109994131Y-159538951D01*
X109958684Y-159559083D01*
X109953273Y-159563938D01*
X109928281Y-159590254D01*
X109920271Y-159608435D01*
X109818511Y-159608435D01*
X109822472Y-159587800D01*
X109856053Y-159524617D01*
X109858923Y-159520889D01*
X109908512Y-159476662D01*
X109970516Y-159449191D01*
X110038670Y-159438794D01*
X110106713Y-159445787D01*
G36*
X109500632Y-159444386D02*
G01*
X109555840Y-159458028D01*
X109595922Y-159478107D01*
X109600489Y-159481961D01*
X109609083Y-159503001D01*
X109604268Y-159528982D01*
X109590296Y-159550658D01*
X109571419Y-159558784D01*
X109565812Y-159557362D01*
X109515036Y-159541203D01*
X109460246Y-159532510D01*
X109407734Y-159531212D01*
X109363790Y-159537235D01*
X109334704Y-159550507D01*
X109327596Y-159560104D01*
X109325073Y-159576955D01*
X109334520Y-159590282D01*
X109359387Y-159601783D01*
X109403120Y-159613152D01*
X109457231Y-159623894D01*
X109533536Y-159641949D01*
X109587294Y-159664676D01*
X109621223Y-159694158D01*
X109638045Y-159732478D01*
X109641100Y-159764728D01*
X109629745Y-159815487D01*
X109598029Y-159856412D01*
X109549475Y-159886315D01*
X109487607Y-159904004D01*
X109415947Y-159908289D01*
X109338019Y-159897982D01*
X109288425Y-159883852D01*
X109250170Y-159869782D01*
X109222498Y-159858020D01*
X109213690Y-159852924D01*
X109212751Y-159837125D01*
X109220877Y-159809004D01*
X109222234Y-159805634D01*
X109231168Y-159785529D01*
X109241020Y-159775070D01*
X109257453Y-159773986D01*
X109286129Y-159782007D01*
X109332712Y-159798863D01*
X109336300Y-159800186D01*
X109410662Y-159815855D01*
X109454522Y-159815520D01*
X109506786Y-159805698D01*
X109535099Y-159790062D01*
X109539457Y-159771258D01*
X109519859Y-159751932D01*
X109476303Y-159734730D01*
X109454593Y-159729532D01*
X109384467Y-159714410D01*
X109334551Y-159701934D01*
X109300033Y-159690387D01*
X109276098Y-159678053D01*
X109257936Y-159663218D01*
X109252337Y-159657425D01*
X109226407Y-159613509D01*
X109222862Y-159566210D01*
X109239996Y-159520198D01*
X109276104Y-159480141D01*
X109327601Y-159451407D01*
X109378179Y-159440142D01*
X109438634Y-159438113D01*
X109500632Y-159444386D01*
G37*
X109500632Y-159444386D02*
X109555840Y-159458028D01*
X109595922Y-159478107D01*
X109600489Y-159481961D01*
X109609083Y-159503001D01*
X109604268Y-159528982D01*
X109590296Y-159550658D01*
X109571419Y-159558784D01*
X109565812Y-159557362D01*
X109515036Y-159541203D01*
X109460246Y-159532510D01*
X109407734Y-159531212D01*
X109363790Y-159537235D01*
X109334704Y-159550507D01*
X109327596Y-159560104D01*
X109325073Y-159576955D01*
X109334520Y-159590282D01*
X109359387Y-159601783D01*
X109403120Y-159613152D01*
X109457231Y-159623894D01*
X109533536Y-159641949D01*
X109587294Y-159664676D01*
X109621223Y-159694158D01*
X109638045Y-159732478D01*
X109641100Y-159764728D01*
X109629745Y-159815487D01*
X109598029Y-159856412D01*
X109549475Y-159886315D01*
X109487607Y-159904004D01*
X109415947Y-159908289D01*
X109338019Y-159897982D01*
X109288425Y-159883852D01*
X109250170Y-159869782D01*
X109222498Y-159858020D01*
X109213690Y-159852924D01*
X109212751Y-159837125D01*
X109220877Y-159809004D01*
X109222234Y-159805634D01*
X109231168Y-159785529D01*
X109241020Y-159775070D01*
X109257453Y-159773986D01*
X109286129Y-159782007D01*
X109332712Y-159798863D01*
X109336300Y-159800186D01*
X109410662Y-159815855D01*
X109454522Y-159815520D01*
X109506786Y-159805698D01*
X109535099Y-159790062D01*
X109539457Y-159771258D01*
X109519859Y-159751932D01*
X109476303Y-159734730D01*
X109454593Y-159729532D01*
X109384467Y-159714410D01*
X109334551Y-159701934D01*
X109300033Y-159690387D01*
X109276098Y-159678053D01*
X109257936Y-159663218D01*
X109252337Y-159657425D01*
X109226407Y-159613509D01*
X109222862Y-159566210D01*
X109239996Y-159520198D01*
X109276104Y-159480141D01*
X109327601Y-159451407D01*
X109378179Y-159440142D01*
X109438634Y-159438113D01*
X109500632Y-159444386D01*
G36*
X108310260Y-159456458D02*
G01*
X108363969Y-159489144D01*
X108381667Y-159507923D01*
X108392735Y-159523957D01*
X108400377Y-159542230D01*
X108405218Y-159567537D01*
X108407884Y-159604675D01*
X108409001Y-159658440D01*
X108409200Y-159719012D01*
X108409200Y-159895100D01*
X108358400Y-159895100D01*
X108325216Y-159893002D01*
X108310537Y-159884441D01*
X108307600Y-159869319D01*
X108306428Y-159853311D01*
X108298873Y-159851680D01*
X108278879Y-159864802D01*
X108269535Y-159871681D01*
X108223244Y-159894024D01*
X108158225Y-159905114D01*
X108155474Y-159905321D01*
X108112093Y-159907472D01*
X108084204Y-159903939D01*
X108062026Y-159891546D01*
X108035775Y-159867115D01*
X108034789Y-159866129D01*
X108005543Y-159832043D01*
X107992460Y-159800556D01*
X107990100Y-159771764D01*
X107993730Y-159754688D01*
X108093668Y-159754688D01*
X108099133Y-159788354D01*
X108124725Y-159809379D01*
X108167574Y-159815900D01*
X108185850Y-159814447D01*
X108227983Y-159803725D01*
X108265066Y-159785989D01*
X108268400Y-159783649D01*
X108293180Y-159755884D01*
X108305268Y-159725569D01*
X108306058Y-159705397D01*
X108297957Y-159695600D01*
X108274768Y-159692604D01*
X108248118Y-159692616D01*
X108180418Y-159698505D01*
X108130383Y-159713688D01*
X108100657Y-159737104D01*
X108093668Y-159754688D01*
X107993730Y-159754688D01*
X108001569Y-159717825D01*
X108035378Y-159674750D01*
X108090630Y-159643148D01*
X108166427Y-159623630D01*
X108216183Y-159618289D01*
X108263879Y-159614585D01*
X108291287Y-159609955D01*
X108303505Y-159602538D01*
X108305629Y-159590475D01*
X108305083Y-159585836D01*
X108291827Y-159560933D01*
X108267128Y-159540309D01*
X108237136Y-159530639D01*
X108195911Y-159530668D01*
X108139406Y-159540783D01*
X108071899Y-159558898D01*
X108049367Y-159558480D01*
X108032747Y-159537849D01*
X108030463Y-159533045D01*
X108021032Y-159506525D01*
X108024816Y-159488529D01*
X108045593Y-159474106D01*
X108087143Y-159458303D01*
X108087627Y-159458138D01*
X108167157Y-159440120D01*
X108243012Y-159439838D01*
X108310260Y-159456458D01*
G37*
X108310260Y-159456458D02*
X108363969Y-159489144D01*
X108381667Y-159507923D01*
X108392735Y-159523957D01*
X108400377Y-159542230D01*
X108405218Y-159567537D01*
X108407884Y-159604675D01*
X108409001Y-159658440D01*
X108409200Y-159719012D01*
X108409200Y-159895100D01*
X108358400Y-159895100D01*
X108325216Y-159893002D01*
X108310537Y-159884441D01*
X108307600Y-159869319D01*
X108306428Y-159853311D01*
X108298873Y-159851680D01*
X108278879Y-159864802D01*
X108269535Y-159871681D01*
X108223244Y-159894024D01*
X108158225Y-159905114D01*
X108155474Y-159905321D01*
X108112093Y-159907472D01*
X108084204Y-159903939D01*
X108062026Y-159891546D01*
X108035775Y-159867115D01*
X108034789Y-159866129D01*
X108005543Y-159832043D01*
X107992460Y-159800556D01*
X107990100Y-159771764D01*
X107993730Y-159754688D01*
X108093668Y-159754688D01*
X108099133Y-159788354D01*
X108124725Y-159809379D01*
X108167574Y-159815900D01*
X108185850Y-159814447D01*
X108227983Y-159803725D01*
X108265066Y-159785989D01*
X108268400Y-159783649D01*
X108293180Y-159755884D01*
X108305268Y-159725569D01*
X108306058Y-159705397D01*
X108297957Y-159695600D01*
X108274768Y-159692604D01*
X108248118Y-159692616D01*
X108180418Y-159698505D01*
X108130383Y-159713688D01*
X108100657Y-159737104D01*
X108093668Y-159754688D01*
X107993730Y-159754688D01*
X108001569Y-159717825D01*
X108035378Y-159674750D01*
X108090630Y-159643148D01*
X108166427Y-159623630D01*
X108216183Y-159618289D01*
X108263879Y-159614585D01*
X108291287Y-159609955D01*
X108303505Y-159602538D01*
X108305629Y-159590475D01*
X108305083Y-159585836D01*
X108291827Y-159560933D01*
X108267128Y-159540309D01*
X108237136Y-159530639D01*
X108195911Y-159530668D01*
X108139406Y-159540783D01*
X108071899Y-159558898D01*
X108049367Y-159558480D01*
X108032747Y-159537849D01*
X108030463Y-159533045D01*
X108021032Y-159506525D01*
X108024816Y-159488529D01*
X108045593Y-159474106D01*
X108087143Y-159458303D01*
X108087627Y-159458138D01*
X108167157Y-159440120D01*
X108243012Y-159439838D01*
X108310260Y-159456458D01*
G36*
X107071766Y-159449125D02*
G01*
X107136474Y-159481026D01*
X107185862Y-159530946D01*
X107217285Y-159596222D01*
X107228100Y-159672850D01*
X107216996Y-159750946D01*
X107185342Y-159815890D01*
X107135619Y-159865231D01*
X107070311Y-159896521D01*
X106991901Y-159907311D01*
X106990382Y-159907302D01*
X106944577Y-159903339D01*
X106902640Y-159894004D01*
X106891550Y-159889872D01*
X106834427Y-159851464D01*
X106792316Y-159796767D01*
X106767086Y-159731225D01*
X106761549Y-159670613D01*
X106863689Y-159670613D01*
X106870887Y-159721333D01*
X106893418Y-159765316D01*
X106929178Y-159797772D01*
X106976060Y-159813913D01*
X107011517Y-159813383D01*
X107051518Y-159799561D01*
X107087147Y-159775119D01*
X107087717Y-159774555D01*
X107107668Y-159749695D01*
X107117404Y-159720658D01*
X107120137Y-159677372D01*
X107120150Y-159672850D01*
X107117996Y-159628557D01*
X107109183Y-159599009D01*
X107090186Y-159573742D01*
X107084936Y-159568363D01*
X107054595Y-159544450D01*
X107020047Y-159534461D01*
X106991761Y-159533150D01*
X106950653Y-159536400D01*
X106922923Y-159549203D01*
X106903716Y-159568125D01*
X106873930Y-159617947D01*
X106863689Y-159670613D01*
X106761549Y-159670613D01*
X106760605Y-159660283D01*
X106774742Y-159589388D01*
X106782203Y-159571250D01*
X106822955Y-159506733D01*
X106876394Y-159463869D01*
X106944061Y-159441689D01*
X106994384Y-159437900D01*
X107071766Y-159449125D01*
G37*
X107071766Y-159449125D02*
X107136474Y-159481026D01*
X107185862Y-159530946D01*
X107217285Y-159596222D01*
X107228100Y-159672850D01*
X107216996Y-159750946D01*
X107185342Y-159815890D01*
X107135619Y-159865231D01*
X107070311Y-159896521D01*
X106991901Y-159907311D01*
X106990382Y-159907302D01*
X106944577Y-159903339D01*
X106902640Y-159894004D01*
X106891550Y-159889872D01*
X106834427Y-159851464D01*
X106792316Y-159796767D01*
X106767086Y-159731225D01*
X106761549Y-159670613D01*
X106863689Y-159670613D01*
X106870887Y-159721333D01*
X106893418Y-159765316D01*
X106929178Y-159797772D01*
X106976060Y-159813913D01*
X107011517Y-159813383D01*
X107051518Y-159799561D01*
X107087147Y-159775119D01*
X107087717Y-159774555D01*
X107107668Y-159749695D01*
X107117404Y-159720658D01*
X107120137Y-159677372D01*
X107120150Y-159672850D01*
X107117996Y-159628557D01*
X107109183Y-159599009D01*
X107090186Y-159573742D01*
X107084936Y-159568363D01*
X107054595Y-159544450D01*
X107020047Y-159534461D01*
X106991761Y-159533150D01*
X106950653Y-159536400D01*
X106922923Y-159549203D01*
X106903716Y-159568125D01*
X106873930Y-159617947D01*
X106863689Y-159670613D01*
X106761549Y-159670613D01*
X106760605Y-159660283D01*
X106774742Y-159589388D01*
X106782203Y-159571250D01*
X106822955Y-159506733D01*
X106876394Y-159463869D01*
X106944061Y-159441689D01*
X106994384Y-159437900D01*
X107071766Y-159449125D01*
G36*
X106580400Y-159511409D02*
G01*
X106580207Y-159595945D01*
X106579354Y-159659353D01*
X106577427Y-159705900D01*
X106574013Y-159739855D01*
X106568700Y-159765488D01*
X106561073Y-159787068D01*
X106551825Y-159806684D01*
X106514747Y-159859147D01*
X106478800Y-159885555D01*
X106426340Y-159901642D01*
X106364265Y-159906377D01*
X106305952Y-159899199D01*
X106288306Y-159893532D01*
X106239112Y-159863215D01*
X106195891Y-159817614D01*
X106179143Y-159790955D01*
X106164437Y-159757641D01*
X106165977Y-159737654D01*
X106185821Y-159723253D01*
X106198633Y-159717617D01*
X106235503Y-159708790D01*
X106257582Y-159717789D01*
X106262900Y-159735970D01*
X106273231Y-159757685D01*
X106298688Y-159782819D01*
X106330963Y-159804987D01*
X106361750Y-159817804D01*
X106370785Y-159818900D01*
X106404376Y-159816521D01*
X106430288Y-159807494D01*
X106449489Y-159788978D01*
X106462946Y-159758134D01*
X106471628Y-159712122D01*
X106476503Y-159648104D01*
X106478539Y-159563238D01*
X106478800Y-159502030D01*
X106478800Y-159272800D01*
X106580400Y-159272800D01*
X106580400Y-159511409D01*
G37*
X106580400Y-159511409D02*
X106580207Y-159595945D01*
X106579354Y-159659353D01*
X106577427Y-159705900D01*
X106574013Y-159739855D01*
X106568700Y-159765488D01*
X106561073Y-159787068D01*
X106551825Y-159806684D01*
X106514747Y-159859147D01*
X106478800Y-159885555D01*
X106426340Y-159901642D01*
X106364265Y-159906377D01*
X106305952Y-159899199D01*
X106288306Y-159893532D01*
X106239112Y-159863215D01*
X106195891Y-159817614D01*
X106179143Y-159790955D01*
X106164437Y-159757641D01*
X106165977Y-159737654D01*
X106185821Y-159723253D01*
X106198633Y-159717617D01*
X106235503Y-159708790D01*
X106257582Y-159717789D01*
X106262900Y-159735970D01*
X106273231Y-159757685D01*
X106298688Y-159782819D01*
X106330963Y-159804987D01*
X106361750Y-159817804D01*
X106370785Y-159818900D01*
X106404376Y-159816521D01*
X106430288Y-159807494D01*
X106449489Y-159788978D01*
X106462946Y-159758134D01*
X106471628Y-159712122D01*
X106476503Y-159648104D01*
X106478539Y-159563238D01*
X106478800Y-159502030D01*
X106478800Y-159272800D01*
X106580400Y-159272800D01*
X106580400Y-159511409D01*
G36*
X117982474Y-159445453D02*
G01*
X118011030Y-159457276D01*
X118036696Y-159467208D01*
X118048357Y-159464762D01*
X118048500Y-159463626D01*
X118059765Y-159455469D01*
X118087910Y-159450932D01*
X118099300Y-159450600D01*
X118150100Y-159450600D01*
X118150100Y-159702721D01*
X118149965Y-159789193D01*
X118149309Y-159854155D01*
X118147751Y-159901497D01*
X118144912Y-159935109D01*
X118140412Y-159958879D01*
X118133872Y-159976699D01*
X118124910Y-159992457D01*
X118121271Y-159997996D01*
X118075865Y-160044194D01*
X118015238Y-160073830D01*
X117944389Y-160085713D01*
X117868316Y-160078656D01*
X117829304Y-160067447D01*
X117783678Y-160047420D01*
X117753552Y-160026476D01*
X117743700Y-160009251D01*
X117750936Y-159993145D01*
X117765955Y-159972029D01*
X117788210Y-159944546D01*
X117850270Y-159971998D01*
X117911509Y-159990625D01*
X117965737Y-159991271D01*
X118009169Y-159975328D01*
X118038018Y-159944187D01*
X118048499Y-159899238D01*
X118048500Y-159899155D01*
X118048500Y-159856347D01*
X118011030Y-159875723D01*
X117950461Y-159894532D01*
X117890993Y-159890756D01*
X117836141Y-159867099D01*
X117789420Y-159826262D01*
X117754344Y-159770946D01*
X117734428Y-159703853D01*
X117731306Y-159661944D01*
X117833295Y-159661944D01*
X117839837Y-159713003D01*
X117862551Y-159758341D01*
X117897497Y-159789108D01*
X117935645Y-159800009D01*
X117981196Y-159798768D01*
X118020959Y-159786299D01*
X118030583Y-159779859D01*
X118040135Y-159759334D01*
X118046310Y-159721682D01*
X118049036Y-159674854D01*
X118048245Y-159626803D01*
X118043867Y-159585480D01*
X118035831Y-159558838D01*
X118032553Y-159554776D01*
X117991884Y-159535364D01*
X117942672Y-159531601D01*
X117907954Y-159539850D01*
X117867628Y-159568826D01*
X117842650Y-159611704D01*
X117833295Y-159661944D01*
X117731306Y-159661944D01*
X117731208Y-159660634D01*
X117741573Y-159590522D01*
X117769635Y-159530408D01*
X117811576Y-159483069D01*
X117863576Y-159451279D01*
X117921815Y-159437816D01*
X117982474Y-159445453D01*
G37*
X117982474Y-159445453D02*
X118011030Y-159457276D01*
X118036696Y-159467208D01*
X118048357Y-159464762D01*
X118048500Y-159463626D01*
X118059765Y-159455469D01*
X118087910Y-159450932D01*
X118099300Y-159450600D01*
X118150100Y-159450600D01*
X118150100Y-159702721D01*
X118149965Y-159789193D01*
X118149309Y-159854155D01*
X118147751Y-159901497D01*
X118144912Y-159935109D01*
X118140412Y-159958879D01*
X118133872Y-159976699D01*
X118124910Y-159992457D01*
X118121271Y-159997996D01*
X118075865Y-160044194D01*
X118015238Y-160073830D01*
X117944389Y-160085713D01*
X117868316Y-160078656D01*
X117829304Y-160067447D01*
X117783678Y-160047420D01*
X117753552Y-160026476D01*
X117743700Y-160009251D01*
X117750936Y-159993145D01*
X117765955Y-159972029D01*
X117788210Y-159944546D01*
X117850270Y-159971998D01*
X117911509Y-159990625D01*
X117965737Y-159991271D01*
X118009169Y-159975328D01*
X118038018Y-159944187D01*
X118048499Y-159899238D01*
X118048500Y-159899155D01*
X118048500Y-159856347D01*
X118011030Y-159875723D01*
X117950461Y-159894532D01*
X117890993Y-159890756D01*
X117836141Y-159867099D01*
X117789420Y-159826262D01*
X117754344Y-159770946D01*
X117734428Y-159703853D01*
X117731306Y-159661944D01*
X117833295Y-159661944D01*
X117839837Y-159713003D01*
X117862551Y-159758341D01*
X117897497Y-159789108D01*
X117935645Y-159800009D01*
X117981196Y-159798768D01*
X118020959Y-159786299D01*
X118030583Y-159779859D01*
X118040135Y-159759334D01*
X118046310Y-159721682D01*
X118049036Y-159674854D01*
X118048245Y-159626803D01*
X118043867Y-159585480D01*
X118035831Y-159558838D01*
X118032553Y-159554776D01*
X117991884Y-159535364D01*
X117942672Y-159531601D01*
X117907954Y-159539850D01*
X117867628Y-159568826D01*
X117842650Y-159611704D01*
X117833295Y-159661944D01*
X117731306Y-159661944D01*
X117731208Y-159660634D01*
X117741573Y-159590522D01*
X117769635Y-159530408D01*
X117811576Y-159483069D01*
X117863576Y-159451279D01*
X117921815Y-159437816D01*
X117982474Y-159445453D01*
G36*
X113105674Y-159445453D02*
G01*
X113134230Y-159457276D01*
X113159896Y-159467208D01*
X113171557Y-159464762D01*
X113171700Y-159463626D01*
X113182965Y-159455469D01*
X113211110Y-159450932D01*
X113222500Y-159450600D01*
X113273300Y-159450600D01*
X113273300Y-159702721D01*
X113273165Y-159789193D01*
X113272509Y-159854155D01*
X113270951Y-159901497D01*
X113268112Y-159935109D01*
X113263612Y-159958879D01*
X113257072Y-159976699D01*
X113248110Y-159992457D01*
X113244471Y-159997996D01*
X113199065Y-160044194D01*
X113138438Y-160073830D01*
X113067589Y-160085713D01*
X112991516Y-160078656D01*
X112952504Y-160067447D01*
X112906878Y-160047420D01*
X112876752Y-160026476D01*
X112866900Y-160009251D01*
X112874136Y-159993145D01*
X112889155Y-159972029D01*
X112911410Y-159944546D01*
X112973470Y-159971998D01*
X113034709Y-159990625D01*
X113088937Y-159991271D01*
X113132369Y-159975328D01*
X113161218Y-159944187D01*
X113171699Y-159899238D01*
X113171700Y-159899155D01*
X113171700Y-159856347D01*
X113134230Y-159875723D01*
X113073661Y-159894532D01*
X113014193Y-159890756D01*
X112959341Y-159867099D01*
X112912620Y-159826262D01*
X112877544Y-159770946D01*
X112857628Y-159703853D01*
X112854506Y-159661944D01*
X112956495Y-159661944D01*
X112963037Y-159713003D01*
X112985751Y-159758341D01*
X113020697Y-159789108D01*
X113058845Y-159800009D01*
X113104396Y-159798768D01*
X113144159Y-159786299D01*
X113153783Y-159779859D01*
X113163335Y-159759334D01*
X113169510Y-159721682D01*
X113172236Y-159674854D01*
X113171445Y-159626803D01*
X113167067Y-159585480D01*
X113159031Y-159558838D01*
X113155753Y-159554776D01*
X113115084Y-159535364D01*
X113065872Y-159531601D01*
X113031154Y-159539850D01*
X112990828Y-159568826D01*
X112965850Y-159611704D01*
X112956495Y-159661944D01*
X112854506Y-159661944D01*
X112854408Y-159660634D01*
X112864773Y-159590522D01*
X112892835Y-159530408D01*
X112934776Y-159483069D01*
X112986776Y-159451279D01*
X113045015Y-159437816D01*
X113105674Y-159445453D01*
G37*
X113105674Y-159445453D02*
X113134230Y-159457276D01*
X113159896Y-159467208D01*
X113171557Y-159464762D01*
X113171700Y-159463626D01*
X113182965Y-159455469D01*
X113211110Y-159450932D01*
X113222500Y-159450600D01*
X113273300Y-159450600D01*
X113273300Y-159702721D01*
X113273165Y-159789193D01*
X113272509Y-159854155D01*
X113270951Y-159901497D01*
X113268112Y-159935109D01*
X113263612Y-159958879D01*
X113257072Y-159976699D01*
X113248110Y-159992457D01*
X113244471Y-159997996D01*
X113199065Y-160044194D01*
X113138438Y-160073830D01*
X113067589Y-160085713D01*
X112991516Y-160078656D01*
X112952504Y-160067447D01*
X112906878Y-160047420D01*
X112876752Y-160026476D01*
X112866900Y-160009251D01*
X112874136Y-159993145D01*
X112889155Y-159972029D01*
X112911410Y-159944546D01*
X112973470Y-159971998D01*
X113034709Y-159990625D01*
X113088937Y-159991271D01*
X113132369Y-159975328D01*
X113161218Y-159944187D01*
X113171699Y-159899238D01*
X113171700Y-159899155D01*
X113171700Y-159856347D01*
X113134230Y-159875723D01*
X113073661Y-159894532D01*
X113014193Y-159890756D01*
X112959341Y-159867099D01*
X112912620Y-159826262D01*
X112877544Y-159770946D01*
X112857628Y-159703853D01*
X112854506Y-159661944D01*
X112956495Y-159661944D01*
X112963037Y-159713003D01*
X112985751Y-159758341D01*
X113020697Y-159789108D01*
X113058845Y-159800009D01*
X113104396Y-159798768D01*
X113144159Y-159786299D01*
X113153783Y-159779859D01*
X113163335Y-159759334D01*
X113169510Y-159721682D01*
X113172236Y-159674854D01*
X113171445Y-159626803D01*
X113167067Y-159585480D01*
X113159031Y-159558838D01*
X113155753Y-159554776D01*
X113115084Y-159535364D01*
X113065872Y-159531601D01*
X113031154Y-159539850D01*
X112990828Y-159568826D01*
X112965850Y-159611704D01*
X112956495Y-159661944D01*
X112854506Y-159661944D01*
X112854408Y-159660634D01*
X112864773Y-159590522D01*
X112892835Y-159530408D01*
X112934776Y-159483069D01*
X112986776Y-159451279D01*
X113045015Y-159437816D01*
X113105674Y-159445453D01*
G36*
X118935286Y-160991293D02*
G01*
X118958647Y-161032187D01*
X118960396Y-161076811D01*
X118940639Y-161117299D01*
X118933506Y-161124786D01*
X118904112Y-161152400D01*
X105718643Y-161152400D01*
X105692321Y-161118937D01*
X105673769Y-161087072D01*
X105666000Y-161057272D01*
X105666000Y-161057150D01*
X105673694Y-161027404D01*
X105692207Y-160995507D01*
X105692321Y-160995362D01*
X105718643Y-160961900D01*
X112313157Y-160961899D01*
X118907672Y-160961899D01*
X118935286Y-160991293D01*
G37*
X118935286Y-160991293D02*
X118958647Y-161032187D01*
X118960396Y-161076811D01*
X118940639Y-161117299D01*
X118933506Y-161124786D01*
X118904112Y-161152400D01*
X105718643Y-161152400D01*
X105692321Y-161118937D01*
X105673769Y-161087072D01*
X105666000Y-161057272D01*
X105666000Y-161057150D01*
X105673694Y-161027404D01*
X105692207Y-160995507D01*
X105692321Y-160995362D01*
X105718643Y-160961900D01*
X112313157Y-160961899D01*
X118907672Y-160961899D01*
X118935286Y-160991293D01*
G36*
X103244043Y-160964392D02*
G01*
X103292101Y-160973191D01*
X103322105Y-160990281D01*
X103337542Y-161017645D01*
X103341900Y-161057150D01*
X103337607Y-161096532D01*
X103322399Y-161123780D01*
X103292781Y-161140862D01*
X103245257Y-161149745D01*
X103176332Y-161152395D01*
X103172663Y-161152400D01*
X103115908Y-161151825D01*
X103078492Y-161149290D01*
X103054365Y-161143576D01*
X103037476Y-161133466D01*
X103026613Y-161123006D01*
X103003252Y-161082112D01*
X103001503Y-161037488D01*
X103021260Y-160997000D01*
X103028393Y-160989513D01*
X103045574Y-160976180D01*
X103066619Y-160967937D01*
X103097738Y-160963612D01*
X103145141Y-160962030D01*
X103174443Y-160961900D01*
X103244043Y-160964392D01*
G37*
X103244043Y-160964392D02*
X103292101Y-160973191D01*
X103322105Y-160990281D01*
X103337542Y-161017645D01*
X103341900Y-161057150D01*
X103337607Y-161096532D01*
X103322399Y-161123780D01*
X103292781Y-161140862D01*
X103245257Y-161149745D01*
X103176332Y-161152395D01*
X103172663Y-161152400D01*
X103115908Y-161151825D01*
X103078492Y-161149290D01*
X103054365Y-161143576D01*
X103037476Y-161133466D01*
X103026613Y-161123006D01*
X103003252Y-161082112D01*
X103001503Y-161037488D01*
X103021260Y-160997000D01*
X103028393Y-160989513D01*
X103045574Y-160976180D01*
X103066619Y-160967937D01*
X103097738Y-160963612D01*
X103145141Y-160962030D01*
X103174443Y-160961900D01*
X103244043Y-160964392D01*
G36*
X103704557Y-160713054D02*
G01*
X103737368Y-160732157D01*
X103746941Y-160740516D01*
X103754270Y-160750303D01*
X103759707Y-160764826D01*
X103763605Y-160787391D01*
X103766317Y-160821307D01*
X103768194Y-160869882D01*
X103769589Y-160936423D01*
X103770854Y-161024238D01*
X103771188Y-161049571D01*
X103775026Y-161342728D01*
X103743190Y-161374564D01*
X103703435Y-161401023D01*
X103663527Y-161402725D01*
X103626040Y-161379617D01*
X103623513Y-161377006D01*
X103614675Y-161366635D01*
X103607956Y-161354549D01*
X103603065Y-161337371D01*
X103599714Y-161311724D01*
X103597611Y-161274232D01*
X103596468Y-161221520D01*
X103595994Y-161150210D01*
X103595900Y-161056927D01*
X103595900Y-161055370D01*
X103595965Y-160961929D01*
X103596367Y-160890539D01*
X103597413Y-160837846D01*
X103599412Y-160800503D01*
X103602670Y-160775156D01*
X103607497Y-160758457D01*
X103614200Y-160747055D01*
X103623086Y-160737598D01*
X103625293Y-160735513D01*
X103664470Y-160711609D01*
X103704557Y-160713054D01*
G37*
X103704557Y-160713054D02*
X103737368Y-160732157D01*
X103746941Y-160740516D01*
X103754270Y-160750303D01*
X103759707Y-160764826D01*
X103763605Y-160787391D01*
X103766317Y-160821307D01*
X103768194Y-160869882D01*
X103769589Y-160936423D01*
X103770854Y-161024238D01*
X103771188Y-161049571D01*
X103775026Y-161342728D01*
X103743190Y-161374564D01*
X103703435Y-161401023D01*
X103663527Y-161402725D01*
X103626040Y-161379617D01*
X103623513Y-161377006D01*
X103614675Y-161366635D01*
X103607956Y-161354549D01*
X103603065Y-161337371D01*
X103599714Y-161311724D01*
X103597611Y-161274232D01*
X103596468Y-161221520D01*
X103595994Y-161150210D01*
X103595900Y-161056927D01*
X103595900Y-161055370D01*
X103595965Y-160961929D01*
X103596367Y-160890539D01*
X103597413Y-160837846D01*
X103599412Y-160800503D01*
X103602670Y-160775156D01*
X103607497Y-160758457D01*
X103614200Y-160747055D01*
X103623086Y-160737598D01*
X103625293Y-160735513D01*
X103664470Y-160711609D01*
X103704557Y-160713054D01*
G36*
X105430360Y-160384148D02*
G01*
X105437400Y-160390400D01*
X105443118Y-160396819D01*
X105447907Y-160405090D01*
X105451849Y-160417365D01*
X105455026Y-160435795D01*
X105457522Y-160462532D01*
X105459417Y-160499728D01*
X105460795Y-160549533D01*
X105461737Y-160614100D01*
X105462326Y-160695579D01*
X105462645Y-160796124D01*
X105462775Y-160917884D01*
X105462800Y-161054324D01*
X105462722Y-161200224D01*
X105462446Y-161322823D01*
X105461912Y-161424218D01*
X105461055Y-161506508D01*
X105459815Y-161571791D01*
X105458129Y-161622165D01*
X105455934Y-161659728D01*
X105453169Y-161686578D01*
X105449771Y-161704814D01*
X105445678Y-161716533D01*
X105443029Y-161721074D01*
X105413262Y-161743781D01*
X105373733Y-161749686D01*
X105333757Y-161738757D01*
X105310894Y-161721505D01*
X105305058Y-161714613D01*
X105300171Y-161706105D01*
X105296150Y-161693817D01*
X105292910Y-161675586D01*
X105290367Y-161649248D01*
X105288437Y-161612641D01*
X105287035Y-161563601D01*
X105286077Y-161499964D01*
X105285479Y-161419567D01*
X105285156Y-161320246D01*
X105285025Y-161199839D01*
X105285000Y-161057150D01*
X105285025Y-160913643D01*
X105285158Y-160793374D01*
X105285482Y-160694178D01*
X105286082Y-160613891D01*
X105287043Y-160550352D01*
X105288447Y-160501395D01*
X105290381Y-160464858D01*
X105292928Y-160438577D01*
X105296172Y-160420390D01*
X105300199Y-160408132D01*
X105305091Y-160399641D01*
X105310894Y-160392794D01*
X105347738Y-160369943D01*
X105390793Y-160367000D01*
X105430360Y-160384148D01*
G37*
X105430360Y-160384148D02*
X105437400Y-160390400D01*
X105443118Y-160396819D01*
X105447907Y-160405090D01*
X105451849Y-160417365D01*
X105455026Y-160435795D01*
X105457522Y-160462532D01*
X105459417Y-160499728D01*
X105460795Y-160549533D01*
X105461737Y-160614100D01*
X105462326Y-160695579D01*
X105462645Y-160796124D01*
X105462775Y-160917884D01*
X105462800Y-161054324D01*
X105462722Y-161200224D01*
X105462446Y-161322823D01*
X105461912Y-161424218D01*
X105461055Y-161506508D01*
X105459815Y-161571791D01*
X105458129Y-161622165D01*
X105455934Y-161659728D01*
X105453169Y-161686578D01*
X105449771Y-161704814D01*
X105445678Y-161716533D01*
X105443029Y-161721074D01*
X105413262Y-161743781D01*
X105373733Y-161749686D01*
X105333757Y-161738757D01*
X105310894Y-161721505D01*
X105305058Y-161714613D01*
X105300171Y-161706105D01*
X105296150Y-161693817D01*
X105292910Y-161675586D01*
X105290367Y-161649248D01*
X105288437Y-161612641D01*
X105287035Y-161563601D01*
X105286077Y-161499964D01*
X105285479Y-161419567D01*
X105285156Y-161320246D01*
X105285025Y-161199839D01*
X105285000Y-161057150D01*
X105285025Y-160913643D01*
X105285158Y-160793374D01*
X105285482Y-160694178D01*
X105286082Y-160613891D01*
X105287043Y-160550352D01*
X105288447Y-160501395D01*
X105290381Y-160464858D01*
X105292928Y-160438577D01*
X105296172Y-160420390D01*
X105300199Y-160408132D01*
X105305091Y-160399641D01*
X105310894Y-160392794D01*
X105347738Y-160369943D01*
X105390793Y-160367000D01*
X105430360Y-160384148D01*
G36*
X104414153Y-160373366D02*
G01*
X104416323Y-160374719D01*
X104425899Y-160382268D01*
X104433948Y-160392460D01*
X104440603Y-160407408D01*
X104445994Y-160429227D01*
X104450255Y-160460029D01*
X104453517Y-160501931D01*
X104455911Y-160557044D01*
X104457571Y-160627484D01*
X104458628Y-160715364D01*
X104459213Y-160822799D01*
X104459458Y-160951902D01*
X104459500Y-161066620D01*
X104459473Y-161208969D01*
X104459337Y-161328100D01*
X104459005Y-161426193D01*
X104458390Y-161505429D01*
X104457406Y-161567989D01*
X104455968Y-161616055D01*
X104453988Y-161651807D01*
X104451381Y-161677427D01*
X104448060Y-161695095D01*
X104443939Y-161706993D01*
X104438933Y-161715301D01*
X104433605Y-161721505D01*
X104398709Y-161744001D01*
X104357871Y-161749644D01*
X104320403Y-161738462D01*
X104301470Y-161721074D01*
X104296956Y-161712113D01*
X104293172Y-161697824D01*
X104290056Y-161676107D01*
X104287546Y-161644866D01*
X104285580Y-161602001D01*
X104284094Y-161545415D01*
X104283028Y-161473009D01*
X104282319Y-161382686D01*
X104281905Y-161272347D01*
X104281723Y-161139893D01*
X104281700Y-161054324D01*
X104281727Y-160910547D01*
X104281866Y-160790018D01*
X104282197Y-160690586D01*
X104282804Y-160610100D01*
X104283768Y-160546407D01*
X104285173Y-160497357D01*
X104287099Y-160460797D01*
X104289630Y-160434577D01*
X104292848Y-160416544D01*
X104296835Y-160404547D01*
X104301673Y-160396434D01*
X104307100Y-160390400D01*
X104339677Y-160371493D01*
X104379644Y-160365200D01*
X104414153Y-160373366D01*
G37*
X104414153Y-160373366D02*
X104416323Y-160374719D01*
X104425899Y-160382268D01*
X104433948Y-160392460D01*
X104440603Y-160407408D01*
X104445994Y-160429227D01*
X104450255Y-160460029D01*
X104453517Y-160501931D01*
X104455911Y-160557044D01*
X104457571Y-160627484D01*
X104458628Y-160715364D01*
X104459213Y-160822799D01*
X104459458Y-160951902D01*
X104459500Y-161066620D01*
X104459473Y-161208969D01*
X104459337Y-161328100D01*
X104459005Y-161426193D01*
X104458390Y-161505429D01*
X104457406Y-161567989D01*
X104455968Y-161616055D01*
X104453988Y-161651807D01*
X104451381Y-161677427D01*
X104448060Y-161695095D01*
X104443939Y-161706993D01*
X104438933Y-161715301D01*
X104433605Y-161721505D01*
X104398709Y-161744001D01*
X104357871Y-161749644D01*
X104320403Y-161738462D01*
X104301470Y-161721074D01*
X104296956Y-161712113D01*
X104293172Y-161697824D01*
X104290056Y-161676107D01*
X104287546Y-161644866D01*
X104285580Y-161602001D01*
X104284094Y-161545415D01*
X104283028Y-161473009D01*
X104282319Y-161382686D01*
X104281905Y-161272347D01*
X104281723Y-161139893D01*
X104281700Y-161054324D01*
X104281727Y-160910547D01*
X104281866Y-160790018D01*
X104282197Y-160690586D01*
X104282804Y-160610100D01*
X104283768Y-160546407D01*
X104285173Y-160497357D01*
X104287099Y-160460797D01*
X104289630Y-160434577D01*
X104292848Y-160416544D01*
X104296835Y-160404547D01*
X104301673Y-160396434D01*
X104307100Y-160390400D01*
X104339677Y-160371493D01*
X104379644Y-160365200D01*
X104414153Y-160373366D01*
G36*
X105100053Y-160028088D02*
G01*
X105121879Y-160046790D01*
X105126201Y-160053072D01*
X105129958Y-160061651D01*
X105133188Y-160074239D01*
X105135931Y-160092549D01*
X105138227Y-160118294D01*
X105140115Y-160153187D01*
X105141635Y-160198939D01*
X105142826Y-160257264D01*
X105143729Y-160329875D01*
X105144382Y-160418483D01*
X105144826Y-160524802D01*
X105145099Y-160650544D01*
X105145242Y-160797422D01*
X105145295Y-160967149D01*
X105145300Y-161059134D01*
X105145300Y-162042554D01*
X105114127Y-162073727D01*
X105076174Y-162099826D01*
X105038933Y-162100608D01*
X105001063Y-162076073D01*
X104998672Y-162073727D01*
X104967500Y-162042554D01*
X104967500Y-161059134D01*
X104967522Y-160877591D01*
X104967616Y-160719736D01*
X104967821Y-160583856D01*
X104968176Y-160468238D01*
X104968722Y-160371169D01*
X104969497Y-160290937D01*
X104970542Y-160225829D01*
X104971896Y-160174133D01*
X104973599Y-160134135D01*
X104975690Y-160104124D01*
X104978209Y-160082386D01*
X104981195Y-160067209D01*
X104984689Y-160056880D01*
X104988730Y-160049687D01*
X104990920Y-160046790D01*
X105025484Y-160022461D01*
X105056400Y-160017866D01*
X105100053Y-160028088D01*
G37*
X105100053Y-160028088D02*
X105121879Y-160046790D01*
X105126201Y-160053072D01*
X105129958Y-160061651D01*
X105133188Y-160074239D01*
X105135931Y-160092549D01*
X105138227Y-160118294D01*
X105140115Y-160153187D01*
X105141635Y-160198939D01*
X105142826Y-160257264D01*
X105143729Y-160329875D01*
X105144382Y-160418483D01*
X105144826Y-160524802D01*
X105145099Y-160650544D01*
X105145242Y-160797422D01*
X105145295Y-160967149D01*
X105145300Y-161059134D01*
X105145300Y-162042554D01*
X105114127Y-162073727D01*
X105076174Y-162099826D01*
X105038933Y-162100608D01*
X105001063Y-162076073D01*
X104998672Y-162073727D01*
X104967500Y-162042554D01*
X104967500Y-161059134D01*
X104967522Y-160877591D01*
X104967616Y-160719736D01*
X104967821Y-160583856D01*
X104968176Y-160468238D01*
X104968722Y-160371169D01*
X104969497Y-160290937D01*
X104970542Y-160225829D01*
X104971896Y-160174133D01*
X104973599Y-160134135D01*
X104975690Y-160104124D01*
X104978209Y-160082386D01*
X104981195Y-160067209D01*
X104984689Y-160056880D01*
X104988730Y-160049687D01*
X104990920Y-160046790D01*
X105025484Y-160022461D01*
X105056400Y-160017866D01*
X105100053Y-160028088D01*
G36*
X104056284Y-160023835D02*
G01*
X104089603Y-160043551D01*
X104108462Y-160075566D01*
X104109709Y-160092673D01*
X104110900Y-160133154D01*
X104112017Y-160194985D01*
X104113044Y-160276140D01*
X104113966Y-160374594D01*
X104114765Y-160488322D01*
X104115427Y-160615299D01*
X104115934Y-160753499D01*
X104116271Y-160900897D01*
X104116421Y-161055468D01*
X104116426Y-161073602D01*
X104116600Y-162042554D01*
X104085427Y-162073727D01*
X104048935Y-162099588D01*
X104012686Y-162101150D01*
X103972291Y-162078601D01*
X103972262Y-162078578D01*
X103938800Y-162052256D01*
X103938800Y-161068093D01*
X103938958Y-160858810D01*
X103939437Y-160674594D01*
X103940240Y-160515112D01*
X103941372Y-160380033D01*
X103942838Y-160269025D01*
X103944641Y-160181755D01*
X103946787Y-160117893D01*
X103949279Y-160077107D01*
X103952122Y-160059064D01*
X103952272Y-160058757D01*
X103979644Y-160030579D01*
X104016973Y-160019224D01*
X104056284Y-160023835D01*
G37*
X104056284Y-160023835D02*
X104089603Y-160043551D01*
X104108462Y-160075566D01*
X104109709Y-160092673D01*
X104110900Y-160133154D01*
X104112017Y-160194985D01*
X104113044Y-160276140D01*
X104113966Y-160374594D01*
X104114765Y-160488322D01*
X104115427Y-160615299D01*
X104115934Y-160753499D01*
X104116271Y-160900897D01*
X104116421Y-161055468D01*
X104116426Y-161073602D01*
X104116600Y-162042554D01*
X104085427Y-162073727D01*
X104048935Y-162099588D01*
X104012686Y-162101150D01*
X103972291Y-162078601D01*
X103972262Y-162078578D01*
X103938800Y-162052256D01*
X103938800Y-161068093D01*
X103938958Y-160858810D01*
X103939437Y-160674594D01*
X103940240Y-160515112D01*
X103941372Y-160380033D01*
X103942838Y-160269025D01*
X103944641Y-160181755D01*
X103946787Y-160117893D01*
X103949279Y-160077107D01*
X103952122Y-160059064D01*
X103952272Y-160058757D01*
X103979644Y-160030579D01*
X104016973Y-160019224D01*
X104056284Y-160023835D01*
G36*
X104770832Y-159693784D02*
G01*
X104776078Y-159699962D01*
X104780287Y-159705588D01*
X104784022Y-159712115D01*
X104787310Y-159721013D01*
X104790181Y-159733751D01*
X104792663Y-159751799D01*
X104794783Y-159776627D01*
X104796571Y-159809703D01*
X104798054Y-159852497D01*
X104799262Y-159906478D01*
X104800222Y-159973117D01*
X104800963Y-160053882D01*
X104801514Y-160150243D01*
X104801902Y-160263669D01*
X104802156Y-160395630D01*
X104802304Y-160547596D01*
X104802375Y-160721035D01*
X104802398Y-160917417D01*
X104802400Y-161062998D01*
X104802400Y-162392572D01*
X104773006Y-162420186D01*
X104732942Y-162443429D01*
X104690671Y-162444227D01*
X104652999Y-162422590D01*
X104650494Y-162420005D01*
X104646361Y-162415243D01*
X104642693Y-162409375D01*
X104639463Y-162400941D01*
X104636641Y-162388481D01*
X104634202Y-162370535D01*
X104632116Y-162345641D01*
X104630357Y-162312341D01*
X104628896Y-162269174D01*
X104627705Y-162214680D01*
X104626758Y-162147399D01*
X104626026Y-162065870D01*
X104625482Y-161968633D01*
X104625097Y-161854228D01*
X104624844Y-161721196D01*
X104624696Y-161568075D01*
X104624624Y-161393405D01*
X104624601Y-161195727D01*
X104624600Y-161056969D01*
X104624599Y-159721727D01*
X104653993Y-159694113D01*
X104694057Y-159670230D01*
X104734619Y-159670198D01*
X104770832Y-159693784D01*
G37*
X104770832Y-159693784D02*
X104776078Y-159699962D01*
X104780287Y-159705588D01*
X104784022Y-159712115D01*
X104787310Y-159721013D01*
X104790181Y-159733751D01*
X104792663Y-159751799D01*
X104794783Y-159776627D01*
X104796571Y-159809703D01*
X104798054Y-159852497D01*
X104799262Y-159906478D01*
X104800222Y-159973117D01*
X104800963Y-160053882D01*
X104801514Y-160150243D01*
X104801902Y-160263669D01*
X104802156Y-160395630D01*
X104802304Y-160547596D01*
X104802375Y-160721035D01*
X104802398Y-160917417D01*
X104802400Y-161062998D01*
X104802400Y-162392572D01*
X104773006Y-162420186D01*
X104732942Y-162443429D01*
X104690671Y-162444227D01*
X104652999Y-162422590D01*
X104650494Y-162420005D01*
X104646361Y-162415243D01*
X104642693Y-162409375D01*
X104639463Y-162400941D01*
X104636641Y-162388481D01*
X104634202Y-162370535D01*
X104632116Y-162345641D01*
X104630357Y-162312341D01*
X104628896Y-162269174D01*
X104627705Y-162214680D01*
X104626758Y-162147399D01*
X104626026Y-162065870D01*
X104625482Y-161968633D01*
X104625097Y-161854228D01*
X104624844Y-161721196D01*
X104624696Y-161568075D01*
X104624624Y-161393405D01*
X104624601Y-161195727D01*
X104624600Y-161056969D01*
X104624599Y-159721727D01*
X104653993Y-159694113D01*
X104694057Y-159670230D01*
X104734619Y-159670198D01*
X104770832Y-159693784D01*
D15*
X101000000Y-57000000D02*
X101000000Y-58000000D01*
X96500000Y-70000000D02*
X95500000Y-71000000D01*
X106500000Y-71000000D02*
X105500000Y-70000000D01*
X96000000Y-70500000D02*
G75*
G02X106000000Y-70500000I5000000J5500000D01*
G01*
X116000000Y-70500000D02*
G75*
G02X126000000Y-70500000I5000000J5500000D01*
G01*
X126500000Y-71000000D02*
X125500000Y-70000000D01*
X116500000Y-70000000D02*
X115500000Y-71000000D01*
X121000000Y-57000000D02*
X121000000Y-58000000D01*
X110380952Y-52952380D02*
X110571428Y-52952380D01*
X110666666Y-53000000D01*
X110761904Y-53095238D01*
X110809523Y-53285714D01*
X110809523Y-53619047D01*
X110761904Y-53809523D01*
X110666666Y-53904761D01*
X110571428Y-53952380D01*
X110380952Y-53952380D01*
X110285714Y-53904761D01*
X110190476Y-53809523D01*
X110142857Y-53619047D01*
X110142857Y-53285714D01*
X110190476Y-53095238D01*
X110285714Y-53000000D01*
X110380952Y-52952380D01*
X111238095Y-53952380D02*
X111238095Y-52952380D01*
X111809523Y-53952380D01*
X111809523Y-52952380D01*
M02*
