%TF.GenerationSoftware,KiCad,Pcbnew,(5.1.5)-3*%
%TF.CreationDate,2020-04-29T20:03:56+02:00*%
%TF.ProjectId,KicadJE_Util_Faceplate_Generic,4b696361-644a-4455-9f55-74696c5f4661,rev?*%
%TF.SameCoordinates,Original*%
%TF.FileFunction,Soldermask,Bot*%
%TF.FilePolarity,Negative*%
%FSLAX46Y46*%
G04 Gerber Fmt 4.6, Leading zero omitted, Abs format (unit mm)*
G04 Created by KiCad (PCBNEW (5.1.5)-3) date 2020-04-29 20:03:56*
%MOMM*%
%LPD*%
G04 APERTURE LIST*
%ADD10C,0.050000*%
%ADD11C,0.150000*%
G04 APERTURE END LIST*
D10*
X91000000Y-164000000D02*
X91000000Y-36000000D01*
X131000000Y-164000000D02*
X91000000Y-164000000D01*
X131000000Y-36000000D02*
X131000000Y-164000000D01*
X91000000Y-36000000D02*
X131000000Y-36000000D01*
D11*
G36*
X126201189Y-158958892D02*
G01*
X126402066Y-158978677D01*
X126788681Y-159095955D01*
X126788684Y-159095956D01*
X127144983Y-159286402D01*
X127144986Y-159286404D01*
X127144987Y-159286405D01*
X127457293Y-159542707D01*
X127713595Y-159855013D01*
X127713598Y-159855017D01*
X127904044Y-160211316D01*
X127904045Y-160211319D01*
X128021323Y-160597934D01*
X128060923Y-161000000D01*
X128021323Y-161402066D01*
X127904045Y-161788681D01*
X127904044Y-161788684D01*
X127713598Y-162144983D01*
X127713596Y-162144986D01*
X127713595Y-162144987D01*
X127457293Y-162457293D01*
X127144987Y-162713595D01*
X127144983Y-162713598D01*
X126788684Y-162904044D01*
X126788681Y-162904045D01*
X126402066Y-163021323D01*
X126201189Y-163041108D01*
X126100751Y-163051000D01*
X122899249Y-163051000D01*
X122798811Y-163041108D01*
X122597934Y-163021323D01*
X122211319Y-162904045D01*
X122211316Y-162904044D01*
X121855017Y-162713598D01*
X121855013Y-162713595D01*
X121542707Y-162457293D01*
X121286405Y-162144987D01*
X121286404Y-162144986D01*
X121286402Y-162144983D01*
X121095956Y-161788684D01*
X121095955Y-161788681D01*
X120978677Y-161402066D01*
X120939077Y-161000000D01*
X120978677Y-160597934D01*
X121095955Y-160211319D01*
X121095956Y-160211316D01*
X121286402Y-159855017D01*
X121286405Y-159855013D01*
X121542707Y-159542707D01*
X121855013Y-159286405D01*
X121855014Y-159286404D01*
X121855017Y-159286402D01*
X122211316Y-159095956D01*
X122211319Y-159095955D01*
X122597934Y-158978677D01*
X122798811Y-158958892D01*
X122899249Y-158949000D01*
X126100751Y-158949000D01*
X126201189Y-158958892D01*
G37*
G36*
X99201189Y-158958892D02*
G01*
X99402066Y-158978677D01*
X99788681Y-159095955D01*
X99788684Y-159095956D01*
X100144983Y-159286402D01*
X100144986Y-159286404D01*
X100144987Y-159286405D01*
X100457293Y-159542707D01*
X100713595Y-159855013D01*
X100713598Y-159855017D01*
X100904044Y-160211316D01*
X100904045Y-160211319D01*
X101021323Y-160597934D01*
X101060923Y-161000000D01*
X101021323Y-161402066D01*
X100904045Y-161788681D01*
X100904044Y-161788684D01*
X100713598Y-162144983D01*
X100713596Y-162144986D01*
X100713595Y-162144987D01*
X100457293Y-162457293D01*
X100144987Y-162713595D01*
X100144983Y-162713598D01*
X99788684Y-162904044D01*
X99788681Y-162904045D01*
X99402066Y-163021323D01*
X99201189Y-163041108D01*
X99100751Y-163051000D01*
X95899249Y-163051000D01*
X95798811Y-163041108D01*
X95597934Y-163021323D01*
X95211319Y-162904045D01*
X95211316Y-162904044D01*
X94855017Y-162713598D01*
X94855013Y-162713595D01*
X94542707Y-162457293D01*
X94286405Y-162144987D01*
X94286404Y-162144986D01*
X94286402Y-162144983D01*
X94095956Y-161788684D01*
X94095955Y-161788681D01*
X93978677Y-161402066D01*
X93939077Y-161000000D01*
X93978677Y-160597934D01*
X94095955Y-160211319D01*
X94095956Y-160211316D01*
X94286402Y-159855017D01*
X94286405Y-159855013D01*
X94542707Y-159542707D01*
X94855013Y-159286405D01*
X94855014Y-159286404D01*
X94855017Y-159286402D01*
X95211316Y-159095956D01*
X95211319Y-159095955D01*
X95597934Y-158978677D01*
X95798811Y-158958892D01*
X95899249Y-158949000D01*
X99100751Y-158949000D01*
X99201189Y-158958892D01*
G37*
G36*
X121962865Y-141825855D02*
G01*
X122563608Y-142074691D01*
X122563610Y-142074692D01*
X123104265Y-142435946D01*
X123564054Y-142895735D01*
X123925308Y-143436390D01*
X123925309Y-143436392D01*
X124174145Y-144037135D01*
X124301000Y-144674879D01*
X124301000Y-145325121D01*
X124174145Y-145962865D01*
X123925309Y-146563608D01*
X123925308Y-146563610D01*
X123564054Y-147104265D01*
X123104265Y-147564054D01*
X122563610Y-147925308D01*
X122563609Y-147925309D01*
X122563608Y-147925309D01*
X121962865Y-148174145D01*
X121325121Y-148301000D01*
X120674879Y-148301000D01*
X120037135Y-148174145D01*
X119436392Y-147925309D01*
X119436391Y-147925309D01*
X119436390Y-147925308D01*
X118895735Y-147564054D01*
X118435946Y-147104265D01*
X118074692Y-146563610D01*
X118074691Y-146563608D01*
X117825855Y-145962865D01*
X117699000Y-145325121D01*
X117699000Y-144674879D01*
X117825855Y-144037135D01*
X118074691Y-143436392D01*
X118074692Y-143436390D01*
X118435946Y-142895735D01*
X118895735Y-142435946D01*
X119436390Y-142074692D01*
X119436392Y-142074691D01*
X120037135Y-141825855D01*
X120674879Y-141699000D01*
X121325121Y-141699000D01*
X121962865Y-141825855D01*
G37*
G36*
X102037866Y-141825855D02*
G01*
X102638609Y-142074691D01*
X102638611Y-142074692D01*
X103179266Y-142435946D01*
X103639055Y-142895735D01*
X104000309Y-143436390D01*
X104000310Y-143436392D01*
X104249146Y-144037135D01*
X104376001Y-144674879D01*
X104376001Y-145325121D01*
X104249146Y-145962865D01*
X104000310Y-146563608D01*
X104000309Y-146563610D01*
X103639055Y-147104265D01*
X103179266Y-147564054D01*
X102638611Y-147925308D01*
X102638610Y-147925309D01*
X102638609Y-147925309D01*
X102037866Y-148174145D01*
X101400122Y-148301000D01*
X100749880Y-148301000D01*
X100112136Y-148174145D01*
X99511393Y-147925309D01*
X99511392Y-147925309D01*
X99511391Y-147925308D01*
X98970736Y-147564054D01*
X98510947Y-147104265D01*
X98149693Y-146563610D01*
X98149692Y-146563608D01*
X97900856Y-145962865D01*
X97774001Y-145325121D01*
X97774001Y-144674879D01*
X97900856Y-144037135D01*
X98149692Y-143436392D01*
X98149693Y-143436390D01*
X98510947Y-142895735D01*
X98970736Y-142435946D01*
X99511391Y-142074692D01*
X99511393Y-142074691D01*
X100112136Y-141825855D01*
X100749880Y-141699000D01*
X101400122Y-141699000D01*
X102037866Y-141825855D01*
G37*
G36*
X121962865Y-131825855D02*
G01*
X122563608Y-132074691D01*
X122563610Y-132074692D01*
X123104265Y-132435946D01*
X123564054Y-132895735D01*
X123925308Y-133436390D01*
X123925309Y-133436392D01*
X124174145Y-134037135D01*
X124301000Y-134674879D01*
X124301000Y-135325121D01*
X124174145Y-135962865D01*
X123925309Y-136563608D01*
X123925308Y-136563610D01*
X123564054Y-137104265D01*
X123104265Y-137564054D01*
X122563610Y-137925308D01*
X122563609Y-137925309D01*
X122563608Y-137925309D01*
X121962865Y-138174145D01*
X121325121Y-138301000D01*
X120674879Y-138301000D01*
X120037135Y-138174145D01*
X119436392Y-137925309D01*
X119436391Y-137925309D01*
X119436390Y-137925308D01*
X118895735Y-137564054D01*
X118435946Y-137104265D01*
X118074692Y-136563610D01*
X118074691Y-136563608D01*
X117825855Y-135962865D01*
X117699000Y-135325121D01*
X117699000Y-134674879D01*
X117825855Y-134037135D01*
X118074691Y-133436392D01*
X118074692Y-133436390D01*
X118435946Y-132895735D01*
X118895735Y-132435946D01*
X119436390Y-132074692D01*
X119436392Y-132074691D01*
X120037135Y-131825855D01*
X120674879Y-131699000D01*
X121325121Y-131699000D01*
X121962865Y-131825855D01*
G37*
G36*
X101962865Y-131825855D02*
G01*
X102563608Y-132074691D01*
X102563610Y-132074692D01*
X103104265Y-132435946D01*
X103564054Y-132895735D01*
X103925308Y-133436390D01*
X103925309Y-133436392D01*
X104174145Y-134037135D01*
X104301000Y-134674879D01*
X104301000Y-135325121D01*
X104174145Y-135962865D01*
X103925309Y-136563608D01*
X103925308Y-136563610D01*
X103564054Y-137104265D01*
X103104265Y-137564054D01*
X102563610Y-137925308D01*
X102563609Y-137925309D01*
X102563608Y-137925309D01*
X101962865Y-138174145D01*
X101325121Y-138301000D01*
X100674879Y-138301000D01*
X100037135Y-138174145D01*
X99436392Y-137925309D01*
X99436391Y-137925309D01*
X99436390Y-137925308D01*
X98895735Y-137564054D01*
X98435946Y-137104265D01*
X98074692Y-136563610D01*
X98074691Y-136563608D01*
X97825855Y-135962865D01*
X97699000Y-135325121D01*
X97699000Y-134674879D01*
X97825855Y-134037135D01*
X98074691Y-133436392D01*
X98074692Y-133436390D01*
X98435946Y-132895735D01*
X98895735Y-132435946D01*
X99436390Y-132074692D01*
X99436392Y-132074691D01*
X100037135Y-131825855D01*
X100674879Y-131699000D01*
X101325121Y-131699000D01*
X101962865Y-131825855D01*
G37*
G36*
X101962865Y-121825855D02*
G01*
X102563608Y-122074691D01*
X102563610Y-122074692D01*
X103104265Y-122435946D01*
X103564054Y-122895735D01*
X103925308Y-123436390D01*
X103925309Y-123436392D01*
X104174145Y-124037135D01*
X104301000Y-124674879D01*
X104301000Y-125325121D01*
X104174145Y-125962865D01*
X103925309Y-126563608D01*
X103925308Y-126563610D01*
X103564054Y-127104265D01*
X103104265Y-127564054D01*
X102563610Y-127925308D01*
X102563609Y-127925309D01*
X102563608Y-127925309D01*
X101962865Y-128174145D01*
X101325121Y-128301000D01*
X100674879Y-128301000D01*
X100037135Y-128174145D01*
X99436392Y-127925309D01*
X99436391Y-127925309D01*
X99436390Y-127925308D01*
X98895735Y-127564054D01*
X98435946Y-127104265D01*
X98074692Y-126563610D01*
X98074691Y-126563608D01*
X97825855Y-125962865D01*
X97699000Y-125325121D01*
X97699000Y-124674879D01*
X97825855Y-124037135D01*
X98074691Y-123436392D01*
X98074692Y-123436390D01*
X98435946Y-122895735D01*
X98895735Y-122435946D01*
X99436390Y-122074692D01*
X99436392Y-122074691D01*
X100037135Y-121825855D01*
X100674879Y-121699000D01*
X101325121Y-121699000D01*
X101962865Y-121825855D01*
G37*
G36*
X121962865Y-121825855D02*
G01*
X122563608Y-122074691D01*
X122563610Y-122074692D01*
X123104265Y-122435946D01*
X123564054Y-122895735D01*
X123925308Y-123436390D01*
X123925309Y-123436392D01*
X124174145Y-124037135D01*
X124301000Y-124674879D01*
X124301000Y-125325121D01*
X124174145Y-125962865D01*
X123925309Y-126563608D01*
X123925308Y-126563610D01*
X123564054Y-127104265D01*
X123104265Y-127564054D01*
X122563610Y-127925308D01*
X122563609Y-127925309D01*
X122563608Y-127925309D01*
X121962865Y-128174145D01*
X121325121Y-128301000D01*
X120674879Y-128301000D01*
X120037135Y-128174145D01*
X119436392Y-127925309D01*
X119436391Y-127925309D01*
X119436390Y-127925308D01*
X118895735Y-127564054D01*
X118435946Y-127104265D01*
X118074692Y-126563610D01*
X118074691Y-126563608D01*
X117825855Y-125962865D01*
X117699000Y-125325121D01*
X117699000Y-124674879D01*
X117825855Y-124037135D01*
X118074691Y-123436392D01*
X118074692Y-123436390D01*
X118435946Y-122895735D01*
X118895735Y-122435946D01*
X119436390Y-122074692D01*
X119436392Y-122074691D01*
X120037135Y-121825855D01*
X120674879Y-121699000D01*
X121325121Y-121699000D01*
X121962865Y-121825855D01*
G37*
G36*
X101962865Y-111825855D02*
G01*
X102563608Y-112074691D01*
X102563610Y-112074692D01*
X103104265Y-112435946D01*
X103564054Y-112895735D01*
X103925308Y-113436390D01*
X103925309Y-113436392D01*
X104174145Y-114037135D01*
X104301000Y-114674879D01*
X104301000Y-115325121D01*
X104174145Y-115962865D01*
X103925309Y-116563608D01*
X103925308Y-116563610D01*
X103564054Y-117104265D01*
X103104265Y-117564054D01*
X102563610Y-117925308D01*
X102563609Y-117925309D01*
X102563608Y-117925309D01*
X101962865Y-118174145D01*
X101325121Y-118301000D01*
X100674879Y-118301000D01*
X100037135Y-118174145D01*
X99436392Y-117925309D01*
X99436391Y-117925309D01*
X99436390Y-117925308D01*
X98895735Y-117564054D01*
X98435946Y-117104265D01*
X98074692Y-116563610D01*
X98074691Y-116563608D01*
X97825855Y-115962865D01*
X97699000Y-115325121D01*
X97699000Y-114674879D01*
X97825855Y-114037135D01*
X98074691Y-113436392D01*
X98074692Y-113436390D01*
X98435946Y-112895735D01*
X98895735Y-112435946D01*
X99436390Y-112074692D01*
X99436392Y-112074691D01*
X100037135Y-111825855D01*
X100674879Y-111699000D01*
X101325121Y-111699000D01*
X101962865Y-111825855D01*
G37*
G36*
X121962865Y-111825855D02*
G01*
X122563608Y-112074691D01*
X122563610Y-112074692D01*
X123104265Y-112435946D01*
X123564054Y-112895735D01*
X123925308Y-113436390D01*
X123925309Y-113436392D01*
X124174145Y-114037135D01*
X124301000Y-114674879D01*
X124301000Y-115325121D01*
X124174145Y-115962865D01*
X123925309Y-116563608D01*
X123925308Y-116563610D01*
X123564054Y-117104265D01*
X123104265Y-117564054D01*
X122563610Y-117925308D01*
X122563609Y-117925309D01*
X122563608Y-117925309D01*
X121962865Y-118174145D01*
X121325121Y-118301000D01*
X120674879Y-118301000D01*
X120037135Y-118174145D01*
X119436392Y-117925309D01*
X119436391Y-117925309D01*
X119436390Y-117925308D01*
X118895735Y-117564054D01*
X118435946Y-117104265D01*
X118074692Y-116563610D01*
X118074691Y-116563608D01*
X117825855Y-115962865D01*
X117699000Y-115325121D01*
X117699000Y-114674879D01*
X117825855Y-114037135D01*
X118074691Y-113436392D01*
X118074692Y-113436390D01*
X118435946Y-112895735D01*
X118895735Y-112435946D01*
X119436390Y-112074692D01*
X119436392Y-112074691D01*
X120037135Y-111825855D01*
X120674879Y-111699000D01*
X121325121Y-111699000D01*
X121962865Y-111825855D01*
G37*
G36*
X101962865Y-81325855D02*
G01*
X102563608Y-81574691D01*
X102563610Y-81574692D01*
X103104265Y-81935946D01*
X103564054Y-82395735D01*
X103925308Y-82936390D01*
X103925309Y-82936392D01*
X104174145Y-83537135D01*
X104301000Y-84174879D01*
X104301000Y-84825121D01*
X104174145Y-85462865D01*
X103925309Y-86063608D01*
X103925308Y-86063610D01*
X103564054Y-86604265D01*
X103104265Y-87064054D01*
X102563610Y-87425308D01*
X102563609Y-87425309D01*
X102563608Y-87425309D01*
X101962865Y-87674145D01*
X101325121Y-87801000D01*
X100674879Y-87801000D01*
X100037135Y-87674145D01*
X99436392Y-87425309D01*
X99436391Y-87425309D01*
X99436390Y-87425308D01*
X98895735Y-87064054D01*
X98435946Y-86604265D01*
X98074692Y-86063610D01*
X98074691Y-86063608D01*
X97825855Y-85462865D01*
X97699000Y-84825121D01*
X97699000Y-84174879D01*
X97825855Y-83537135D01*
X98074691Y-82936392D01*
X98074692Y-82936390D01*
X98435946Y-82395735D01*
X98895735Y-81935946D01*
X99436390Y-81574692D01*
X99436392Y-81574691D01*
X100037135Y-81325855D01*
X100674879Y-81199000D01*
X101325121Y-81199000D01*
X101962865Y-81325855D01*
G37*
G36*
X121962865Y-81325855D02*
G01*
X122563608Y-81574691D01*
X122563610Y-81574692D01*
X123104265Y-81935946D01*
X123564054Y-82395735D01*
X123925308Y-82936390D01*
X123925309Y-82936392D01*
X124174145Y-83537135D01*
X124301000Y-84174879D01*
X124301000Y-84825121D01*
X124174145Y-85462865D01*
X123925309Y-86063608D01*
X123925308Y-86063610D01*
X123564054Y-86604265D01*
X123104265Y-87064054D01*
X122563610Y-87425308D01*
X122563609Y-87425309D01*
X122563608Y-87425309D01*
X121962865Y-87674145D01*
X121325121Y-87801000D01*
X120674879Y-87801000D01*
X120037135Y-87674145D01*
X119436392Y-87425309D01*
X119436391Y-87425309D01*
X119436390Y-87425308D01*
X118895735Y-87064054D01*
X118435946Y-86604265D01*
X118074692Y-86063610D01*
X118074691Y-86063608D01*
X117825855Y-85462865D01*
X117699000Y-84825121D01*
X117699000Y-84174879D01*
X117825855Y-83537135D01*
X118074691Y-82936392D01*
X118074692Y-82936390D01*
X118435946Y-82395735D01*
X118895735Y-81935946D01*
X119436390Y-81574692D01*
X119436392Y-81574691D01*
X120037135Y-81325855D01*
X120674879Y-81199000D01*
X121325121Y-81199000D01*
X121962865Y-81325855D01*
G37*
G36*
X101962865Y-61825855D02*
G01*
X102563608Y-62074691D01*
X102563610Y-62074692D01*
X103104265Y-62435946D01*
X103564054Y-62895735D01*
X103925308Y-63436390D01*
X103925309Y-63436392D01*
X104174145Y-64037135D01*
X104301000Y-64674879D01*
X104301000Y-65325121D01*
X104174145Y-65962865D01*
X103925309Y-66563608D01*
X103925308Y-66563610D01*
X103564054Y-67104265D01*
X103104265Y-67564054D01*
X102563610Y-67925308D01*
X102563609Y-67925309D01*
X102563608Y-67925309D01*
X101962865Y-68174145D01*
X101325121Y-68301000D01*
X100674879Y-68301000D01*
X100037135Y-68174145D01*
X99436392Y-67925309D01*
X99436391Y-67925309D01*
X99436390Y-67925308D01*
X98895735Y-67564054D01*
X98435946Y-67104265D01*
X98074692Y-66563610D01*
X98074691Y-66563608D01*
X97825855Y-65962865D01*
X97699000Y-65325121D01*
X97699000Y-64674879D01*
X97825855Y-64037135D01*
X98074691Y-63436392D01*
X98074692Y-63436390D01*
X98435946Y-62895735D01*
X98895735Y-62435946D01*
X99436390Y-62074692D01*
X99436392Y-62074691D01*
X100037135Y-61825855D01*
X100674879Y-61699000D01*
X101325121Y-61699000D01*
X101962865Y-61825855D01*
G37*
G36*
X121962865Y-61825855D02*
G01*
X122563608Y-62074691D01*
X122563610Y-62074692D01*
X123104265Y-62435946D01*
X123564054Y-62895735D01*
X123925308Y-63436390D01*
X123925309Y-63436392D01*
X124174145Y-64037135D01*
X124301000Y-64674879D01*
X124301000Y-65325121D01*
X124174145Y-65962865D01*
X123925309Y-66563608D01*
X123925308Y-66563610D01*
X123564054Y-67104265D01*
X123104265Y-67564054D01*
X122563610Y-67925308D01*
X122563609Y-67925309D01*
X122563608Y-67925309D01*
X121962865Y-68174145D01*
X121325121Y-68301000D01*
X120674879Y-68301000D01*
X120037135Y-68174145D01*
X119436392Y-67925309D01*
X119436391Y-67925309D01*
X119436390Y-67925308D01*
X118895735Y-67564054D01*
X118435946Y-67104265D01*
X118074692Y-66563610D01*
X118074691Y-66563608D01*
X117825855Y-65962865D01*
X117699000Y-65325121D01*
X117699000Y-64674879D01*
X117825855Y-64037135D01*
X118074691Y-63436392D01*
X118074692Y-63436390D01*
X118435946Y-62895735D01*
X118895735Y-62435946D01*
X119436390Y-62074692D01*
X119436392Y-62074691D01*
X120037135Y-61825855D01*
X120674879Y-61699000D01*
X121325121Y-61699000D01*
X121962865Y-61825855D01*
G37*
G36*
X111302585Y-49478802D02*
G01*
X111452410Y-49508604D01*
X111734674Y-49625521D01*
X111988705Y-49795259D01*
X112204741Y-50011295D01*
X112374479Y-50265326D01*
X112491396Y-50547590D01*
X112551000Y-50847240D01*
X112551000Y-51152760D01*
X112491396Y-51452410D01*
X112374479Y-51734674D01*
X112204741Y-51988705D01*
X111988705Y-52204741D01*
X111734674Y-52374479D01*
X111452410Y-52491396D01*
X111302585Y-52521198D01*
X111152761Y-52551000D01*
X110847239Y-52551000D01*
X110697415Y-52521198D01*
X110547590Y-52491396D01*
X110265326Y-52374479D01*
X110011295Y-52204741D01*
X109795259Y-51988705D01*
X109625521Y-51734674D01*
X109508604Y-51452410D01*
X109449000Y-51152760D01*
X109449000Y-50847240D01*
X109508604Y-50547590D01*
X109625521Y-50265326D01*
X109795259Y-50011295D01*
X110011295Y-49795259D01*
X110265326Y-49625521D01*
X110547590Y-49508604D01*
X110697415Y-49478802D01*
X110847239Y-49449000D01*
X111152761Y-49449000D01*
X111302585Y-49478802D01*
G37*
G36*
X99201189Y-36958892D02*
G01*
X99402066Y-36978677D01*
X99788681Y-37095955D01*
X99788684Y-37095956D01*
X100144983Y-37286402D01*
X100144986Y-37286404D01*
X100144987Y-37286405D01*
X100457293Y-37542707D01*
X100713595Y-37855013D01*
X100713598Y-37855017D01*
X100904044Y-38211316D01*
X100904045Y-38211319D01*
X101021323Y-38597934D01*
X101060923Y-39000000D01*
X101021323Y-39402066D01*
X100904045Y-39788681D01*
X100904044Y-39788684D01*
X100713598Y-40144983D01*
X100713596Y-40144986D01*
X100713595Y-40144987D01*
X100457293Y-40457293D01*
X100144987Y-40713595D01*
X100144983Y-40713598D01*
X99788684Y-40904044D01*
X99788681Y-40904045D01*
X99402066Y-41021323D01*
X99201189Y-41041108D01*
X99100751Y-41051000D01*
X95899249Y-41051000D01*
X95798811Y-41041108D01*
X95597934Y-41021323D01*
X95211319Y-40904045D01*
X95211316Y-40904044D01*
X94855017Y-40713598D01*
X94855013Y-40713595D01*
X94542707Y-40457293D01*
X94286405Y-40144987D01*
X94286404Y-40144986D01*
X94286402Y-40144983D01*
X94095956Y-39788684D01*
X94095955Y-39788681D01*
X93978677Y-39402066D01*
X93939077Y-39000000D01*
X93978677Y-38597934D01*
X94095955Y-38211319D01*
X94095956Y-38211316D01*
X94286402Y-37855017D01*
X94286405Y-37855013D01*
X94542707Y-37542707D01*
X94855013Y-37286405D01*
X94855014Y-37286404D01*
X94855017Y-37286402D01*
X95211316Y-37095956D01*
X95211319Y-37095955D01*
X95597934Y-36978677D01*
X95798811Y-36958892D01*
X95899249Y-36949000D01*
X99100751Y-36949000D01*
X99201189Y-36958892D01*
G37*
G36*
X126201189Y-36958892D02*
G01*
X126402066Y-36978677D01*
X126788681Y-37095955D01*
X126788684Y-37095956D01*
X127144983Y-37286402D01*
X127144986Y-37286404D01*
X127144987Y-37286405D01*
X127457293Y-37542707D01*
X127713595Y-37855013D01*
X127713598Y-37855017D01*
X127904044Y-38211316D01*
X127904045Y-38211319D01*
X128021323Y-38597934D01*
X128060923Y-39000000D01*
X128021323Y-39402066D01*
X127904045Y-39788681D01*
X127904044Y-39788684D01*
X127713598Y-40144983D01*
X127713596Y-40144986D01*
X127713595Y-40144987D01*
X127457293Y-40457293D01*
X127144987Y-40713595D01*
X127144983Y-40713598D01*
X126788684Y-40904044D01*
X126788681Y-40904045D01*
X126402066Y-41021323D01*
X126201189Y-41041108D01*
X126100751Y-41051000D01*
X122899249Y-41051000D01*
X122798811Y-41041108D01*
X122597934Y-41021323D01*
X122211319Y-40904045D01*
X122211316Y-40904044D01*
X121855017Y-40713598D01*
X121855013Y-40713595D01*
X121542707Y-40457293D01*
X121286405Y-40144987D01*
X121286404Y-40144986D01*
X121286402Y-40144983D01*
X121095956Y-39788684D01*
X121095955Y-39788681D01*
X120978677Y-39402066D01*
X120939077Y-39000000D01*
X120978677Y-38597934D01*
X121095955Y-38211319D01*
X121095956Y-38211316D01*
X121286402Y-37855017D01*
X121286405Y-37855013D01*
X121542707Y-37542707D01*
X121855013Y-37286405D01*
X121855014Y-37286404D01*
X121855017Y-37286402D01*
X122211316Y-37095956D01*
X122211319Y-37095955D01*
X122597934Y-36978677D01*
X122798811Y-36958892D01*
X122899249Y-36949000D01*
X126100751Y-36949000D01*
X126201189Y-36958892D01*
G37*
M02*
