M48
; DRILL file {KiCad (5.1.5)-3} date 29/04/2020 20:04:03
; FORMAT={-:-/ absolute / metric / decimal}
; #@! TF.CreationDate,2020-04-29T20:04:03+02:00
; #@! TF.GenerationSoftware,Kicad,Pcbnew,(5.1.5)-3
; #@! TF.FileFunction,Plated,1,2,PTH
FMAT,2
METRIC
T1C3.200
T2C6.300
%
G90
G05
T2
X121.0Y-65.0
X101.0Y-65.0
X101.0Y-115.0
X101.0Y-125.0
X121.0Y-145.0
X121.0Y-125.0
X101.0Y-84.5
X121.0Y-135.0
X121.0Y-115.0
X101.0Y-135.0
X101.075Y-145.0
X121.0Y-84.5
T1
G00X96.0Y-39.0
M15
G01X99.0Y-39.0
M16
G05
G00X123.0Y-39.0
M15
G01X126.0Y-39.0
M16
G05
G00X96.0Y-161.0
M15
G01X99.0Y-161.0
M16
G05
G00X123.0Y-161.0
M15
G01X126.0Y-161.0
M16
G05
T0
M30
