%TF.GenerationSoftware,KiCad,Pcbnew,(5.1.5)-3*%
%TF.CreationDate,2020-04-29T20:03:56+02:00*%
%TF.ProjectId,KicadJE_Util_Faceplate_Generic,4b696361-644a-4455-9f55-74696c5f4661,rev?*%
%TF.SameCoordinates,Original*%
%TF.FileFunction,Copper,L2,Bot*%
%TF.FilePolarity,Positive*%
%FSLAX46Y46*%
G04 Gerber Fmt 4.6, Leading zero omitted, Abs format (unit mm)*
G04 Created by KiCad (PCBNEW (5.1.5)-3) date 2020-04-29 20:03:56*
%MOMM*%
%LPD*%
G04 APERTURE LIST*
%ADD10C,0.050000*%
%ADD11C,6.500000*%
%ADD12O,7.000000X4.000000*%
%ADD13C,0.254000*%
G04 APERTURE END LIST*
D10*
X91000000Y-164000000D02*
X91000000Y-36000000D01*
X131000000Y-164000000D02*
X91000000Y-164000000D01*
X131000000Y-36000000D02*
X131000000Y-164000000D01*
X91000000Y-36000000D02*
X131000000Y-36000000D01*
D11*
X121000000Y-135000000D03*
X101000000Y-135000000D03*
X121000000Y-84500000D03*
X101000000Y-84500000D03*
X121000000Y-125000000D03*
X121000000Y-145000000D03*
X101075001Y-145000000D03*
X121000000Y-115000000D03*
X101000000Y-125000000D03*
X101000000Y-115000000D03*
X101000000Y-65000000D03*
X121000000Y-65000000D03*
D12*
X97500000Y-39000000D03*
X97500000Y-161000000D03*
X124500000Y-39000000D03*
X124500000Y-161000000D03*
D13*
G36*
X94430475Y-36879635D02*
G01*
X94046970Y-37226576D01*
X93738519Y-37641669D01*
X93516975Y-38108962D01*
X93420333Y-38462838D01*
X93527009Y-38873000D01*
X97373000Y-38873000D01*
X97373000Y-38853000D01*
X97627000Y-38853000D01*
X97627000Y-38873000D01*
X101472991Y-38873000D01*
X101579667Y-38462838D01*
X101483025Y-38108962D01*
X101261481Y-37641669D01*
X100953030Y-37226576D01*
X100569525Y-36879635D01*
X100202314Y-36660000D01*
X121797686Y-36660000D01*
X121430475Y-36879635D01*
X121046970Y-37226576D01*
X120738519Y-37641669D01*
X120516975Y-38108962D01*
X120420333Y-38462838D01*
X120527009Y-38873000D01*
X124373000Y-38873000D01*
X124373000Y-38853000D01*
X124627000Y-38853000D01*
X124627000Y-38873000D01*
X128472991Y-38873000D01*
X128579667Y-38462838D01*
X128483025Y-38108962D01*
X128261481Y-37641669D01*
X127953030Y-37226576D01*
X127569525Y-36879635D01*
X127202314Y-36660000D01*
X130340000Y-36660000D01*
X130340001Y-163340000D01*
X127202314Y-163340000D01*
X127569525Y-163120365D01*
X127953030Y-162773424D01*
X128261481Y-162358331D01*
X128483025Y-161891038D01*
X128579667Y-161537162D01*
X128472991Y-161127000D01*
X124627000Y-161127000D01*
X124627000Y-161147000D01*
X124373000Y-161147000D01*
X124373000Y-161127000D01*
X120527009Y-161127000D01*
X120420333Y-161537162D01*
X120516975Y-161891038D01*
X120738519Y-162358331D01*
X121046970Y-162773424D01*
X121430475Y-163120365D01*
X121797686Y-163340000D01*
X100202314Y-163340000D01*
X100569525Y-163120365D01*
X100953030Y-162773424D01*
X101261481Y-162358331D01*
X101483025Y-161891038D01*
X101579667Y-161537162D01*
X101472991Y-161127000D01*
X97627000Y-161127000D01*
X97627000Y-161147000D01*
X97373000Y-161147000D01*
X97373000Y-161127000D01*
X93527009Y-161127000D01*
X93420333Y-161537162D01*
X93516975Y-161891038D01*
X93738519Y-162358331D01*
X94046970Y-162773424D01*
X94430475Y-163120365D01*
X94797686Y-163340000D01*
X91660000Y-163340000D01*
X91660000Y-160462838D01*
X93420333Y-160462838D01*
X93527009Y-160873000D01*
X97373000Y-160873000D01*
X97373000Y-158365000D01*
X97627000Y-158365000D01*
X97627000Y-160873000D01*
X101472991Y-160873000D01*
X101579667Y-160462838D01*
X120420333Y-160462838D01*
X120527009Y-160873000D01*
X124373000Y-160873000D01*
X124373000Y-158365000D01*
X124627000Y-158365000D01*
X124627000Y-160873000D01*
X128472991Y-160873000D01*
X128579667Y-160462838D01*
X128483025Y-160108962D01*
X128261481Y-159641669D01*
X127953030Y-159226576D01*
X127569525Y-158879635D01*
X127125704Y-158614178D01*
X126638623Y-158440407D01*
X126127000Y-158365000D01*
X124627000Y-158365000D01*
X124373000Y-158365000D01*
X122873000Y-158365000D01*
X122361377Y-158440407D01*
X121874296Y-158614178D01*
X121430475Y-158879635D01*
X121046970Y-159226576D01*
X120738519Y-159641669D01*
X120516975Y-160108962D01*
X120420333Y-160462838D01*
X101579667Y-160462838D01*
X101483025Y-160108962D01*
X101261481Y-159641669D01*
X100953030Y-159226576D01*
X100569525Y-158879635D01*
X100125704Y-158614178D01*
X99638623Y-158440407D01*
X99127000Y-158365000D01*
X97627000Y-158365000D01*
X97373000Y-158365000D01*
X95873000Y-158365000D01*
X95361377Y-158440407D01*
X94874296Y-158614178D01*
X94430475Y-158879635D01*
X94046970Y-159226576D01*
X93738519Y-159641669D01*
X93516975Y-160108962D01*
X93420333Y-160462838D01*
X91660000Y-160462838D01*
X91660000Y-147736428D01*
X98518178Y-147736428D01*
X98884366Y-148231216D01*
X99556838Y-148596501D01*
X100287651Y-148823575D01*
X101048722Y-148903710D01*
X101810804Y-148833828D01*
X102544609Y-148616614D01*
X103221937Y-148260416D01*
X103265636Y-148231216D01*
X103631824Y-147736428D01*
X118443177Y-147736428D01*
X118809365Y-148231216D01*
X119481837Y-148596501D01*
X120212650Y-148823575D01*
X120973721Y-148903710D01*
X121735803Y-148833828D01*
X122469608Y-148616614D01*
X123146936Y-148260416D01*
X123190635Y-148231216D01*
X123556823Y-147736428D01*
X121000000Y-145179605D01*
X118443177Y-147736428D01*
X103631824Y-147736428D01*
X101075001Y-145179605D01*
X98518178Y-147736428D01*
X91660000Y-147736428D01*
X91660000Y-144973721D01*
X97171291Y-144973721D01*
X97241173Y-145735803D01*
X97458387Y-146469608D01*
X97814585Y-147146936D01*
X97843785Y-147190635D01*
X98338573Y-147556823D01*
X100895396Y-145000000D01*
X101254606Y-145000000D01*
X103811429Y-147556823D01*
X104306217Y-147190635D01*
X104671502Y-146518163D01*
X104898576Y-145787350D01*
X104978711Y-145026279D01*
X104973892Y-144973721D01*
X117096290Y-144973721D01*
X117166172Y-145735803D01*
X117383386Y-146469608D01*
X117739584Y-147146936D01*
X117768784Y-147190635D01*
X118263572Y-147556823D01*
X120820395Y-145000000D01*
X121179605Y-145000000D01*
X123736428Y-147556823D01*
X124231216Y-147190635D01*
X124596501Y-146518163D01*
X124823575Y-145787350D01*
X124903710Y-145026279D01*
X124833828Y-144264197D01*
X124616614Y-143530392D01*
X124260416Y-142853064D01*
X124231216Y-142809365D01*
X123736428Y-142443177D01*
X121179605Y-145000000D01*
X120820395Y-145000000D01*
X118263572Y-142443177D01*
X117768784Y-142809365D01*
X117403499Y-143481837D01*
X117176425Y-144212650D01*
X117096290Y-144973721D01*
X104973892Y-144973721D01*
X104908829Y-144264197D01*
X104691615Y-143530392D01*
X104335417Y-142853064D01*
X104306217Y-142809365D01*
X103811429Y-142443177D01*
X101254606Y-145000000D01*
X100895396Y-145000000D01*
X98338573Y-142443177D01*
X97843785Y-142809365D01*
X97478500Y-143481837D01*
X97251426Y-144212650D01*
X97171291Y-144973721D01*
X91660000Y-144973721D01*
X91660000Y-142263572D01*
X98518178Y-142263572D01*
X101075001Y-144820395D01*
X103631824Y-142263572D01*
X118443177Y-142263572D01*
X121000000Y-144820395D01*
X123556823Y-142263572D01*
X123190635Y-141768784D01*
X122518163Y-141403499D01*
X121787350Y-141176425D01*
X121026279Y-141096290D01*
X120264197Y-141166172D01*
X119530392Y-141383386D01*
X118853064Y-141739584D01*
X118809365Y-141768784D01*
X118443177Y-142263572D01*
X103631824Y-142263572D01*
X103265636Y-141768784D01*
X102593164Y-141403499D01*
X101862351Y-141176425D01*
X101101280Y-141096290D01*
X100339198Y-141166172D01*
X99605393Y-141383386D01*
X98928065Y-141739584D01*
X98884366Y-141768784D01*
X98518178Y-142263572D01*
X91660000Y-142263572D01*
X91660000Y-137736428D01*
X98443177Y-137736428D01*
X98809365Y-138231216D01*
X99481837Y-138596501D01*
X100212650Y-138823575D01*
X100973721Y-138903710D01*
X101735803Y-138833828D01*
X102469608Y-138616614D01*
X103146936Y-138260416D01*
X103190635Y-138231216D01*
X103556823Y-137736428D01*
X118443177Y-137736428D01*
X118809365Y-138231216D01*
X119481837Y-138596501D01*
X120212650Y-138823575D01*
X120973721Y-138903710D01*
X121735803Y-138833828D01*
X122469608Y-138616614D01*
X123146936Y-138260416D01*
X123190635Y-138231216D01*
X123556823Y-137736428D01*
X121000000Y-135179605D01*
X118443177Y-137736428D01*
X103556823Y-137736428D01*
X101000000Y-135179605D01*
X98443177Y-137736428D01*
X91660000Y-137736428D01*
X91660000Y-134973721D01*
X97096290Y-134973721D01*
X97166172Y-135735803D01*
X97383386Y-136469608D01*
X97739584Y-137146936D01*
X97768784Y-137190635D01*
X98263572Y-137556823D01*
X100820395Y-135000000D01*
X101179605Y-135000000D01*
X103736428Y-137556823D01*
X104231216Y-137190635D01*
X104596501Y-136518163D01*
X104823575Y-135787350D01*
X104903710Y-135026279D01*
X104898891Y-134973721D01*
X117096290Y-134973721D01*
X117166172Y-135735803D01*
X117383386Y-136469608D01*
X117739584Y-137146936D01*
X117768784Y-137190635D01*
X118263572Y-137556823D01*
X120820395Y-135000000D01*
X121179605Y-135000000D01*
X123736428Y-137556823D01*
X124231216Y-137190635D01*
X124596501Y-136518163D01*
X124823575Y-135787350D01*
X124903710Y-135026279D01*
X124833828Y-134264197D01*
X124616614Y-133530392D01*
X124260416Y-132853064D01*
X124231216Y-132809365D01*
X123736428Y-132443177D01*
X121179605Y-135000000D01*
X120820395Y-135000000D01*
X118263572Y-132443177D01*
X117768784Y-132809365D01*
X117403499Y-133481837D01*
X117176425Y-134212650D01*
X117096290Y-134973721D01*
X104898891Y-134973721D01*
X104833828Y-134264197D01*
X104616614Y-133530392D01*
X104260416Y-132853064D01*
X104231216Y-132809365D01*
X103736428Y-132443177D01*
X101179605Y-135000000D01*
X100820395Y-135000000D01*
X98263572Y-132443177D01*
X97768784Y-132809365D01*
X97403499Y-133481837D01*
X97176425Y-134212650D01*
X97096290Y-134973721D01*
X91660000Y-134973721D01*
X91660000Y-132263572D01*
X98443177Y-132263572D01*
X101000000Y-134820395D01*
X103556823Y-132263572D01*
X118443177Y-132263572D01*
X121000000Y-134820395D01*
X123556823Y-132263572D01*
X123190635Y-131768784D01*
X122518163Y-131403499D01*
X121787350Y-131176425D01*
X121026279Y-131096290D01*
X120264197Y-131166172D01*
X119530392Y-131383386D01*
X118853064Y-131739584D01*
X118809365Y-131768784D01*
X118443177Y-132263572D01*
X103556823Y-132263572D01*
X103190635Y-131768784D01*
X102518163Y-131403499D01*
X101787350Y-131176425D01*
X101026279Y-131096290D01*
X100264197Y-131166172D01*
X99530392Y-131383386D01*
X98853064Y-131739584D01*
X98809365Y-131768784D01*
X98443177Y-132263572D01*
X91660000Y-132263572D01*
X91660000Y-127736428D01*
X98443177Y-127736428D01*
X98809365Y-128231216D01*
X99481837Y-128596501D01*
X100212650Y-128823575D01*
X100973721Y-128903710D01*
X101735803Y-128833828D01*
X102469608Y-128616614D01*
X103146936Y-128260416D01*
X103190635Y-128231216D01*
X103556823Y-127736428D01*
X118443177Y-127736428D01*
X118809365Y-128231216D01*
X119481837Y-128596501D01*
X120212650Y-128823575D01*
X120973721Y-128903710D01*
X121735803Y-128833828D01*
X122469608Y-128616614D01*
X123146936Y-128260416D01*
X123190635Y-128231216D01*
X123556823Y-127736428D01*
X121000000Y-125179605D01*
X118443177Y-127736428D01*
X103556823Y-127736428D01*
X101000000Y-125179605D01*
X98443177Y-127736428D01*
X91660000Y-127736428D01*
X91660000Y-124973721D01*
X97096290Y-124973721D01*
X97166172Y-125735803D01*
X97383386Y-126469608D01*
X97739584Y-127146936D01*
X97768784Y-127190635D01*
X98263572Y-127556823D01*
X100820395Y-125000000D01*
X101179605Y-125000000D01*
X103736428Y-127556823D01*
X104231216Y-127190635D01*
X104596501Y-126518163D01*
X104823575Y-125787350D01*
X104903710Y-125026279D01*
X104898891Y-124973721D01*
X117096290Y-124973721D01*
X117166172Y-125735803D01*
X117383386Y-126469608D01*
X117739584Y-127146936D01*
X117768784Y-127190635D01*
X118263572Y-127556823D01*
X120820395Y-125000000D01*
X121179605Y-125000000D01*
X123736428Y-127556823D01*
X124231216Y-127190635D01*
X124596501Y-126518163D01*
X124823575Y-125787350D01*
X124903710Y-125026279D01*
X124833828Y-124264197D01*
X124616614Y-123530392D01*
X124260416Y-122853064D01*
X124231216Y-122809365D01*
X123736428Y-122443177D01*
X121179605Y-125000000D01*
X120820395Y-125000000D01*
X118263572Y-122443177D01*
X117768784Y-122809365D01*
X117403499Y-123481837D01*
X117176425Y-124212650D01*
X117096290Y-124973721D01*
X104898891Y-124973721D01*
X104833828Y-124264197D01*
X104616614Y-123530392D01*
X104260416Y-122853064D01*
X104231216Y-122809365D01*
X103736428Y-122443177D01*
X101179605Y-125000000D01*
X100820395Y-125000000D01*
X98263572Y-122443177D01*
X97768784Y-122809365D01*
X97403499Y-123481837D01*
X97176425Y-124212650D01*
X97096290Y-124973721D01*
X91660000Y-124973721D01*
X91660000Y-122263572D01*
X98443177Y-122263572D01*
X101000000Y-124820395D01*
X103556823Y-122263572D01*
X118443177Y-122263572D01*
X121000000Y-124820395D01*
X123556823Y-122263572D01*
X123190635Y-121768784D01*
X122518163Y-121403499D01*
X121787350Y-121176425D01*
X121026279Y-121096290D01*
X120264197Y-121166172D01*
X119530392Y-121383386D01*
X118853064Y-121739584D01*
X118809365Y-121768784D01*
X118443177Y-122263572D01*
X103556823Y-122263572D01*
X103190635Y-121768784D01*
X102518163Y-121403499D01*
X101787350Y-121176425D01*
X101026279Y-121096290D01*
X100264197Y-121166172D01*
X99530392Y-121383386D01*
X98853064Y-121739584D01*
X98809365Y-121768784D01*
X98443177Y-122263572D01*
X91660000Y-122263572D01*
X91660000Y-117736428D01*
X98443177Y-117736428D01*
X98809365Y-118231216D01*
X99481837Y-118596501D01*
X100212650Y-118823575D01*
X100973721Y-118903710D01*
X101735803Y-118833828D01*
X102469608Y-118616614D01*
X103146936Y-118260416D01*
X103190635Y-118231216D01*
X103556823Y-117736428D01*
X118443177Y-117736428D01*
X118809365Y-118231216D01*
X119481837Y-118596501D01*
X120212650Y-118823575D01*
X120973721Y-118903710D01*
X121735803Y-118833828D01*
X122469608Y-118616614D01*
X123146936Y-118260416D01*
X123190635Y-118231216D01*
X123556823Y-117736428D01*
X121000000Y-115179605D01*
X118443177Y-117736428D01*
X103556823Y-117736428D01*
X101000000Y-115179605D01*
X98443177Y-117736428D01*
X91660000Y-117736428D01*
X91660000Y-114973721D01*
X97096290Y-114973721D01*
X97166172Y-115735803D01*
X97383386Y-116469608D01*
X97739584Y-117146936D01*
X97768784Y-117190635D01*
X98263572Y-117556823D01*
X100820395Y-115000000D01*
X101179605Y-115000000D01*
X103736428Y-117556823D01*
X104231216Y-117190635D01*
X104596501Y-116518163D01*
X104823575Y-115787350D01*
X104903710Y-115026279D01*
X104898891Y-114973721D01*
X117096290Y-114973721D01*
X117166172Y-115735803D01*
X117383386Y-116469608D01*
X117739584Y-117146936D01*
X117768784Y-117190635D01*
X118263572Y-117556823D01*
X120820395Y-115000000D01*
X121179605Y-115000000D01*
X123736428Y-117556823D01*
X124231216Y-117190635D01*
X124596501Y-116518163D01*
X124823575Y-115787350D01*
X124903710Y-115026279D01*
X124833828Y-114264197D01*
X124616614Y-113530392D01*
X124260416Y-112853064D01*
X124231216Y-112809365D01*
X123736428Y-112443177D01*
X121179605Y-115000000D01*
X120820395Y-115000000D01*
X118263572Y-112443177D01*
X117768784Y-112809365D01*
X117403499Y-113481837D01*
X117176425Y-114212650D01*
X117096290Y-114973721D01*
X104898891Y-114973721D01*
X104833828Y-114264197D01*
X104616614Y-113530392D01*
X104260416Y-112853064D01*
X104231216Y-112809365D01*
X103736428Y-112443177D01*
X101179605Y-115000000D01*
X100820395Y-115000000D01*
X98263572Y-112443177D01*
X97768784Y-112809365D01*
X97403499Y-113481837D01*
X97176425Y-114212650D01*
X97096290Y-114973721D01*
X91660000Y-114973721D01*
X91660000Y-112263572D01*
X98443177Y-112263572D01*
X101000000Y-114820395D01*
X103556823Y-112263572D01*
X118443177Y-112263572D01*
X121000000Y-114820395D01*
X123556823Y-112263572D01*
X123190635Y-111768784D01*
X122518163Y-111403499D01*
X121787350Y-111176425D01*
X121026279Y-111096290D01*
X120264197Y-111166172D01*
X119530392Y-111383386D01*
X118853064Y-111739584D01*
X118809365Y-111768784D01*
X118443177Y-112263572D01*
X103556823Y-112263572D01*
X103190635Y-111768784D01*
X102518163Y-111403499D01*
X101787350Y-111176425D01*
X101026279Y-111096290D01*
X100264197Y-111166172D01*
X99530392Y-111383386D01*
X98853064Y-111739584D01*
X98809365Y-111768784D01*
X98443177Y-112263572D01*
X91660000Y-112263572D01*
X91660000Y-87236428D01*
X98443177Y-87236428D01*
X98809365Y-87731216D01*
X99481837Y-88096501D01*
X100212650Y-88323575D01*
X100973721Y-88403710D01*
X101735803Y-88333828D01*
X102469608Y-88116614D01*
X103146936Y-87760416D01*
X103190635Y-87731216D01*
X103556823Y-87236428D01*
X118443177Y-87236428D01*
X118809365Y-87731216D01*
X119481837Y-88096501D01*
X120212650Y-88323575D01*
X120973721Y-88403710D01*
X121735803Y-88333828D01*
X122469608Y-88116614D01*
X123146936Y-87760416D01*
X123190635Y-87731216D01*
X123556823Y-87236428D01*
X121000000Y-84679605D01*
X118443177Y-87236428D01*
X103556823Y-87236428D01*
X101000000Y-84679605D01*
X98443177Y-87236428D01*
X91660000Y-87236428D01*
X91660000Y-84473721D01*
X97096290Y-84473721D01*
X97166172Y-85235803D01*
X97383386Y-85969608D01*
X97739584Y-86646936D01*
X97768784Y-86690635D01*
X98263572Y-87056823D01*
X100820395Y-84500000D01*
X101179605Y-84500000D01*
X103736428Y-87056823D01*
X104231216Y-86690635D01*
X104596501Y-86018163D01*
X104823575Y-85287350D01*
X104903710Y-84526279D01*
X104898891Y-84473721D01*
X117096290Y-84473721D01*
X117166172Y-85235803D01*
X117383386Y-85969608D01*
X117739584Y-86646936D01*
X117768784Y-86690635D01*
X118263572Y-87056823D01*
X120820395Y-84500000D01*
X121179605Y-84500000D01*
X123736428Y-87056823D01*
X124231216Y-86690635D01*
X124596501Y-86018163D01*
X124823575Y-85287350D01*
X124903710Y-84526279D01*
X124833828Y-83764197D01*
X124616614Y-83030392D01*
X124260416Y-82353064D01*
X124231216Y-82309365D01*
X123736428Y-81943177D01*
X121179605Y-84500000D01*
X120820395Y-84500000D01*
X118263572Y-81943177D01*
X117768784Y-82309365D01*
X117403499Y-82981837D01*
X117176425Y-83712650D01*
X117096290Y-84473721D01*
X104898891Y-84473721D01*
X104833828Y-83764197D01*
X104616614Y-83030392D01*
X104260416Y-82353064D01*
X104231216Y-82309365D01*
X103736428Y-81943177D01*
X101179605Y-84500000D01*
X100820395Y-84500000D01*
X98263572Y-81943177D01*
X97768784Y-82309365D01*
X97403499Y-82981837D01*
X97176425Y-83712650D01*
X97096290Y-84473721D01*
X91660000Y-84473721D01*
X91660000Y-81763572D01*
X98443177Y-81763572D01*
X101000000Y-84320395D01*
X103556823Y-81763572D01*
X118443177Y-81763572D01*
X121000000Y-84320395D01*
X123556823Y-81763572D01*
X123190635Y-81268784D01*
X122518163Y-80903499D01*
X121787350Y-80676425D01*
X121026279Y-80596290D01*
X120264197Y-80666172D01*
X119530392Y-80883386D01*
X118853064Y-81239584D01*
X118809365Y-81268784D01*
X118443177Y-81763572D01*
X103556823Y-81763572D01*
X103190635Y-81268784D01*
X102518163Y-80903499D01*
X101787350Y-80676425D01*
X101026279Y-80596290D01*
X100264197Y-80666172D01*
X99530392Y-80883386D01*
X98853064Y-81239584D01*
X98809365Y-81268784D01*
X98443177Y-81763572D01*
X91660000Y-81763572D01*
X91660000Y-67736428D01*
X98443177Y-67736428D01*
X98809365Y-68231216D01*
X99481837Y-68596501D01*
X100212650Y-68823575D01*
X100973721Y-68903710D01*
X101735803Y-68833828D01*
X102469608Y-68616614D01*
X103146936Y-68260416D01*
X103190635Y-68231216D01*
X103556823Y-67736428D01*
X118443177Y-67736428D01*
X118809365Y-68231216D01*
X119481837Y-68596501D01*
X120212650Y-68823575D01*
X120973721Y-68903710D01*
X121735803Y-68833828D01*
X122469608Y-68616614D01*
X123146936Y-68260416D01*
X123190635Y-68231216D01*
X123556823Y-67736428D01*
X121000000Y-65179605D01*
X118443177Y-67736428D01*
X103556823Y-67736428D01*
X101000000Y-65179605D01*
X98443177Y-67736428D01*
X91660000Y-67736428D01*
X91660000Y-64973721D01*
X97096290Y-64973721D01*
X97166172Y-65735803D01*
X97383386Y-66469608D01*
X97739584Y-67146936D01*
X97768784Y-67190635D01*
X98263572Y-67556823D01*
X100820395Y-65000000D01*
X101179605Y-65000000D01*
X103736428Y-67556823D01*
X104231216Y-67190635D01*
X104596501Y-66518163D01*
X104823575Y-65787350D01*
X104903710Y-65026279D01*
X104898891Y-64973721D01*
X117096290Y-64973721D01*
X117166172Y-65735803D01*
X117383386Y-66469608D01*
X117739584Y-67146936D01*
X117768784Y-67190635D01*
X118263572Y-67556823D01*
X120820395Y-65000000D01*
X121179605Y-65000000D01*
X123736428Y-67556823D01*
X124231216Y-67190635D01*
X124596501Y-66518163D01*
X124823575Y-65787350D01*
X124903710Y-65026279D01*
X124833828Y-64264197D01*
X124616614Y-63530392D01*
X124260416Y-62853064D01*
X124231216Y-62809365D01*
X123736428Y-62443177D01*
X121179605Y-65000000D01*
X120820395Y-65000000D01*
X118263572Y-62443177D01*
X117768784Y-62809365D01*
X117403499Y-63481837D01*
X117176425Y-64212650D01*
X117096290Y-64973721D01*
X104898891Y-64973721D01*
X104833828Y-64264197D01*
X104616614Y-63530392D01*
X104260416Y-62853064D01*
X104231216Y-62809365D01*
X103736428Y-62443177D01*
X101179605Y-65000000D01*
X100820395Y-65000000D01*
X98263572Y-62443177D01*
X97768784Y-62809365D01*
X97403499Y-63481837D01*
X97176425Y-64212650D01*
X97096290Y-64973721D01*
X91660000Y-64973721D01*
X91660000Y-62263572D01*
X98443177Y-62263572D01*
X101000000Y-64820395D01*
X103556823Y-62263572D01*
X118443177Y-62263572D01*
X121000000Y-64820395D01*
X123556823Y-62263572D01*
X123190635Y-61768784D01*
X122518163Y-61403499D01*
X121787350Y-61176425D01*
X121026279Y-61096290D01*
X120264197Y-61166172D01*
X119530392Y-61383386D01*
X118853064Y-61739584D01*
X118809365Y-61768784D01*
X118443177Y-62263572D01*
X103556823Y-62263572D01*
X103190635Y-61768784D01*
X102518163Y-61403499D01*
X101787350Y-61176425D01*
X101026279Y-61096290D01*
X100264197Y-61166172D01*
X99530392Y-61383386D01*
X98853064Y-61739584D01*
X98809365Y-61768784D01*
X98443177Y-62263572D01*
X91660000Y-62263572D01*
X91660000Y-50789721D01*
X108865000Y-50789721D01*
X108865000Y-51210279D01*
X108947047Y-51622756D01*
X109107988Y-52011302D01*
X109341637Y-52360983D01*
X109639017Y-52658363D01*
X109988698Y-52892012D01*
X110377244Y-53052953D01*
X110789721Y-53135000D01*
X111210279Y-53135000D01*
X111622756Y-53052953D01*
X112011302Y-52892012D01*
X112360983Y-52658363D01*
X112658363Y-52360983D01*
X112892012Y-52011302D01*
X113052953Y-51622756D01*
X113135000Y-51210279D01*
X113135000Y-50789721D01*
X113052953Y-50377244D01*
X112892012Y-49988698D01*
X112658363Y-49639017D01*
X112360983Y-49341637D01*
X112011302Y-49107988D01*
X111622756Y-48947047D01*
X111210279Y-48865000D01*
X110789721Y-48865000D01*
X110377244Y-48947047D01*
X109988698Y-49107988D01*
X109639017Y-49341637D01*
X109341637Y-49639017D01*
X109107988Y-49988698D01*
X108947047Y-50377244D01*
X108865000Y-50789721D01*
X91660000Y-50789721D01*
X91660000Y-39537162D01*
X93420333Y-39537162D01*
X93516975Y-39891038D01*
X93738519Y-40358331D01*
X94046970Y-40773424D01*
X94430475Y-41120365D01*
X94874296Y-41385822D01*
X95361377Y-41559593D01*
X95873000Y-41635000D01*
X97373000Y-41635000D01*
X97373000Y-39127000D01*
X97627000Y-39127000D01*
X97627000Y-41635000D01*
X99127000Y-41635000D01*
X99638623Y-41559593D01*
X100125704Y-41385822D01*
X100569525Y-41120365D01*
X100953030Y-40773424D01*
X101261481Y-40358331D01*
X101483025Y-39891038D01*
X101579667Y-39537162D01*
X120420333Y-39537162D01*
X120516975Y-39891038D01*
X120738519Y-40358331D01*
X121046970Y-40773424D01*
X121430475Y-41120365D01*
X121874296Y-41385822D01*
X122361377Y-41559593D01*
X122873000Y-41635000D01*
X124373000Y-41635000D01*
X124373000Y-39127000D01*
X124627000Y-39127000D01*
X124627000Y-41635000D01*
X126127000Y-41635000D01*
X126638623Y-41559593D01*
X127125704Y-41385822D01*
X127569525Y-41120365D01*
X127953030Y-40773424D01*
X128261481Y-40358331D01*
X128483025Y-39891038D01*
X128579667Y-39537162D01*
X128472991Y-39127000D01*
X124627000Y-39127000D01*
X124373000Y-39127000D01*
X120527009Y-39127000D01*
X120420333Y-39537162D01*
X101579667Y-39537162D01*
X101472991Y-39127000D01*
X97627000Y-39127000D01*
X97373000Y-39127000D01*
X93527009Y-39127000D01*
X93420333Y-39537162D01*
X91660000Y-39537162D01*
X91660000Y-36660000D01*
X94797686Y-36660000D01*
X94430475Y-36879635D01*
G37*
X94430475Y-36879635D02*
X94046970Y-37226576D01*
X93738519Y-37641669D01*
X93516975Y-38108962D01*
X93420333Y-38462838D01*
X93527009Y-38873000D01*
X97373000Y-38873000D01*
X97373000Y-38853000D01*
X97627000Y-38853000D01*
X97627000Y-38873000D01*
X101472991Y-38873000D01*
X101579667Y-38462838D01*
X101483025Y-38108962D01*
X101261481Y-37641669D01*
X100953030Y-37226576D01*
X100569525Y-36879635D01*
X100202314Y-36660000D01*
X121797686Y-36660000D01*
X121430475Y-36879635D01*
X121046970Y-37226576D01*
X120738519Y-37641669D01*
X120516975Y-38108962D01*
X120420333Y-38462838D01*
X120527009Y-38873000D01*
X124373000Y-38873000D01*
X124373000Y-38853000D01*
X124627000Y-38853000D01*
X124627000Y-38873000D01*
X128472991Y-38873000D01*
X128579667Y-38462838D01*
X128483025Y-38108962D01*
X128261481Y-37641669D01*
X127953030Y-37226576D01*
X127569525Y-36879635D01*
X127202314Y-36660000D01*
X130340000Y-36660000D01*
X130340001Y-163340000D01*
X127202314Y-163340000D01*
X127569525Y-163120365D01*
X127953030Y-162773424D01*
X128261481Y-162358331D01*
X128483025Y-161891038D01*
X128579667Y-161537162D01*
X128472991Y-161127000D01*
X124627000Y-161127000D01*
X124627000Y-161147000D01*
X124373000Y-161147000D01*
X124373000Y-161127000D01*
X120527009Y-161127000D01*
X120420333Y-161537162D01*
X120516975Y-161891038D01*
X120738519Y-162358331D01*
X121046970Y-162773424D01*
X121430475Y-163120365D01*
X121797686Y-163340000D01*
X100202314Y-163340000D01*
X100569525Y-163120365D01*
X100953030Y-162773424D01*
X101261481Y-162358331D01*
X101483025Y-161891038D01*
X101579667Y-161537162D01*
X101472991Y-161127000D01*
X97627000Y-161127000D01*
X97627000Y-161147000D01*
X97373000Y-161147000D01*
X97373000Y-161127000D01*
X93527009Y-161127000D01*
X93420333Y-161537162D01*
X93516975Y-161891038D01*
X93738519Y-162358331D01*
X94046970Y-162773424D01*
X94430475Y-163120365D01*
X94797686Y-163340000D01*
X91660000Y-163340000D01*
X91660000Y-160462838D01*
X93420333Y-160462838D01*
X93527009Y-160873000D01*
X97373000Y-160873000D01*
X97373000Y-158365000D01*
X97627000Y-158365000D01*
X97627000Y-160873000D01*
X101472991Y-160873000D01*
X101579667Y-160462838D01*
X120420333Y-160462838D01*
X120527009Y-160873000D01*
X124373000Y-160873000D01*
X124373000Y-158365000D01*
X124627000Y-158365000D01*
X124627000Y-160873000D01*
X128472991Y-160873000D01*
X128579667Y-160462838D01*
X128483025Y-160108962D01*
X128261481Y-159641669D01*
X127953030Y-159226576D01*
X127569525Y-158879635D01*
X127125704Y-158614178D01*
X126638623Y-158440407D01*
X126127000Y-158365000D01*
X124627000Y-158365000D01*
X124373000Y-158365000D01*
X122873000Y-158365000D01*
X122361377Y-158440407D01*
X121874296Y-158614178D01*
X121430475Y-158879635D01*
X121046970Y-159226576D01*
X120738519Y-159641669D01*
X120516975Y-160108962D01*
X120420333Y-160462838D01*
X101579667Y-160462838D01*
X101483025Y-160108962D01*
X101261481Y-159641669D01*
X100953030Y-159226576D01*
X100569525Y-158879635D01*
X100125704Y-158614178D01*
X99638623Y-158440407D01*
X99127000Y-158365000D01*
X97627000Y-158365000D01*
X97373000Y-158365000D01*
X95873000Y-158365000D01*
X95361377Y-158440407D01*
X94874296Y-158614178D01*
X94430475Y-158879635D01*
X94046970Y-159226576D01*
X93738519Y-159641669D01*
X93516975Y-160108962D01*
X93420333Y-160462838D01*
X91660000Y-160462838D01*
X91660000Y-147736428D01*
X98518178Y-147736428D01*
X98884366Y-148231216D01*
X99556838Y-148596501D01*
X100287651Y-148823575D01*
X101048722Y-148903710D01*
X101810804Y-148833828D01*
X102544609Y-148616614D01*
X103221937Y-148260416D01*
X103265636Y-148231216D01*
X103631824Y-147736428D01*
X118443177Y-147736428D01*
X118809365Y-148231216D01*
X119481837Y-148596501D01*
X120212650Y-148823575D01*
X120973721Y-148903710D01*
X121735803Y-148833828D01*
X122469608Y-148616614D01*
X123146936Y-148260416D01*
X123190635Y-148231216D01*
X123556823Y-147736428D01*
X121000000Y-145179605D01*
X118443177Y-147736428D01*
X103631824Y-147736428D01*
X101075001Y-145179605D01*
X98518178Y-147736428D01*
X91660000Y-147736428D01*
X91660000Y-144973721D01*
X97171291Y-144973721D01*
X97241173Y-145735803D01*
X97458387Y-146469608D01*
X97814585Y-147146936D01*
X97843785Y-147190635D01*
X98338573Y-147556823D01*
X100895396Y-145000000D01*
X101254606Y-145000000D01*
X103811429Y-147556823D01*
X104306217Y-147190635D01*
X104671502Y-146518163D01*
X104898576Y-145787350D01*
X104978711Y-145026279D01*
X104973892Y-144973721D01*
X117096290Y-144973721D01*
X117166172Y-145735803D01*
X117383386Y-146469608D01*
X117739584Y-147146936D01*
X117768784Y-147190635D01*
X118263572Y-147556823D01*
X120820395Y-145000000D01*
X121179605Y-145000000D01*
X123736428Y-147556823D01*
X124231216Y-147190635D01*
X124596501Y-146518163D01*
X124823575Y-145787350D01*
X124903710Y-145026279D01*
X124833828Y-144264197D01*
X124616614Y-143530392D01*
X124260416Y-142853064D01*
X124231216Y-142809365D01*
X123736428Y-142443177D01*
X121179605Y-145000000D01*
X120820395Y-145000000D01*
X118263572Y-142443177D01*
X117768784Y-142809365D01*
X117403499Y-143481837D01*
X117176425Y-144212650D01*
X117096290Y-144973721D01*
X104973892Y-144973721D01*
X104908829Y-144264197D01*
X104691615Y-143530392D01*
X104335417Y-142853064D01*
X104306217Y-142809365D01*
X103811429Y-142443177D01*
X101254606Y-145000000D01*
X100895396Y-145000000D01*
X98338573Y-142443177D01*
X97843785Y-142809365D01*
X97478500Y-143481837D01*
X97251426Y-144212650D01*
X97171291Y-144973721D01*
X91660000Y-144973721D01*
X91660000Y-142263572D01*
X98518178Y-142263572D01*
X101075001Y-144820395D01*
X103631824Y-142263572D01*
X118443177Y-142263572D01*
X121000000Y-144820395D01*
X123556823Y-142263572D01*
X123190635Y-141768784D01*
X122518163Y-141403499D01*
X121787350Y-141176425D01*
X121026279Y-141096290D01*
X120264197Y-141166172D01*
X119530392Y-141383386D01*
X118853064Y-141739584D01*
X118809365Y-141768784D01*
X118443177Y-142263572D01*
X103631824Y-142263572D01*
X103265636Y-141768784D01*
X102593164Y-141403499D01*
X101862351Y-141176425D01*
X101101280Y-141096290D01*
X100339198Y-141166172D01*
X99605393Y-141383386D01*
X98928065Y-141739584D01*
X98884366Y-141768784D01*
X98518178Y-142263572D01*
X91660000Y-142263572D01*
X91660000Y-137736428D01*
X98443177Y-137736428D01*
X98809365Y-138231216D01*
X99481837Y-138596501D01*
X100212650Y-138823575D01*
X100973721Y-138903710D01*
X101735803Y-138833828D01*
X102469608Y-138616614D01*
X103146936Y-138260416D01*
X103190635Y-138231216D01*
X103556823Y-137736428D01*
X118443177Y-137736428D01*
X118809365Y-138231216D01*
X119481837Y-138596501D01*
X120212650Y-138823575D01*
X120973721Y-138903710D01*
X121735803Y-138833828D01*
X122469608Y-138616614D01*
X123146936Y-138260416D01*
X123190635Y-138231216D01*
X123556823Y-137736428D01*
X121000000Y-135179605D01*
X118443177Y-137736428D01*
X103556823Y-137736428D01*
X101000000Y-135179605D01*
X98443177Y-137736428D01*
X91660000Y-137736428D01*
X91660000Y-134973721D01*
X97096290Y-134973721D01*
X97166172Y-135735803D01*
X97383386Y-136469608D01*
X97739584Y-137146936D01*
X97768784Y-137190635D01*
X98263572Y-137556823D01*
X100820395Y-135000000D01*
X101179605Y-135000000D01*
X103736428Y-137556823D01*
X104231216Y-137190635D01*
X104596501Y-136518163D01*
X104823575Y-135787350D01*
X104903710Y-135026279D01*
X104898891Y-134973721D01*
X117096290Y-134973721D01*
X117166172Y-135735803D01*
X117383386Y-136469608D01*
X117739584Y-137146936D01*
X117768784Y-137190635D01*
X118263572Y-137556823D01*
X120820395Y-135000000D01*
X121179605Y-135000000D01*
X123736428Y-137556823D01*
X124231216Y-137190635D01*
X124596501Y-136518163D01*
X124823575Y-135787350D01*
X124903710Y-135026279D01*
X124833828Y-134264197D01*
X124616614Y-133530392D01*
X124260416Y-132853064D01*
X124231216Y-132809365D01*
X123736428Y-132443177D01*
X121179605Y-135000000D01*
X120820395Y-135000000D01*
X118263572Y-132443177D01*
X117768784Y-132809365D01*
X117403499Y-133481837D01*
X117176425Y-134212650D01*
X117096290Y-134973721D01*
X104898891Y-134973721D01*
X104833828Y-134264197D01*
X104616614Y-133530392D01*
X104260416Y-132853064D01*
X104231216Y-132809365D01*
X103736428Y-132443177D01*
X101179605Y-135000000D01*
X100820395Y-135000000D01*
X98263572Y-132443177D01*
X97768784Y-132809365D01*
X97403499Y-133481837D01*
X97176425Y-134212650D01*
X97096290Y-134973721D01*
X91660000Y-134973721D01*
X91660000Y-132263572D01*
X98443177Y-132263572D01*
X101000000Y-134820395D01*
X103556823Y-132263572D01*
X118443177Y-132263572D01*
X121000000Y-134820395D01*
X123556823Y-132263572D01*
X123190635Y-131768784D01*
X122518163Y-131403499D01*
X121787350Y-131176425D01*
X121026279Y-131096290D01*
X120264197Y-131166172D01*
X119530392Y-131383386D01*
X118853064Y-131739584D01*
X118809365Y-131768784D01*
X118443177Y-132263572D01*
X103556823Y-132263572D01*
X103190635Y-131768784D01*
X102518163Y-131403499D01*
X101787350Y-131176425D01*
X101026279Y-131096290D01*
X100264197Y-131166172D01*
X99530392Y-131383386D01*
X98853064Y-131739584D01*
X98809365Y-131768784D01*
X98443177Y-132263572D01*
X91660000Y-132263572D01*
X91660000Y-127736428D01*
X98443177Y-127736428D01*
X98809365Y-128231216D01*
X99481837Y-128596501D01*
X100212650Y-128823575D01*
X100973721Y-128903710D01*
X101735803Y-128833828D01*
X102469608Y-128616614D01*
X103146936Y-128260416D01*
X103190635Y-128231216D01*
X103556823Y-127736428D01*
X118443177Y-127736428D01*
X118809365Y-128231216D01*
X119481837Y-128596501D01*
X120212650Y-128823575D01*
X120973721Y-128903710D01*
X121735803Y-128833828D01*
X122469608Y-128616614D01*
X123146936Y-128260416D01*
X123190635Y-128231216D01*
X123556823Y-127736428D01*
X121000000Y-125179605D01*
X118443177Y-127736428D01*
X103556823Y-127736428D01*
X101000000Y-125179605D01*
X98443177Y-127736428D01*
X91660000Y-127736428D01*
X91660000Y-124973721D01*
X97096290Y-124973721D01*
X97166172Y-125735803D01*
X97383386Y-126469608D01*
X97739584Y-127146936D01*
X97768784Y-127190635D01*
X98263572Y-127556823D01*
X100820395Y-125000000D01*
X101179605Y-125000000D01*
X103736428Y-127556823D01*
X104231216Y-127190635D01*
X104596501Y-126518163D01*
X104823575Y-125787350D01*
X104903710Y-125026279D01*
X104898891Y-124973721D01*
X117096290Y-124973721D01*
X117166172Y-125735803D01*
X117383386Y-126469608D01*
X117739584Y-127146936D01*
X117768784Y-127190635D01*
X118263572Y-127556823D01*
X120820395Y-125000000D01*
X121179605Y-125000000D01*
X123736428Y-127556823D01*
X124231216Y-127190635D01*
X124596501Y-126518163D01*
X124823575Y-125787350D01*
X124903710Y-125026279D01*
X124833828Y-124264197D01*
X124616614Y-123530392D01*
X124260416Y-122853064D01*
X124231216Y-122809365D01*
X123736428Y-122443177D01*
X121179605Y-125000000D01*
X120820395Y-125000000D01*
X118263572Y-122443177D01*
X117768784Y-122809365D01*
X117403499Y-123481837D01*
X117176425Y-124212650D01*
X117096290Y-124973721D01*
X104898891Y-124973721D01*
X104833828Y-124264197D01*
X104616614Y-123530392D01*
X104260416Y-122853064D01*
X104231216Y-122809365D01*
X103736428Y-122443177D01*
X101179605Y-125000000D01*
X100820395Y-125000000D01*
X98263572Y-122443177D01*
X97768784Y-122809365D01*
X97403499Y-123481837D01*
X97176425Y-124212650D01*
X97096290Y-124973721D01*
X91660000Y-124973721D01*
X91660000Y-122263572D01*
X98443177Y-122263572D01*
X101000000Y-124820395D01*
X103556823Y-122263572D01*
X118443177Y-122263572D01*
X121000000Y-124820395D01*
X123556823Y-122263572D01*
X123190635Y-121768784D01*
X122518163Y-121403499D01*
X121787350Y-121176425D01*
X121026279Y-121096290D01*
X120264197Y-121166172D01*
X119530392Y-121383386D01*
X118853064Y-121739584D01*
X118809365Y-121768784D01*
X118443177Y-122263572D01*
X103556823Y-122263572D01*
X103190635Y-121768784D01*
X102518163Y-121403499D01*
X101787350Y-121176425D01*
X101026279Y-121096290D01*
X100264197Y-121166172D01*
X99530392Y-121383386D01*
X98853064Y-121739584D01*
X98809365Y-121768784D01*
X98443177Y-122263572D01*
X91660000Y-122263572D01*
X91660000Y-117736428D01*
X98443177Y-117736428D01*
X98809365Y-118231216D01*
X99481837Y-118596501D01*
X100212650Y-118823575D01*
X100973721Y-118903710D01*
X101735803Y-118833828D01*
X102469608Y-118616614D01*
X103146936Y-118260416D01*
X103190635Y-118231216D01*
X103556823Y-117736428D01*
X118443177Y-117736428D01*
X118809365Y-118231216D01*
X119481837Y-118596501D01*
X120212650Y-118823575D01*
X120973721Y-118903710D01*
X121735803Y-118833828D01*
X122469608Y-118616614D01*
X123146936Y-118260416D01*
X123190635Y-118231216D01*
X123556823Y-117736428D01*
X121000000Y-115179605D01*
X118443177Y-117736428D01*
X103556823Y-117736428D01*
X101000000Y-115179605D01*
X98443177Y-117736428D01*
X91660000Y-117736428D01*
X91660000Y-114973721D01*
X97096290Y-114973721D01*
X97166172Y-115735803D01*
X97383386Y-116469608D01*
X97739584Y-117146936D01*
X97768784Y-117190635D01*
X98263572Y-117556823D01*
X100820395Y-115000000D01*
X101179605Y-115000000D01*
X103736428Y-117556823D01*
X104231216Y-117190635D01*
X104596501Y-116518163D01*
X104823575Y-115787350D01*
X104903710Y-115026279D01*
X104898891Y-114973721D01*
X117096290Y-114973721D01*
X117166172Y-115735803D01*
X117383386Y-116469608D01*
X117739584Y-117146936D01*
X117768784Y-117190635D01*
X118263572Y-117556823D01*
X120820395Y-115000000D01*
X121179605Y-115000000D01*
X123736428Y-117556823D01*
X124231216Y-117190635D01*
X124596501Y-116518163D01*
X124823575Y-115787350D01*
X124903710Y-115026279D01*
X124833828Y-114264197D01*
X124616614Y-113530392D01*
X124260416Y-112853064D01*
X124231216Y-112809365D01*
X123736428Y-112443177D01*
X121179605Y-115000000D01*
X120820395Y-115000000D01*
X118263572Y-112443177D01*
X117768784Y-112809365D01*
X117403499Y-113481837D01*
X117176425Y-114212650D01*
X117096290Y-114973721D01*
X104898891Y-114973721D01*
X104833828Y-114264197D01*
X104616614Y-113530392D01*
X104260416Y-112853064D01*
X104231216Y-112809365D01*
X103736428Y-112443177D01*
X101179605Y-115000000D01*
X100820395Y-115000000D01*
X98263572Y-112443177D01*
X97768784Y-112809365D01*
X97403499Y-113481837D01*
X97176425Y-114212650D01*
X97096290Y-114973721D01*
X91660000Y-114973721D01*
X91660000Y-112263572D01*
X98443177Y-112263572D01*
X101000000Y-114820395D01*
X103556823Y-112263572D01*
X118443177Y-112263572D01*
X121000000Y-114820395D01*
X123556823Y-112263572D01*
X123190635Y-111768784D01*
X122518163Y-111403499D01*
X121787350Y-111176425D01*
X121026279Y-111096290D01*
X120264197Y-111166172D01*
X119530392Y-111383386D01*
X118853064Y-111739584D01*
X118809365Y-111768784D01*
X118443177Y-112263572D01*
X103556823Y-112263572D01*
X103190635Y-111768784D01*
X102518163Y-111403499D01*
X101787350Y-111176425D01*
X101026279Y-111096290D01*
X100264197Y-111166172D01*
X99530392Y-111383386D01*
X98853064Y-111739584D01*
X98809365Y-111768784D01*
X98443177Y-112263572D01*
X91660000Y-112263572D01*
X91660000Y-87236428D01*
X98443177Y-87236428D01*
X98809365Y-87731216D01*
X99481837Y-88096501D01*
X100212650Y-88323575D01*
X100973721Y-88403710D01*
X101735803Y-88333828D01*
X102469608Y-88116614D01*
X103146936Y-87760416D01*
X103190635Y-87731216D01*
X103556823Y-87236428D01*
X118443177Y-87236428D01*
X118809365Y-87731216D01*
X119481837Y-88096501D01*
X120212650Y-88323575D01*
X120973721Y-88403710D01*
X121735803Y-88333828D01*
X122469608Y-88116614D01*
X123146936Y-87760416D01*
X123190635Y-87731216D01*
X123556823Y-87236428D01*
X121000000Y-84679605D01*
X118443177Y-87236428D01*
X103556823Y-87236428D01*
X101000000Y-84679605D01*
X98443177Y-87236428D01*
X91660000Y-87236428D01*
X91660000Y-84473721D01*
X97096290Y-84473721D01*
X97166172Y-85235803D01*
X97383386Y-85969608D01*
X97739584Y-86646936D01*
X97768784Y-86690635D01*
X98263572Y-87056823D01*
X100820395Y-84500000D01*
X101179605Y-84500000D01*
X103736428Y-87056823D01*
X104231216Y-86690635D01*
X104596501Y-86018163D01*
X104823575Y-85287350D01*
X104903710Y-84526279D01*
X104898891Y-84473721D01*
X117096290Y-84473721D01*
X117166172Y-85235803D01*
X117383386Y-85969608D01*
X117739584Y-86646936D01*
X117768784Y-86690635D01*
X118263572Y-87056823D01*
X120820395Y-84500000D01*
X121179605Y-84500000D01*
X123736428Y-87056823D01*
X124231216Y-86690635D01*
X124596501Y-86018163D01*
X124823575Y-85287350D01*
X124903710Y-84526279D01*
X124833828Y-83764197D01*
X124616614Y-83030392D01*
X124260416Y-82353064D01*
X124231216Y-82309365D01*
X123736428Y-81943177D01*
X121179605Y-84500000D01*
X120820395Y-84500000D01*
X118263572Y-81943177D01*
X117768784Y-82309365D01*
X117403499Y-82981837D01*
X117176425Y-83712650D01*
X117096290Y-84473721D01*
X104898891Y-84473721D01*
X104833828Y-83764197D01*
X104616614Y-83030392D01*
X104260416Y-82353064D01*
X104231216Y-82309365D01*
X103736428Y-81943177D01*
X101179605Y-84500000D01*
X100820395Y-84500000D01*
X98263572Y-81943177D01*
X97768784Y-82309365D01*
X97403499Y-82981837D01*
X97176425Y-83712650D01*
X97096290Y-84473721D01*
X91660000Y-84473721D01*
X91660000Y-81763572D01*
X98443177Y-81763572D01*
X101000000Y-84320395D01*
X103556823Y-81763572D01*
X118443177Y-81763572D01*
X121000000Y-84320395D01*
X123556823Y-81763572D01*
X123190635Y-81268784D01*
X122518163Y-80903499D01*
X121787350Y-80676425D01*
X121026279Y-80596290D01*
X120264197Y-80666172D01*
X119530392Y-80883386D01*
X118853064Y-81239584D01*
X118809365Y-81268784D01*
X118443177Y-81763572D01*
X103556823Y-81763572D01*
X103190635Y-81268784D01*
X102518163Y-80903499D01*
X101787350Y-80676425D01*
X101026279Y-80596290D01*
X100264197Y-80666172D01*
X99530392Y-80883386D01*
X98853064Y-81239584D01*
X98809365Y-81268784D01*
X98443177Y-81763572D01*
X91660000Y-81763572D01*
X91660000Y-67736428D01*
X98443177Y-67736428D01*
X98809365Y-68231216D01*
X99481837Y-68596501D01*
X100212650Y-68823575D01*
X100973721Y-68903710D01*
X101735803Y-68833828D01*
X102469608Y-68616614D01*
X103146936Y-68260416D01*
X103190635Y-68231216D01*
X103556823Y-67736428D01*
X118443177Y-67736428D01*
X118809365Y-68231216D01*
X119481837Y-68596501D01*
X120212650Y-68823575D01*
X120973721Y-68903710D01*
X121735803Y-68833828D01*
X122469608Y-68616614D01*
X123146936Y-68260416D01*
X123190635Y-68231216D01*
X123556823Y-67736428D01*
X121000000Y-65179605D01*
X118443177Y-67736428D01*
X103556823Y-67736428D01*
X101000000Y-65179605D01*
X98443177Y-67736428D01*
X91660000Y-67736428D01*
X91660000Y-64973721D01*
X97096290Y-64973721D01*
X97166172Y-65735803D01*
X97383386Y-66469608D01*
X97739584Y-67146936D01*
X97768784Y-67190635D01*
X98263572Y-67556823D01*
X100820395Y-65000000D01*
X101179605Y-65000000D01*
X103736428Y-67556823D01*
X104231216Y-67190635D01*
X104596501Y-66518163D01*
X104823575Y-65787350D01*
X104903710Y-65026279D01*
X104898891Y-64973721D01*
X117096290Y-64973721D01*
X117166172Y-65735803D01*
X117383386Y-66469608D01*
X117739584Y-67146936D01*
X117768784Y-67190635D01*
X118263572Y-67556823D01*
X120820395Y-65000000D01*
X121179605Y-65000000D01*
X123736428Y-67556823D01*
X124231216Y-67190635D01*
X124596501Y-66518163D01*
X124823575Y-65787350D01*
X124903710Y-65026279D01*
X124833828Y-64264197D01*
X124616614Y-63530392D01*
X124260416Y-62853064D01*
X124231216Y-62809365D01*
X123736428Y-62443177D01*
X121179605Y-65000000D01*
X120820395Y-65000000D01*
X118263572Y-62443177D01*
X117768784Y-62809365D01*
X117403499Y-63481837D01*
X117176425Y-64212650D01*
X117096290Y-64973721D01*
X104898891Y-64973721D01*
X104833828Y-64264197D01*
X104616614Y-63530392D01*
X104260416Y-62853064D01*
X104231216Y-62809365D01*
X103736428Y-62443177D01*
X101179605Y-65000000D01*
X100820395Y-65000000D01*
X98263572Y-62443177D01*
X97768784Y-62809365D01*
X97403499Y-63481837D01*
X97176425Y-64212650D01*
X97096290Y-64973721D01*
X91660000Y-64973721D01*
X91660000Y-62263572D01*
X98443177Y-62263572D01*
X101000000Y-64820395D01*
X103556823Y-62263572D01*
X118443177Y-62263572D01*
X121000000Y-64820395D01*
X123556823Y-62263572D01*
X123190635Y-61768784D01*
X122518163Y-61403499D01*
X121787350Y-61176425D01*
X121026279Y-61096290D01*
X120264197Y-61166172D01*
X119530392Y-61383386D01*
X118853064Y-61739584D01*
X118809365Y-61768784D01*
X118443177Y-62263572D01*
X103556823Y-62263572D01*
X103190635Y-61768784D01*
X102518163Y-61403499D01*
X101787350Y-61176425D01*
X101026279Y-61096290D01*
X100264197Y-61166172D01*
X99530392Y-61383386D01*
X98853064Y-61739584D01*
X98809365Y-61768784D01*
X98443177Y-62263572D01*
X91660000Y-62263572D01*
X91660000Y-50789721D01*
X108865000Y-50789721D01*
X108865000Y-51210279D01*
X108947047Y-51622756D01*
X109107988Y-52011302D01*
X109341637Y-52360983D01*
X109639017Y-52658363D01*
X109988698Y-52892012D01*
X110377244Y-53052953D01*
X110789721Y-53135000D01*
X111210279Y-53135000D01*
X111622756Y-53052953D01*
X112011302Y-52892012D01*
X112360983Y-52658363D01*
X112658363Y-52360983D01*
X112892012Y-52011302D01*
X113052953Y-51622756D01*
X113135000Y-51210279D01*
X113135000Y-50789721D01*
X113052953Y-50377244D01*
X112892012Y-49988698D01*
X112658363Y-49639017D01*
X112360983Y-49341637D01*
X112011302Y-49107988D01*
X111622756Y-48947047D01*
X111210279Y-48865000D01*
X110789721Y-48865000D01*
X110377244Y-48947047D01*
X109988698Y-49107988D01*
X109639017Y-49341637D01*
X109341637Y-49639017D01*
X109107988Y-49988698D01*
X108947047Y-50377244D01*
X108865000Y-50789721D01*
X91660000Y-50789721D01*
X91660000Y-39537162D01*
X93420333Y-39537162D01*
X93516975Y-39891038D01*
X93738519Y-40358331D01*
X94046970Y-40773424D01*
X94430475Y-41120365D01*
X94874296Y-41385822D01*
X95361377Y-41559593D01*
X95873000Y-41635000D01*
X97373000Y-41635000D01*
X97373000Y-39127000D01*
X97627000Y-39127000D01*
X97627000Y-41635000D01*
X99127000Y-41635000D01*
X99638623Y-41559593D01*
X100125704Y-41385822D01*
X100569525Y-41120365D01*
X100953030Y-40773424D01*
X101261481Y-40358331D01*
X101483025Y-39891038D01*
X101579667Y-39537162D01*
X120420333Y-39537162D01*
X120516975Y-39891038D01*
X120738519Y-40358331D01*
X121046970Y-40773424D01*
X121430475Y-41120365D01*
X121874296Y-41385822D01*
X122361377Y-41559593D01*
X122873000Y-41635000D01*
X124373000Y-41635000D01*
X124373000Y-39127000D01*
X124627000Y-39127000D01*
X124627000Y-41635000D01*
X126127000Y-41635000D01*
X126638623Y-41559593D01*
X127125704Y-41385822D01*
X127569525Y-41120365D01*
X127953030Y-40773424D01*
X128261481Y-40358331D01*
X128483025Y-39891038D01*
X128579667Y-39537162D01*
X128472991Y-39127000D01*
X124627000Y-39127000D01*
X124373000Y-39127000D01*
X120527009Y-39127000D01*
X120420333Y-39537162D01*
X101579667Y-39537162D01*
X101472991Y-39127000D01*
X97627000Y-39127000D01*
X97373000Y-39127000D01*
X93527009Y-39127000D01*
X93420333Y-39537162D01*
X91660000Y-39537162D01*
X91660000Y-36660000D01*
X94797686Y-36660000D01*
X94430475Y-36879635D01*
M02*
