M48
; DRILL file {KiCad (5.1.5)-3} date 23/03/2020 00:00:18
; FORMAT={-:-/ absolute / metric / decimal}
; #@! TF.CreationDate,2020-03-23T00:00:18+01:00
; #@! TF.GenerationSoftware,Kicad,Pcbnew,(5.1.5)-3
; #@! TF.FileFunction,NonPlated,1,2,NPTH
FMAT,2
METRIC
T1C2.000
%
G90
G05
T1
G00X137.6Y-66.0
M15
G01X137.6Y-65.0
M16
G05
G00X146.4Y-66.0
M15
G01X146.4Y-65.0
M16
G05
G00X61.0Y-60.6
M15
G01X60.0Y-60.6
M16
G05
G00X61.0Y-69.4
M15
G01X60.0Y-69.4
M16
G05
G00X59.0Y-80.6
M15
G01X60.0Y-80.6
M16
G05
G00X59.0Y-89.4
M15
G01X60.0Y-89.4
M16
G05
G00X103.0Y-80.6
M15
G01X102.0Y-80.6
M16
G05
G00X103.0Y-89.4
M15
G01X102.0Y-89.4
M16
G05
G00X79.0Y-60.6
M15
G01X80.0Y-60.6
M16
G05
G00X79.0Y-69.4
M15
G01X80.0Y-69.4
M16
G05
G00X103.0Y-60.6
M15
G01X102.0Y-60.6
M16
G05
G00X103.0Y-69.4
M15
G01X102.0Y-69.4
M16
G05
G00X81.0Y-80.6
M15
G01X80.0Y-80.6
M16
G05
G00X81.0Y-89.4
M15
G01X80.0Y-89.4
M16
G05
G00X117.6Y-66.0
M15
G01X117.6Y-65.0
M16
G05
G00X126.4Y-66.0
M15
G01X126.4Y-65.0
M16
G05
T0
M30
