%TF.GenerationSoftware,KiCad,Pcbnew,(5.1.5)-3*%
%TF.CreationDate,2020-03-23T00:00:11+01:00*%
%TF.ProjectId,KicadJE_Util_PCB,4b696361-644a-4455-9f55-74696c5f5043,rev?*%
%TF.SameCoordinates,Original*%
%TF.FileFunction,Paste,Top*%
%TF.FilePolarity,Positive*%
%FSLAX46Y46*%
G04 Gerber Fmt 4.6, Leading zero omitted, Abs format (unit mm)*
G04 Created by KiCad (PCBNEW (5.1.5)-3) date 2020-03-23 00:00:11*
%MOMM*%
%LPD*%
G04 APERTURE LIST*
%ADD10C,1.000000*%
%ADD11C,0.050000*%
%ADD12C,0.150000*%
%ADD13R,1.200000X0.900000*%
%ADD14R,0.900000X1.200000*%
G04 APERTURE END LIST*
D10*
X112500000Y-60000000D02*
X112500000Y-140000000D01*
X113500000Y-60000000D02*
X113500000Y-140000000D01*
X112500000Y-140000000D02*
X113500000Y-140000000D01*
X112500000Y-60000000D02*
X113500000Y-60000000D01*
X90500000Y-60000000D02*
X91500000Y-60000000D01*
X90500000Y-140000000D02*
X91500000Y-140000000D01*
X91500000Y-60000000D02*
X91500000Y-140000000D01*
X90500000Y-60000000D02*
X90500000Y-140000000D01*
D11*
X50000000Y-150000000D02*
X50000000Y-50000000D01*
X150000000Y-150000000D02*
X50000000Y-150000000D01*
X150000000Y-50000000D02*
X150000000Y-150000000D01*
X50000000Y-50000000D02*
X150000000Y-50000000D01*
D12*
G36*
X65084505Y-57601205D02*
G01*
X65108774Y-57604805D01*
X65132572Y-57610766D01*
X65155672Y-57619031D01*
X65177850Y-57629521D01*
X65198894Y-57642134D01*
X65218599Y-57656748D01*
X65236778Y-57673224D01*
X65253254Y-57691403D01*
X65267868Y-57711108D01*
X65280481Y-57732152D01*
X65290971Y-57754330D01*
X65299236Y-57777430D01*
X65305197Y-57801228D01*
X65308797Y-57825497D01*
X65310001Y-57850001D01*
X65310001Y-59100001D01*
X65308797Y-59124505D01*
X65305197Y-59148774D01*
X65299236Y-59172572D01*
X65290971Y-59195672D01*
X65280481Y-59217850D01*
X65267868Y-59238894D01*
X65253254Y-59258599D01*
X65236778Y-59276778D01*
X65218599Y-59293254D01*
X65198894Y-59307868D01*
X65177850Y-59320481D01*
X65155672Y-59330971D01*
X65132572Y-59339236D01*
X65108774Y-59345197D01*
X65084505Y-59348797D01*
X65060001Y-59350001D01*
X64135001Y-59350001D01*
X64110497Y-59348797D01*
X64086228Y-59345197D01*
X64062430Y-59339236D01*
X64039330Y-59330971D01*
X64017152Y-59320481D01*
X63996108Y-59307868D01*
X63976403Y-59293254D01*
X63958224Y-59276778D01*
X63941748Y-59258599D01*
X63927134Y-59238894D01*
X63914521Y-59217850D01*
X63904031Y-59195672D01*
X63895766Y-59172572D01*
X63889805Y-59148774D01*
X63886205Y-59124505D01*
X63885001Y-59100001D01*
X63885001Y-57850001D01*
X63886205Y-57825497D01*
X63889805Y-57801228D01*
X63895766Y-57777430D01*
X63904031Y-57754330D01*
X63914521Y-57732152D01*
X63927134Y-57711108D01*
X63941748Y-57691403D01*
X63958224Y-57673224D01*
X63976403Y-57656748D01*
X63996108Y-57642134D01*
X64017152Y-57629521D01*
X64039330Y-57619031D01*
X64062430Y-57610766D01*
X64086228Y-57604805D01*
X64110497Y-57601205D01*
X64135001Y-57600001D01*
X65060001Y-57600001D01*
X65084505Y-57601205D01*
G37*
G36*
X68059505Y-57601205D02*
G01*
X68083774Y-57604805D01*
X68107572Y-57610766D01*
X68130672Y-57619031D01*
X68152850Y-57629521D01*
X68173894Y-57642134D01*
X68193599Y-57656748D01*
X68211778Y-57673224D01*
X68228254Y-57691403D01*
X68242868Y-57711108D01*
X68255481Y-57732152D01*
X68265971Y-57754330D01*
X68274236Y-57777430D01*
X68280197Y-57801228D01*
X68283797Y-57825497D01*
X68285001Y-57850001D01*
X68285001Y-59100001D01*
X68283797Y-59124505D01*
X68280197Y-59148774D01*
X68274236Y-59172572D01*
X68265971Y-59195672D01*
X68255481Y-59217850D01*
X68242868Y-59238894D01*
X68228254Y-59258599D01*
X68211778Y-59276778D01*
X68193599Y-59293254D01*
X68173894Y-59307868D01*
X68152850Y-59320481D01*
X68130672Y-59330971D01*
X68107572Y-59339236D01*
X68083774Y-59345197D01*
X68059505Y-59348797D01*
X68035001Y-59350001D01*
X67110001Y-59350001D01*
X67085497Y-59348797D01*
X67061228Y-59345197D01*
X67037430Y-59339236D01*
X67014330Y-59330971D01*
X66992152Y-59320481D01*
X66971108Y-59307868D01*
X66951403Y-59293254D01*
X66933224Y-59276778D01*
X66916748Y-59258599D01*
X66902134Y-59238894D01*
X66889521Y-59217850D01*
X66879031Y-59195672D01*
X66870766Y-59172572D01*
X66864805Y-59148774D01*
X66861205Y-59124505D01*
X66860001Y-59100001D01*
X66860001Y-57850001D01*
X66861205Y-57825497D01*
X66864805Y-57801228D01*
X66870766Y-57777430D01*
X66879031Y-57754330D01*
X66889521Y-57732152D01*
X66902134Y-57711108D01*
X66916748Y-57691403D01*
X66933224Y-57673224D01*
X66951403Y-57656748D01*
X66971108Y-57642134D01*
X66992152Y-57629521D01*
X67014330Y-57619031D01*
X67037430Y-57610766D01*
X67061228Y-57604805D01*
X67085497Y-57601205D01*
X67110001Y-57600001D01*
X68035001Y-57600001D01*
X68059505Y-57601205D01*
G37*
G36*
X75474504Y-57601205D02*
G01*
X75498773Y-57604805D01*
X75522571Y-57610766D01*
X75545671Y-57619031D01*
X75567849Y-57629521D01*
X75588893Y-57642134D01*
X75608598Y-57656748D01*
X75626777Y-57673224D01*
X75643253Y-57691403D01*
X75657867Y-57711108D01*
X75670480Y-57732152D01*
X75680970Y-57754330D01*
X75689235Y-57777430D01*
X75695196Y-57801228D01*
X75698796Y-57825497D01*
X75700000Y-57850001D01*
X75700000Y-59100001D01*
X75698796Y-59124505D01*
X75695196Y-59148774D01*
X75689235Y-59172572D01*
X75680970Y-59195672D01*
X75670480Y-59217850D01*
X75657867Y-59238894D01*
X75643253Y-59258599D01*
X75626777Y-59276778D01*
X75608598Y-59293254D01*
X75588893Y-59307868D01*
X75567849Y-59320481D01*
X75545671Y-59330971D01*
X75522571Y-59339236D01*
X75498773Y-59345197D01*
X75474504Y-59348797D01*
X75450000Y-59350001D01*
X74525000Y-59350001D01*
X74500496Y-59348797D01*
X74476227Y-59345197D01*
X74452429Y-59339236D01*
X74429329Y-59330971D01*
X74407151Y-59320481D01*
X74386107Y-59307868D01*
X74366402Y-59293254D01*
X74348223Y-59276778D01*
X74331747Y-59258599D01*
X74317133Y-59238894D01*
X74304520Y-59217850D01*
X74294030Y-59195672D01*
X74285765Y-59172572D01*
X74279804Y-59148774D01*
X74276204Y-59124505D01*
X74275000Y-59100001D01*
X74275000Y-57850001D01*
X74276204Y-57825497D01*
X74279804Y-57801228D01*
X74285765Y-57777430D01*
X74294030Y-57754330D01*
X74304520Y-57732152D01*
X74317133Y-57711108D01*
X74331747Y-57691403D01*
X74348223Y-57673224D01*
X74366402Y-57656748D01*
X74386107Y-57642134D01*
X74407151Y-57629521D01*
X74429329Y-57619031D01*
X74452429Y-57610766D01*
X74476227Y-57604805D01*
X74500496Y-57601205D01*
X74525000Y-57600001D01*
X75450000Y-57600001D01*
X75474504Y-57601205D01*
G37*
G36*
X72499504Y-57601205D02*
G01*
X72523773Y-57604805D01*
X72547571Y-57610766D01*
X72570671Y-57619031D01*
X72592849Y-57629521D01*
X72613893Y-57642134D01*
X72633598Y-57656748D01*
X72651777Y-57673224D01*
X72668253Y-57691403D01*
X72682867Y-57711108D01*
X72695480Y-57732152D01*
X72705970Y-57754330D01*
X72714235Y-57777430D01*
X72720196Y-57801228D01*
X72723796Y-57825497D01*
X72725000Y-57850001D01*
X72725000Y-59100001D01*
X72723796Y-59124505D01*
X72720196Y-59148774D01*
X72714235Y-59172572D01*
X72705970Y-59195672D01*
X72695480Y-59217850D01*
X72682867Y-59238894D01*
X72668253Y-59258599D01*
X72651777Y-59276778D01*
X72633598Y-59293254D01*
X72613893Y-59307868D01*
X72592849Y-59320481D01*
X72570671Y-59330971D01*
X72547571Y-59339236D01*
X72523773Y-59345197D01*
X72499504Y-59348797D01*
X72475000Y-59350001D01*
X71550000Y-59350001D01*
X71525496Y-59348797D01*
X71501227Y-59345197D01*
X71477429Y-59339236D01*
X71454329Y-59330971D01*
X71432151Y-59320481D01*
X71411107Y-59307868D01*
X71391402Y-59293254D01*
X71373223Y-59276778D01*
X71356747Y-59258599D01*
X71342133Y-59238894D01*
X71329520Y-59217850D01*
X71319030Y-59195672D01*
X71310765Y-59172572D01*
X71304804Y-59148774D01*
X71301204Y-59124505D01*
X71300000Y-59100001D01*
X71300000Y-57850001D01*
X71301204Y-57825497D01*
X71304804Y-57801228D01*
X71310765Y-57777430D01*
X71319030Y-57754330D01*
X71329520Y-57732152D01*
X71342133Y-57711108D01*
X71356747Y-57691403D01*
X71373223Y-57673224D01*
X71391402Y-57656748D01*
X71411107Y-57642134D01*
X71432151Y-57629521D01*
X71454329Y-57619031D01*
X71477429Y-57610766D01*
X71501227Y-57604805D01*
X71525496Y-57601205D01*
X71550000Y-57600001D01*
X72475000Y-57600001D01*
X72499504Y-57601205D01*
G37*
G36*
X128499504Y-58126204D02*
G01*
X128523773Y-58129804D01*
X128547571Y-58135765D01*
X128570671Y-58144030D01*
X128592849Y-58154520D01*
X128613893Y-58167133D01*
X128633598Y-58181747D01*
X128651777Y-58198223D01*
X128668253Y-58216402D01*
X128682867Y-58236107D01*
X128695480Y-58257151D01*
X128705970Y-58279329D01*
X128714235Y-58302429D01*
X128720196Y-58326227D01*
X128723796Y-58350496D01*
X128725000Y-58375000D01*
X128725000Y-59625000D01*
X128723796Y-59649504D01*
X128720196Y-59673773D01*
X128714235Y-59697571D01*
X128705970Y-59720671D01*
X128695480Y-59742849D01*
X128682867Y-59763893D01*
X128668253Y-59783598D01*
X128651777Y-59801777D01*
X128633598Y-59818253D01*
X128613893Y-59832867D01*
X128592849Y-59845480D01*
X128570671Y-59855970D01*
X128547571Y-59864235D01*
X128523773Y-59870196D01*
X128499504Y-59873796D01*
X128475000Y-59875000D01*
X127550000Y-59875000D01*
X127525496Y-59873796D01*
X127501227Y-59870196D01*
X127477429Y-59864235D01*
X127454329Y-59855970D01*
X127432151Y-59845480D01*
X127411107Y-59832867D01*
X127391402Y-59818253D01*
X127373223Y-59801777D01*
X127356747Y-59783598D01*
X127342133Y-59763893D01*
X127329520Y-59742849D01*
X127319030Y-59720671D01*
X127310765Y-59697571D01*
X127304804Y-59673773D01*
X127301204Y-59649504D01*
X127300000Y-59625000D01*
X127300000Y-58375000D01*
X127301204Y-58350496D01*
X127304804Y-58326227D01*
X127310765Y-58302429D01*
X127319030Y-58279329D01*
X127329520Y-58257151D01*
X127342133Y-58236107D01*
X127356747Y-58216402D01*
X127373223Y-58198223D01*
X127391402Y-58181747D01*
X127411107Y-58167133D01*
X127432151Y-58154520D01*
X127454329Y-58144030D01*
X127477429Y-58135765D01*
X127501227Y-58129804D01*
X127525496Y-58126204D01*
X127550000Y-58125000D01*
X128475000Y-58125000D01*
X128499504Y-58126204D01*
G37*
G36*
X131474504Y-58126204D02*
G01*
X131498773Y-58129804D01*
X131522571Y-58135765D01*
X131545671Y-58144030D01*
X131567849Y-58154520D01*
X131588893Y-58167133D01*
X131608598Y-58181747D01*
X131626777Y-58198223D01*
X131643253Y-58216402D01*
X131657867Y-58236107D01*
X131670480Y-58257151D01*
X131680970Y-58279329D01*
X131689235Y-58302429D01*
X131695196Y-58326227D01*
X131698796Y-58350496D01*
X131700000Y-58375000D01*
X131700000Y-59625000D01*
X131698796Y-59649504D01*
X131695196Y-59673773D01*
X131689235Y-59697571D01*
X131680970Y-59720671D01*
X131670480Y-59742849D01*
X131657867Y-59763893D01*
X131643253Y-59783598D01*
X131626777Y-59801777D01*
X131608598Y-59818253D01*
X131588893Y-59832867D01*
X131567849Y-59845480D01*
X131545671Y-59855970D01*
X131522571Y-59864235D01*
X131498773Y-59870196D01*
X131474504Y-59873796D01*
X131450000Y-59875000D01*
X130525000Y-59875000D01*
X130500496Y-59873796D01*
X130476227Y-59870196D01*
X130452429Y-59864235D01*
X130429329Y-59855970D01*
X130407151Y-59845480D01*
X130386107Y-59832867D01*
X130366402Y-59818253D01*
X130348223Y-59801777D01*
X130331747Y-59783598D01*
X130317133Y-59763893D01*
X130304520Y-59742849D01*
X130294030Y-59720671D01*
X130285765Y-59697571D01*
X130279804Y-59673773D01*
X130276204Y-59649504D01*
X130275000Y-59625000D01*
X130275000Y-58375000D01*
X130276204Y-58350496D01*
X130279804Y-58326227D01*
X130285765Y-58302429D01*
X130294030Y-58279329D01*
X130304520Y-58257151D01*
X130317133Y-58236107D01*
X130331747Y-58216402D01*
X130348223Y-58198223D01*
X130366402Y-58181747D01*
X130386107Y-58167133D01*
X130407151Y-58154520D01*
X130429329Y-58144030D01*
X130452429Y-58135765D01*
X130476227Y-58129804D01*
X130500496Y-58126204D01*
X130525000Y-58125000D01*
X131450000Y-58125000D01*
X131474504Y-58126204D01*
G37*
G36*
X136462004Y-58126204D02*
G01*
X136486273Y-58129804D01*
X136510071Y-58135765D01*
X136533171Y-58144030D01*
X136555349Y-58154520D01*
X136576393Y-58167133D01*
X136596098Y-58181747D01*
X136614277Y-58198223D01*
X136630753Y-58216402D01*
X136645367Y-58236107D01*
X136657980Y-58257151D01*
X136668470Y-58279329D01*
X136676735Y-58302429D01*
X136682696Y-58326227D01*
X136686296Y-58350496D01*
X136687500Y-58375000D01*
X136687500Y-59625000D01*
X136686296Y-59649504D01*
X136682696Y-59673773D01*
X136676735Y-59697571D01*
X136668470Y-59720671D01*
X136657980Y-59742849D01*
X136645367Y-59763893D01*
X136630753Y-59783598D01*
X136614277Y-59801777D01*
X136596098Y-59818253D01*
X136576393Y-59832867D01*
X136555349Y-59845480D01*
X136533171Y-59855970D01*
X136510071Y-59864235D01*
X136486273Y-59870196D01*
X136462004Y-59873796D01*
X136437500Y-59875000D01*
X135512500Y-59875000D01*
X135487996Y-59873796D01*
X135463727Y-59870196D01*
X135439929Y-59864235D01*
X135416829Y-59855970D01*
X135394651Y-59845480D01*
X135373607Y-59832867D01*
X135353902Y-59818253D01*
X135335723Y-59801777D01*
X135319247Y-59783598D01*
X135304633Y-59763893D01*
X135292020Y-59742849D01*
X135281530Y-59720671D01*
X135273265Y-59697571D01*
X135267304Y-59673773D01*
X135263704Y-59649504D01*
X135262500Y-59625000D01*
X135262500Y-58375000D01*
X135263704Y-58350496D01*
X135267304Y-58326227D01*
X135273265Y-58302429D01*
X135281530Y-58279329D01*
X135292020Y-58257151D01*
X135304633Y-58236107D01*
X135319247Y-58216402D01*
X135335723Y-58198223D01*
X135353902Y-58181747D01*
X135373607Y-58167133D01*
X135394651Y-58154520D01*
X135416829Y-58144030D01*
X135439929Y-58135765D01*
X135463727Y-58129804D01*
X135487996Y-58126204D01*
X135512500Y-58125000D01*
X136437500Y-58125000D01*
X136462004Y-58126204D01*
G37*
G36*
X133487004Y-58126204D02*
G01*
X133511273Y-58129804D01*
X133535071Y-58135765D01*
X133558171Y-58144030D01*
X133580349Y-58154520D01*
X133601393Y-58167133D01*
X133621098Y-58181747D01*
X133639277Y-58198223D01*
X133655753Y-58216402D01*
X133670367Y-58236107D01*
X133682980Y-58257151D01*
X133693470Y-58279329D01*
X133701735Y-58302429D01*
X133707696Y-58326227D01*
X133711296Y-58350496D01*
X133712500Y-58375000D01*
X133712500Y-59625000D01*
X133711296Y-59649504D01*
X133707696Y-59673773D01*
X133701735Y-59697571D01*
X133693470Y-59720671D01*
X133682980Y-59742849D01*
X133670367Y-59763893D01*
X133655753Y-59783598D01*
X133639277Y-59801777D01*
X133621098Y-59818253D01*
X133601393Y-59832867D01*
X133580349Y-59845480D01*
X133558171Y-59855970D01*
X133535071Y-59864235D01*
X133511273Y-59870196D01*
X133487004Y-59873796D01*
X133462500Y-59875000D01*
X132537500Y-59875000D01*
X132512996Y-59873796D01*
X132488727Y-59870196D01*
X132464929Y-59864235D01*
X132441829Y-59855970D01*
X132419651Y-59845480D01*
X132398607Y-59832867D01*
X132378902Y-59818253D01*
X132360723Y-59801777D01*
X132344247Y-59783598D01*
X132329633Y-59763893D01*
X132317020Y-59742849D01*
X132306530Y-59720671D01*
X132298265Y-59697571D01*
X132292304Y-59673773D01*
X132288704Y-59649504D01*
X132287500Y-59625000D01*
X132287500Y-58375000D01*
X132288704Y-58350496D01*
X132292304Y-58326227D01*
X132298265Y-58302429D01*
X132306530Y-58279329D01*
X132317020Y-58257151D01*
X132329633Y-58236107D01*
X132344247Y-58216402D01*
X132360723Y-58198223D01*
X132378902Y-58181747D01*
X132398607Y-58167133D01*
X132419651Y-58154520D01*
X132441829Y-58144030D01*
X132464929Y-58135765D01*
X132488727Y-58129804D01*
X132512996Y-58126204D01*
X132537500Y-58125000D01*
X133462500Y-58125000D01*
X133487004Y-58126204D01*
G37*
G36*
X100224504Y-57626204D02*
G01*
X100248773Y-57629804D01*
X100272571Y-57635765D01*
X100295671Y-57644030D01*
X100317849Y-57654520D01*
X100338893Y-57667133D01*
X100358598Y-57681747D01*
X100376777Y-57698223D01*
X100393253Y-57716402D01*
X100407867Y-57736107D01*
X100420480Y-57757151D01*
X100430970Y-57779329D01*
X100439235Y-57802429D01*
X100445196Y-57826227D01*
X100448796Y-57850496D01*
X100450000Y-57875000D01*
X100450000Y-59125000D01*
X100448796Y-59149504D01*
X100445196Y-59173773D01*
X100439235Y-59197571D01*
X100430970Y-59220671D01*
X100420480Y-59242849D01*
X100407867Y-59263893D01*
X100393253Y-59283598D01*
X100376777Y-59301777D01*
X100358598Y-59318253D01*
X100338893Y-59332867D01*
X100317849Y-59345480D01*
X100295671Y-59355970D01*
X100272571Y-59364235D01*
X100248773Y-59370196D01*
X100224504Y-59373796D01*
X100200000Y-59375000D01*
X99275000Y-59375000D01*
X99250496Y-59373796D01*
X99226227Y-59370196D01*
X99202429Y-59364235D01*
X99179329Y-59355970D01*
X99157151Y-59345480D01*
X99136107Y-59332867D01*
X99116402Y-59318253D01*
X99098223Y-59301777D01*
X99081747Y-59283598D01*
X99067133Y-59263893D01*
X99054520Y-59242849D01*
X99044030Y-59220671D01*
X99035765Y-59197571D01*
X99029804Y-59173773D01*
X99026204Y-59149504D01*
X99025000Y-59125000D01*
X99025000Y-57875000D01*
X99026204Y-57850496D01*
X99029804Y-57826227D01*
X99035765Y-57802429D01*
X99044030Y-57779329D01*
X99054520Y-57757151D01*
X99067133Y-57736107D01*
X99081747Y-57716402D01*
X99098223Y-57698223D01*
X99116402Y-57681747D01*
X99136107Y-57667133D01*
X99157151Y-57654520D01*
X99179329Y-57644030D01*
X99202429Y-57635765D01*
X99226227Y-57629804D01*
X99250496Y-57626204D01*
X99275000Y-57625000D01*
X100200000Y-57625000D01*
X100224504Y-57626204D01*
G37*
G36*
X97249504Y-57626204D02*
G01*
X97273773Y-57629804D01*
X97297571Y-57635765D01*
X97320671Y-57644030D01*
X97342849Y-57654520D01*
X97363893Y-57667133D01*
X97383598Y-57681747D01*
X97401777Y-57698223D01*
X97418253Y-57716402D01*
X97432867Y-57736107D01*
X97445480Y-57757151D01*
X97455970Y-57779329D01*
X97464235Y-57802429D01*
X97470196Y-57826227D01*
X97473796Y-57850496D01*
X97475000Y-57875000D01*
X97475000Y-59125000D01*
X97473796Y-59149504D01*
X97470196Y-59173773D01*
X97464235Y-59197571D01*
X97455970Y-59220671D01*
X97445480Y-59242849D01*
X97432867Y-59263893D01*
X97418253Y-59283598D01*
X97401777Y-59301777D01*
X97383598Y-59318253D01*
X97363893Y-59332867D01*
X97342849Y-59345480D01*
X97320671Y-59355970D01*
X97297571Y-59364235D01*
X97273773Y-59370196D01*
X97249504Y-59373796D01*
X97225000Y-59375000D01*
X96300000Y-59375000D01*
X96275496Y-59373796D01*
X96251227Y-59370196D01*
X96227429Y-59364235D01*
X96204329Y-59355970D01*
X96182151Y-59345480D01*
X96161107Y-59332867D01*
X96141402Y-59318253D01*
X96123223Y-59301777D01*
X96106747Y-59283598D01*
X96092133Y-59263893D01*
X96079520Y-59242849D01*
X96069030Y-59220671D01*
X96060765Y-59197571D01*
X96054804Y-59173773D01*
X96051204Y-59149504D01*
X96050000Y-59125000D01*
X96050000Y-57875000D01*
X96051204Y-57850496D01*
X96054804Y-57826227D01*
X96060765Y-57802429D01*
X96069030Y-57779329D01*
X96079520Y-57757151D01*
X96092133Y-57736107D01*
X96106747Y-57716402D01*
X96123223Y-57698223D01*
X96141402Y-57681747D01*
X96161107Y-57667133D01*
X96182151Y-57654520D01*
X96204329Y-57644030D01*
X96227429Y-57635765D01*
X96251227Y-57629804D01*
X96275496Y-57626204D01*
X96300000Y-57625000D01*
X97225000Y-57625000D01*
X97249504Y-57626204D01*
G37*
G36*
X105749504Y-57626204D02*
G01*
X105773773Y-57629804D01*
X105797571Y-57635765D01*
X105820671Y-57644030D01*
X105842849Y-57654520D01*
X105863893Y-57667133D01*
X105883598Y-57681747D01*
X105901777Y-57698223D01*
X105918253Y-57716402D01*
X105932867Y-57736107D01*
X105945480Y-57757151D01*
X105955970Y-57779329D01*
X105964235Y-57802429D01*
X105970196Y-57826227D01*
X105973796Y-57850496D01*
X105975000Y-57875000D01*
X105975000Y-59125000D01*
X105973796Y-59149504D01*
X105970196Y-59173773D01*
X105964235Y-59197571D01*
X105955970Y-59220671D01*
X105945480Y-59242849D01*
X105932867Y-59263893D01*
X105918253Y-59283598D01*
X105901777Y-59301777D01*
X105883598Y-59318253D01*
X105863893Y-59332867D01*
X105842849Y-59345480D01*
X105820671Y-59355970D01*
X105797571Y-59364235D01*
X105773773Y-59370196D01*
X105749504Y-59373796D01*
X105725000Y-59375000D01*
X104800000Y-59375000D01*
X104775496Y-59373796D01*
X104751227Y-59370196D01*
X104727429Y-59364235D01*
X104704329Y-59355970D01*
X104682151Y-59345480D01*
X104661107Y-59332867D01*
X104641402Y-59318253D01*
X104623223Y-59301777D01*
X104606747Y-59283598D01*
X104592133Y-59263893D01*
X104579520Y-59242849D01*
X104569030Y-59220671D01*
X104560765Y-59197571D01*
X104554804Y-59173773D01*
X104551204Y-59149504D01*
X104550000Y-59125000D01*
X104550000Y-57875000D01*
X104551204Y-57850496D01*
X104554804Y-57826227D01*
X104560765Y-57802429D01*
X104569030Y-57779329D01*
X104579520Y-57757151D01*
X104592133Y-57736107D01*
X104606747Y-57716402D01*
X104623223Y-57698223D01*
X104641402Y-57681747D01*
X104661107Y-57667133D01*
X104682151Y-57654520D01*
X104704329Y-57644030D01*
X104727429Y-57635765D01*
X104751227Y-57629804D01*
X104775496Y-57626204D01*
X104800000Y-57625000D01*
X105725000Y-57625000D01*
X105749504Y-57626204D01*
G37*
G36*
X108724504Y-57626204D02*
G01*
X108748773Y-57629804D01*
X108772571Y-57635765D01*
X108795671Y-57644030D01*
X108817849Y-57654520D01*
X108838893Y-57667133D01*
X108858598Y-57681747D01*
X108876777Y-57698223D01*
X108893253Y-57716402D01*
X108907867Y-57736107D01*
X108920480Y-57757151D01*
X108930970Y-57779329D01*
X108939235Y-57802429D01*
X108945196Y-57826227D01*
X108948796Y-57850496D01*
X108950000Y-57875000D01*
X108950000Y-59125000D01*
X108948796Y-59149504D01*
X108945196Y-59173773D01*
X108939235Y-59197571D01*
X108930970Y-59220671D01*
X108920480Y-59242849D01*
X108907867Y-59263893D01*
X108893253Y-59283598D01*
X108876777Y-59301777D01*
X108858598Y-59318253D01*
X108838893Y-59332867D01*
X108817849Y-59345480D01*
X108795671Y-59355970D01*
X108772571Y-59364235D01*
X108748773Y-59370196D01*
X108724504Y-59373796D01*
X108700000Y-59375000D01*
X107775000Y-59375000D01*
X107750496Y-59373796D01*
X107726227Y-59370196D01*
X107702429Y-59364235D01*
X107679329Y-59355970D01*
X107657151Y-59345480D01*
X107636107Y-59332867D01*
X107616402Y-59318253D01*
X107598223Y-59301777D01*
X107581747Y-59283598D01*
X107567133Y-59263893D01*
X107554520Y-59242849D01*
X107544030Y-59220671D01*
X107535765Y-59197571D01*
X107529804Y-59173773D01*
X107526204Y-59149504D01*
X107525000Y-59125000D01*
X107525000Y-57875000D01*
X107526204Y-57850496D01*
X107529804Y-57826227D01*
X107535765Y-57802429D01*
X107544030Y-57779329D01*
X107554520Y-57757151D01*
X107567133Y-57736107D01*
X107581747Y-57716402D01*
X107598223Y-57698223D01*
X107616402Y-57681747D01*
X107636107Y-57667133D01*
X107657151Y-57654520D01*
X107679329Y-57644030D01*
X107702429Y-57635765D01*
X107726227Y-57629804D01*
X107750496Y-57626204D01*
X107775000Y-57625000D01*
X108700000Y-57625000D01*
X108724504Y-57626204D01*
G37*
D13*
X61250000Y-53100000D03*
X61250000Y-56400000D03*
X79000000Y-56400000D03*
X79000000Y-53100000D03*
D12*
G36*
X71374505Y-50301204D02*
G01*
X71398773Y-50304804D01*
X71422572Y-50310765D01*
X71445671Y-50319030D01*
X71467850Y-50329520D01*
X71488893Y-50342132D01*
X71508599Y-50356747D01*
X71526777Y-50373223D01*
X71543253Y-50391401D01*
X71557868Y-50411107D01*
X71570480Y-50432150D01*
X71580970Y-50454329D01*
X71589235Y-50477428D01*
X71595196Y-50501227D01*
X71598796Y-50525495D01*
X71600000Y-50549999D01*
X71600000Y-51450001D01*
X71598796Y-51474505D01*
X71595196Y-51498773D01*
X71589235Y-51522572D01*
X71580970Y-51545671D01*
X71570480Y-51567850D01*
X71557868Y-51588893D01*
X71543253Y-51608599D01*
X71526777Y-51626777D01*
X71508599Y-51643253D01*
X71488893Y-51657868D01*
X71467850Y-51670480D01*
X71445671Y-51680970D01*
X71422572Y-51689235D01*
X71398773Y-51695196D01*
X71374505Y-51698796D01*
X71350001Y-51700000D01*
X70699999Y-51700000D01*
X70675495Y-51698796D01*
X70651227Y-51695196D01*
X70627428Y-51689235D01*
X70604329Y-51680970D01*
X70582150Y-51670480D01*
X70561107Y-51657868D01*
X70541401Y-51643253D01*
X70523223Y-51626777D01*
X70506747Y-51608599D01*
X70492132Y-51588893D01*
X70479520Y-51567850D01*
X70469030Y-51545671D01*
X70460765Y-51522572D01*
X70454804Y-51498773D01*
X70451204Y-51474505D01*
X70450000Y-51450001D01*
X70450000Y-50549999D01*
X70451204Y-50525495D01*
X70454804Y-50501227D01*
X70460765Y-50477428D01*
X70469030Y-50454329D01*
X70479520Y-50432150D01*
X70492132Y-50411107D01*
X70506747Y-50391401D01*
X70523223Y-50373223D01*
X70541401Y-50356747D01*
X70561107Y-50342132D01*
X70582150Y-50329520D01*
X70604329Y-50319030D01*
X70627428Y-50310765D01*
X70651227Y-50304804D01*
X70675495Y-50301204D01*
X70699999Y-50300000D01*
X71350001Y-50300000D01*
X71374505Y-50301204D01*
G37*
G36*
X69324505Y-50301204D02*
G01*
X69348773Y-50304804D01*
X69372572Y-50310765D01*
X69395671Y-50319030D01*
X69417850Y-50329520D01*
X69438893Y-50342132D01*
X69458599Y-50356747D01*
X69476777Y-50373223D01*
X69493253Y-50391401D01*
X69507868Y-50411107D01*
X69520480Y-50432150D01*
X69530970Y-50454329D01*
X69539235Y-50477428D01*
X69545196Y-50501227D01*
X69548796Y-50525495D01*
X69550000Y-50549999D01*
X69550000Y-51450001D01*
X69548796Y-51474505D01*
X69545196Y-51498773D01*
X69539235Y-51522572D01*
X69530970Y-51545671D01*
X69520480Y-51567850D01*
X69507868Y-51588893D01*
X69493253Y-51608599D01*
X69476777Y-51626777D01*
X69458599Y-51643253D01*
X69438893Y-51657868D01*
X69417850Y-51670480D01*
X69395671Y-51680970D01*
X69372572Y-51689235D01*
X69348773Y-51695196D01*
X69324505Y-51698796D01*
X69300001Y-51700000D01*
X68649999Y-51700000D01*
X68625495Y-51698796D01*
X68601227Y-51695196D01*
X68577428Y-51689235D01*
X68554329Y-51680970D01*
X68532150Y-51670480D01*
X68511107Y-51657868D01*
X68491401Y-51643253D01*
X68473223Y-51626777D01*
X68456747Y-51608599D01*
X68442132Y-51588893D01*
X68429520Y-51567850D01*
X68419030Y-51545671D01*
X68410765Y-51522572D01*
X68404804Y-51498773D01*
X68401204Y-51474505D01*
X68400000Y-51450001D01*
X68400000Y-50549999D01*
X68401204Y-50525495D01*
X68404804Y-50501227D01*
X68410765Y-50477428D01*
X68419030Y-50454329D01*
X68429520Y-50432150D01*
X68442132Y-50411107D01*
X68456747Y-50391401D01*
X68473223Y-50373223D01*
X68491401Y-50356747D01*
X68511107Y-50342132D01*
X68532150Y-50329520D01*
X68554329Y-50319030D01*
X68577428Y-50310765D01*
X68601227Y-50304804D01*
X68625495Y-50301204D01*
X68649999Y-50300000D01*
X69300001Y-50300000D01*
X69324505Y-50301204D01*
G37*
D14*
X131150000Y-62500000D03*
X127850000Y-62500000D03*
X132850000Y-62500000D03*
X136150000Y-62500000D03*
D12*
G36*
X132874505Y-50301204D02*
G01*
X132898773Y-50304804D01*
X132922572Y-50310765D01*
X132945671Y-50319030D01*
X132967850Y-50329520D01*
X132988893Y-50342132D01*
X133008599Y-50356747D01*
X133026777Y-50373223D01*
X133043253Y-50391401D01*
X133057868Y-50411107D01*
X133070480Y-50432150D01*
X133080970Y-50454329D01*
X133089235Y-50477428D01*
X133095196Y-50501227D01*
X133098796Y-50525495D01*
X133100000Y-50549999D01*
X133100000Y-51450001D01*
X133098796Y-51474505D01*
X133095196Y-51498773D01*
X133089235Y-51522572D01*
X133080970Y-51545671D01*
X133070480Y-51567850D01*
X133057868Y-51588893D01*
X133043253Y-51608599D01*
X133026777Y-51626777D01*
X133008599Y-51643253D01*
X132988893Y-51657868D01*
X132967850Y-51670480D01*
X132945671Y-51680970D01*
X132922572Y-51689235D01*
X132898773Y-51695196D01*
X132874505Y-51698796D01*
X132850001Y-51700000D01*
X132199999Y-51700000D01*
X132175495Y-51698796D01*
X132151227Y-51695196D01*
X132127428Y-51689235D01*
X132104329Y-51680970D01*
X132082150Y-51670480D01*
X132061107Y-51657868D01*
X132041401Y-51643253D01*
X132023223Y-51626777D01*
X132006747Y-51608599D01*
X131992132Y-51588893D01*
X131979520Y-51567850D01*
X131969030Y-51545671D01*
X131960765Y-51522572D01*
X131954804Y-51498773D01*
X131951204Y-51474505D01*
X131950000Y-51450001D01*
X131950000Y-50549999D01*
X131951204Y-50525495D01*
X131954804Y-50501227D01*
X131960765Y-50477428D01*
X131969030Y-50454329D01*
X131979520Y-50432150D01*
X131992132Y-50411107D01*
X132006747Y-50391401D01*
X132023223Y-50373223D01*
X132041401Y-50356747D01*
X132061107Y-50342132D01*
X132082150Y-50329520D01*
X132104329Y-50319030D01*
X132127428Y-50310765D01*
X132151227Y-50304804D01*
X132175495Y-50301204D01*
X132199999Y-50300000D01*
X132850001Y-50300000D01*
X132874505Y-50301204D01*
G37*
G36*
X130824505Y-50301204D02*
G01*
X130848773Y-50304804D01*
X130872572Y-50310765D01*
X130895671Y-50319030D01*
X130917850Y-50329520D01*
X130938893Y-50342132D01*
X130958599Y-50356747D01*
X130976777Y-50373223D01*
X130993253Y-50391401D01*
X131007868Y-50411107D01*
X131020480Y-50432150D01*
X131030970Y-50454329D01*
X131039235Y-50477428D01*
X131045196Y-50501227D01*
X131048796Y-50525495D01*
X131050000Y-50549999D01*
X131050000Y-51450001D01*
X131048796Y-51474505D01*
X131045196Y-51498773D01*
X131039235Y-51522572D01*
X131030970Y-51545671D01*
X131020480Y-51567850D01*
X131007868Y-51588893D01*
X130993253Y-51608599D01*
X130976777Y-51626777D01*
X130958599Y-51643253D01*
X130938893Y-51657868D01*
X130917850Y-51670480D01*
X130895671Y-51680970D01*
X130872572Y-51689235D01*
X130848773Y-51695196D01*
X130824505Y-51698796D01*
X130800001Y-51700000D01*
X130149999Y-51700000D01*
X130125495Y-51698796D01*
X130101227Y-51695196D01*
X130077428Y-51689235D01*
X130054329Y-51680970D01*
X130032150Y-51670480D01*
X130011107Y-51657868D01*
X129991401Y-51643253D01*
X129973223Y-51626777D01*
X129956747Y-51608599D01*
X129942132Y-51588893D01*
X129929520Y-51567850D01*
X129919030Y-51545671D01*
X129910765Y-51522572D01*
X129904804Y-51498773D01*
X129901204Y-51474505D01*
X129900000Y-51450001D01*
X129900000Y-50549999D01*
X129901204Y-50525495D01*
X129904804Y-50501227D01*
X129910765Y-50477428D01*
X129919030Y-50454329D01*
X129929520Y-50432150D01*
X129942132Y-50411107D01*
X129956747Y-50391401D01*
X129973223Y-50373223D01*
X129991401Y-50356747D01*
X130011107Y-50342132D01*
X130032150Y-50329520D01*
X130054329Y-50319030D01*
X130077428Y-50310765D01*
X130101227Y-50304804D01*
X130125495Y-50301204D01*
X130149999Y-50300000D01*
X130800001Y-50300000D01*
X130824505Y-50301204D01*
G37*
D13*
X93250000Y-53100000D03*
X93250000Y-56400000D03*
X110750000Y-53100000D03*
X110750000Y-56400000D03*
D12*
G36*
X101324505Y-50301204D02*
G01*
X101348773Y-50304804D01*
X101372572Y-50310765D01*
X101395671Y-50319030D01*
X101417850Y-50329520D01*
X101438893Y-50342132D01*
X101458599Y-50356747D01*
X101476777Y-50373223D01*
X101493253Y-50391401D01*
X101507868Y-50411107D01*
X101520480Y-50432150D01*
X101530970Y-50454329D01*
X101539235Y-50477428D01*
X101545196Y-50501227D01*
X101548796Y-50525495D01*
X101550000Y-50549999D01*
X101550000Y-51450001D01*
X101548796Y-51474505D01*
X101545196Y-51498773D01*
X101539235Y-51522572D01*
X101530970Y-51545671D01*
X101520480Y-51567850D01*
X101507868Y-51588893D01*
X101493253Y-51608599D01*
X101476777Y-51626777D01*
X101458599Y-51643253D01*
X101438893Y-51657868D01*
X101417850Y-51670480D01*
X101395671Y-51680970D01*
X101372572Y-51689235D01*
X101348773Y-51695196D01*
X101324505Y-51698796D01*
X101300001Y-51700000D01*
X100649999Y-51700000D01*
X100625495Y-51698796D01*
X100601227Y-51695196D01*
X100577428Y-51689235D01*
X100554329Y-51680970D01*
X100532150Y-51670480D01*
X100511107Y-51657868D01*
X100491401Y-51643253D01*
X100473223Y-51626777D01*
X100456747Y-51608599D01*
X100442132Y-51588893D01*
X100429520Y-51567850D01*
X100419030Y-51545671D01*
X100410765Y-51522572D01*
X100404804Y-51498773D01*
X100401204Y-51474505D01*
X100400000Y-51450001D01*
X100400000Y-50549999D01*
X100401204Y-50525495D01*
X100404804Y-50501227D01*
X100410765Y-50477428D01*
X100419030Y-50454329D01*
X100429520Y-50432150D01*
X100442132Y-50411107D01*
X100456747Y-50391401D01*
X100473223Y-50373223D01*
X100491401Y-50356747D01*
X100511107Y-50342132D01*
X100532150Y-50329520D01*
X100554329Y-50319030D01*
X100577428Y-50310765D01*
X100601227Y-50304804D01*
X100625495Y-50301204D01*
X100649999Y-50300000D01*
X101300001Y-50300000D01*
X101324505Y-50301204D01*
G37*
G36*
X103374505Y-50301204D02*
G01*
X103398773Y-50304804D01*
X103422572Y-50310765D01*
X103445671Y-50319030D01*
X103467850Y-50329520D01*
X103488893Y-50342132D01*
X103508599Y-50356747D01*
X103526777Y-50373223D01*
X103543253Y-50391401D01*
X103557868Y-50411107D01*
X103570480Y-50432150D01*
X103580970Y-50454329D01*
X103589235Y-50477428D01*
X103595196Y-50501227D01*
X103598796Y-50525495D01*
X103600000Y-50549999D01*
X103600000Y-51450001D01*
X103598796Y-51474505D01*
X103595196Y-51498773D01*
X103589235Y-51522572D01*
X103580970Y-51545671D01*
X103570480Y-51567850D01*
X103557868Y-51588893D01*
X103543253Y-51608599D01*
X103526777Y-51626777D01*
X103508599Y-51643253D01*
X103488893Y-51657868D01*
X103467850Y-51670480D01*
X103445671Y-51680970D01*
X103422572Y-51689235D01*
X103398773Y-51695196D01*
X103374505Y-51698796D01*
X103350001Y-51700000D01*
X102699999Y-51700000D01*
X102675495Y-51698796D01*
X102651227Y-51695196D01*
X102627428Y-51689235D01*
X102604329Y-51680970D01*
X102582150Y-51670480D01*
X102561107Y-51657868D01*
X102541401Y-51643253D01*
X102523223Y-51626777D01*
X102506747Y-51608599D01*
X102492132Y-51588893D01*
X102479520Y-51567850D01*
X102469030Y-51545671D01*
X102460765Y-51522572D01*
X102454804Y-51498773D01*
X102451204Y-51474505D01*
X102450000Y-51450001D01*
X102450000Y-50549999D01*
X102451204Y-50525495D01*
X102454804Y-50501227D01*
X102460765Y-50477428D01*
X102469030Y-50454329D01*
X102479520Y-50432150D01*
X102492132Y-50411107D01*
X102506747Y-50391401D01*
X102523223Y-50373223D01*
X102541401Y-50356747D01*
X102561107Y-50342132D01*
X102582150Y-50329520D01*
X102604329Y-50319030D01*
X102627428Y-50310765D01*
X102651227Y-50304804D01*
X102675495Y-50301204D01*
X102699999Y-50300000D01*
X103350001Y-50300000D01*
X103374505Y-50301204D01*
G37*
G36*
X65074505Y-50301204D02*
G01*
X65098773Y-50304804D01*
X65122572Y-50310765D01*
X65145671Y-50319030D01*
X65167850Y-50329520D01*
X65188893Y-50342132D01*
X65208599Y-50356747D01*
X65226777Y-50373223D01*
X65243253Y-50391401D01*
X65257868Y-50411107D01*
X65270480Y-50432150D01*
X65280970Y-50454329D01*
X65289235Y-50477428D01*
X65295196Y-50501227D01*
X65298796Y-50525495D01*
X65300000Y-50549999D01*
X65300000Y-51450001D01*
X65298796Y-51474505D01*
X65295196Y-51498773D01*
X65289235Y-51522572D01*
X65280970Y-51545671D01*
X65270480Y-51567850D01*
X65257868Y-51588893D01*
X65243253Y-51608599D01*
X65226777Y-51626777D01*
X65208599Y-51643253D01*
X65188893Y-51657868D01*
X65167850Y-51670480D01*
X65145671Y-51680970D01*
X65122572Y-51689235D01*
X65098773Y-51695196D01*
X65074505Y-51698796D01*
X65050001Y-51700000D01*
X64399999Y-51700000D01*
X64375495Y-51698796D01*
X64351227Y-51695196D01*
X64327428Y-51689235D01*
X64304329Y-51680970D01*
X64282150Y-51670480D01*
X64261107Y-51657868D01*
X64241401Y-51643253D01*
X64223223Y-51626777D01*
X64206747Y-51608599D01*
X64192132Y-51588893D01*
X64179520Y-51567850D01*
X64169030Y-51545671D01*
X64160765Y-51522572D01*
X64154804Y-51498773D01*
X64151204Y-51474505D01*
X64150000Y-51450001D01*
X64150000Y-50549999D01*
X64151204Y-50525495D01*
X64154804Y-50501227D01*
X64160765Y-50477428D01*
X64169030Y-50454329D01*
X64179520Y-50432150D01*
X64192132Y-50411107D01*
X64206747Y-50391401D01*
X64223223Y-50373223D01*
X64241401Y-50356747D01*
X64261107Y-50342132D01*
X64282150Y-50329520D01*
X64304329Y-50319030D01*
X64327428Y-50310765D01*
X64351227Y-50304804D01*
X64375495Y-50301204D01*
X64399999Y-50300000D01*
X65050001Y-50300000D01*
X65074505Y-50301204D01*
G37*
G36*
X67124505Y-50301204D02*
G01*
X67148773Y-50304804D01*
X67172572Y-50310765D01*
X67195671Y-50319030D01*
X67217850Y-50329520D01*
X67238893Y-50342132D01*
X67258599Y-50356747D01*
X67276777Y-50373223D01*
X67293253Y-50391401D01*
X67307868Y-50411107D01*
X67320480Y-50432150D01*
X67330970Y-50454329D01*
X67339235Y-50477428D01*
X67345196Y-50501227D01*
X67348796Y-50525495D01*
X67350000Y-50549999D01*
X67350000Y-51450001D01*
X67348796Y-51474505D01*
X67345196Y-51498773D01*
X67339235Y-51522572D01*
X67330970Y-51545671D01*
X67320480Y-51567850D01*
X67307868Y-51588893D01*
X67293253Y-51608599D01*
X67276777Y-51626777D01*
X67258599Y-51643253D01*
X67238893Y-51657868D01*
X67217850Y-51670480D01*
X67195671Y-51680970D01*
X67172572Y-51689235D01*
X67148773Y-51695196D01*
X67124505Y-51698796D01*
X67100001Y-51700000D01*
X66449999Y-51700000D01*
X66425495Y-51698796D01*
X66401227Y-51695196D01*
X66377428Y-51689235D01*
X66354329Y-51680970D01*
X66332150Y-51670480D01*
X66311107Y-51657868D01*
X66291401Y-51643253D01*
X66273223Y-51626777D01*
X66256747Y-51608599D01*
X66242132Y-51588893D01*
X66229520Y-51567850D01*
X66219030Y-51545671D01*
X66210765Y-51522572D01*
X66204804Y-51498773D01*
X66201204Y-51474505D01*
X66200000Y-51450001D01*
X66200000Y-50549999D01*
X66201204Y-50525495D01*
X66204804Y-50501227D01*
X66210765Y-50477428D01*
X66219030Y-50454329D01*
X66229520Y-50432150D01*
X66242132Y-50411107D01*
X66256747Y-50391401D01*
X66273223Y-50373223D01*
X66291401Y-50356747D01*
X66311107Y-50342132D01*
X66332150Y-50329520D01*
X66354329Y-50319030D01*
X66377428Y-50310765D01*
X66401227Y-50304804D01*
X66425495Y-50301204D01*
X66449999Y-50300000D01*
X67100001Y-50300000D01*
X67124505Y-50301204D01*
G37*
G36*
X128874505Y-50301204D02*
G01*
X128898773Y-50304804D01*
X128922572Y-50310765D01*
X128945671Y-50319030D01*
X128967850Y-50329520D01*
X128988893Y-50342132D01*
X129008599Y-50356747D01*
X129026777Y-50373223D01*
X129043253Y-50391401D01*
X129057868Y-50411107D01*
X129070480Y-50432150D01*
X129080970Y-50454329D01*
X129089235Y-50477428D01*
X129095196Y-50501227D01*
X129098796Y-50525495D01*
X129100000Y-50549999D01*
X129100000Y-51450001D01*
X129098796Y-51474505D01*
X129095196Y-51498773D01*
X129089235Y-51522572D01*
X129080970Y-51545671D01*
X129070480Y-51567850D01*
X129057868Y-51588893D01*
X129043253Y-51608599D01*
X129026777Y-51626777D01*
X129008599Y-51643253D01*
X128988893Y-51657868D01*
X128967850Y-51670480D01*
X128945671Y-51680970D01*
X128922572Y-51689235D01*
X128898773Y-51695196D01*
X128874505Y-51698796D01*
X128850001Y-51700000D01*
X128199999Y-51700000D01*
X128175495Y-51698796D01*
X128151227Y-51695196D01*
X128127428Y-51689235D01*
X128104329Y-51680970D01*
X128082150Y-51670480D01*
X128061107Y-51657868D01*
X128041401Y-51643253D01*
X128023223Y-51626777D01*
X128006747Y-51608599D01*
X127992132Y-51588893D01*
X127979520Y-51567850D01*
X127969030Y-51545671D01*
X127960765Y-51522572D01*
X127954804Y-51498773D01*
X127951204Y-51474505D01*
X127950000Y-51450001D01*
X127950000Y-50549999D01*
X127951204Y-50525495D01*
X127954804Y-50501227D01*
X127960765Y-50477428D01*
X127969030Y-50454329D01*
X127979520Y-50432150D01*
X127992132Y-50411107D01*
X128006747Y-50391401D01*
X128023223Y-50373223D01*
X128041401Y-50356747D01*
X128061107Y-50342132D01*
X128082150Y-50329520D01*
X128104329Y-50319030D01*
X128127428Y-50310765D01*
X128151227Y-50304804D01*
X128175495Y-50301204D01*
X128199999Y-50300000D01*
X128850001Y-50300000D01*
X128874505Y-50301204D01*
G37*
G36*
X126824505Y-50301204D02*
G01*
X126848773Y-50304804D01*
X126872572Y-50310765D01*
X126895671Y-50319030D01*
X126917850Y-50329520D01*
X126938893Y-50342132D01*
X126958599Y-50356747D01*
X126976777Y-50373223D01*
X126993253Y-50391401D01*
X127007868Y-50411107D01*
X127020480Y-50432150D01*
X127030970Y-50454329D01*
X127039235Y-50477428D01*
X127045196Y-50501227D01*
X127048796Y-50525495D01*
X127050000Y-50549999D01*
X127050000Y-51450001D01*
X127048796Y-51474505D01*
X127045196Y-51498773D01*
X127039235Y-51522572D01*
X127030970Y-51545671D01*
X127020480Y-51567850D01*
X127007868Y-51588893D01*
X126993253Y-51608599D01*
X126976777Y-51626777D01*
X126958599Y-51643253D01*
X126938893Y-51657868D01*
X126917850Y-51670480D01*
X126895671Y-51680970D01*
X126872572Y-51689235D01*
X126848773Y-51695196D01*
X126824505Y-51698796D01*
X126800001Y-51700000D01*
X126149999Y-51700000D01*
X126125495Y-51698796D01*
X126101227Y-51695196D01*
X126077428Y-51689235D01*
X126054329Y-51680970D01*
X126032150Y-51670480D01*
X126011107Y-51657868D01*
X125991401Y-51643253D01*
X125973223Y-51626777D01*
X125956747Y-51608599D01*
X125942132Y-51588893D01*
X125929520Y-51567850D01*
X125919030Y-51545671D01*
X125910765Y-51522572D01*
X125904804Y-51498773D01*
X125901204Y-51474505D01*
X125900000Y-51450001D01*
X125900000Y-50549999D01*
X125901204Y-50525495D01*
X125904804Y-50501227D01*
X125910765Y-50477428D01*
X125919030Y-50454329D01*
X125929520Y-50432150D01*
X125942132Y-50411107D01*
X125956747Y-50391401D01*
X125973223Y-50373223D01*
X125991401Y-50356747D01*
X126011107Y-50342132D01*
X126032150Y-50329520D01*
X126054329Y-50319030D01*
X126077428Y-50310765D01*
X126101227Y-50304804D01*
X126125495Y-50301204D01*
X126149999Y-50300000D01*
X126800001Y-50300000D01*
X126824505Y-50301204D01*
G37*
G36*
X99374505Y-50301204D02*
G01*
X99398773Y-50304804D01*
X99422572Y-50310765D01*
X99445671Y-50319030D01*
X99467850Y-50329520D01*
X99488893Y-50342132D01*
X99508599Y-50356747D01*
X99526777Y-50373223D01*
X99543253Y-50391401D01*
X99557868Y-50411107D01*
X99570480Y-50432150D01*
X99580970Y-50454329D01*
X99589235Y-50477428D01*
X99595196Y-50501227D01*
X99598796Y-50525495D01*
X99600000Y-50549999D01*
X99600000Y-51450001D01*
X99598796Y-51474505D01*
X99595196Y-51498773D01*
X99589235Y-51522572D01*
X99580970Y-51545671D01*
X99570480Y-51567850D01*
X99557868Y-51588893D01*
X99543253Y-51608599D01*
X99526777Y-51626777D01*
X99508599Y-51643253D01*
X99488893Y-51657868D01*
X99467850Y-51670480D01*
X99445671Y-51680970D01*
X99422572Y-51689235D01*
X99398773Y-51695196D01*
X99374505Y-51698796D01*
X99350001Y-51700000D01*
X98699999Y-51700000D01*
X98675495Y-51698796D01*
X98651227Y-51695196D01*
X98627428Y-51689235D01*
X98604329Y-51680970D01*
X98582150Y-51670480D01*
X98561107Y-51657868D01*
X98541401Y-51643253D01*
X98523223Y-51626777D01*
X98506747Y-51608599D01*
X98492132Y-51588893D01*
X98479520Y-51567850D01*
X98469030Y-51545671D01*
X98460765Y-51522572D01*
X98454804Y-51498773D01*
X98451204Y-51474505D01*
X98450000Y-51450001D01*
X98450000Y-50549999D01*
X98451204Y-50525495D01*
X98454804Y-50501227D01*
X98460765Y-50477428D01*
X98469030Y-50454329D01*
X98479520Y-50432150D01*
X98492132Y-50411107D01*
X98506747Y-50391401D01*
X98523223Y-50373223D01*
X98541401Y-50356747D01*
X98561107Y-50342132D01*
X98582150Y-50329520D01*
X98604329Y-50319030D01*
X98627428Y-50310765D01*
X98651227Y-50304804D01*
X98675495Y-50301204D01*
X98699999Y-50300000D01*
X99350001Y-50300000D01*
X99374505Y-50301204D01*
G37*
G36*
X97324505Y-50301204D02*
G01*
X97348773Y-50304804D01*
X97372572Y-50310765D01*
X97395671Y-50319030D01*
X97417850Y-50329520D01*
X97438893Y-50342132D01*
X97458599Y-50356747D01*
X97476777Y-50373223D01*
X97493253Y-50391401D01*
X97507868Y-50411107D01*
X97520480Y-50432150D01*
X97530970Y-50454329D01*
X97539235Y-50477428D01*
X97545196Y-50501227D01*
X97548796Y-50525495D01*
X97550000Y-50549999D01*
X97550000Y-51450001D01*
X97548796Y-51474505D01*
X97545196Y-51498773D01*
X97539235Y-51522572D01*
X97530970Y-51545671D01*
X97520480Y-51567850D01*
X97507868Y-51588893D01*
X97493253Y-51608599D01*
X97476777Y-51626777D01*
X97458599Y-51643253D01*
X97438893Y-51657868D01*
X97417850Y-51670480D01*
X97395671Y-51680970D01*
X97372572Y-51689235D01*
X97348773Y-51695196D01*
X97324505Y-51698796D01*
X97300001Y-51700000D01*
X96649999Y-51700000D01*
X96625495Y-51698796D01*
X96601227Y-51695196D01*
X96577428Y-51689235D01*
X96554329Y-51680970D01*
X96532150Y-51670480D01*
X96511107Y-51657868D01*
X96491401Y-51643253D01*
X96473223Y-51626777D01*
X96456747Y-51608599D01*
X96442132Y-51588893D01*
X96429520Y-51567850D01*
X96419030Y-51545671D01*
X96410765Y-51522572D01*
X96404804Y-51498773D01*
X96401204Y-51474505D01*
X96400000Y-51450001D01*
X96400000Y-50549999D01*
X96401204Y-50525495D01*
X96404804Y-50501227D01*
X96410765Y-50477428D01*
X96419030Y-50454329D01*
X96429520Y-50432150D01*
X96442132Y-50411107D01*
X96456747Y-50391401D01*
X96473223Y-50373223D01*
X96491401Y-50356747D01*
X96511107Y-50342132D01*
X96532150Y-50329520D01*
X96554329Y-50319030D01*
X96577428Y-50310765D01*
X96601227Y-50304804D01*
X96625495Y-50301204D01*
X96649999Y-50300000D01*
X97300001Y-50300000D01*
X97324505Y-50301204D01*
G37*
M02*
