M48
; DRILL file {KiCad (5.1.5)-3} date 23/03/2020 00:00:18
; FORMAT={-:-/ absolute / metric / decimal}
; #@! TF.CreationDate,2020-03-23T00:00:18+01:00
; #@! TF.GenerationSoftware,Kicad,Pcbnew,(5.1.5)-3
; #@! TF.FileFunction,Plated,1,2,PTH
FMAT,2
METRIC
T1C0.400
T2C0.500
T3C0.600
T4C0.800
T5C0.900
T6C1.000
T7C1.016
%
G90
G05
T1
X51.5Y-51.5
X51.5Y-148.5
X54.0Y-107.25
X57.343Y-104.343
X57.5Y-107.25
X59.632Y-100.868
X60.0Y-65.0
X60.0Y-75.0
X60.0Y-85.0
X60.0Y-91.75
X60.0Y-104.25
X60.0Y-115.0
X60.0Y-125.0
X60.233Y-101.469
X60.75Y-99.807
X61.537Y-99.485
X63.25Y-104.75
X64.25Y-107.25
X65.0Y-95.0
X65.149Y-85.952
X66.082Y-85.832
X66.25Y-107.25
X67.205Y-88.25
X67.75Y-75.0
X67.78Y-87.53
X68.0Y-86.25
X69.0Y-68.75
X70.0Y-95.0
X70.0Y-115.0
X70.0Y-125.0
X70.0Y-145.0
X70.0Y-148.25
X70.187Y-86.718
X71.5Y-75.0
X73.0Y-107.25
X77.75Y-95.75
X78.5Y-100.25
X78.5Y-105.0
X80.0Y-65.0
X80.0Y-75.0
X80.0Y-85.0
X80.0Y-95.0
X80.0Y-105.0
X80.0Y-115.0
X80.0Y-125.0
X80.25Y-107.25
X80.75Y-100.0
X81.75Y-100.0
X82.75Y-105.0
X84.0Y-118.5
X84.25Y-107.0
X87.0Y-107.25
X88.025Y-117.0
X88.5Y-51.5
X88.5Y-148.5
X93.2Y-98.75
X93.25Y-51.0
X93.5Y-80.5
X93.5Y-125.0
X93.5Y-140.0
X93.5Y-148.25
X93.75Y-72.0
X93.75Y-106.5
X93.775Y-104.25
X95.3Y-106.5
X95.75Y-101.0
X96.5Y-72.0
X97.0Y-74.5
X97.25Y-94.0
X98.0Y-102.25
X98.5Y-78.25
X98.75Y-83.5
X98.75Y-84.75
X98.75Y-91.75
X99.3Y-85.75
X100.25Y-78.25
X100.25Y-99.25
X100.75Y-91.75
X100.85Y-94.0
X100.85Y-83.5
X101.0Y-84.75
X101.0Y-85.75
X101.78Y-73.22
X102.0Y-106.5
X103.0Y-78.25
X104.0Y-87.0
X105.0Y-72.0
X109.5Y-80.75
X110.25Y-125.0
X110.5Y-51.25
X110.5Y-72.0
X110.5Y-89.25
X110.5Y-91.5
X110.5Y-105.0
X110.5Y-140.0
X110.5Y-148.25
X115.5Y-105.0
X115.75Y-148.5
X116.0Y-95.0
X122.0Y-75.0
X122.0Y-90.0
X122.0Y-130.0
X122.0Y-140.0
X125.582Y-79.332
X127.03Y-81.03
X129.5Y-115.0
X129.55Y-76.188
X130.75Y-77.45
X131.0Y-105.0
X132.0Y-80.0
X132.0Y-130.0
X132.0Y-140.0
X132.75Y-105.0
X134.0Y-95.0
X134.25Y-115.0
X134.25Y-122.5
X134.47Y-78.53
X136.28Y-76.97
X136.75Y-83.0
X140.968Y-107.218
X142.0Y-75.0
X142.0Y-90.0
X142.0Y-130.0
X142.0Y-140.0
X142.512Y-108.262
X147.25Y-96.25
X148.25Y-105.0
X148.25Y-148.25
T4
X143.25Y-100.0
X146.25Y-100.0
X124.25Y-100.0
X127.25Y-100.0
X119.0Y-100.0
X122.0Y-100.0
X137.75Y-100.0
X140.75Y-100.0
T5
X140.5Y-104.75
X143.04Y-104.75
X122.0Y-104.75
X124.54Y-104.75
T6
X87.5Y-104.0
X139.5Y-72.5
X142.0Y-72.5
X144.5Y-72.5
X148.5Y-90.5
X67.5Y-103.75
X67.5Y-62.5
X67.5Y-65.0
X67.5Y-67.5
X52.5Y-82.5
X52.5Y-85.0
X52.5Y-87.5
X109.5Y-82.5
X109.5Y-85.0
X109.5Y-87.5
X72.5Y-62.5
X72.5Y-65.0
X72.5Y-67.5
X109.5Y-62.5
X109.5Y-65.0
X109.5Y-67.5
X87.5Y-82.5
X87.5Y-85.0
X87.5Y-87.5
X119.5Y-72.5
X122.0Y-72.5
X124.5Y-72.5
X129.75Y-90.5
T7
X96.84Y-53.46
X96.84Y-56.0
X99.38Y-53.46
X99.38Y-56.0
X101.92Y-53.46
X101.92Y-56.0
X104.46Y-53.46
X104.46Y-56.0
X107.0Y-53.46
X107.0Y-56.0
X126.84Y-53.46
X126.84Y-56.0
X129.38Y-53.46
X129.38Y-56.0
X131.92Y-53.46
X131.92Y-56.0
X134.46Y-53.46
X134.46Y-56.0
X137.0Y-53.46
X137.0Y-56.0
X64.84Y-53.46
X64.84Y-56.0
X67.38Y-53.46
X67.38Y-56.0
X69.92Y-53.46
X69.92Y-56.0
X72.46Y-53.46
X72.46Y-56.0
X75.0Y-53.46
X75.0Y-56.0
T2
G00X75.08Y-145.8
M15
G01X75.08Y-144.2
M16
G05
G00X64.92Y-124.2
M15
G01X64.92Y-125.8
M16
G05
G00X126.92Y-124.2
M15
G01X126.92Y-125.8
M16
G05
G00X126.92Y-144.2
M15
G01X126.92Y-145.8
M16
G05
G00X75.08Y-115.8
M15
G01X75.08Y-114.2
M16
G05
G00X75.08Y-125.8
M15
G01X75.08Y-124.2
M16
G05
G00X97.08Y-145.8
M15
G01X97.08Y-144.2
M16
G05
G00X64.92Y-144.2
M15
G01X64.92Y-145.8
M16
G05
G00X97.08Y-135.8
M15
G01X97.08Y-134.2
M16
G05
G00X137.08Y-145.8
M15
G01X137.08Y-144.2
M16
G05
G00X137.08Y-125.8
M15
G01X137.08Y-124.2
M16
G05
G00X137.08Y-115.8
M15
G01X137.08Y-114.2
M16
G05
G00X64.92Y-114.2
M15
G01X64.92Y-115.8
M16
G05
G00X126.92Y-114.2
M15
G01X126.92Y-115.8
M16
G05
G00X97.08Y-115.8
M15
G01X97.08Y-114.2
M16
G05
T3
G00X83.38Y-145.7
M15
G01X83.38Y-144.3
M16
G05
G00X86.48Y-145.4
M15
G01X86.48Y-144.6
M16
G05
G00X53.52Y-124.6
M15
G01X53.52Y-125.4
M16
G05
G00X56.62Y-124.3
M15
G01X56.62Y-125.7
M16
G05
G00X115.52Y-124.6
M15
G01X115.52Y-125.4
M16
G05
G00X118.62Y-124.3
M15
G01X118.62Y-125.7
M16
G05
G00X115.52Y-144.6
M15
G01X115.52Y-145.4
M16
G05
G00X118.62Y-144.3
M15
G01X118.62Y-145.7
M16
G05
G00X83.38Y-115.7
M15
G01X83.38Y-114.3
M16
G05
G00X86.48Y-115.4
M15
G01X86.48Y-114.6
M16
G05
G00X83.38Y-125.7
M15
G01X83.38Y-124.3
M16
G05
G00X86.48Y-125.4
M15
G01X86.48Y-124.6
M16
G05
G00X105.38Y-145.7
M15
G01X105.38Y-144.3
M16
G05
G00X108.48Y-145.4
M15
G01X108.48Y-144.6
M16
G05
G00X53.52Y-144.6
M15
G01X53.52Y-145.4
M16
G05
G00X56.62Y-144.3
M15
G01X56.62Y-145.7
M16
G05
G00X105.38Y-135.7
M15
G01X105.38Y-134.3
M16
G05
G00X108.48Y-135.4
M15
G01X108.48Y-134.6
M16
G05
G00X145.38Y-145.7
M15
G01X145.38Y-144.3
M16
G05
G00X148.48Y-145.4
M15
G01X148.48Y-144.6
M16
G05
G00X145.38Y-125.7
M15
G01X145.38Y-124.3
M16
G05
G00X148.48Y-125.4
M15
G01X148.48Y-124.6
M16
G05
G00X145.38Y-115.7
M15
G01X145.38Y-114.3
M16
G05
G00X148.48Y-115.4
M15
G01X148.48Y-114.6
M16
G05
G00X53.52Y-114.6
M15
G01X53.52Y-115.4
M16
G05
G00X56.62Y-114.3
M15
G01X56.62Y-115.7
M16
G05
G00X115.52Y-114.6
M15
G01X115.52Y-115.4
M16
G05
G00X118.62Y-114.3
M15
G01X118.62Y-115.7
M16
G05
G00X105.38Y-115.7
M15
G01X105.38Y-114.3
M16
G05
G00X108.48Y-115.4
M15
G01X108.48Y-114.6
M16
G05
T0
M30
