%TF.GenerationSoftware,KiCad,Pcbnew,(5.1.5)-3*%
%TF.CreationDate,2020-03-23T00:00:11+01:00*%
%TF.ProjectId,KicadJE_Util_PCB,4b696361-644a-4455-9f55-74696c5f5043,rev?*%
%TF.SameCoordinates,Original*%
%TF.FileFunction,Soldermask,Top*%
%TF.FilePolarity,Negative*%
%FSLAX46Y46*%
G04 Gerber Fmt 4.6, Leading zero omitted, Abs format (unit mm)*
G04 Created by KiCad (PCBNEW (5.1.5)-3) date 2020-03-23 00:00:11*
%MOMM*%
%LPD*%
G04 APERTURE LIST*
%ADD10C,1.000000*%
%ADD11C,0.050000*%
%ADD12C,0.150000*%
G04 APERTURE END LIST*
D10*
X112500000Y-60000000D02*
X112500000Y-140000000D01*
X113500000Y-60000000D02*
X113500000Y-140000000D01*
X112500000Y-140000000D02*
X113500000Y-140000000D01*
X112500000Y-60000000D02*
X113500000Y-60000000D01*
X90500000Y-60000000D02*
X91500000Y-60000000D01*
X90500000Y-140000000D02*
X91500000Y-140000000D01*
X91500000Y-60000000D02*
X91500000Y-140000000D01*
X90500000Y-60000000D02*
X90500000Y-140000000D01*
D11*
X50000000Y-150000000D02*
X50000000Y-50000000D01*
X150000000Y-150000000D02*
X50000000Y-150000000D01*
X150000000Y-50000000D02*
X150000000Y-150000000D01*
X50000000Y-50000000D02*
X150000000Y-50000000D01*
D12*
X96369047Y-69702380D02*
X96940476Y-69702380D01*
X96654761Y-69702380D02*
X96654761Y-68702380D01*
X96749999Y-68845238D01*
X96845238Y-68940476D01*
X96940476Y-68988095D01*
X95749999Y-68702380D02*
X95654761Y-68702380D01*
X95559523Y-68750000D01*
X95511904Y-68797619D01*
X95464285Y-68892857D01*
X95416666Y-69083333D01*
X95416666Y-69321428D01*
X95464285Y-69511904D01*
X95511904Y-69607142D01*
X95559523Y-69654761D01*
X95654761Y-69702380D01*
X95749999Y-69702380D01*
X95845238Y-69654761D01*
X95892857Y-69607142D01*
X95940476Y-69511904D01*
X95988095Y-69321428D01*
X95988095Y-69083333D01*
X95940476Y-68892857D01*
X95892857Y-68797619D01*
X95845238Y-68750000D01*
X95749999Y-68702380D01*
X94797619Y-68702380D02*
X94702380Y-68702380D01*
X94607142Y-68750000D01*
X94559523Y-68797619D01*
X94511904Y-68892857D01*
X94464285Y-69083333D01*
X94464285Y-69321428D01*
X94511904Y-69511904D01*
X94559523Y-69607142D01*
X94607142Y-69654761D01*
X94702380Y-69702380D01*
X94797619Y-69702380D01*
X94892857Y-69654761D01*
X94940476Y-69607142D01*
X94988095Y-69511904D01*
X95035714Y-69321428D01*
X95035714Y-69083333D01*
X94988095Y-68892857D01*
X94940476Y-68797619D01*
X94892857Y-68750000D01*
X94797619Y-68702380D01*
X94035714Y-69035714D02*
X94035714Y-69702380D01*
X94035714Y-69130952D02*
X93988095Y-69083333D01*
X93892857Y-69035714D01*
X93749999Y-69035714D01*
X93654761Y-69083333D01*
X93607142Y-69178571D01*
X93607142Y-69702380D01*
X96369047Y-69702380D02*
X96940476Y-69702380D01*
X96654761Y-69702380D02*
X96654761Y-68702380D01*
X96749999Y-68845238D01*
X96845238Y-68940476D01*
X96940476Y-68988095D01*
X95749999Y-68702380D02*
X95654761Y-68702380D01*
X95559523Y-68750000D01*
X95511904Y-68797619D01*
X95464285Y-68892857D01*
X95416666Y-69083333D01*
X95416666Y-69321428D01*
X95464285Y-69511904D01*
X95511904Y-69607142D01*
X95559523Y-69654761D01*
X95654761Y-69702380D01*
X95749999Y-69702380D01*
X95845238Y-69654761D01*
X95892857Y-69607142D01*
X95940476Y-69511904D01*
X95988095Y-69321428D01*
X95988095Y-69083333D01*
X95940476Y-68892857D01*
X95892857Y-68797619D01*
X95845238Y-68750000D01*
X95749999Y-68702380D01*
X94797619Y-68702380D02*
X94702380Y-68702380D01*
X94607142Y-68750000D01*
X94559523Y-68797619D01*
X94511904Y-68892857D01*
X94464285Y-69083333D01*
X94464285Y-69321428D01*
X94511904Y-69511904D01*
X94559523Y-69607142D01*
X94607142Y-69654761D01*
X94702380Y-69702380D01*
X94797619Y-69702380D01*
X94892857Y-69654761D01*
X94940476Y-69607142D01*
X94988095Y-69511904D01*
X95035714Y-69321428D01*
X95035714Y-69083333D01*
X94988095Y-68892857D01*
X94940476Y-68797619D01*
X94892857Y-68750000D01*
X94797619Y-68702380D01*
X94035714Y-69035714D02*
X94035714Y-69702380D01*
X94035714Y-69130952D02*
X93988095Y-69083333D01*
X93892857Y-69035714D01*
X93749999Y-69035714D01*
X93654761Y-69083333D01*
X93607142Y-69178571D01*
X93607142Y-69702380D01*
X96369047Y-69702380D02*
X96940476Y-69702380D01*
X96654761Y-69702380D02*
X96654761Y-68702380D01*
X96749999Y-68845238D01*
X96845238Y-68940476D01*
X96940476Y-68988095D01*
X95749999Y-68702380D02*
X95654761Y-68702380D01*
X95559523Y-68750000D01*
X95511904Y-68797619D01*
X95464285Y-68892857D01*
X95416666Y-69083333D01*
X95416666Y-69321428D01*
X95464285Y-69511904D01*
X95511904Y-69607142D01*
X95559523Y-69654761D01*
X95654761Y-69702380D01*
X95749999Y-69702380D01*
X95845238Y-69654761D01*
X95892857Y-69607142D01*
X95940476Y-69511904D01*
X95988095Y-69321428D01*
X95988095Y-69083333D01*
X95940476Y-68892857D01*
X95892857Y-68797619D01*
X95845238Y-68750000D01*
X95749999Y-68702380D01*
X94797619Y-68702380D02*
X94702380Y-68702380D01*
X94607142Y-68750000D01*
X94559523Y-68797619D01*
X94511904Y-68892857D01*
X94464285Y-69083333D01*
X94464285Y-69321428D01*
X94511904Y-69511904D01*
X94559523Y-69607142D01*
X94607142Y-69654761D01*
X94702380Y-69702380D01*
X94797619Y-69702380D01*
X94892857Y-69654761D01*
X94940476Y-69607142D01*
X94988095Y-69511904D01*
X95035714Y-69321428D01*
X95035714Y-69083333D01*
X94988095Y-68892857D01*
X94940476Y-68797619D01*
X94892857Y-68750000D01*
X94797619Y-68702380D01*
X94035714Y-69035714D02*
X94035714Y-69702380D01*
X94035714Y-69130952D02*
X93988095Y-69083333D01*
X93892857Y-69035714D01*
X93749999Y-69035714D01*
X93654761Y-69083333D01*
X93607142Y-69178571D01*
X93607142Y-69702380D01*
X96369047Y-69702380D02*
X96940476Y-69702380D01*
X96654761Y-69702380D02*
X96654761Y-68702380D01*
X96749999Y-68845238D01*
X96845238Y-68940476D01*
X96940476Y-68988095D01*
X95749999Y-68702380D02*
X95654761Y-68702380D01*
X95559523Y-68750000D01*
X95511904Y-68797619D01*
X95464285Y-68892857D01*
X95416666Y-69083333D01*
X95416666Y-69321428D01*
X95464285Y-69511904D01*
X95511904Y-69607142D01*
X95559523Y-69654761D01*
X95654761Y-69702380D01*
X95749999Y-69702380D01*
X95845238Y-69654761D01*
X95892857Y-69607142D01*
X95940476Y-69511904D01*
X95988095Y-69321428D01*
X95988095Y-69083333D01*
X95940476Y-68892857D01*
X95892857Y-68797619D01*
X95845238Y-68750000D01*
X95749999Y-68702380D01*
X94797619Y-68702380D02*
X94702380Y-68702380D01*
X94607142Y-68750000D01*
X94559523Y-68797619D01*
X94511904Y-68892857D01*
X94464285Y-69083333D01*
X94464285Y-69321428D01*
X94511904Y-69511904D01*
X94559523Y-69607142D01*
X94607142Y-69654761D01*
X94702380Y-69702380D01*
X94797619Y-69702380D01*
X94892857Y-69654761D01*
X94940476Y-69607142D01*
X94988095Y-69511904D01*
X95035714Y-69321428D01*
X95035714Y-69083333D01*
X94988095Y-68892857D01*
X94940476Y-68797619D01*
X94892857Y-68750000D01*
X94797619Y-68702380D01*
X94035714Y-69035714D02*
X94035714Y-69702380D01*
X94035714Y-69130952D02*
X93988095Y-69083333D01*
X93892857Y-69035714D01*
X93749999Y-69035714D01*
X93654761Y-69083333D01*
X93607142Y-69178571D01*
X93607142Y-69702380D01*
X96369047Y-69702380D02*
X96940476Y-69702380D01*
X96654761Y-69702380D02*
X96654761Y-68702380D01*
X96749999Y-68845238D01*
X96845238Y-68940476D01*
X96940476Y-68988095D01*
X95749999Y-68702380D02*
X95654761Y-68702380D01*
X95559523Y-68750000D01*
X95511904Y-68797619D01*
X95464285Y-68892857D01*
X95416666Y-69083333D01*
X95416666Y-69321428D01*
X95464285Y-69511904D01*
X95511904Y-69607142D01*
X95559523Y-69654761D01*
X95654761Y-69702380D01*
X95749999Y-69702380D01*
X95845238Y-69654761D01*
X95892857Y-69607142D01*
X95940476Y-69511904D01*
X95988095Y-69321428D01*
X95988095Y-69083333D01*
X95940476Y-68892857D01*
X95892857Y-68797619D01*
X95845238Y-68750000D01*
X95749999Y-68702380D01*
X94797619Y-68702380D02*
X94702380Y-68702380D01*
X94607142Y-68750000D01*
X94559523Y-68797619D01*
X94511904Y-68892857D01*
X94464285Y-69083333D01*
X94464285Y-69321428D01*
X94511904Y-69511904D01*
X94559523Y-69607142D01*
X94607142Y-69654761D01*
X94702380Y-69702380D01*
X94797619Y-69702380D01*
X94892857Y-69654761D01*
X94940476Y-69607142D01*
X94988095Y-69511904D01*
X95035714Y-69321428D01*
X95035714Y-69083333D01*
X94988095Y-68892857D01*
X94940476Y-68797619D01*
X94892857Y-68750000D01*
X94797619Y-68702380D01*
X94035714Y-69035714D02*
X94035714Y-69702380D01*
X94035714Y-69130952D02*
X93988095Y-69083333D01*
X93892857Y-69035714D01*
X93749999Y-69035714D01*
X93654761Y-69083333D01*
X93607142Y-69178571D01*
X93607142Y-69702380D01*
X96369047Y-69702380D02*
X96940476Y-69702380D01*
X96654761Y-69702380D02*
X96654761Y-68702380D01*
X96749999Y-68845238D01*
X96845238Y-68940476D01*
X96940476Y-68988095D01*
X95749999Y-68702380D02*
X95654761Y-68702380D01*
X95559523Y-68750000D01*
X95511904Y-68797619D01*
X95464285Y-68892857D01*
X95416666Y-69083333D01*
X95416666Y-69321428D01*
X95464285Y-69511904D01*
X95511904Y-69607142D01*
X95559523Y-69654761D01*
X95654761Y-69702380D01*
X95749999Y-69702380D01*
X95845238Y-69654761D01*
X95892857Y-69607142D01*
X95940476Y-69511904D01*
X95988095Y-69321428D01*
X95988095Y-69083333D01*
X95940476Y-68892857D01*
X95892857Y-68797619D01*
X95845238Y-68750000D01*
X95749999Y-68702380D01*
X94797619Y-68702380D02*
X94702380Y-68702380D01*
X94607142Y-68750000D01*
X94559523Y-68797619D01*
X94511904Y-68892857D01*
X94464285Y-69083333D01*
X94464285Y-69321428D01*
X94511904Y-69511904D01*
X94559523Y-69607142D01*
X94607142Y-69654761D01*
X94702380Y-69702380D01*
X94797619Y-69702380D01*
X94892857Y-69654761D01*
X94940476Y-69607142D01*
X94988095Y-69511904D01*
X95035714Y-69321428D01*
X95035714Y-69083333D01*
X94988095Y-68892857D01*
X94940476Y-68797619D01*
X94892857Y-68750000D01*
X94797619Y-68702380D01*
X94035714Y-69035714D02*
X94035714Y-69702380D01*
X94035714Y-69130952D02*
X93988095Y-69083333D01*
X93892857Y-69035714D01*
X93749999Y-69035714D01*
X93654761Y-69083333D01*
X93607142Y-69178571D01*
X93607142Y-69702380D01*
X96369047Y-69702380D02*
X96940476Y-69702380D01*
X96654761Y-69702380D02*
X96654761Y-68702380D01*
X96749999Y-68845238D01*
X96845238Y-68940476D01*
X96940476Y-68988095D01*
X95749999Y-68702380D02*
X95654761Y-68702380D01*
X95559523Y-68750000D01*
X95511904Y-68797619D01*
X95464285Y-68892857D01*
X95416666Y-69083333D01*
X95416666Y-69321428D01*
X95464285Y-69511904D01*
X95511904Y-69607142D01*
X95559523Y-69654761D01*
X95654761Y-69702380D01*
X95749999Y-69702380D01*
X95845238Y-69654761D01*
X95892857Y-69607142D01*
X95940476Y-69511904D01*
X95988095Y-69321428D01*
X95988095Y-69083333D01*
X95940476Y-68892857D01*
X95892857Y-68797619D01*
X95845238Y-68750000D01*
X95749999Y-68702380D01*
X94797619Y-68702380D02*
X94702380Y-68702380D01*
X94607142Y-68750000D01*
X94559523Y-68797619D01*
X94511904Y-68892857D01*
X94464285Y-69083333D01*
X94464285Y-69321428D01*
X94511904Y-69511904D01*
X94559523Y-69607142D01*
X94607142Y-69654761D01*
X94702380Y-69702380D01*
X94797619Y-69702380D01*
X94892857Y-69654761D01*
X94940476Y-69607142D01*
X94988095Y-69511904D01*
X95035714Y-69321428D01*
X95035714Y-69083333D01*
X94988095Y-68892857D01*
X94940476Y-68797619D01*
X94892857Y-68750000D01*
X94797619Y-68702380D01*
X94035714Y-69035714D02*
X94035714Y-69702380D01*
X94035714Y-69130952D02*
X93988095Y-69083333D01*
X93892857Y-69035714D01*
X93749999Y-69035714D01*
X93654761Y-69083333D01*
X93607142Y-69178571D01*
X93607142Y-69702380D01*
X96369047Y-69702380D02*
X96940476Y-69702380D01*
X96654761Y-69702380D02*
X96654761Y-68702380D01*
X96749999Y-68845238D01*
X96845238Y-68940476D01*
X96940476Y-68988095D01*
X95749999Y-68702380D02*
X95654761Y-68702380D01*
X95559523Y-68750000D01*
X95511904Y-68797619D01*
X95464285Y-68892857D01*
X95416666Y-69083333D01*
X95416666Y-69321428D01*
X95464285Y-69511904D01*
X95511904Y-69607142D01*
X95559523Y-69654761D01*
X95654761Y-69702380D01*
X95749999Y-69702380D01*
X95845238Y-69654761D01*
X95892857Y-69607142D01*
X95940476Y-69511904D01*
X95988095Y-69321428D01*
X95988095Y-69083333D01*
X95940476Y-68892857D01*
X95892857Y-68797619D01*
X95845238Y-68750000D01*
X95749999Y-68702380D01*
X94797619Y-68702380D02*
X94702380Y-68702380D01*
X94607142Y-68750000D01*
X94559523Y-68797619D01*
X94511904Y-68892857D01*
X94464285Y-69083333D01*
X94464285Y-69321428D01*
X94511904Y-69511904D01*
X94559523Y-69607142D01*
X94607142Y-69654761D01*
X94702380Y-69702380D01*
X94797619Y-69702380D01*
X94892857Y-69654761D01*
X94940476Y-69607142D01*
X94988095Y-69511904D01*
X95035714Y-69321428D01*
X95035714Y-69083333D01*
X94988095Y-68892857D01*
X94940476Y-68797619D01*
X94892857Y-68750000D01*
X94797619Y-68702380D01*
X94035714Y-69035714D02*
X94035714Y-69702380D01*
X94035714Y-69130952D02*
X93988095Y-69083333D01*
X93892857Y-69035714D01*
X93749999Y-69035714D01*
X93654761Y-69083333D01*
X93607142Y-69178571D01*
X93607142Y-69702380D01*
X96369047Y-69702380D02*
X96940476Y-69702380D01*
X96654761Y-69702380D02*
X96654761Y-68702380D01*
X96749999Y-68845238D01*
X96845238Y-68940476D01*
X96940476Y-68988095D01*
X95749999Y-68702380D02*
X95654761Y-68702380D01*
X95559523Y-68750000D01*
X95511904Y-68797619D01*
X95464285Y-68892857D01*
X95416666Y-69083333D01*
X95416666Y-69321428D01*
X95464285Y-69511904D01*
X95511904Y-69607142D01*
X95559523Y-69654761D01*
X95654761Y-69702380D01*
X95749999Y-69702380D01*
X95845238Y-69654761D01*
X95892857Y-69607142D01*
X95940476Y-69511904D01*
X95988095Y-69321428D01*
X95988095Y-69083333D01*
X95940476Y-68892857D01*
X95892857Y-68797619D01*
X95845238Y-68750000D01*
X95749999Y-68702380D01*
X94797619Y-68702380D02*
X94702380Y-68702380D01*
X94607142Y-68750000D01*
X94559523Y-68797619D01*
X94511904Y-68892857D01*
X94464285Y-69083333D01*
X94464285Y-69321428D01*
X94511904Y-69511904D01*
X94559523Y-69607142D01*
X94607142Y-69654761D01*
X94702380Y-69702380D01*
X94797619Y-69702380D01*
X94892857Y-69654761D01*
X94940476Y-69607142D01*
X94988095Y-69511904D01*
X95035714Y-69321428D01*
X95035714Y-69083333D01*
X94988095Y-68892857D01*
X94940476Y-68797619D01*
X94892857Y-68750000D01*
X94797619Y-68702380D01*
X94035714Y-69035714D02*
X94035714Y-69702380D01*
X94035714Y-69130952D02*
X93988095Y-69083333D01*
X93892857Y-69035714D01*
X93749999Y-69035714D01*
X93654761Y-69083333D01*
X93607142Y-69178571D01*
X93607142Y-69702380D01*
X96369047Y-69702380D02*
X96940476Y-69702380D01*
X96654761Y-69702380D02*
X96654761Y-68702380D01*
X96749999Y-68845238D01*
X96845238Y-68940476D01*
X96940476Y-68988095D01*
X95749999Y-68702380D02*
X95654761Y-68702380D01*
X95559523Y-68750000D01*
X95511904Y-68797619D01*
X95464285Y-68892857D01*
X95416666Y-69083333D01*
X95416666Y-69321428D01*
X95464285Y-69511904D01*
X95511904Y-69607142D01*
X95559523Y-69654761D01*
X95654761Y-69702380D01*
X95749999Y-69702380D01*
X95845238Y-69654761D01*
X95892857Y-69607142D01*
X95940476Y-69511904D01*
X95988095Y-69321428D01*
X95988095Y-69083333D01*
X95940476Y-68892857D01*
X95892857Y-68797619D01*
X95845238Y-68750000D01*
X95749999Y-68702380D01*
X94797619Y-68702380D02*
X94702380Y-68702380D01*
X94607142Y-68750000D01*
X94559523Y-68797619D01*
X94511904Y-68892857D01*
X94464285Y-69083333D01*
X94464285Y-69321428D01*
X94511904Y-69511904D01*
X94559523Y-69607142D01*
X94607142Y-69654761D01*
X94702380Y-69702380D01*
X94797619Y-69702380D01*
X94892857Y-69654761D01*
X94940476Y-69607142D01*
X94988095Y-69511904D01*
X95035714Y-69321428D01*
X95035714Y-69083333D01*
X94988095Y-68892857D01*
X94940476Y-68797619D01*
X94892857Y-68750000D01*
X94797619Y-68702380D01*
X94035714Y-69035714D02*
X94035714Y-69702380D01*
X94035714Y-69130952D02*
X93988095Y-69083333D01*
X93892857Y-69035714D01*
X93749999Y-69035714D01*
X93654761Y-69083333D01*
X93607142Y-69178571D01*
X93607142Y-69702380D01*
X96369047Y-69702380D02*
X96940476Y-69702380D01*
X96654761Y-69702380D02*
X96654761Y-68702380D01*
X96749999Y-68845238D01*
X96845238Y-68940476D01*
X96940476Y-68988095D01*
X95749999Y-68702380D02*
X95654761Y-68702380D01*
X95559523Y-68750000D01*
X95511904Y-68797619D01*
X95464285Y-68892857D01*
X95416666Y-69083333D01*
X95416666Y-69321428D01*
X95464285Y-69511904D01*
X95511904Y-69607142D01*
X95559523Y-69654761D01*
X95654761Y-69702380D01*
X95749999Y-69702380D01*
X95845238Y-69654761D01*
X95892857Y-69607142D01*
X95940476Y-69511904D01*
X95988095Y-69321428D01*
X95988095Y-69083333D01*
X95940476Y-68892857D01*
X95892857Y-68797619D01*
X95845238Y-68750000D01*
X95749999Y-68702380D01*
X94797619Y-68702380D02*
X94702380Y-68702380D01*
X94607142Y-68750000D01*
X94559523Y-68797619D01*
X94511904Y-68892857D01*
X94464285Y-69083333D01*
X94464285Y-69321428D01*
X94511904Y-69511904D01*
X94559523Y-69607142D01*
X94607142Y-69654761D01*
X94702380Y-69702380D01*
X94797619Y-69702380D01*
X94892857Y-69654761D01*
X94940476Y-69607142D01*
X94988095Y-69511904D01*
X95035714Y-69321428D01*
X95035714Y-69083333D01*
X94988095Y-68892857D01*
X94940476Y-68797619D01*
X94892857Y-68750000D01*
X94797619Y-68702380D01*
X94035714Y-69035714D02*
X94035714Y-69702380D01*
X94035714Y-69130952D02*
X93988095Y-69083333D01*
X93892857Y-69035714D01*
X93749999Y-69035714D01*
X93654761Y-69083333D01*
X93607142Y-69178571D01*
X93607142Y-69702380D01*
X108488095Y-91797619D02*
X108440476Y-91750000D01*
X108345238Y-91702380D01*
X108107142Y-91702380D01*
X108011904Y-91750000D01*
X107964285Y-91797619D01*
X107916666Y-91892857D01*
X107916666Y-91988095D01*
X107964285Y-92130952D01*
X108535714Y-92702380D01*
X107916666Y-92702380D01*
X107535714Y-91797619D02*
X107488095Y-91750000D01*
X107392857Y-91702380D01*
X107154761Y-91702380D01*
X107059523Y-91750000D01*
X107011904Y-91797619D01*
X106964285Y-91892857D01*
X106964285Y-91988095D01*
X107011904Y-92130952D01*
X107583333Y-92702380D01*
X106964285Y-92702380D01*
X106345238Y-91702380D02*
X106250000Y-91702380D01*
X106154761Y-91750000D01*
X106107142Y-91797619D01*
X106059523Y-91892857D01*
X106011904Y-92083333D01*
X106011904Y-92321428D01*
X106059523Y-92511904D01*
X106107142Y-92607142D01*
X106154761Y-92654761D01*
X106250000Y-92702380D01*
X106345238Y-92702380D01*
X106440476Y-92654761D01*
X106488095Y-92607142D01*
X106535714Y-92511904D01*
X106583333Y-92321428D01*
X106583333Y-92083333D01*
X106535714Y-91892857D01*
X106488095Y-91797619D01*
X106440476Y-91750000D01*
X106345238Y-91702380D01*
X105011904Y-92702380D02*
X105345238Y-92226190D01*
X105583333Y-92702380D02*
X105583333Y-91702380D01*
X105202380Y-91702380D01*
X105107142Y-91750000D01*
X105059523Y-91797619D01*
X105011904Y-91892857D01*
X105011904Y-92035714D01*
X105059523Y-92130952D01*
X105107142Y-92178571D01*
X105202380Y-92226190D01*
X105583333Y-92226190D01*
X108488095Y-91797619D02*
X108440476Y-91750000D01*
X108345238Y-91702380D01*
X108107142Y-91702380D01*
X108011904Y-91750000D01*
X107964285Y-91797619D01*
X107916666Y-91892857D01*
X107916666Y-91988095D01*
X107964285Y-92130952D01*
X108535714Y-92702380D01*
X107916666Y-92702380D01*
X107535714Y-91797619D02*
X107488095Y-91750000D01*
X107392857Y-91702380D01*
X107154761Y-91702380D01*
X107059523Y-91750000D01*
X107011904Y-91797619D01*
X106964285Y-91892857D01*
X106964285Y-91988095D01*
X107011904Y-92130952D01*
X107583333Y-92702380D01*
X106964285Y-92702380D01*
X106345238Y-91702380D02*
X106250000Y-91702380D01*
X106154761Y-91750000D01*
X106107142Y-91797619D01*
X106059523Y-91892857D01*
X106011904Y-92083333D01*
X106011904Y-92321428D01*
X106059523Y-92511904D01*
X106107142Y-92607142D01*
X106154761Y-92654761D01*
X106250000Y-92702380D01*
X106345238Y-92702380D01*
X106440476Y-92654761D01*
X106488095Y-92607142D01*
X106535714Y-92511904D01*
X106583333Y-92321428D01*
X106583333Y-92083333D01*
X106535714Y-91892857D01*
X106488095Y-91797619D01*
X106440476Y-91750000D01*
X106345238Y-91702380D01*
X105011904Y-92702380D02*
X105345238Y-92226190D01*
X105583333Y-92702380D02*
X105583333Y-91702380D01*
X105202380Y-91702380D01*
X105107142Y-91750000D01*
X105059523Y-91797619D01*
X105011904Y-91892857D01*
X105011904Y-92035714D01*
X105059523Y-92130952D01*
X105107142Y-92178571D01*
X105202380Y-92226190D01*
X105583333Y-92226190D01*
X108488095Y-91797619D02*
X108440476Y-91750000D01*
X108345238Y-91702380D01*
X108107142Y-91702380D01*
X108011904Y-91750000D01*
X107964285Y-91797619D01*
X107916666Y-91892857D01*
X107916666Y-91988095D01*
X107964285Y-92130952D01*
X108535714Y-92702380D01*
X107916666Y-92702380D01*
X107535714Y-91797619D02*
X107488095Y-91750000D01*
X107392857Y-91702380D01*
X107154761Y-91702380D01*
X107059523Y-91750000D01*
X107011904Y-91797619D01*
X106964285Y-91892857D01*
X106964285Y-91988095D01*
X107011904Y-92130952D01*
X107583333Y-92702380D01*
X106964285Y-92702380D01*
X106345238Y-91702380D02*
X106250000Y-91702380D01*
X106154761Y-91750000D01*
X106107142Y-91797619D01*
X106059523Y-91892857D01*
X106011904Y-92083333D01*
X106011904Y-92321428D01*
X106059523Y-92511904D01*
X106107142Y-92607142D01*
X106154761Y-92654761D01*
X106250000Y-92702380D01*
X106345238Y-92702380D01*
X106440476Y-92654761D01*
X106488095Y-92607142D01*
X106535714Y-92511904D01*
X106583333Y-92321428D01*
X106583333Y-92083333D01*
X106535714Y-91892857D01*
X106488095Y-91797619D01*
X106440476Y-91750000D01*
X106345238Y-91702380D01*
X105011904Y-92702380D02*
X105345238Y-92226190D01*
X105583333Y-92702380D02*
X105583333Y-91702380D01*
X105202380Y-91702380D01*
X105107142Y-91750000D01*
X105059523Y-91797619D01*
X105011904Y-91892857D01*
X105011904Y-92035714D01*
X105059523Y-92130952D01*
X105107142Y-92178571D01*
X105202380Y-92226190D01*
X105583333Y-92226190D01*
X108488095Y-91797619D02*
X108440476Y-91750000D01*
X108345238Y-91702380D01*
X108107142Y-91702380D01*
X108011904Y-91750000D01*
X107964285Y-91797619D01*
X107916666Y-91892857D01*
X107916666Y-91988095D01*
X107964285Y-92130952D01*
X108535714Y-92702380D01*
X107916666Y-92702380D01*
X107535714Y-91797619D02*
X107488095Y-91750000D01*
X107392857Y-91702380D01*
X107154761Y-91702380D01*
X107059523Y-91750000D01*
X107011904Y-91797619D01*
X106964285Y-91892857D01*
X106964285Y-91988095D01*
X107011904Y-92130952D01*
X107583333Y-92702380D01*
X106964285Y-92702380D01*
X106345238Y-91702380D02*
X106250000Y-91702380D01*
X106154761Y-91750000D01*
X106107142Y-91797619D01*
X106059523Y-91892857D01*
X106011904Y-92083333D01*
X106011904Y-92321428D01*
X106059523Y-92511904D01*
X106107142Y-92607142D01*
X106154761Y-92654761D01*
X106250000Y-92702380D01*
X106345238Y-92702380D01*
X106440476Y-92654761D01*
X106488095Y-92607142D01*
X106535714Y-92511904D01*
X106583333Y-92321428D01*
X106583333Y-92083333D01*
X106535714Y-91892857D01*
X106488095Y-91797619D01*
X106440476Y-91750000D01*
X106345238Y-91702380D01*
X105011904Y-92702380D02*
X105345238Y-92226190D01*
X105583333Y-92702380D02*
X105583333Y-91702380D01*
X105202380Y-91702380D01*
X105107142Y-91750000D01*
X105059523Y-91797619D01*
X105011904Y-91892857D01*
X105011904Y-92035714D01*
X105059523Y-92130952D01*
X105107142Y-92178571D01*
X105202380Y-92226190D01*
X105583333Y-92226190D01*
X108488095Y-91797619D02*
X108440476Y-91750000D01*
X108345238Y-91702380D01*
X108107142Y-91702380D01*
X108011904Y-91750000D01*
X107964285Y-91797619D01*
X107916666Y-91892857D01*
X107916666Y-91988095D01*
X107964285Y-92130952D01*
X108535714Y-92702380D01*
X107916666Y-92702380D01*
X107535714Y-91797619D02*
X107488095Y-91750000D01*
X107392857Y-91702380D01*
X107154761Y-91702380D01*
X107059523Y-91750000D01*
X107011904Y-91797619D01*
X106964285Y-91892857D01*
X106964285Y-91988095D01*
X107011904Y-92130952D01*
X107583333Y-92702380D01*
X106964285Y-92702380D01*
X106345238Y-91702380D02*
X106250000Y-91702380D01*
X106154761Y-91750000D01*
X106107142Y-91797619D01*
X106059523Y-91892857D01*
X106011904Y-92083333D01*
X106011904Y-92321428D01*
X106059523Y-92511904D01*
X106107142Y-92607142D01*
X106154761Y-92654761D01*
X106250000Y-92702380D01*
X106345238Y-92702380D01*
X106440476Y-92654761D01*
X106488095Y-92607142D01*
X106535714Y-92511904D01*
X106583333Y-92321428D01*
X106583333Y-92083333D01*
X106535714Y-91892857D01*
X106488095Y-91797619D01*
X106440476Y-91750000D01*
X106345238Y-91702380D01*
X105011904Y-92702380D02*
X105345238Y-92226190D01*
X105583333Y-92702380D02*
X105583333Y-91702380D01*
X105202380Y-91702380D01*
X105107142Y-91750000D01*
X105059523Y-91797619D01*
X105011904Y-91892857D01*
X105011904Y-92035714D01*
X105059523Y-92130952D01*
X105107142Y-92178571D01*
X105202380Y-92226190D01*
X105583333Y-92226190D01*
X108488095Y-91797619D02*
X108440476Y-91750000D01*
X108345238Y-91702380D01*
X108107142Y-91702380D01*
X108011904Y-91750000D01*
X107964285Y-91797619D01*
X107916666Y-91892857D01*
X107916666Y-91988095D01*
X107964285Y-92130952D01*
X108535714Y-92702380D01*
X107916666Y-92702380D01*
X107535714Y-91797619D02*
X107488095Y-91750000D01*
X107392857Y-91702380D01*
X107154761Y-91702380D01*
X107059523Y-91750000D01*
X107011904Y-91797619D01*
X106964285Y-91892857D01*
X106964285Y-91988095D01*
X107011904Y-92130952D01*
X107583333Y-92702380D01*
X106964285Y-92702380D01*
X106345238Y-91702380D02*
X106250000Y-91702380D01*
X106154761Y-91750000D01*
X106107142Y-91797619D01*
X106059523Y-91892857D01*
X106011904Y-92083333D01*
X106011904Y-92321428D01*
X106059523Y-92511904D01*
X106107142Y-92607142D01*
X106154761Y-92654761D01*
X106250000Y-92702380D01*
X106345238Y-92702380D01*
X106440476Y-92654761D01*
X106488095Y-92607142D01*
X106535714Y-92511904D01*
X106583333Y-92321428D01*
X106583333Y-92083333D01*
X106535714Y-91892857D01*
X106488095Y-91797619D01*
X106440476Y-91750000D01*
X106345238Y-91702380D01*
X105011904Y-92702380D02*
X105345238Y-92226190D01*
X105583333Y-92702380D02*
X105583333Y-91702380D01*
X105202380Y-91702380D01*
X105107142Y-91750000D01*
X105059523Y-91797619D01*
X105011904Y-91892857D01*
X105011904Y-92035714D01*
X105059523Y-92130952D01*
X105107142Y-92178571D01*
X105202380Y-92226190D01*
X105583333Y-92226190D01*
X108488095Y-91797619D02*
X108440476Y-91750000D01*
X108345238Y-91702380D01*
X108107142Y-91702380D01*
X108011904Y-91750000D01*
X107964285Y-91797619D01*
X107916666Y-91892857D01*
X107916666Y-91988095D01*
X107964285Y-92130952D01*
X108535714Y-92702380D01*
X107916666Y-92702380D01*
X107535714Y-91797619D02*
X107488095Y-91750000D01*
X107392857Y-91702380D01*
X107154761Y-91702380D01*
X107059523Y-91750000D01*
X107011904Y-91797619D01*
X106964285Y-91892857D01*
X106964285Y-91988095D01*
X107011904Y-92130952D01*
X107583333Y-92702380D01*
X106964285Y-92702380D01*
X106345238Y-91702380D02*
X106250000Y-91702380D01*
X106154761Y-91750000D01*
X106107142Y-91797619D01*
X106059523Y-91892857D01*
X106011904Y-92083333D01*
X106011904Y-92321428D01*
X106059523Y-92511904D01*
X106107142Y-92607142D01*
X106154761Y-92654761D01*
X106250000Y-92702380D01*
X106345238Y-92702380D01*
X106440476Y-92654761D01*
X106488095Y-92607142D01*
X106535714Y-92511904D01*
X106583333Y-92321428D01*
X106583333Y-92083333D01*
X106535714Y-91892857D01*
X106488095Y-91797619D01*
X106440476Y-91750000D01*
X106345238Y-91702380D01*
X105011904Y-92702380D02*
X105345238Y-92226190D01*
X105583333Y-92702380D02*
X105583333Y-91702380D01*
X105202380Y-91702380D01*
X105107142Y-91750000D01*
X105059523Y-91797619D01*
X105011904Y-91892857D01*
X105011904Y-92035714D01*
X105059523Y-92130952D01*
X105107142Y-92178571D01*
X105202380Y-92226190D01*
X105583333Y-92226190D01*
X108488095Y-91797619D02*
X108440476Y-91750000D01*
X108345238Y-91702380D01*
X108107142Y-91702380D01*
X108011904Y-91750000D01*
X107964285Y-91797619D01*
X107916666Y-91892857D01*
X107916666Y-91988095D01*
X107964285Y-92130952D01*
X108535714Y-92702380D01*
X107916666Y-92702380D01*
X107535714Y-91797619D02*
X107488095Y-91750000D01*
X107392857Y-91702380D01*
X107154761Y-91702380D01*
X107059523Y-91750000D01*
X107011904Y-91797619D01*
X106964285Y-91892857D01*
X106964285Y-91988095D01*
X107011904Y-92130952D01*
X107583333Y-92702380D01*
X106964285Y-92702380D01*
X106345238Y-91702380D02*
X106250000Y-91702380D01*
X106154761Y-91750000D01*
X106107142Y-91797619D01*
X106059523Y-91892857D01*
X106011904Y-92083333D01*
X106011904Y-92321428D01*
X106059523Y-92511904D01*
X106107142Y-92607142D01*
X106154761Y-92654761D01*
X106250000Y-92702380D01*
X106345238Y-92702380D01*
X106440476Y-92654761D01*
X106488095Y-92607142D01*
X106535714Y-92511904D01*
X106583333Y-92321428D01*
X106583333Y-92083333D01*
X106535714Y-91892857D01*
X106488095Y-91797619D01*
X106440476Y-91750000D01*
X106345238Y-91702380D01*
X105011904Y-92702380D02*
X105345238Y-92226190D01*
X105583333Y-92702380D02*
X105583333Y-91702380D01*
X105202380Y-91702380D01*
X105107142Y-91750000D01*
X105059523Y-91797619D01*
X105011904Y-91892857D01*
X105011904Y-92035714D01*
X105059523Y-92130952D01*
X105107142Y-92178571D01*
X105202380Y-92226190D01*
X105583333Y-92226190D01*
X108488095Y-91797619D02*
X108440476Y-91750000D01*
X108345238Y-91702380D01*
X108107142Y-91702380D01*
X108011904Y-91750000D01*
X107964285Y-91797619D01*
X107916666Y-91892857D01*
X107916666Y-91988095D01*
X107964285Y-92130952D01*
X108535714Y-92702380D01*
X107916666Y-92702380D01*
X107535714Y-91797619D02*
X107488095Y-91750000D01*
X107392857Y-91702380D01*
X107154761Y-91702380D01*
X107059523Y-91750000D01*
X107011904Y-91797619D01*
X106964285Y-91892857D01*
X106964285Y-91988095D01*
X107011904Y-92130952D01*
X107583333Y-92702380D01*
X106964285Y-92702380D01*
X106345238Y-91702380D02*
X106250000Y-91702380D01*
X106154761Y-91750000D01*
X106107142Y-91797619D01*
X106059523Y-91892857D01*
X106011904Y-92083333D01*
X106011904Y-92321428D01*
X106059523Y-92511904D01*
X106107142Y-92607142D01*
X106154761Y-92654761D01*
X106250000Y-92702380D01*
X106345238Y-92702380D01*
X106440476Y-92654761D01*
X106488095Y-92607142D01*
X106535714Y-92511904D01*
X106583333Y-92321428D01*
X106583333Y-92083333D01*
X106535714Y-91892857D01*
X106488095Y-91797619D01*
X106440476Y-91750000D01*
X106345238Y-91702380D01*
X105011904Y-92702380D02*
X105345238Y-92226190D01*
X105583333Y-92702380D02*
X105583333Y-91702380D01*
X105202380Y-91702380D01*
X105107142Y-91750000D01*
X105059523Y-91797619D01*
X105011904Y-91892857D01*
X105011904Y-92035714D01*
X105059523Y-92130952D01*
X105107142Y-92178571D01*
X105202380Y-92226190D01*
X105583333Y-92226190D01*
X108488095Y-91797619D02*
X108440476Y-91750000D01*
X108345238Y-91702380D01*
X108107142Y-91702380D01*
X108011904Y-91750000D01*
X107964285Y-91797619D01*
X107916666Y-91892857D01*
X107916666Y-91988095D01*
X107964285Y-92130952D01*
X108535714Y-92702380D01*
X107916666Y-92702380D01*
X107535714Y-91797619D02*
X107488095Y-91750000D01*
X107392857Y-91702380D01*
X107154761Y-91702380D01*
X107059523Y-91750000D01*
X107011904Y-91797619D01*
X106964285Y-91892857D01*
X106964285Y-91988095D01*
X107011904Y-92130952D01*
X107583333Y-92702380D01*
X106964285Y-92702380D01*
X106345238Y-91702380D02*
X106250000Y-91702380D01*
X106154761Y-91750000D01*
X106107142Y-91797619D01*
X106059523Y-91892857D01*
X106011904Y-92083333D01*
X106011904Y-92321428D01*
X106059523Y-92511904D01*
X106107142Y-92607142D01*
X106154761Y-92654761D01*
X106250000Y-92702380D01*
X106345238Y-92702380D01*
X106440476Y-92654761D01*
X106488095Y-92607142D01*
X106535714Y-92511904D01*
X106583333Y-92321428D01*
X106583333Y-92083333D01*
X106535714Y-91892857D01*
X106488095Y-91797619D01*
X106440476Y-91750000D01*
X106345238Y-91702380D01*
X105011904Y-92702380D02*
X105345238Y-92226190D01*
X105583333Y-92702380D02*
X105583333Y-91702380D01*
X105202380Y-91702380D01*
X105107142Y-91750000D01*
X105059523Y-91797619D01*
X105011904Y-91892857D01*
X105011904Y-92035714D01*
X105059523Y-92130952D01*
X105107142Y-92178571D01*
X105202380Y-92226190D01*
X105583333Y-92226190D01*
X108488095Y-91797619D02*
X108440476Y-91750000D01*
X108345238Y-91702380D01*
X108107142Y-91702380D01*
X108011904Y-91750000D01*
X107964285Y-91797619D01*
X107916666Y-91892857D01*
X107916666Y-91988095D01*
X107964285Y-92130952D01*
X108535714Y-92702380D01*
X107916666Y-92702380D01*
X107535714Y-91797619D02*
X107488095Y-91750000D01*
X107392857Y-91702380D01*
X107154761Y-91702380D01*
X107059523Y-91750000D01*
X107011904Y-91797619D01*
X106964285Y-91892857D01*
X106964285Y-91988095D01*
X107011904Y-92130952D01*
X107583333Y-92702380D01*
X106964285Y-92702380D01*
X106345238Y-91702380D02*
X106250000Y-91702380D01*
X106154761Y-91750000D01*
X106107142Y-91797619D01*
X106059523Y-91892857D01*
X106011904Y-92083333D01*
X106011904Y-92321428D01*
X106059523Y-92511904D01*
X106107142Y-92607142D01*
X106154761Y-92654761D01*
X106250000Y-92702380D01*
X106345238Y-92702380D01*
X106440476Y-92654761D01*
X106488095Y-92607142D01*
X106535714Y-92511904D01*
X106583333Y-92321428D01*
X106583333Y-92083333D01*
X106535714Y-91892857D01*
X106488095Y-91797619D01*
X106440476Y-91750000D01*
X106345238Y-91702380D01*
X105011904Y-92702380D02*
X105345238Y-92226190D01*
X105583333Y-92702380D02*
X105583333Y-91702380D01*
X105202380Y-91702380D01*
X105107142Y-91750000D01*
X105059523Y-91797619D01*
X105011904Y-91892857D01*
X105011904Y-92035714D01*
X105059523Y-92130952D01*
X105107142Y-92178571D01*
X105202380Y-92226190D01*
X105583333Y-92226190D01*
G36*
X105546822Y-143561313D02*
G01*
X105707241Y-143609976D01*
X105855077Y-143688995D01*
X105967024Y-143780868D01*
X105984659Y-143795341D01*
X106091004Y-143924922D01*
X106091005Y-143924924D01*
X106170024Y-144072758D01*
X106218687Y-144233177D01*
X106231000Y-144358196D01*
X106231000Y-145641804D01*
X106218687Y-145766823D01*
X106170024Y-145927242D01*
X106099114Y-146059906D01*
X106091004Y-146075078D01*
X105984659Y-146204659D01*
X105855078Y-146311004D01*
X105855076Y-146311005D01*
X105707242Y-146390024D01*
X105546823Y-146438687D01*
X105380000Y-146455117D01*
X105213178Y-146438687D01*
X105052759Y-146390024D01*
X104904925Y-146311005D01*
X104904923Y-146311004D01*
X104775342Y-146204659D01*
X104668997Y-146075078D01*
X104660887Y-146059906D01*
X104589977Y-145927242D01*
X104541314Y-145766823D01*
X104529001Y-145641804D01*
X104529000Y-144358197D01*
X104541313Y-144233178D01*
X104589976Y-144072759D01*
X104668995Y-143924923D01*
X104775341Y-143795341D01*
X104836824Y-143744883D01*
X104904922Y-143688996D01*
X104920310Y-143680771D01*
X105052758Y-143609976D01*
X105213177Y-143561313D01*
X105380000Y-143544883D01*
X105546822Y-143561313D01*
G37*
G36*
X83546822Y-143561313D02*
G01*
X83707241Y-143609976D01*
X83855077Y-143688995D01*
X83967024Y-143780868D01*
X83984659Y-143795341D01*
X84091004Y-143924922D01*
X84091005Y-143924924D01*
X84170024Y-144072758D01*
X84218687Y-144233177D01*
X84231000Y-144358196D01*
X84231000Y-145641804D01*
X84218687Y-145766823D01*
X84170024Y-145927242D01*
X84099114Y-146059906D01*
X84091004Y-146075078D01*
X83984659Y-146204659D01*
X83855078Y-146311004D01*
X83855076Y-146311005D01*
X83707242Y-146390024D01*
X83546823Y-146438687D01*
X83380000Y-146455117D01*
X83213178Y-146438687D01*
X83052759Y-146390024D01*
X82904925Y-146311005D01*
X82904923Y-146311004D01*
X82775342Y-146204659D01*
X82668997Y-146075078D01*
X82660887Y-146059906D01*
X82589977Y-145927242D01*
X82541314Y-145766823D01*
X82529001Y-145641804D01*
X82529000Y-144358197D01*
X82541313Y-144233178D01*
X82589976Y-144072759D01*
X82668995Y-143924923D01*
X82775341Y-143795341D01*
X82836824Y-143744883D01*
X82904922Y-143688996D01*
X82920310Y-143680771D01*
X83052758Y-143609976D01*
X83213177Y-143561313D01*
X83380000Y-143544883D01*
X83546822Y-143561313D01*
G37*
G36*
X118786823Y-143561313D02*
G01*
X118947242Y-143609976D01*
X119079690Y-143680771D01*
X119095078Y-143688996D01*
X119224659Y-143795341D01*
X119331004Y-143924922D01*
X119331005Y-143924924D01*
X119410024Y-144072758D01*
X119458687Y-144233177D01*
X119471000Y-144358196D01*
X119471000Y-145641804D01*
X119458687Y-145766823D01*
X119410024Y-145927242D01*
X119339114Y-146059906D01*
X119331004Y-146075078D01*
X119301520Y-146111004D01*
X119224659Y-146204659D01*
X119095077Y-146311005D01*
X118947241Y-146390024D01*
X118786822Y-146438687D01*
X118620000Y-146455117D01*
X118453177Y-146438687D01*
X118292758Y-146390024D01*
X118144924Y-146311005D01*
X118144922Y-146311004D01*
X118015341Y-146204659D01*
X117938480Y-146111004D01*
X117908995Y-146075077D01*
X117829976Y-145927241D01*
X117781313Y-145766822D01*
X117769000Y-145641803D01*
X117769001Y-144358196D01*
X117781314Y-144233177D01*
X117829977Y-144072758D01*
X117908996Y-143924924D01*
X117908997Y-143924922D01*
X118015342Y-143795341D01*
X118144923Y-143688996D01*
X118160311Y-143680771D01*
X118292759Y-143609976D01*
X118453178Y-143561313D01*
X118620000Y-143544883D01*
X118786823Y-143561313D01*
G37*
G36*
X56786823Y-143561313D02*
G01*
X56947242Y-143609976D01*
X57079690Y-143680771D01*
X57095078Y-143688996D01*
X57224659Y-143795341D01*
X57331004Y-143924922D01*
X57331005Y-143924924D01*
X57410024Y-144072758D01*
X57458687Y-144233177D01*
X57471000Y-144358196D01*
X57471000Y-145641804D01*
X57458687Y-145766823D01*
X57410024Y-145927242D01*
X57339114Y-146059906D01*
X57331004Y-146075078D01*
X57301520Y-146111004D01*
X57224659Y-146204659D01*
X57095077Y-146311005D01*
X56947241Y-146390024D01*
X56786822Y-146438687D01*
X56620000Y-146455117D01*
X56453177Y-146438687D01*
X56292758Y-146390024D01*
X56144924Y-146311005D01*
X56144922Y-146311004D01*
X56015341Y-146204659D01*
X55938480Y-146111004D01*
X55908995Y-146075077D01*
X55829976Y-145927241D01*
X55781313Y-145766822D01*
X55769000Y-145641803D01*
X55769001Y-144358196D01*
X55781314Y-144233177D01*
X55829977Y-144072758D01*
X55908996Y-143924924D01*
X55908997Y-143924922D01*
X56015342Y-143795341D01*
X56144923Y-143688996D01*
X56160311Y-143680771D01*
X56292759Y-143609976D01*
X56453178Y-143561313D01*
X56620000Y-143544883D01*
X56786823Y-143561313D01*
G37*
G36*
X145546822Y-143561313D02*
G01*
X145707241Y-143609976D01*
X145855077Y-143688995D01*
X145967024Y-143780868D01*
X145984659Y-143795341D01*
X146091004Y-143924922D01*
X146091005Y-143924924D01*
X146170024Y-144072758D01*
X146218687Y-144233177D01*
X146231000Y-144358196D01*
X146231000Y-145641804D01*
X146218687Y-145766823D01*
X146170024Y-145927242D01*
X146099114Y-146059906D01*
X146091004Y-146075078D01*
X145984659Y-146204659D01*
X145855078Y-146311004D01*
X145855076Y-146311005D01*
X145707242Y-146390024D01*
X145546823Y-146438687D01*
X145380000Y-146455117D01*
X145213178Y-146438687D01*
X145052759Y-146390024D01*
X144904925Y-146311005D01*
X144904923Y-146311004D01*
X144775342Y-146204659D01*
X144668997Y-146075078D01*
X144660887Y-146059906D01*
X144589977Y-145927242D01*
X144541314Y-145766823D01*
X144529001Y-145641804D01*
X144529000Y-144358197D01*
X144541313Y-144233178D01*
X144589976Y-144072759D01*
X144668995Y-143924923D01*
X144775341Y-143795341D01*
X144836824Y-143744883D01*
X144904922Y-143688996D01*
X144920310Y-143680771D01*
X145052758Y-143609976D01*
X145213177Y-143561313D01*
X145380000Y-143544883D01*
X145546822Y-143561313D01*
G37*
G36*
X97237022Y-143560590D02*
G01*
X97337681Y-143591125D01*
X97388012Y-143606392D01*
X97527164Y-143680771D01*
X97649133Y-143780867D01*
X97737871Y-143888995D01*
X97749229Y-143902835D01*
X97823608Y-144041987D01*
X97832942Y-144072758D01*
X97869410Y-144192977D01*
X97881000Y-144310655D01*
X97881000Y-145689345D01*
X97869410Y-145807023D01*
X97848766Y-145875076D01*
X97823608Y-145958013D01*
X97749229Y-146097165D01*
X97649133Y-146219133D01*
X97527165Y-146319229D01*
X97388013Y-146393608D01*
X97337682Y-146408875D01*
X97237023Y-146439410D01*
X97080000Y-146454875D01*
X96922978Y-146439410D01*
X96822319Y-146408875D01*
X96771988Y-146393608D01*
X96632836Y-146319229D01*
X96510868Y-146219133D01*
X96410772Y-146097165D01*
X96336393Y-145958013D01*
X96311235Y-145875076D01*
X96290591Y-145807023D01*
X96279001Y-145689345D01*
X96279000Y-144310656D01*
X96290590Y-144192978D01*
X96336392Y-144041989D01*
X96336392Y-144041988D01*
X96410771Y-143902836D01*
X96422130Y-143888995D01*
X96510867Y-143780867D01*
X96632835Y-143680771D01*
X96771987Y-143606392D01*
X96822318Y-143591125D01*
X96922977Y-143560590D01*
X97080000Y-143545125D01*
X97237022Y-143560590D01*
G37*
G36*
X127077023Y-143560590D02*
G01*
X127177682Y-143591125D01*
X127228013Y-143606392D01*
X127367165Y-143680771D01*
X127489133Y-143780867D01*
X127589229Y-143902835D01*
X127663608Y-144041987D01*
X127672942Y-144072758D01*
X127709410Y-144192977D01*
X127721000Y-144310655D01*
X127721000Y-145689345D01*
X127709410Y-145807023D01*
X127688766Y-145875076D01*
X127663608Y-145958013D01*
X127638675Y-146004659D01*
X127589229Y-146097165D01*
X127489133Y-146219133D01*
X127377186Y-146311004D01*
X127367164Y-146319229D01*
X127228012Y-146393608D01*
X127177681Y-146408875D01*
X127077022Y-146439410D01*
X126920000Y-146454875D01*
X126762977Y-146439410D01*
X126662318Y-146408875D01*
X126611987Y-146393608D01*
X126472835Y-146319229D01*
X126462813Y-146311004D01*
X126350867Y-146219133D01*
X126250771Y-146097164D01*
X126176393Y-145958013D01*
X126176392Y-145958012D01*
X126151234Y-145875076D01*
X126130590Y-145807022D01*
X126119000Y-145689344D01*
X126119001Y-144310655D01*
X126130591Y-144192977D01*
X126167059Y-144072758D01*
X126176393Y-144041987D01*
X126250772Y-143902835D01*
X126350868Y-143780867D01*
X126472836Y-143680771D01*
X126611988Y-143606392D01*
X126662319Y-143591125D01*
X126762978Y-143560590D01*
X126920000Y-143545125D01*
X127077023Y-143560590D01*
G37*
G36*
X137237022Y-143560590D02*
G01*
X137337681Y-143591125D01*
X137388012Y-143606392D01*
X137527164Y-143680771D01*
X137649133Y-143780867D01*
X137737871Y-143888995D01*
X137749229Y-143902835D01*
X137823608Y-144041987D01*
X137832942Y-144072758D01*
X137869410Y-144192977D01*
X137881000Y-144310655D01*
X137881000Y-145689345D01*
X137869410Y-145807023D01*
X137848766Y-145875076D01*
X137823608Y-145958013D01*
X137749229Y-146097165D01*
X137649133Y-146219133D01*
X137527165Y-146319229D01*
X137388013Y-146393608D01*
X137337682Y-146408875D01*
X137237023Y-146439410D01*
X137080000Y-146454875D01*
X136922978Y-146439410D01*
X136822319Y-146408875D01*
X136771988Y-146393608D01*
X136632836Y-146319229D01*
X136510868Y-146219133D01*
X136410772Y-146097165D01*
X136336393Y-145958013D01*
X136311235Y-145875076D01*
X136290591Y-145807023D01*
X136279001Y-145689345D01*
X136279000Y-144310656D01*
X136290590Y-144192978D01*
X136336392Y-144041989D01*
X136336392Y-144041988D01*
X136410771Y-143902836D01*
X136422130Y-143888995D01*
X136510867Y-143780867D01*
X136632835Y-143680771D01*
X136771987Y-143606392D01*
X136822318Y-143591125D01*
X136922977Y-143560590D01*
X137080000Y-143545125D01*
X137237022Y-143560590D01*
G37*
G36*
X65077023Y-143560590D02*
G01*
X65177682Y-143591125D01*
X65228013Y-143606392D01*
X65367165Y-143680771D01*
X65489133Y-143780867D01*
X65589229Y-143902835D01*
X65663608Y-144041987D01*
X65672942Y-144072758D01*
X65709410Y-144192977D01*
X65721000Y-144310655D01*
X65721000Y-145689345D01*
X65709410Y-145807023D01*
X65688766Y-145875076D01*
X65663608Y-145958013D01*
X65638675Y-146004659D01*
X65589229Y-146097165D01*
X65489133Y-146219133D01*
X65377186Y-146311004D01*
X65367164Y-146319229D01*
X65228012Y-146393608D01*
X65177681Y-146408875D01*
X65077022Y-146439410D01*
X64920000Y-146454875D01*
X64762977Y-146439410D01*
X64662318Y-146408875D01*
X64611987Y-146393608D01*
X64472835Y-146319229D01*
X64462813Y-146311004D01*
X64350867Y-146219133D01*
X64250771Y-146097164D01*
X64176393Y-145958013D01*
X64176392Y-145958012D01*
X64151234Y-145875076D01*
X64130590Y-145807022D01*
X64119000Y-145689344D01*
X64119001Y-144310655D01*
X64130591Y-144192977D01*
X64167059Y-144072758D01*
X64176393Y-144041987D01*
X64250772Y-143902835D01*
X64350868Y-143780867D01*
X64472836Y-143680771D01*
X64611988Y-143606392D01*
X64662319Y-143591125D01*
X64762978Y-143560590D01*
X64920000Y-143545125D01*
X65077023Y-143560590D01*
G37*
G36*
X75237022Y-143560590D02*
G01*
X75337681Y-143591125D01*
X75388012Y-143606392D01*
X75527164Y-143680771D01*
X75649133Y-143780867D01*
X75737871Y-143888995D01*
X75749229Y-143902835D01*
X75823608Y-144041987D01*
X75832942Y-144072758D01*
X75869410Y-144192977D01*
X75881000Y-144310655D01*
X75881000Y-145689345D01*
X75869410Y-145807023D01*
X75848766Y-145875076D01*
X75823608Y-145958013D01*
X75749229Y-146097165D01*
X75649133Y-146219133D01*
X75527165Y-146319229D01*
X75388013Y-146393608D01*
X75337682Y-146408875D01*
X75237023Y-146439410D01*
X75080000Y-146454875D01*
X74922978Y-146439410D01*
X74822319Y-146408875D01*
X74771988Y-146393608D01*
X74632836Y-146319229D01*
X74510868Y-146219133D01*
X74410772Y-146097165D01*
X74336393Y-145958013D01*
X74311235Y-145875076D01*
X74290591Y-145807023D01*
X74279001Y-145689345D01*
X74279000Y-144310656D01*
X74290590Y-144192978D01*
X74336392Y-144041989D01*
X74336392Y-144041988D01*
X74410771Y-143902836D01*
X74422130Y-143888995D01*
X74510867Y-143780867D01*
X74632835Y-143680771D01*
X74771987Y-143606392D01*
X74822318Y-143591125D01*
X74922977Y-143560590D01*
X75080000Y-143545125D01*
X75237022Y-143560590D01*
G37*
G36*
X86646822Y-143761313D02*
G01*
X86807241Y-143809976D01*
X86955077Y-143888995D01*
X87084659Y-143995341D01*
X87191004Y-144124922D01*
X87191005Y-144124924D01*
X87270024Y-144272758D01*
X87318687Y-144433177D01*
X87331000Y-144558196D01*
X87331000Y-145441803D01*
X87318687Y-145566822D01*
X87270024Y-145727242D01*
X87227380Y-145807023D01*
X87191004Y-145875078D01*
X87084659Y-146004659D01*
X86955078Y-146111004D01*
X86955076Y-146111005D01*
X86807242Y-146190024D01*
X86646823Y-146238687D01*
X86480000Y-146255117D01*
X86313178Y-146238687D01*
X86152759Y-146190024D01*
X86004925Y-146111005D01*
X86004923Y-146111004D01*
X85875342Y-146004659D01*
X85768997Y-145875078D01*
X85732621Y-145807023D01*
X85689977Y-145727242D01*
X85641314Y-145566823D01*
X85629000Y-145441803D01*
X85629000Y-144558197D01*
X85641313Y-144433178D01*
X85689976Y-144272759D01*
X85768995Y-144124923D01*
X85875341Y-143995341D01*
X85961144Y-143924924D01*
X86004922Y-143888996D01*
X86020094Y-143880886D01*
X86152758Y-143809976D01*
X86313177Y-143761313D01*
X86480000Y-143744883D01*
X86646822Y-143761313D01*
G37*
G36*
X53686823Y-143761313D02*
G01*
X53847242Y-143809976D01*
X53979906Y-143880886D01*
X53995078Y-143888996D01*
X54124659Y-143995341D01*
X54231004Y-144124922D01*
X54231005Y-144124924D01*
X54310024Y-144272758D01*
X54358687Y-144433178D01*
X54371000Y-144558197D01*
X54371000Y-145441804D01*
X54358687Y-145566823D01*
X54310024Y-145727242D01*
X54267380Y-145807023D01*
X54231004Y-145875078D01*
X54124659Y-146004659D01*
X53995077Y-146111005D01*
X53847241Y-146190024D01*
X53686822Y-146238687D01*
X53520000Y-146255117D01*
X53353177Y-146238687D01*
X53192758Y-146190024D01*
X53044924Y-146111005D01*
X53044922Y-146111004D01*
X52915341Y-146004659D01*
X52808995Y-145875077D01*
X52729976Y-145727241D01*
X52681313Y-145566822D01*
X52669000Y-145441803D01*
X52669000Y-144558197D01*
X52681314Y-144433177D01*
X52729977Y-144272758D01*
X52808996Y-144124924D01*
X52808997Y-144124922D01*
X52915342Y-143995341D01*
X53044923Y-143888996D01*
X53060095Y-143880886D01*
X53192759Y-143809976D01*
X53353178Y-143761313D01*
X53520000Y-143744883D01*
X53686823Y-143761313D01*
G37*
G36*
X108646822Y-143761313D02*
G01*
X108807241Y-143809976D01*
X108955077Y-143888995D01*
X109084659Y-143995341D01*
X109191004Y-144124922D01*
X109191005Y-144124924D01*
X109270024Y-144272758D01*
X109318687Y-144433177D01*
X109331000Y-144558196D01*
X109331000Y-145441803D01*
X109318687Y-145566822D01*
X109270024Y-145727242D01*
X109227380Y-145807023D01*
X109191004Y-145875078D01*
X109084659Y-146004659D01*
X108955078Y-146111004D01*
X108955076Y-146111005D01*
X108807242Y-146190024D01*
X108646823Y-146238687D01*
X108480000Y-146255117D01*
X108313178Y-146238687D01*
X108152759Y-146190024D01*
X108004925Y-146111005D01*
X108004923Y-146111004D01*
X107875342Y-146004659D01*
X107768997Y-145875078D01*
X107732621Y-145807023D01*
X107689977Y-145727242D01*
X107641314Y-145566823D01*
X107629000Y-145441803D01*
X107629000Y-144558197D01*
X107641313Y-144433178D01*
X107689976Y-144272759D01*
X107768995Y-144124923D01*
X107875341Y-143995341D01*
X107961144Y-143924924D01*
X108004922Y-143888996D01*
X108020094Y-143880886D01*
X108152758Y-143809976D01*
X108313177Y-143761313D01*
X108480000Y-143744883D01*
X108646822Y-143761313D01*
G37*
G36*
X115686823Y-143761313D02*
G01*
X115847242Y-143809976D01*
X115979906Y-143880886D01*
X115995078Y-143888996D01*
X116124659Y-143995341D01*
X116231004Y-144124922D01*
X116231005Y-144124924D01*
X116310024Y-144272758D01*
X116358687Y-144433178D01*
X116371000Y-144558197D01*
X116371000Y-145441804D01*
X116358687Y-145566823D01*
X116310024Y-145727242D01*
X116267380Y-145807023D01*
X116231004Y-145875078D01*
X116124659Y-146004659D01*
X115995077Y-146111005D01*
X115847241Y-146190024D01*
X115686822Y-146238687D01*
X115520000Y-146255117D01*
X115353177Y-146238687D01*
X115192758Y-146190024D01*
X115044924Y-146111005D01*
X115044922Y-146111004D01*
X114915341Y-146004659D01*
X114808995Y-145875077D01*
X114729976Y-145727241D01*
X114681313Y-145566822D01*
X114669000Y-145441803D01*
X114669000Y-144558197D01*
X114681314Y-144433177D01*
X114729977Y-144272758D01*
X114808996Y-144124924D01*
X114808997Y-144124922D01*
X114915342Y-143995341D01*
X115044923Y-143888996D01*
X115060095Y-143880886D01*
X115192759Y-143809976D01*
X115353178Y-143761313D01*
X115520000Y-143744883D01*
X115686823Y-143761313D01*
G37*
G36*
X148646822Y-143761313D02*
G01*
X148807241Y-143809976D01*
X148955077Y-143888995D01*
X149084659Y-143995341D01*
X149191004Y-144124922D01*
X149191005Y-144124924D01*
X149270024Y-144272758D01*
X149318687Y-144433177D01*
X149331000Y-144558196D01*
X149331000Y-145441803D01*
X149318687Y-145566822D01*
X149270024Y-145727242D01*
X149227380Y-145807023D01*
X149191004Y-145875078D01*
X149084659Y-146004659D01*
X148955078Y-146111004D01*
X148955076Y-146111005D01*
X148807242Y-146190024D01*
X148646823Y-146238687D01*
X148480000Y-146255117D01*
X148313178Y-146238687D01*
X148152759Y-146190024D01*
X148004925Y-146111005D01*
X148004923Y-146111004D01*
X147875342Y-146004659D01*
X147768997Y-145875078D01*
X147732621Y-145807023D01*
X147689977Y-145727242D01*
X147641314Y-145566823D01*
X147629000Y-145441803D01*
X147629000Y-144558197D01*
X147641313Y-144433178D01*
X147689976Y-144272759D01*
X147768995Y-144124923D01*
X147875341Y-143995341D01*
X147961144Y-143924924D01*
X148004922Y-143888996D01*
X148020094Y-143880886D01*
X148152758Y-143809976D01*
X148313177Y-143761313D01*
X148480000Y-143744883D01*
X148646822Y-143761313D01*
G37*
G36*
X105546822Y-133561313D02*
G01*
X105707241Y-133609976D01*
X105855077Y-133688995D01*
X105967024Y-133780868D01*
X105984659Y-133795341D01*
X106091004Y-133924922D01*
X106091005Y-133924924D01*
X106170024Y-134072758D01*
X106218687Y-134233177D01*
X106231000Y-134358196D01*
X106231000Y-135641804D01*
X106218687Y-135766823D01*
X106170024Y-135927242D01*
X106099114Y-136059906D01*
X106091004Y-136075078D01*
X105984659Y-136204659D01*
X105855078Y-136311004D01*
X105855076Y-136311005D01*
X105707242Y-136390024D01*
X105546823Y-136438687D01*
X105380000Y-136455117D01*
X105213178Y-136438687D01*
X105052759Y-136390024D01*
X104904925Y-136311005D01*
X104904923Y-136311004D01*
X104775342Y-136204659D01*
X104668997Y-136075078D01*
X104660887Y-136059906D01*
X104589977Y-135927242D01*
X104541314Y-135766823D01*
X104529001Y-135641804D01*
X104529000Y-134358197D01*
X104541313Y-134233178D01*
X104589976Y-134072759D01*
X104668995Y-133924923D01*
X104775341Y-133795341D01*
X104836824Y-133744883D01*
X104904922Y-133688996D01*
X104920310Y-133680771D01*
X105052758Y-133609976D01*
X105213177Y-133561313D01*
X105380000Y-133544883D01*
X105546822Y-133561313D01*
G37*
G36*
X97237022Y-133560590D02*
G01*
X97337681Y-133591125D01*
X97388012Y-133606392D01*
X97527164Y-133680771D01*
X97649133Y-133780867D01*
X97737871Y-133888995D01*
X97749229Y-133902835D01*
X97823608Y-134041987D01*
X97832942Y-134072758D01*
X97869410Y-134192977D01*
X97881000Y-134310655D01*
X97881000Y-135689345D01*
X97869410Y-135807023D01*
X97848766Y-135875076D01*
X97823608Y-135958013D01*
X97749229Y-136097165D01*
X97649133Y-136219133D01*
X97527165Y-136319229D01*
X97388013Y-136393608D01*
X97337682Y-136408875D01*
X97237023Y-136439410D01*
X97080000Y-136454875D01*
X96922978Y-136439410D01*
X96822319Y-136408875D01*
X96771988Y-136393608D01*
X96632836Y-136319229D01*
X96510868Y-136219133D01*
X96410772Y-136097165D01*
X96336393Y-135958013D01*
X96311235Y-135875076D01*
X96290591Y-135807023D01*
X96279001Y-135689345D01*
X96279000Y-134310656D01*
X96290590Y-134192978D01*
X96336392Y-134041989D01*
X96336392Y-134041988D01*
X96410771Y-133902836D01*
X96422130Y-133888995D01*
X96510867Y-133780867D01*
X96632835Y-133680771D01*
X96771987Y-133606392D01*
X96822318Y-133591125D01*
X96922977Y-133560590D01*
X97080000Y-133545125D01*
X97237022Y-133560590D01*
G37*
G36*
X108646822Y-133761313D02*
G01*
X108807241Y-133809976D01*
X108955077Y-133888995D01*
X109084659Y-133995341D01*
X109191004Y-134124922D01*
X109191005Y-134124924D01*
X109270024Y-134272758D01*
X109318687Y-134433177D01*
X109331000Y-134558196D01*
X109331000Y-135441803D01*
X109318687Y-135566822D01*
X109270024Y-135727242D01*
X109248867Y-135766823D01*
X109191004Y-135875078D01*
X109084659Y-136004659D01*
X108955078Y-136111004D01*
X108955076Y-136111005D01*
X108807242Y-136190024D01*
X108646823Y-136238687D01*
X108480000Y-136255117D01*
X108313178Y-136238687D01*
X108152759Y-136190024D01*
X108004925Y-136111005D01*
X108004923Y-136111004D01*
X107875342Y-136004659D01*
X107768997Y-135875078D01*
X107711134Y-135766823D01*
X107689977Y-135727242D01*
X107641314Y-135566823D01*
X107629000Y-135441803D01*
X107629000Y-134558197D01*
X107641313Y-134433178D01*
X107689976Y-134272759D01*
X107768995Y-134124923D01*
X107875341Y-133995341D01*
X107961144Y-133924924D01*
X108004922Y-133888996D01*
X108020094Y-133880886D01*
X108152758Y-133809976D01*
X108313177Y-133761313D01*
X108480000Y-133744883D01*
X108646822Y-133761313D01*
G37*
G36*
X83546822Y-123561313D02*
G01*
X83707241Y-123609976D01*
X83855077Y-123688995D01*
X83967024Y-123780868D01*
X83984659Y-123795341D01*
X84091004Y-123924922D01*
X84091005Y-123924924D01*
X84170024Y-124072758D01*
X84218687Y-124233177D01*
X84231000Y-124358196D01*
X84231000Y-125641804D01*
X84218687Y-125766823D01*
X84170024Y-125927242D01*
X84099114Y-126059906D01*
X84091004Y-126075078D01*
X83984659Y-126204659D01*
X83855078Y-126311004D01*
X83855076Y-126311005D01*
X83707242Y-126390024D01*
X83546823Y-126438687D01*
X83380000Y-126455117D01*
X83213178Y-126438687D01*
X83052759Y-126390024D01*
X82904925Y-126311005D01*
X82904923Y-126311004D01*
X82775342Y-126204659D01*
X82668997Y-126075078D01*
X82660887Y-126059906D01*
X82589977Y-125927242D01*
X82541314Y-125766823D01*
X82529001Y-125641804D01*
X82529000Y-124358197D01*
X82541313Y-124233178D01*
X82589976Y-124072759D01*
X82668995Y-123924923D01*
X82775341Y-123795341D01*
X82836824Y-123744883D01*
X82904922Y-123688996D01*
X82920310Y-123680771D01*
X83052758Y-123609976D01*
X83213177Y-123561313D01*
X83380000Y-123544883D01*
X83546822Y-123561313D01*
G37*
G36*
X118786823Y-123561313D02*
G01*
X118947242Y-123609976D01*
X119079690Y-123680771D01*
X119095078Y-123688996D01*
X119224659Y-123795341D01*
X119331004Y-123924922D01*
X119331005Y-123924924D01*
X119410024Y-124072758D01*
X119458687Y-124233177D01*
X119471000Y-124358196D01*
X119471000Y-125641804D01*
X119458687Y-125766823D01*
X119410024Y-125927242D01*
X119339114Y-126059906D01*
X119331004Y-126075078D01*
X119301520Y-126111004D01*
X119224659Y-126204659D01*
X119095077Y-126311005D01*
X118947241Y-126390024D01*
X118786822Y-126438687D01*
X118620000Y-126455117D01*
X118453177Y-126438687D01*
X118292758Y-126390024D01*
X118144924Y-126311005D01*
X118144922Y-126311004D01*
X118015341Y-126204659D01*
X117938480Y-126111004D01*
X117908995Y-126075077D01*
X117829976Y-125927241D01*
X117781313Y-125766822D01*
X117769000Y-125641803D01*
X117769001Y-124358196D01*
X117781314Y-124233177D01*
X117829977Y-124072758D01*
X117908996Y-123924924D01*
X117908997Y-123924922D01*
X118015342Y-123795341D01*
X118144923Y-123688996D01*
X118160311Y-123680771D01*
X118292759Y-123609976D01*
X118453178Y-123561313D01*
X118620000Y-123544883D01*
X118786823Y-123561313D01*
G37*
G36*
X145546822Y-123561313D02*
G01*
X145707241Y-123609976D01*
X145855077Y-123688995D01*
X145967024Y-123780868D01*
X145984659Y-123795341D01*
X146091004Y-123924922D01*
X146091005Y-123924924D01*
X146170024Y-124072758D01*
X146218687Y-124233177D01*
X146231000Y-124358196D01*
X146231000Y-125641804D01*
X146218687Y-125766823D01*
X146170024Y-125927242D01*
X146099114Y-126059906D01*
X146091004Y-126075078D01*
X145984659Y-126204659D01*
X145855078Y-126311004D01*
X145855076Y-126311005D01*
X145707242Y-126390024D01*
X145546823Y-126438687D01*
X145380000Y-126455117D01*
X145213178Y-126438687D01*
X145052759Y-126390024D01*
X144904925Y-126311005D01*
X144904923Y-126311004D01*
X144775342Y-126204659D01*
X144668997Y-126075078D01*
X144660887Y-126059906D01*
X144589977Y-125927242D01*
X144541314Y-125766823D01*
X144529001Y-125641804D01*
X144529000Y-124358197D01*
X144541313Y-124233178D01*
X144589976Y-124072759D01*
X144668995Y-123924923D01*
X144775341Y-123795341D01*
X144836824Y-123744883D01*
X144904922Y-123688996D01*
X144920310Y-123680771D01*
X145052758Y-123609976D01*
X145213177Y-123561313D01*
X145380000Y-123544883D01*
X145546822Y-123561313D01*
G37*
G36*
X56786823Y-123561313D02*
G01*
X56947242Y-123609976D01*
X57079690Y-123680771D01*
X57095078Y-123688996D01*
X57224659Y-123795341D01*
X57331004Y-123924922D01*
X57331005Y-123924924D01*
X57410024Y-124072758D01*
X57458687Y-124233177D01*
X57471000Y-124358196D01*
X57471000Y-125641804D01*
X57458687Y-125766823D01*
X57410024Y-125927242D01*
X57339114Y-126059906D01*
X57331004Y-126075078D01*
X57301520Y-126111004D01*
X57224659Y-126204659D01*
X57095077Y-126311005D01*
X56947241Y-126390024D01*
X56786822Y-126438687D01*
X56620000Y-126455117D01*
X56453177Y-126438687D01*
X56292758Y-126390024D01*
X56144924Y-126311005D01*
X56144922Y-126311004D01*
X56015341Y-126204659D01*
X55938480Y-126111004D01*
X55908995Y-126075077D01*
X55829976Y-125927241D01*
X55781313Y-125766822D01*
X55769000Y-125641803D01*
X55769001Y-124358196D01*
X55781314Y-124233177D01*
X55829977Y-124072758D01*
X55908996Y-123924924D01*
X55908997Y-123924922D01*
X56015342Y-123795341D01*
X56144923Y-123688996D01*
X56160311Y-123680771D01*
X56292759Y-123609976D01*
X56453178Y-123561313D01*
X56620000Y-123544883D01*
X56786823Y-123561313D01*
G37*
G36*
X65077023Y-123560590D02*
G01*
X65177682Y-123591125D01*
X65228013Y-123606392D01*
X65367165Y-123680771D01*
X65489133Y-123780867D01*
X65589229Y-123902835D01*
X65663608Y-124041987D01*
X65672942Y-124072758D01*
X65709410Y-124192977D01*
X65721000Y-124310655D01*
X65721000Y-125689345D01*
X65709410Y-125807023D01*
X65688766Y-125875076D01*
X65663608Y-125958013D01*
X65638675Y-126004659D01*
X65589229Y-126097165D01*
X65489133Y-126219133D01*
X65377186Y-126311004D01*
X65367164Y-126319229D01*
X65228012Y-126393608D01*
X65177681Y-126408875D01*
X65077022Y-126439410D01*
X64920000Y-126454875D01*
X64762977Y-126439410D01*
X64662318Y-126408875D01*
X64611987Y-126393608D01*
X64472835Y-126319229D01*
X64462813Y-126311004D01*
X64350867Y-126219133D01*
X64250771Y-126097164D01*
X64176393Y-125958013D01*
X64176392Y-125958012D01*
X64151234Y-125875076D01*
X64130590Y-125807022D01*
X64119000Y-125689344D01*
X64119001Y-124310655D01*
X64130591Y-124192977D01*
X64167059Y-124072758D01*
X64176393Y-124041987D01*
X64250772Y-123902835D01*
X64350868Y-123780867D01*
X64472836Y-123680771D01*
X64611988Y-123606392D01*
X64662319Y-123591125D01*
X64762978Y-123560590D01*
X64920000Y-123545125D01*
X65077023Y-123560590D01*
G37*
G36*
X137237022Y-123560590D02*
G01*
X137337681Y-123591125D01*
X137388012Y-123606392D01*
X137527164Y-123680771D01*
X137649133Y-123780867D01*
X137737871Y-123888995D01*
X137749229Y-123902835D01*
X137823608Y-124041987D01*
X137832942Y-124072758D01*
X137869410Y-124192977D01*
X137881000Y-124310655D01*
X137881000Y-125689345D01*
X137869410Y-125807023D01*
X137848766Y-125875076D01*
X137823608Y-125958013D01*
X137749229Y-126097165D01*
X137649133Y-126219133D01*
X137527165Y-126319229D01*
X137388013Y-126393608D01*
X137337682Y-126408875D01*
X137237023Y-126439410D01*
X137080000Y-126454875D01*
X136922978Y-126439410D01*
X136822319Y-126408875D01*
X136771988Y-126393608D01*
X136632836Y-126319229D01*
X136510868Y-126219133D01*
X136410772Y-126097165D01*
X136336393Y-125958013D01*
X136311235Y-125875076D01*
X136290591Y-125807023D01*
X136279001Y-125689345D01*
X136279000Y-124310656D01*
X136290590Y-124192978D01*
X136336392Y-124041989D01*
X136336392Y-124041988D01*
X136410771Y-123902836D01*
X136422130Y-123888995D01*
X136510867Y-123780867D01*
X136632835Y-123680771D01*
X136771987Y-123606392D01*
X136822318Y-123591125D01*
X136922977Y-123560590D01*
X137080000Y-123545125D01*
X137237022Y-123560590D01*
G37*
G36*
X127077023Y-123560590D02*
G01*
X127177682Y-123591125D01*
X127228013Y-123606392D01*
X127367165Y-123680771D01*
X127489133Y-123780867D01*
X127589229Y-123902835D01*
X127663608Y-124041987D01*
X127672942Y-124072758D01*
X127709410Y-124192977D01*
X127721000Y-124310655D01*
X127721000Y-125689345D01*
X127709410Y-125807023D01*
X127688766Y-125875076D01*
X127663608Y-125958013D01*
X127638675Y-126004659D01*
X127589229Y-126097165D01*
X127489133Y-126219133D01*
X127377186Y-126311004D01*
X127367164Y-126319229D01*
X127228012Y-126393608D01*
X127177681Y-126408875D01*
X127077022Y-126439410D01*
X126920000Y-126454875D01*
X126762977Y-126439410D01*
X126662318Y-126408875D01*
X126611987Y-126393608D01*
X126472835Y-126319229D01*
X126462813Y-126311004D01*
X126350867Y-126219133D01*
X126250771Y-126097164D01*
X126176393Y-125958013D01*
X126176392Y-125958012D01*
X126151234Y-125875076D01*
X126130590Y-125807022D01*
X126119000Y-125689344D01*
X126119001Y-124310655D01*
X126130591Y-124192977D01*
X126167059Y-124072758D01*
X126176393Y-124041987D01*
X126250772Y-123902835D01*
X126350868Y-123780867D01*
X126472836Y-123680771D01*
X126611988Y-123606392D01*
X126662319Y-123591125D01*
X126762978Y-123560590D01*
X126920000Y-123545125D01*
X127077023Y-123560590D01*
G37*
G36*
X75237022Y-123560590D02*
G01*
X75337681Y-123591125D01*
X75388012Y-123606392D01*
X75527164Y-123680771D01*
X75649133Y-123780867D01*
X75737871Y-123888995D01*
X75749229Y-123902835D01*
X75823608Y-124041987D01*
X75832942Y-124072758D01*
X75869410Y-124192977D01*
X75881000Y-124310655D01*
X75881000Y-125689345D01*
X75869410Y-125807023D01*
X75848766Y-125875076D01*
X75823608Y-125958013D01*
X75749229Y-126097165D01*
X75649133Y-126219133D01*
X75527165Y-126319229D01*
X75388013Y-126393608D01*
X75337682Y-126408875D01*
X75237023Y-126439410D01*
X75080000Y-126454875D01*
X74922978Y-126439410D01*
X74822319Y-126408875D01*
X74771988Y-126393608D01*
X74632836Y-126319229D01*
X74510868Y-126219133D01*
X74410772Y-126097165D01*
X74336393Y-125958013D01*
X74311235Y-125875076D01*
X74290591Y-125807023D01*
X74279001Y-125689345D01*
X74279000Y-124310656D01*
X74290590Y-124192978D01*
X74336392Y-124041989D01*
X74336392Y-124041988D01*
X74410771Y-123902836D01*
X74422130Y-123888995D01*
X74510867Y-123780867D01*
X74632835Y-123680771D01*
X74771987Y-123606392D01*
X74822318Y-123591125D01*
X74922977Y-123560590D01*
X75080000Y-123545125D01*
X75237022Y-123560590D01*
G37*
G36*
X53686823Y-123761313D02*
G01*
X53847242Y-123809976D01*
X53979906Y-123880886D01*
X53995078Y-123888996D01*
X54124659Y-123995341D01*
X54231004Y-124124922D01*
X54231005Y-124124924D01*
X54310024Y-124272758D01*
X54358687Y-124433178D01*
X54371000Y-124558197D01*
X54371000Y-125441804D01*
X54358687Y-125566823D01*
X54310024Y-125727242D01*
X54267380Y-125807023D01*
X54231004Y-125875078D01*
X54124659Y-126004659D01*
X53995077Y-126111005D01*
X53847241Y-126190024D01*
X53686822Y-126238687D01*
X53520000Y-126255117D01*
X53353177Y-126238687D01*
X53192758Y-126190024D01*
X53044924Y-126111005D01*
X53044922Y-126111004D01*
X52915341Y-126004659D01*
X52808995Y-125875077D01*
X52729976Y-125727241D01*
X52681313Y-125566822D01*
X52669000Y-125441803D01*
X52669000Y-124558197D01*
X52681314Y-124433177D01*
X52729977Y-124272758D01*
X52808996Y-124124924D01*
X52808997Y-124124922D01*
X52915342Y-123995341D01*
X53044923Y-123888996D01*
X53060095Y-123880886D01*
X53192759Y-123809976D01*
X53353178Y-123761313D01*
X53520000Y-123744883D01*
X53686823Y-123761313D01*
G37*
G36*
X115686823Y-123761313D02*
G01*
X115847242Y-123809976D01*
X115979906Y-123880886D01*
X115995078Y-123888996D01*
X116124659Y-123995341D01*
X116231004Y-124124922D01*
X116231005Y-124124924D01*
X116310024Y-124272758D01*
X116358687Y-124433178D01*
X116371000Y-124558197D01*
X116371000Y-125441804D01*
X116358687Y-125566823D01*
X116310024Y-125727242D01*
X116267380Y-125807023D01*
X116231004Y-125875078D01*
X116124659Y-126004659D01*
X115995077Y-126111005D01*
X115847241Y-126190024D01*
X115686822Y-126238687D01*
X115520000Y-126255117D01*
X115353177Y-126238687D01*
X115192758Y-126190024D01*
X115044924Y-126111005D01*
X115044922Y-126111004D01*
X114915341Y-126004659D01*
X114808995Y-125875077D01*
X114729976Y-125727241D01*
X114681313Y-125566822D01*
X114669000Y-125441803D01*
X114669000Y-124558197D01*
X114681314Y-124433177D01*
X114729977Y-124272758D01*
X114808996Y-124124924D01*
X114808997Y-124124922D01*
X114915342Y-123995341D01*
X115044923Y-123888996D01*
X115060095Y-123880886D01*
X115192759Y-123809976D01*
X115353178Y-123761313D01*
X115520000Y-123744883D01*
X115686823Y-123761313D01*
G37*
G36*
X148646822Y-123761313D02*
G01*
X148807241Y-123809976D01*
X148955077Y-123888995D01*
X149084659Y-123995341D01*
X149191004Y-124124922D01*
X149191005Y-124124924D01*
X149270024Y-124272758D01*
X149318687Y-124433177D01*
X149331000Y-124558196D01*
X149331000Y-125441803D01*
X149318687Y-125566822D01*
X149270024Y-125727242D01*
X149227380Y-125807023D01*
X149191004Y-125875078D01*
X149084659Y-126004659D01*
X148955078Y-126111004D01*
X148955076Y-126111005D01*
X148807242Y-126190024D01*
X148646823Y-126238687D01*
X148480000Y-126255117D01*
X148313178Y-126238687D01*
X148152759Y-126190024D01*
X148004925Y-126111005D01*
X148004923Y-126111004D01*
X147875342Y-126004659D01*
X147768997Y-125875078D01*
X147732621Y-125807023D01*
X147689977Y-125727242D01*
X147641314Y-125566823D01*
X147629000Y-125441803D01*
X147629000Y-124558197D01*
X147641313Y-124433178D01*
X147689976Y-124272759D01*
X147768995Y-124124923D01*
X147875341Y-123995341D01*
X147961144Y-123924924D01*
X148004922Y-123888996D01*
X148020094Y-123880886D01*
X148152758Y-123809976D01*
X148313177Y-123761313D01*
X148480000Y-123744883D01*
X148646822Y-123761313D01*
G37*
G36*
X86646822Y-123761313D02*
G01*
X86807241Y-123809976D01*
X86955077Y-123888995D01*
X87084659Y-123995341D01*
X87191004Y-124124922D01*
X87191005Y-124124924D01*
X87270024Y-124272758D01*
X87318687Y-124433177D01*
X87331000Y-124558196D01*
X87331000Y-125441803D01*
X87318687Y-125566822D01*
X87270024Y-125727242D01*
X87227380Y-125807023D01*
X87191004Y-125875078D01*
X87084659Y-126004659D01*
X86955078Y-126111004D01*
X86955076Y-126111005D01*
X86807242Y-126190024D01*
X86646823Y-126238687D01*
X86480000Y-126255117D01*
X86313178Y-126238687D01*
X86152759Y-126190024D01*
X86004925Y-126111005D01*
X86004923Y-126111004D01*
X85875342Y-126004659D01*
X85768997Y-125875078D01*
X85732621Y-125807023D01*
X85689977Y-125727242D01*
X85641314Y-125566823D01*
X85629000Y-125441803D01*
X85629000Y-124558197D01*
X85641313Y-124433178D01*
X85689976Y-124272759D01*
X85768995Y-124124923D01*
X85875341Y-123995341D01*
X85961144Y-123924924D01*
X86004922Y-123888996D01*
X86020094Y-123880886D01*
X86152758Y-123809976D01*
X86313177Y-123761313D01*
X86480000Y-123744883D01*
X86646822Y-123761313D01*
G37*
G36*
X83546822Y-113561313D02*
G01*
X83707241Y-113609976D01*
X83855077Y-113688995D01*
X83967024Y-113780868D01*
X83984659Y-113795341D01*
X84091004Y-113924922D01*
X84091005Y-113924924D01*
X84170024Y-114072758D01*
X84218687Y-114233177D01*
X84231000Y-114358196D01*
X84231000Y-115641804D01*
X84218687Y-115766823D01*
X84170024Y-115927242D01*
X84099114Y-116059906D01*
X84091004Y-116075078D01*
X83984659Y-116204659D01*
X83855078Y-116311004D01*
X83855076Y-116311005D01*
X83707242Y-116390024D01*
X83546823Y-116438687D01*
X83380000Y-116455117D01*
X83213178Y-116438687D01*
X83052759Y-116390024D01*
X82904925Y-116311005D01*
X82904923Y-116311004D01*
X82775342Y-116204659D01*
X82668997Y-116075078D01*
X82660887Y-116059906D01*
X82589977Y-115927242D01*
X82541314Y-115766823D01*
X82529001Y-115641804D01*
X82529000Y-114358197D01*
X82541313Y-114233178D01*
X82589976Y-114072759D01*
X82668995Y-113924923D01*
X82775341Y-113795341D01*
X82836824Y-113744883D01*
X82904922Y-113688996D01*
X82920310Y-113680771D01*
X83052758Y-113609976D01*
X83213177Y-113561313D01*
X83380000Y-113544883D01*
X83546822Y-113561313D01*
G37*
G36*
X56786823Y-113561313D02*
G01*
X56947242Y-113609976D01*
X57079690Y-113680771D01*
X57095078Y-113688996D01*
X57224659Y-113795341D01*
X57331004Y-113924922D01*
X57331005Y-113924924D01*
X57410024Y-114072758D01*
X57458687Y-114233177D01*
X57471000Y-114358196D01*
X57471000Y-115641804D01*
X57458687Y-115766823D01*
X57410024Y-115927242D01*
X57339114Y-116059906D01*
X57331004Y-116075078D01*
X57301520Y-116111004D01*
X57224659Y-116204659D01*
X57095077Y-116311005D01*
X56947241Y-116390024D01*
X56786822Y-116438687D01*
X56620000Y-116455117D01*
X56453177Y-116438687D01*
X56292758Y-116390024D01*
X56144924Y-116311005D01*
X56144922Y-116311004D01*
X56015341Y-116204659D01*
X55938480Y-116111004D01*
X55908995Y-116075077D01*
X55829976Y-115927241D01*
X55781313Y-115766822D01*
X55769000Y-115641803D01*
X55769001Y-114358196D01*
X55781314Y-114233177D01*
X55829977Y-114072758D01*
X55908996Y-113924924D01*
X55908997Y-113924922D01*
X56015342Y-113795341D01*
X56144923Y-113688996D01*
X56160311Y-113680771D01*
X56292759Y-113609976D01*
X56453178Y-113561313D01*
X56620000Y-113544883D01*
X56786823Y-113561313D01*
G37*
G36*
X118786823Y-113561313D02*
G01*
X118947242Y-113609976D01*
X119079690Y-113680771D01*
X119095078Y-113688996D01*
X119224659Y-113795341D01*
X119331004Y-113924922D01*
X119331005Y-113924924D01*
X119410024Y-114072758D01*
X119458687Y-114233177D01*
X119471000Y-114358196D01*
X119471000Y-115641804D01*
X119458687Y-115766823D01*
X119410024Y-115927242D01*
X119339114Y-116059906D01*
X119331004Y-116075078D01*
X119301520Y-116111004D01*
X119224659Y-116204659D01*
X119095077Y-116311005D01*
X118947241Y-116390024D01*
X118786822Y-116438687D01*
X118620000Y-116455117D01*
X118453177Y-116438687D01*
X118292758Y-116390024D01*
X118144924Y-116311005D01*
X118144922Y-116311004D01*
X118015341Y-116204659D01*
X117938480Y-116111004D01*
X117908995Y-116075077D01*
X117829976Y-115927241D01*
X117781313Y-115766822D01*
X117769000Y-115641803D01*
X117769001Y-114358196D01*
X117781314Y-114233177D01*
X117829977Y-114072758D01*
X117908996Y-113924924D01*
X117908997Y-113924922D01*
X118015342Y-113795341D01*
X118144923Y-113688996D01*
X118160311Y-113680771D01*
X118292759Y-113609976D01*
X118453178Y-113561313D01*
X118620000Y-113544883D01*
X118786823Y-113561313D01*
G37*
G36*
X145546822Y-113561313D02*
G01*
X145707241Y-113609976D01*
X145855077Y-113688995D01*
X145967024Y-113780868D01*
X145984659Y-113795341D01*
X146091004Y-113924922D01*
X146091005Y-113924924D01*
X146170024Y-114072758D01*
X146218687Y-114233177D01*
X146231000Y-114358196D01*
X146231000Y-115641804D01*
X146218687Y-115766823D01*
X146170024Y-115927242D01*
X146099114Y-116059906D01*
X146091004Y-116075078D01*
X145984659Y-116204659D01*
X145855078Y-116311004D01*
X145855076Y-116311005D01*
X145707242Y-116390024D01*
X145546823Y-116438687D01*
X145380000Y-116455117D01*
X145213178Y-116438687D01*
X145052759Y-116390024D01*
X144904925Y-116311005D01*
X144904923Y-116311004D01*
X144775342Y-116204659D01*
X144668997Y-116075078D01*
X144660887Y-116059906D01*
X144589977Y-115927242D01*
X144541314Y-115766823D01*
X144529001Y-115641804D01*
X144529000Y-114358197D01*
X144541313Y-114233178D01*
X144589976Y-114072759D01*
X144668995Y-113924923D01*
X144775341Y-113795341D01*
X144836824Y-113744883D01*
X144904922Y-113688996D01*
X144920310Y-113680771D01*
X145052758Y-113609976D01*
X145213177Y-113561313D01*
X145380000Y-113544883D01*
X145546822Y-113561313D01*
G37*
G36*
X105546822Y-113561313D02*
G01*
X105707241Y-113609976D01*
X105855077Y-113688995D01*
X105967024Y-113780868D01*
X105984659Y-113795341D01*
X106091004Y-113924922D01*
X106091005Y-113924924D01*
X106170024Y-114072758D01*
X106218687Y-114233177D01*
X106231000Y-114358196D01*
X106231000Y-115641804D01*
X106218687Y-115766823D01*
X106170024Y-115927242D01*
X106099114Y-116059906D01*
X106091004Y-116075078D01*
X105984659Y-116204659D01*
X105855078Y-116311004D01*
X105855076Y-116311005D01*
X105707242Y-116390024D01*
X105546823Y-116438687D01*
X105380000Y-116455117D01*
X105213178Y-116438687D01*
X105052759Y-116390024D01*
X104904925Y-116311005D01*
X104904923Y-116311004D01*
X104775342Y-116204659D01*
X104668997Y-116075078D01*
X104660887Y-116059906D01*
X104589977Y-115927242D01*
X104541314Y-115766823D01*
X104529001Y-115641804D01*
X104529000Y-114358197D01*
X104541313Y-114233178D01*
X104589976Y-114072759D01*
X104668995Y-113924923D01*
X104775341Y-113795341D01*
X104836824Y-113744883D01*
X104904922Y-113688996D01*
X104920310Y-113680771D01*
X105052758Y-113609976D01*
X105213177Y-113561313D01*
X105380000Y-113544883D01*
X105546822Y-113561313D01*
G37*
G36*
X137237022Y-113560590D02*
G01*
X137337681Y-113591125D01*
X137388012Y-113606392D01*
X137527164Y-113680771D01*
X137649133Y-113780867D01*
X137737871Y-113888995D01*
X137749229Y-113902835D01*
X137823608Y-114041987D01*
X137832942Y-114072758D01*
X137869410Y-114192977D01*
X137881000Y-114310655D01*
X137881000Y-115689345D01*
X137869410Y-115807023D01*
X137848766Y-115875076D01*
X137823608Y-115958013D01*
X137749229Y-116097165D01*
X137649133Y-116219133D01*
X137527165Y-116319229D01*
X137388013Y-116393608D01*
X137337682Y-116408875D01*
X137237023Y-116439410D01*
X137080000Y-116454875D01*
X136922978Y-116439410D01*
X136822319Y-116408875D01*
X136771988Y-116393608D01*
X136632836Y-116319229D01*
X136510868Y-116219133D01*
X136410772Y-116097165D01*
X136336393Y-115958013D01*
X136311235Y-115875076D01*
X136290591Y-115807023D01*
X136279001Y-115689345D01*
X136279000Y-114310656D01*
X136290590Y-114192978D01*
X136336392Y-114041989D01*
X136336392Y-114041988D01*
X136410771Y-113902836D01*
X136422130Y-113888995D01*
X136510867Y-113780867D01*
X136632835Y-113680771D01*
X136771987Y-113606392D01*
X136822318Y-113591125D01*
X136922977Y-113560590D01*
X137080000Y-113545125D01*
X137237022Y-113560590D01*
G37*
G36*
X127077023Y-113560590D02*
G01*
X127177682Y-113591125D01*
X127228013Y-113606392D01*
X127367165Y-113680771D01*
X127489133Y-113780867D01*
X127589229Y-113902835D01*
X127663608Y-114041987D01*
X127672942Y-114072758D01*
X127709410Y-114192977D01*
X127721000Y-114310655D01*
X127721000Y-115689345D01*
X127709410Y-115807023D01*
X127688766Y-115875076D01*
X127663608Y-115958013D01*
X127638675Y-116004659D01*
X127589229Y-116097165D01*
X127489133Y-116219133D01*
X127377186Y-116311004D01*
X127367164Y-116319229D01*
X127228012Y-116393608D01*
X127177681Y-116408875D01*
X127077022Y-116439410D01*
X126920000Y-116454875D01*
X126762977Y-116439410D01*
X126662318Y-116408875D01*
X126611987Y-116393608D01*
X126472835Y-116319229D01*
X126462813Y-116311004D01*
X126350867Y-116219133D01*
X126250771Y-116097164D01*
X126176393Y-115958013D01*
X126176392Y-115958012D01*
X126151234Y-115875076D01*
X126130590Y-115807022D01*
X126119000Y-115689344D01*
X126119001Y-114310655D01*
X126130591Y-114192977D01*
X126167059Y-114072758D01*
X126176393Y-114041987D01*
X126250772Y-113902835D01*
X126350868Y-113780867D01*
X126472836Y-113680771D01*
X126611988Y-113606392D01*
X126662319Y-113591125D01*
X126762978Y-113560590D01*
X126920000Y-113545125D01*
X127077023Y-113560590D01*
G37*
G36*
X97237022Y-113560590D02*
G01*
X97337681Y-113591125D01*
X97388012Y-113606392D01*
X97527164Y-113680771D01*
X97649133Y-113780867D01*
X97737871Y-113888995D01*
X97749229Y-113902835D01*
X97823608Y-114041987D01*
X97832942Y-114072758D01*
X97869410Y-114192977D01*
X97881000Y-114310655D01*
X97881000Y-115689345D01*
X97869410Y-115807023D01*
X97848766Y-115875076D01*
X97823608Y-115958013D01*
X97749229Y-116097165D01*
X97649133Y-116219133D01*
X97527165Y-116319229D01*
X97388013Y-116393608D01*
X97337682Y-116408875D01*
X97237023Y-116439410D01*
X97080000Y-116454875D01*
X96922978Y-116439410D01*
X96822319Y-116408875D01*
X96771988Y-116393608D01*
X96632836Y-116319229D01*
X96510868Y-116219133D01*
X96410772Y-116097165D01*
X96336393Y-115958013D01*
X96311235Y-115875076D01*
X96290591Y-115807023D01*
X96279001Y-115689345D01*
X96279000Y-114310656D01*
X96290590Y-114192978D01*
X96336392Y-114041989D01*
X96336392Y-114041988D01*
X96410771Y-113902836D01*
X96422130Y-113888995D01*
X96510867Y-113780867D01*
X96632835Y-113680771D01*
X96771987Y-113606392D01*
X96822318Y-113591125D01*
X96922977Y-113560590D01*
X97080000Y-113545125D01*
X97237022Y-113560590D01*
G37*
G36*
X75237022Y-113560590D02*
G01*
X75337681Y-113591125D01*
X75388012Y-113606392D01*
X75527164Y-113680771D01*
X75649133Y-113780867D01*
X75737871Y-113888995D01*
X75749229Y-113902835D01*
X75823608Y-114041987D01*
X75832942Y-114072758D01*
X75869410Y-114192977D01*
X75881000Y-114310655D01*
X75881000Y-115689345D01*
X75869410Y-115807023D01*
X75848766Y-115875076D01*
X75823608Y-115958013D01*
X75749229Y-116097165D01*
X75649133Y-116219133D01*
X75527165Y-116319229D01*
X75388013Y-116393608D01*
X75337682Y-116408875D01*
X75237023Y-116439410D01*
X75080000Y-116454875D01*
X74922978Y-116439410D01*
X74822319Y-116408875D01*
X74771988Y-116393608D01*
X74632836Y-116319229D01*
X74510868Y-116219133D01*
X74410772Y-116097165D01*
X74336393Y-115958013D01*
X74311235Y-115875076D01*
X74290591Y-115807023D01*
X74279001Y-115689345D01*
X74279000Y-114310656D01*
X74290590Y-114192978D01*
X74336392Y-114041989D01*
X74336392Y-114041988D01*
X74410771Y-113902836D01*
X74422130Y-113888995D01*
X74510867Y-113780867D01*
X74632835Y-113680771D01*
X74771987Y-113606392D01*
X74822318Y-113591125D01*
X74922977Y-113560590D01*
X75080000Y-113545125D01*
X75237022Y-113560590D01*
G37*
G36*
X65077023Y-113560590D02*
G01*
X65177682Y-113591125D01*
X65228013Y-113606392D01*
X65367165Y-113680771D01*
X65489133Y-113780867D01*
X65589229Y-113902835D01*
X65663608Y-114041987D01*
X65672942Y-114072758D01*
X65709410Y-114192977D01*
X65721000Y-114310655D01*
X65721000Y-115689345D01*
X65709410Y-115807023D01*
X65688766Y-115875076D01*
X65663608Y-115958013D01*
X65638675Y-116004659D01*
X65589229Y-116097165D01*
X65489133Y-116219133D01*
X65377186Y-116311004D01*
X65367164Y-116319229D01*
X65228012Y-116393608D01*
X65177681Y-116408875D01*
X65077022Y-116439410D01*
X64920000Y-116454875D01*
X64762977Y-116439410D01*
X64662318Y-116408875D01*
X64611987Y-116393608D01*
X64472835Y-116319229D01*
X64462813Y-116311004D01*
X64350867Y-116219133D01*
X64250771Y-116097164D01*
X64176393Y-115958013D01*
X64176392Y-115958012D01*
X64151234Y-115875076D01*
X64130590Y-115807022D01*
X64119000Y-115689344D01*
X64119001Y-114310655D01*
X64130591Y-114192977D01*
X64167059Y-114072758D01*
X64176393Y-114041987D01*
X64250772Y-113902835D01*
X64350868Y-113780867D01*
X64472836Y-113680771D01*
X64611988Y-113606392D01*
X64662319Y-113591125D01*
X64762978Y-113560590D01*
X64920000Y-113545125D01*
X65077023Y-113560590D01*
G37*
G36*
X148646822Y-113761313D02*
G01*
X148807241Y-113809976D01*
X148955077Y-113888995D01*
X149084659Y-113995341D01*
X149191004Y-114124922D01*
X149191005Y-114124924D01*
X149270024Y-114272758D01*
X149318687Y-114433177D01*
X149331000Y-114558196D01*
X149331000Y-115441803D01*
X149318687Y-115566822D01*
X149270024Y-115727242D01*
X149227380Y-115807023D01*
X149191004Y-115875078D01*
X149084659Y-116004659D01*
X148955078Y-116111004D01*
X148955076Y-116111005D01*
X148807242Y-116190024D01*
X148646823Y-116238687D01*
X148480000Y-116255117D01*
X148313178Y-116238687D01*
X148152759Y-116190024D01*
X148004925Y-116111005D01*
X148004923Y-116111004D01*
X147875342Y-116004659D01*
X147768997Y-115875078D01*
X147732621Y-115807023D01*
X147689977Y-115727242D01*
X147641314Y-115566823D01*
X147629000Y-115441803D01*
X147629000Y-114558197D01*
X147641313Y-114433178D01*
X147689976Y-114272759D01*
X147768995Y-114124923D01*
X147875341Y-113995341D01*
X147961144Y-113924924D01*
X148004922Y-113888996D01*
X148020094Y-113880886D01*
X148152758Y-113809976D01*
X148313177Y-113761313D01*
X148480000Y-113744883D01*
X148646822Y-113761313D01*
G37*
G36*
X108646822Y-113761313D02*
G01*
X108807241Y-113809976D01*
X108955077Y-113888995D01*
X109084659Y-113995341D01*
X109191004Y-114124922D01*
X109191005Y-114124924D01*
X109270024Y-114272758D01*
X109318687Y-114433177D01*
X109331000Y-114558196D01*
X109331000Y-115441803D01*
X109318687Y-115566822D01*
X109270024Y-115727242D01*
X109227380Y-115807023D01*
X109191004Y-115875078D01*
X109084659Y-116004659D01*
X108955078Y-116111004D01*
X108955076Y-116111005D01*
X108807242Y-116190024D01*
X108646823Y-116238687D01*
X108480000Y-116255117D01*
X108313178Y-116238687D01*
X108152759Y-116190024D01*
X108004925Y-116111005D01*
X108004923Y-116111004D01*
X107875342Y-116004659D01*
X107768997Y-115875078D01*
X107732621Y-115807023D01*
X107689977Y-115727242D01*
X107641314Y-115566823D01*
X107629000Y-115441803D01*
X107629000Y-114558197D01*
X107641313Y-114433178D01*
X107689976Y-114272759D01*
X107768995Y-114124923D01*
X107875341Y-113995341D01*
X107961144Y-113924924D01*
X108004922Y-113888996D01*
X108020094Y-113880886D01*
X108152758Y-113809976D01*
X108313177Y-113761313D01*
X108480000Y-113744883D01*
X108646822Y-113761313D01*
G37*
G36*
X86646822Y-113761313D02*
G01*
X86807241Y-113809976D01*
X86955077Y-113888995D01*
X87084659Y-113995341D01*
X87191004Y-114124922D01*
X87191005Y-114124924D01*
X87270024Y-114272758D01*
X87318687Y-114433177D01*
X87331000Y-114558196D01*
X87331000Y-115441803D01*
X87318687Y-115566822D01*
X87270024Y-115727242D01*
X87227380Y-115807023D01*
X87191004Y-115875078D01*
X87084659Y-116004659D01*
X86955078Y-116111004D01*
X86955076Y-116111005D01*
X86807242Y-116190024D01*
X86646823Y-116238687D01*
X86480000Y-116255117D01*
X86313178Y-116238687D01*
X86152759Y-116190024D01*
X86004925Y-116111005D01*
X86004923Y-116111004D01*
X85875342Y-116004659D01*
X85768997Y-115875078D01*
X85732621Y-115807023D01*
X85689977Y-115727242D01*
X85641314Y-115566823D01*
X85629000Y-115441803D01*
X85629000Y-114558197D01*
X85641313Y-114433178D01*
X85689976Y-114272759D01*
X85768995Y-114124923D01*
X85875341Y-113995341D01*
X85961144Y-113924924D01*
X86004922Y-113888996D01*
X86020094Y-113880886D01*
X86152758Y-113809976D01*
X86313177Y-113761313D01*
X86480000Y-113744883D01*
X86646822Y-113761313D01*
G37*
G36*
X115686823Y-113761313D02*
G01*
X115847242Y-113809976D01*
X115979906Y-113880886D01*
X115995078Y-113888996D01*
X116124659Y-113995341D01*
X116231004Y-114124922D01*
X116231005Y-114124924D01*
X116310024Y-114272758D01*
X116358687Y-114433178D01*
X116371000Y-114558197D01*
X116371000Y-115441804D01*
X116358687Y-115566823D01*
X116310024Y-115727242D01*
X116267380Y-115807023D01*
X116231004Y-115875078D01*
X116124659Y-116004659D01*
X115995077Y-116111005D01*
X115847241Y-116190024D01*
X115686822Y-116238687D01*
X115520000Y-116255117D01*
X115353177Y-116238687D01*
X115192758Y-116190024D01*
X115044924Y-116111005D01*
X115044922Y-116111004D01*
X114915341Y-116004659D01*
X114808995Y-115875077D01*
X114729976Y-115727241D01*
X114681313Y-115566822D01*
X114669000Y-115441803D01*
X114669000Y-114558197D01*
X114681314Y-114433177D01*
X114729977Y-114272758D01*
X114808996Y-114124924D01*
X114808997Y-114124922D01*
X114915342Y-113995341D01*
X115044923Y-113888996D01*
X115060095Y-113880886D01*
X115192759Y-113809976D01*
X115353178Y-113761313D01*
X115520000Y-113744883D01*
X115686823Y-113761313D01*
G37*
G36*
X53686823Y-113761313D02*
G01*
X53847242Y-113809976D01*
X53979906Y-113880886D01*
X53995078Y-113888996D01*
X54124659Y-113995341D01*
X54231004Y-114124922D01*
X54231005Y-114124924D01*
X54310024Y-114272758D01*
X54358687Y-114433178D01*
X54371000Y-114558197D01*
X54371000Y-115441804D01*
X54358687Y-115566823D01*
X54310024Y-115727242D01*
X54267380Y-115807023D01*
X54231004Y-115875078D01*
X54124659Y-116004659D01*
X53995077Y-116111005D01*
X53847241Y-116190024D01*
X53686822Y-116238687D01*
X53520000Y-116255117D01*
X53353177Y-116238687D01*
X53192758Y-116190024D01*
X53044924Y-116111005D01*
X53044922Y-116111004D01*
X52915341Y-116004659D01*
X52808995Y-115875077D01*
X52729976Y-115727241D01*
X52681313Y-115566822D01*
X52669000Y-115441803D01*
X52669000Y-114558197D01*
X52681314Y-114433177D01*
X52729977Y-114272758D01*
X52808996Y-114124924D01*
X52808997Y-114124922D01*
X52915342Y-113995341D01*
X53044923Y-113888996D01*
X53060095Y-113880886D01*
X53192759Y-113809976D01*
X53353178Y-113761313D01*
X53520000Y-113744883D01*
X53686823Y-113761313D01*
G37*
G36*
X122951000Y-105701000D02*
G01*
X121049000Y-105701000D01*
X121049000Y-103799000D01*
X122951000Y-103799000D01*
X122951000Y-105701000D01*
G37*
G36*
X141451000Y-105701000D02*
G01*
X139549000Y-105701000D01*
X139549000Y-103799000D01*
X141451000Y-103799000D01*
X141451000Y-105701000D01*
G37*
G36*
X143317395Y-103835546D02*
G01*
X143490466Y-103907234D01*
X143490467Y-103907235D01*
X143646227Y-104011310D01*
X143778690Y-104143773D01*
X143778691Y-104143775D01*
X143882766Y-104299534D01*
X143954454Y-104472605D01*
X143991000Y-104656333D01*
X143991000Y-104843667D01*
X143954454Y-105027395D01*
X143882766Y-105200466D01*
X143882765Y-105200467D01*
X143778690Y-105356227D01*
X143646227Y-105488690D01*
X143567818Y-105541081D01*
X143490466Y-105592766D01*
X143317395Y-105664454D01*
X143133667Y-105701000D01*
X142946333Y-105701000D01*
X142762605Y-105664454D01*
X142589534Y-105592766D01*
X142512182Y-105541081D01*
X142433773Y-105488690D01*
X142301310Y-105356227D01*
X142197235Y-105200467D01*
X142197234Y-105200466D01*
X142125546Y-105027395D01*
X142089000Y-104843667D01*
X142089000Y-104656333D01*
X142125546Y-104472605D01*
X142197234Y-104299534D01*
X142301309Y-104143775D01*
X142301310Y-104143773D01*
X142433773Y-104011310D01*
X142589533Y-103907235D01*
X142589534Y-103907234D01*
X142762605Y-103835546D01*
X142946333Y-103799000D01*
X143133667Y-103799000D01*
X143317395Y-103835546D01*
G37*
G36*
X124817395Y-103835546D02*
G01*
X124990466Y-103907234D01*
X124990467Y-103907235D01*
X125146227Y-104011310D01*
X125278690Y-104143773D01*
X125278691Y-104143775D01*
X125382766Y-104299534D01*
X125454454Y-104472605D01*
X125491000Y-104656333D01*
X125491000Y-104843667D01*
X125454454Y-105027395D01*
X125382766Y-105200466D01*
X125382765Y-105200467D01*
X125278690Y-105356227D01*
X125146227Y-105488690D01*
X125067818Y-105541081D01*
X124990466Y-105592766D01*
X124817395Y-105664454D01*
X124633667Y-105701000D01*
X124446333Y-105701000D01*
X124262605Y-105664454D01*
X124089534Y-105592766D01*
X124012182Y-105541081D01*
X123933773Y-105488690D01*
X123801310Y-105356227D01*
X123697235Y-105200467D01*
X123697234Y-105200466D01*
X123625546Y-105027395D01*
X123589000Y-104843667D01*
X123589000Y-104656333D01*
X123625546Y-104472605D01*
X123697234Y-104299534D01*
X123801309Y-104143775D01*
X123801310Y-104143773D01*
X123933773Y-104011310D01*
X124089533Y-103907235D01*
X124089534Y-103907234D01*
X124262605Y-103835546D01*
X124446333Y-103799000D01*
X124633667Y-103799000D01*
X124817395Y-103835546D01*
G37*
G36*
X88551000Y-105051000D02*
G01*
X86449000Y-105051000D01*
X86449000Y-102949000D01*
X88551000Y-102949000D01*
X88551000Y-105051000D01*
G37*
G36*
X68551000Y-104801000D02*
G01*
X66449000Y-104801000D01*
X66449000Y-102699000D01*
X68551000Y-102699000D01*
X68551000Y-104801000D01*
G37*
G36*
X140998228Y-99181703D02*
G01*
X141153100Y-99245853D01*
X141292481Y-99338985D01*
X141411015Y-99457519D01*
X141504147Y-99596900D01*
X141568297Y-99751772D01*
X141601000Y-99916184D01*
X141601000Y-100083816D01*
X141568297Y-100248228D01*
X141504147Y-100403100D01*
X141411015Y-100542481D01*
X141292481Y-100661015D01*
X141153100Y-100754147D01*
X140998228Y-100818297D01*
X140833816Y-100851000D01*
X140666184Y-100851000D01*
X140501772Y-100818297D01*
X140346900Y-100754147D01*
X140207519Y-100661015D01*
X140088985Y-100542481D01*
X139995853Y-100403100D01*
X139931703Y-100248228D01*
X139899000Y-100083816D01*
X139899000Y-99916184D01*
X139931703Y-99751772D01*
X139995853Y-99596900D01*
X140088985Y-99457519D01*
X140207519Y-99338985D01*
X140346900Y-99245853D01*
X140501772Y-99181703D01*
X140666184Y-99149000D01*
X140833816Y-99149000D01*
X140998228Y-99181703D01*
G37*
G36*
X146498228Y-99181703D02*
G01*
X146653100Y-99245853D01*
X146792481Y-99338985D01*
X146911015Y-99457519D01*
X147004147Y-99596900D01*
X147068297Y-99751772D01*
X147101000Y-99916184D01*
X147101000Y-100083816D01*
X147068297Y-100248228D01*
X147004147Y-100403100D01*
X146911015Y-100542481D01*
X146792481Y-100661015D01*
X146653100Y-100754147D01*
X146498228Y-100818297D01*
X146333816Y-100851000D01*
X146166184Y-100851000D01*
X146001772Y-100818297D01*
X145846900Y-100754147D01*
X145707519Y-100661015D01*
X145588985Y-100542481D01*
X145495853Y-100403100D01*
X145431703Y-100248228D01*
X145399000Y-100083816D01*
X145399000Y-99916184D01*
X145431703Y-99751772D01*
X145495853Y-99596900D01*
X145588985Y-99457519D01*
X145707519Y-99338985D01*
X145846900Y-99245853D01*
X146001772Y-99181703D01*
X146166184Y-99149000D01*
X146333816Y-99149000D01*
X146498228Y-99181703D01*
G37*
G36*
X143498228Y-99181703D02*
G01*
X143653100Y-99245853D01*
X143792481Y-99338985D01*
X143911015Y-99457519D01*
X144004147Y-99596900D01*
X144068297Y-99751772D01*
X144101000Y-99916184D01*
X144101000Y-100083816D01*
X144068297Y-100248228D01*
X144004147Y-100403100D01*
X143911015Y-100542481D01*
X143792481Y-100661015D01*
X143653100Y-100754147D01*
X143498228Y-100818297D01*
X143333816Y-100851000D01*
X143166184Y-100851000D01*
X143001772Y-100818297D01*
X142846900Y-100754147D01*
X142707519Y-100661015D01*
X142588985Y-100542481D01*
X142495853Y-100403100D01*
X142431703Y-100248228D01*
X142399000Y-100083816D01*
X142399000Y-99916184D01*
X142431703Y-99751772D01*
X142495853Y-99596900D01*
X142588985Y-99457519D01*
X142707519Y-99338985D01*
X142846900Y-99245853D01*
X143001772Y-99181703D01*
X143166184Y-99149000D01*
X143333816Y-99149000D01*
X143498228Y-99181703D01*
G37*
G36*
X127498228Y-99181703D02*
G01*
X127653100Y-99245853D01*
X127792481Y-99338985D01*
X127911015Y-99457519D01*
X128004147Y-99596900D01*
X128068297Y-99751772D01*
X128101000Y-99916184D01*
X128101000Y-100083816D01*
X128068297Y-100248228D01*
X128004147Y-100403100D01*
X127911015Y-100542481D01*
X127792481Y-100661015D01*
X127653100Y-100754147D01*
X127498228Y-100818297D01*
X127333816Y-100851000D01*
X127166184Y-100851000D01*
X127001772Y-100818297D01*
X126846900Y-100754147D01*
X126707519Y-100661015D01*
X126588985Y-100542481D01*
X126495853Y-100403100D01*
X126431703Y-100248228D01*
X126399000Y-100083816D01*
X126399000Y-99916184D01*
X126431703Y-99751772D01*
X126495853Y-99596900D01*
X126588985Y-99457519D01*
X126707519Y-99338985D01*
X126846900Y-99245853D01*
X127001772Y-99181703D01*
X127166184Y-99149000D01*
X127333816Y-99149000D01*
X127498228Y-99181703D01*
G37*
G36*
X124498228Y-99181703D02*
G01*
X124653100Y-99245853D01*
X124792481Y-99338985D01*
X124911015Y-99457519D01*
X125004147Y-99596900D01*
X125068297Y-99751772D01*
X125101000Y-99916184D01*
X125101000Y-100083816D01*
X125068297Y-100248228D01*
X125004147Y-100403100D01*
X124911015Y-100542481D01*
X124792481Y-100661015D01*
X124653100Y-100754147D01*
X124498228Y-100818297D01*
X124333816Y-100851000D01*
X124166184Y-100851000D01*
X124001772Y-100818297D01*
X123846900Y-100754147D01*
X123707519Y-100661015D01*
X123588985Y-100542481D01*
X123495853Y-100403100D01*
X123431703Y-100248228D01*
X123399000Y-100083816D01*
X123399000Y-99916184D01*
X123431703Y-99751772D01*
X123495853Y-99596900D01*
X123588985Y-99457519D01*
X123707519Y-99338985D01*
X123846900Y-99245853D01*
X124001772Y-99181703D01*
X124166184Y-99149000D01*
X124333816Y-99149000D01*
X124498228Y-99181703D01*
G37*
G36*
X137998228Y-99181703D02*
G01*
X138153100Y-99245853D01*
X138292481Y-99338985D01*
X138411015Y-99457519D01*
X138504147Y-99596900D01*
X138568297Y-99751772D01*
X138601000Y-99916184D01*
X138601000Y-100083816D01*
X138568297Y-100248228D01*
X138504147Y-100403100D01*
X138411015Y-100542481D01*
X138292481Y-100661015D01*
X138153100Y-100754147D01*
X137998228Y-100818297D01*
X137833816Y-100851000D01*
X137666184Y-100851000D01*
X137501772Y-100818297D01*
X137346900Y-100754147D01*
X137207519Y-100661015D01*
X137088985Y-100542481D01*
X136995853Y-100403100D01*
X136931703Y-100248228D01*
X136899000Y-100083816D01*
X136899000Y-99916184D01*
X136931703Y-99751772D01*
X136995853Y-99596900D01*
X137088985Y-99457519D01*
X137207519Y-99338985D01*
X137346900Y-99245853D01*
X137501772Y-99181703D01*
X137666184Y-99149000D01*
X137833816Y-99149000D01*
X137998228Y-99181703D01*
G37*
G36*
X122248228Y-99181703D02*
G01*
X122403100Y-99245853D01*
X122542481Y-99338985D01*
X122661015Y-99457519D01*
X122754147Y-99596900D01*
X122818297Y-99751772D01*
X122851000Y-99916184D01*
X122851000Y-100083816D01*
X122818297Y-100248228D01*
X122754147Y-100403100D01*
X122661015Y-100542481D01*
X122542481Y-100661015D01*
X122403100Y-100754147D01*
X122248228Y-100818297D01*
X122083816Y-100851000D01*
X121916184Y-100851000D01*
X121751772Y-100818297D01*
X121596900Y-100754147D01*
X121457519Y-100661015D01*
X121338985Y-100542481D01*
X121245853Y-100403100D01*
X121181703Y-100248228D01*
X121149000Y-100083816D01*
X121149000Y-99916184D01*
X121181703Y-99751772D01*
X121245853Y-99596900D01*
X121338985Y-99457519D01*
X121457519Y-99338985D01*
X121596900Y-99245853D01*
X121751772Y-99181703D01*
X121916184Y-99149000D01*
X122083816Y-99149000D01*
X122248228Y-99181703D01*
G37*
G36*
X119248228Y-99181703D02*
G01*
X119403100Y-99245853D01*
X119542481Y-99338985D01*
X119661015Y-99457519D01*
X119754147Y-99596900D01*
X119818297Y-99751772D01*
X119851000Y-99916184D01*
X119851000Y-100083816D01*
X119818297Y-100248228D01*
X119754147Y-100403100D01*
X119661015Y-100542481D01*
X119542481Y-100661015D01*
X119403100Y-100754147D01*
X119248228Y-100818297D01*
X119083816Y-100851000D01*
X118916184Y-100851000D01*
X118751772Y-100818297D01*
X118596900Y-100754147D01*
X118457519Y-100661015D01*
X118338985Y-100542481D01*
X118245853Y-100403100D01*
X118181703Y-100248228D01*
X118149000Y-100083816D01*
X118149000Y-99916184D01*
X118181703Y-99751772D01*
X118245853Y-99596900D01*
X118338985Y-99457519D01*
X118457519Y-99338985D01*
X118596900Y-99245853D01*
X118751772Y-99181703D01*
X118916184Y-99149000D01*
X119083816Y-99149000D01*
X119248228Y-99181703D01*
G37*
G36*
X149551000Y-91551000D02*
G01*
X147449000Y-91551000D01*
X147449000Y-89449000D01*
X149551000Y-89449000D01*
X149551000Y-91551000D01*
G37*
G36*
X130801000Y-91551000D02*
G01*
X128699000Y-91551000D01*
X128699000Y-89449000D01*
X130801000Y-89449000D01*
X130801000Y-91551000D01*
G37*
G36*
X81152143Y-87856481D02*
G01*
X81304049Y-87871442D01*
X81596414Y-87960130D01*
X81596416Y-87960131D01*
X81865858Y-88104150D01*
X82102029Y-88297971D01*
X82295850Y-88534142D01*
X82439869Y-88803584D01*
X82439870Y-88803586D01*
X82528558Y-89095951D01*
X82558504Y-89400000D01*
X82528558Y-89704049D01*
X82439870Y-89996414D01*
X82439869Y-89996416D01*
X82295850Y-90265858D01*
X82102029Y-90502029D01*
X81865858Y-90695850D01*
X81596416Y-90839869D01*
X81596414Y-90839870D01*
X81304049Y-90928558D01*
X81152143Y-90943519D01*
X81076191Y-90951000D01*
X79923809Y-90951000D01*
X79847857Y-90943519D01*
X79695951Y-90928558D01*
X79403586Y-90839870D01*
X79403584Y-90839869D01*
X79134142Y-90695850D01*
X78897971Y-90502029D01*
X78704150Y-90265858D01*
X78560131Y-89996416D01*
X78560130Y-89996414D01*
X78471442Y-89704049D01*
X78441496Y-89400000D01*
X78471442Y-89095951D01*
X78560130Y-88803586D01*
X78560131Y-88803584D01*
X78704150Y-88534142D01*
X78897971Y-88297971D01*
X79134142Y-88104150D01*
X79403584Y-87960131D01*
X79403586Y-87960130D01*
X79695951Y-87871442D01*
X79847857Y-87856481D01*
X79923809Y-87849000D01*
X81076191Y-87849000D01*
X81152143Y-87856481D01*
G37*
G36*
X103152143Y-87856481D02*
G01*
X103304049Y-87871442D01*
X103596414Y-87960130D01*
X103596416Y-87960131D01*
X103865858Y-88104150D01*
X104102029Y-88297971D01*
X104295850Y-88534142D01*
X104439869Y-88803584D01*
X104439870Y-88803586D01*
X104528558Y-89095951D01*
X104558504Y-89400000D01*
X104528558Y-89704049D01*
X104439870Y-89996414D01*
X104439869Y-89996416D01*
X104295850Y-90265858D01*
X104102029Y-90502029D01*
X103865858Y-90695850D01*
X103596416Y-90839869D01*
X103596414Y-90839870D01*
X103304049Y-90928558D01*
X103152143Y-90943519D01*
X103076191Y-90951000D01*
X101923809Y-90951000D01*
X101847857Y-90943519D01*
X101695951Y-90928558D01*
X101403586Y-90839870D01*
X101403584Y-90839869D01*
X101134142Y-90695850D01*
X100897971Y-90502029D01*
X100704150Y-90265858D01*
X100560131Y-89996416D01*
X100560130Y-89996414D01*
X100471442Y-89704049D01*
X100441496Y-89400000D01*
X100471442Y-89095951D01*
X100560130Y-88803586D01*
X100560131Y-88803584D01*
X100704150Y-88534142D01*
X100897971Y-88297971D01*
X101134142Y-88104150D01*
X101403584Y-87960131D01*
X101403586Y-87960130D01*
X101695951Y-87871442D01*
X101847857Y-87856481D01*
X101923809Y-87849000D01*
X103076191Y-87849000D01*
X103152143Y-87856481D01*
G37*
G36*
X60152143Y-87856481D02*
G01*
X60304049Y-87871442D01*
X60596414Y-87960130D01*
X60596416Y-87960131D01*
X60865858Y-88104150D01*
X61102029Y-88297971D01*
X61295850Y-88534142D01*
X61439869Y-88803584D01*
X61439870Y-88803586D01*
X61528558Y-89095951D01*
X61558504Y-89400000D01*
X61528558Y-89704049D01*
X61439870Y-89996414D01*
X61439869Y-89996416D01*
X61295850Y-90265858D01*
X61102029Y-90502029D01*
X60865858Y-90695850D01*
X60596416Y-90839869D01*
X60596414Y-90839870D01*
X60304049Y-90928558D01*
X60152143Y-90943519D01*
X60076191Y-90951000D01*
X58923809Y-90951000D01*
X58847857Y-90943519D01*
X58695951Y-90928558D01*
X58403586Y-90839870D01*
X58403584Y-90839869D01*
X58134142Y-90695850D01*
X57897971Y-90502029D01*
X57704150Y-90265858D01*
X57560131Y-89996416D01*
X57560130Y-89996414D01*
X57471442Y-89704049D01*
X57441496Y-89400000D01*
X57471442Y-89095951D01*
X57560130Y-88803586D01*
X57560131Y-88803584D01*
X57704150Y-88534142D01*
X57897971Y-88297971D01*
X58134142Y-88104150D01*
X58403584Y-87960131D01*
X58403586Y-87960130D01*
X58695951Y-87871442D01*
X58847857Y-87856481D01*
X58923809Y-87849000D01*
X60076191Y-87849000D01*
X60152143Y-87856481D01*
G37*
G36*
X87777395Y-86585546D02*
G01*
X87950466Y-86657234D01*
X87950467Y-86657235D01*
X88106227Y-86761310D01*
X88238690Y-86893773D01*
X88238691Y-86893775D01*
X88342766Y-87049534D01*
X88414454Y-87222605D01*
X88451000Y-87406333D01*
X88451000Y-87593667D01*
X88414454Y-87777395D01*
X88342766Y-87950466D01*
X88336308Y-87960131D01*
X88238690Y-88106227D01*
X88106227Y-88238690D01*
X88027818Y-88291081D01*
X87950466Y-88342766D01*
X87777395Y-88414454D01*
X87593667Y-88451000D01*
X87406333Y-88451000D01*
X87222605Y-88414454D01*
X87049534Y-88342766D01*
X86972182Y-88291081D01*
X86893773Y-88238690D01*
X86761310Y-88106227D01*
X86663692Y-87960131D01*
X86657234Y-87950466D01*
X86585546Y-87777395D01*
X86549000Y-87593667D01*
X86549000Y-87406333D01*
X86585546Y-87222605D01*
X86657234Y-87049534D01*
X86761309Y-86893775D01*
X86761310Y-86893773D01*
X86893773Y-86761310D01*
X87049533Y-86657235D01*
X87049534Y-86657234D01*
X87222605Y-86585546D01*
X87406333Y-86549000D01*
X87593667Y-86549000D01*
X87777395Y-86585546D01*
G37*
G36*
X52777395Y-86585546D02*
G01*
X52950466Y-86657234D01*
X52950467Y-86657235D01*
X53106227Y-86761310D01*
X53238690Y-86893773D01*
X53238691Y-86893775D01*
X53342766Y-87049534D01*
X53414454Y-87222605D01*
X53451000Y-87406333D01*
X53451000Y-87593667D01*
X53414454Y-87777395D01*
X53342766Y-87950466D01*
X53336308Y-87960131D01*
X53238690Y-88106227D01*
X53106227Y-88238690D01*
X53027818Y-88291081D01*
X52950466Y-88342766D01*
X52777395Y-88414454D01*
X52593667Y-88451000D01*
X52406333Y-88451000D01*
X52222605Y-88414454D01*
X52049534Y-88342766D01*
X51972182Y-88291081D01*
X51893773Y-88238690D01*
X51761310Y-88106227D01*
X51663692Y-87960131D01*
X51657234Y-87950466D01*
X51585546Y-87777395D01*
X51549000Y-87593667D01*
X51549000Y-87406333D01*
X51585546Y-87222605D01*
X51657234Y-87049534D01*
X51761309Y-86893775D01*
X51761310Y-86893773D01*
X51893773Y-86761310D01*
X52049533Y-86657235D01*
X52049534Y-86657234D01*
X52222605Y-86585546D01*
X52406333Y-86549000D01*
X52593667Y-86549000D01*
X52777395Y-86585546D01*
G37*
G36*
X109777395Y-86585546D02*
G01*
X109950466Y-86657234D01*
X109950467Y-86657235D01*
X110106227Y-86761310D01*
X110238690Y-86893773D01*
X110238691Y-86893775D01*
X110342766Y-87049534D01*
X110414454Y-87222605D01*
X110451000Y-87406333D01*
X110451000Y-87593667D01*
X110414454Y-87777395D01*
X110342766Y-87950466D01*
X110336308Y-87960131D01*
X110238690Y-88106227D01*
X110106227Y-88238690D01*
X110027818Y-88291081D01*
X109950466Y-88342766D01*
X109777395Y-88414454D01*
X109593667Y-88451000D01*
X109406333Y-88451000D01*
X109222605Y-88414454D01*
X109049534Y-88342766D01*
X108972182Y-88291081D01*
X108893773Y-88238690D01*
X108761310Y-88106227D01*
X108663692Y-87960131D01*
X108657234Y-87950466D01*
X108585546Y-87777395D01*
X108549000Y-87593667D01*
X108549000Y-87406333D01*
X108585546Y-87222605D01*
X108657234Y-87049534D01*
X108761309Y-86893775D01*
X108761310Y-86893773D01*
X108893773Y-86761310D01*
X109049533Y-86657235D01*
X109049534Y-86657234D01*
X109222605Y-86585546D01*
X109406333Y-86549000D01*
X109593667Y-86549000D01*
X109777395Y-86585546D01*
G37*
G36*
X52777395Y-84085546D02*
G01*
X52950466Y-84157234D01*
X52950467Y-84157235D01*
X53106227Y-84261310D01*
X53238690Y-84393773D01*
X53238691Y-84393775D01*
X53342766Y-84549534D01*
X53414454Y-84722605D01*
X53451000Y-84906333D01*
X53451000Y-85093667D01*
X53414454Y-85277395D01*
X53342766Y-85450466D01*
X53342765Y-85450467D01*
X53238690Y-85606227D01*
X53106227Y-85738690D01*
X53027818Y-85791081D01*
X52950466Y-85842766D01*
X52777395Y-85914454D01*
X52593667Y-85951000D01*
X52406333Y-85951000D01*
X52222605Y-85914454D01*
X52049534Y-85842766D01*
X51972182Y-85791081D01*
X51893773Y-85738690D01*
X51761310Y-85606227D01*
X51657235Y-85450467D01*
X51657234Y-85450466D01*
X51585546Y-85277395D01*
X51549000Y-85093667D01*
X51549000Y-84906333D01*
X51585546Y-84722605D01*
X51657234Y-84549534D01*
X51761309Y-84393775D01*
X51761310Y-84393773D01*
X51893773Y-84261310D01*
X52049533Y-84157235D01*
X52049534Y-84157234D01*
X52222605Y-84085546D01*
X52406333Y-84049000D01*
X52593667Y-84049000D01*
X52777395Y-84085546D01*
G37*
G36*
X87777395Y-84085546D02*
G01*
X87950466Y-84157234D01*
X87950467Y-84157235D01*
X88106227Y-84261310D01*
X88238690Y-84393773D01*
X88238691Y-84393775D01*
X88342766Y-84549534D01*
X88414454Y-84722605D01*
X88451000Y-84906333D01*
X88451000Y-85093667D01*
X88414454Y-85277395D01*
X88342766Y-85450466D01*
X88342765Y-85450467D01*
X88238690Y-85606227D01*
X88106227Y-85738690D01*
X88027818Y-85791081D01*
X87950466Y-85842766D01*
X87777395Y-85914454D01*
X87593667Y-85951000D01*
X87406333Y-85951000D01*
X87222605Y-85914454D01*
X87049534Y-85842766D01*
X86972182Y-85791081D01*
X86893773Y-85738690D01*
X86761310Y-85606227D01*
X86657235Y-85450467D01*
X86657234Y-85450466D01*
X86585546Y-85277395D01*
X86549000Y-85093667D01*
X86549000Y-84906333D01*
X86585546Y-84722605D01*
X86657234Y-84549534D01*
X86761309Y-84393775D01*
X86761310Y-84393773D01*
X86893773Y-84261310D01*
X87049533Y-84157235D01*
X87049534Y-84157234D01*
X87222605Y-84085546D01*
X87406333Y-84049000D01*
X87593667Y-84049000D01*
X87777395Y-84085546D01*
G37*
G36*
X109777395Y-84085546D02*
G01*
X109950466Y-84157234D01*
X109950467Y-84157235D01*
X110106227Y-84261310D01*
X110238690Y-84393773D01*
X110238691Y-84393775D01*
X110342766Y-84549534D01*
X110414454Y-84722605D01*
X110451000Y-84906333D01*
X110451000Y-85093667D01*
X110414454Y-85277395D01*
X110342766Y-85450466D01*
X110342765Y-85450467D01*
X110238690Y-85606227D01*
X110106227Y-85738690D01*
X110027818Y-85791081D01*
X109950466Y-85842766D01*
X109777395Y-85914454D01*
X109593667Y-85951000D01*
X109406333Y-85951000D01*
X109222605Y-85914454D01*
X109049534Y-85842766D01*
X108972182Y-85791081D01*
X108893773Y-85738690D01*
X108761310Y-85606227D01*
X108657235Y-85450467D01*
X108657234Y-85450466D01*
X108585546Y-85277395D01*
X108549000Y-85093667D01*
X108549000Y-84906333D01*
X108585546Y-84722605D01*
X108657234Y-84549534D01*
X108761309Y-84393775D01*
X108761310Y-84393773D01*
X108893773Y-84261310D01*
X109049533Y-84157235D01*
X109049534Y-84157234D01*
X109222605Y-84085546D01*
X109406333Y-84049000D01*
X109593667Y-84049000D01*
X109777395Y-84085546D01*
G37*
G36*
X52777395Y-81585546D02*
G01*
X52950466Y-81657234D01*
X52950467Y-81657235D01*
X53106227Y-81761310D01*
X53238690Y-81893773D01*
X53291081Y-81972182D01*
X53342766Y-82049534D01*
X53414454Y-82222605D01*
X53451000Y-82406333D01*
X53451000Y-82593667D01*
X53414454Y-82777395D01*
X53342766Y-82950466D01*
X53342765Y-82950467D01*
X53238690Y-83106227D01*
X53106227Y-83238690D01*
X53027818Y-83291081D01*
X52950466Y-83342766D01*
X52777395Y-83414454D01*
X52593667Y-83451000D01*
X52406333Y-83451000D01*
X52222605Y-83414454D01*
X52049534Y-83342766D01*
X51972182Y-83291081D01*
X51893773Y-83238690D01*
X51761310Y-83106227D01*
X51657235Y-82950467D01*
X51657234Y-82950466D01*
X51585546Y-82777395D01*
X51549000Y-82593667D01*
X51549000Y-82406333D01*
X51585546Y-82222605D01*
X51657234Y-82049534D01*
X51708919Y-81972182D01*
X51761310Y-81893773D01*
X51893773Y-81761310D01*
X52049533Y-81657235D01*
X52049534Y-81657234D01*
X52222605Y-81585546D01*
X52406333Y-81549000D01*
X52593667Y-81549000D01*
X52777395Y-81585546D01*
G37*
G36*
X87777395Y-81585546D02*
G01*
X87950466Y-81657234D01*
X87950467Y-81657235D01*
X88106227Y-81761310D01*
X88238690Y-81893773D01*
X88291081Y-81972182D01*
X88342766Y-82049534D01*
X88414454Y-82222605D01*
X88451000Y-82406333D01*
X88451000Y-82593667D01*
X88414454Y-82777395D01*
X88342766Y-82950466D01*
X88342765Y-82950467D01*
X88238690Y-83106227D01*
X88106227Y-83238690D01*
X88027818Y-83291081D01*
X87950466Y-83342766D01*
X87777395Y-83414454D01*
X87593667Y-83451000D01*
X87406333Y-83451000D01*
X87222605Y-83414454D01*
X87049534Y-83342766D01*
X86972182Y-83291081D01*
X86893773Y-83238690D01*
X86761310Y-83106227D01*
X86657235Y-82950467D01*
X86657234Y-82950466D01*
X86585546Y-82777395D01*
X86549000Y-82593667D01*
X86549000Y-82406333D01*
X86585546Y-82222605D01*
X86657234Y-82049534D01*
X86708919Y-81972182D01*
X86761310Y-81893773D01*
X86893773Y-81761310D01*
X87049533Y-81657235D01*
X87049534Y-81657234D01*
X87222605Y-81585546D01*
X87406333Y-81549000D01*
X87593667Y-81549000D01*
X87777395Y-81585546D01*
G37*
G36*
X109777395Y-81585546D02*
G01*
X109950466Y-81657234D01*
X109950467Y-81657235D01*
X110106227Y-81761310D01*
X110238690Y-81893773D01*
X110291081Y-81972182D01*
X110342766Y-82049534D01*
X110414454Y-82222605D01*
X110451000Y-82406333D01*
X110451000Y-82593667D01*
X110414454Y-82777395D01*
X110342766Y-82950466D01*
X110342765Y-82950467D01*
X110238690Y-83106227D01*
X110106227Y-83238690D01*
X110027818Y-83291081D01*
X109950466Y-83342766D01*
X109777395Y-83414454D01*
X109593667Y-83451000D01*
X109406333Y-83451000D01*
X109222605Y-83414454D01*
X109049534Y-83342766D01*
X108972182Y-83291081D01*
X108893773Y-83238690D01*
X108761310Y-83106227D01*
X108657235Y-82950467D01*
X108657234Y-82950466D01*
X108585546Y-82777395D01*
X108549000Y-82593667D01*
X108549000Y-82406333D01*
X108585546Y-82222605D01*
X108657234Y-82049534D01*
X108708919Y-81972182D01*
X108761310Y-81893773D01*
X108893773Y-81761310D01*
X109049533Y-81657235D01*
X109049534Y-81657234D01*
X109222605Y-81585546D01*
X109406333Y-81549000D01*
X109593667Y-81549000D01*
X109777395Y-81585546D01*
G37*
G36*
X60152143Y-79056481D02*
G01*
X60304049Y-79071442D01*
X60596414Y-79160130D01*
X60596416Y-79160131D01*
X60865858Y-79304150D01*
X61102029Y-79497971D01*
X61295850Y-79734142D01*
X61439869Y-80003584D01*
X61439870Y-80003586D01*
X61528558Y-80295951D01*
X61558504Y-80600000D01*
X61528558Y-80904049D01*
X61439870Y-81196414D01*
X61439869Y-81196416D01*
X61295850Y-81465858D01*
X61102029Y-81702029D01*
X60865858Y-81895850D01*
X60596416Y-82039869D01*
X60596414Y-82039870D01*
X60304049Y-82128558D01*
X60152143Y-82143519D01*
X60076191Y-82151000D01*
X58923809Y-82151000D01*
X58847857Y-82143519D01*
X58695951Y-82128558D01*
X58403586Y-82039870D01*
X58403584Y-82039869D01*
X58134142Y-81895850D01*
X57897971Y-81702029D01*
X57704150Y-81465858D01*
X57560131Y-81196416D01*
X57560130Y-81196414D01*
X57471442Y-80904049D01*
X57441496Y-80600000D01*
X57471442Y-80295951D01*
X57560130Y-80003586D01*
X57560131Y-80003584D01*
X57704150Y-79734142D01*
X57897971Y-79497971D01*
X58134142Y-79304150D01*
X58403584Y-79160131D01*
X58403586Y-79160130D01*
X58695951Y-79071442D01*
X58847857Y-79056481D01*
X58923809Y-79049000D01*
X60076191Y-79049000D01*
X60152143Y-79056481D01*
G37*
G36*
X81152143Y-79056481D02*
G01*
X81304049Y-79071442D01*
X81596414Y-79160130D01*
X81596416Y-79160131D01*
X81865858Y-79304150D01*
X82102029Y-79497971D01*
X82295850Y-79734142D01*
X82439869Y-80003584D01*
X82439870Y-80003586D01*
X82528558Y-80295951D01*
X82558504Y-80600000D01*
X82528558Y-80904049D01*
X82439870Y-81196414D01*
X82439869Y-81196416D01*
X82295850Y-81465858D01*
X82102029Y-81702029D01*
X81865858Y-81895850D01*
X81596416Y-82039869D01*
X81596414Y-82039870D01*
X81304049Y-82128558D01*
X81152143Y-82143519D01*
X81076191Y-82151000D01*
X79923809Y-82151000D01*
X79847857Y-82143519D01*
X79695951Y-82128558D01*
X79403586Y-82039870D01*
X79403584Y-82039869D01*
X79134142Y-81895850D01*
X78897971Y-81702029D01*
X78704150Y-81465858D01*
X78560131Y-81196416D01*
X78560130Y-81196414D01*
X78471442Y-80904049D01*
X78441496Y-80600000D01*
X78471442Y-80295951D01*
X78560130Y-80003586D01*
X78560131Y-80003584D01*
X78704150Y-79734142D01*
X78897971Y-79497971D01*
X79134142Y-79304150D01*
X79403584Y-79160131D01*
X79403586Y-79160130D01*
X79695951Y-79071442D01*
X79847857Y-79056481D01*
X79923809Y-79049000D01*
X81076191Y-79049000D01*
X81152143Y-79056481D01*
G37*
G36*
X103152143Y-79056481D02*
G01*
X103304049Y-79071442D01*
X103596414Y-79160130D01*
X103596416Y-79160131D01*
X103865858Y-79304150D01*
X104102029Y-79497971D01*
X104295850Y-79734142D01*
X104439869Y-80003584D01*
X104439870Y-80003586D01*
X104528558Y-80295951D01*
X104558504Y-80600000D01*
X104528558Y-80904049D01*
X104439870Y-81196414D01*
X104439869Y-81196416D01*
X104295850Y-81465858D01*
X104102029Y-81702029D01*
X103865858Y-81895850D01*
X103596416Y-82039869D01*
X103596414Y-82039870D01*
X103304049Y-82128558D01*
X103152143Y-82143519D01*
X103076191Y-82151000D01*
X101923809Y-82151000D01*
X101847857Y-82143519D01*
X101695951Y-82128558D01*
X101403586Y-82039870D01*
X101403584Y-82039869D01*
X101134142Y-81895850D01*
X100897971Y-81702029D01*
X100704150Y-81465858D01*
X100560131Y-81196416D01*
X100560130Y-81196414D01*
X100471442Y-80904049D01*
X100441496Y-80600000D01*
X100471442Y-80295951D01*
X100560130Y-80003586D01*
X100560131Y-80003584D01*
X100704150Y-79734142D01*
X100897971Y-79497971D01*
X101134142Y-79304150D01*
X101403584Y-79160131D01*
X101403586Y-79160130D01*
X101695951Y-79071442D01*
X101847857Y-79056481D01*
X101923809Y-79049000D01*
X103076191Y-79049000D01*
X103152143Y-79056481D01*
G37*
G36*
X119777395Y-71585546D02*
G01*
X119950466Y-71657234D01*
X119950467Y-71657235D01*
X120106227Y-71761310D01*
X120238690Y-71893773D01*
X120238691Y-71893775D01*
X120342766Y-72049534D01*
X120414454Y-72222605D01*
X120451000Y-72406333D01*
X120451000Y-72593667D01*
X120414454Y-72777395D01*
X120342766Y-72950466D01*
X120342765Y-72950467D01*
X120238690Y-73106227D01*
X120106227Y-73238690D01*
X120027818Y-73291081D01*
X119950466Y-73342766D01*
X119777395Y-73414454D01*
X119593667Y-73451000D01*
X119406333Y-73451000D01*
X119222605Y-73414454D01*
X119049534Y-73342766D01*
X118972182Y-73291081D01*
X118893773Y-73238690D01*
X118761310Y-73106227D01*
X118657235Y-72950467D01*
X118657234Y-72950466D01*
X118585546Y-72777395D01*
X118549000Y-72593667D01*
X118549000Y-72406333D01*
X118585546Y-72222605D01*
X118657234Y-72049534D01*
X118761309Y-71893775D01*
X118761310Y-71893773D01*
X118893773Y-71761310D01*
X119049533Y-71657235D01*
X119049534Y-71657234D01*
X119222605Y-71585546D01*
X119406333Y-71549000D01*
X119593667Y-71549000D01*
X119777395Y-71585546D01*
G37*
G36*
X144777395Y-71585546D02*
G01*
X144950466Y-71657234D01*
X144950467Y-71657235D01*
X145106227Y-71761310D01*
X145238690Y-71893773D01*
X145238691Y-71893775D01*
X145342766Y-72049534D01*
X145414454Y-72222605D01*
X145451000Y-72406333D01*
X145451000Y-72593667D01*
X145414454Y-72777395D01*
X145342766Y-72950466D01*
X145342765Y-72950467D01*
X145238690Y-73106227D01*
X145106227Y-73238690D01*
X145027818Y-73291081D01*
X144950466Y-73342766D01*
X144777395Y-73414454D01*
X144593667Y-73451000D01*
X144406333Y-73451000D01*
X144222605Y-73414454D01*
X144049534Y-73342766D01*
X143972182Y-73291081D01*
X143893773Y-73238690D01*
X143761310Y-73106227D01*
X143657235Y-72950467D01*
X143657234Y-72950466D01*
X143585546Y-72777395D01*
X143549000Y-72593667D01*
X143549000Y-72406333D01*
X143585546Y-72222605D01*
X143657234Y-72049534D01*
X143761309Y-71893775D01*
X143761310Y-71893773D01*
X143893773Y-71761310D01*
X144049533Y-71657235D01*
X144049534Y-71657234D01*
X144222605Y-71585546D01*
X144406333Y-71549000D01*
X144593667Y-71549000D01*
X144777395Y-71585546D01*
G37*
G36*
X142277395Y-71585546D02*
G01*
X142450466Y-71657234D01*
X142450467Y-71657235D01*
X142606227Y-71761310D01*
X142738690Y-71893773D01*
X142738691Y-71893775D01*
X142842766Y-72049534D01*
X142914454Y-72222605D01*
X142951000Y-72406333D01*
X142951000Y-72593667D01*
X142914454Y-72777395D01*
X142842766Y-72950466D01*
X142842765Y-72950467D01*
X142738690Y-73106227D01*
X142606227Y-73238690D01*
X142527818Y-73291081D01*
X142450466Y-73342766D01*
X142277395Y-73414454D01*
X142093667Y-73451000D01*
X141906333Y-73451000D01*
X141722605Y-73414454D01*
X141549534Y-73342766D01*
X141472182Y-73291081D01*
X141393773Y-73238690D01*
X141261310Y-73106227D01*
X141157235Y-72950467D01*
X141157234Y-72950466D01*
X141085546Y-72777395D01*
X141049000Y-72593667D01*
X141049000Y-72406333D01*
X141085546Y-72222605D01*
X141157234Y-72049534D01*
X141261309Y-71893775D01*
X141261310Y-71893773D01*
X141393773Y-71761310D01*
X141549533Y-71657235D01*
X141549534Y-71657234D01*
X141722605Y-71585546D01*
X141906333Y-71549000D01*
X142093667Y-71549000D01*
X142277395Y-71585546D01*
G37*
G36*
X139777395Y-71585546D02*
G01*
X139950466Y-71657234D01*
X139950467Y-71657235D01*
X140106227Y-71761310D01*
X140238690Y-71893773D01*
X140238691Y-71893775D01*
X140342766Y-72049534D01*
X140414454Y-72222605D01*
X140451000Y-72406333D01*
X140451000Y-72593667D01*
X140414454Y-72777395D01*
X140342766Y-72950466D01*
X140342765Y-72950467D01*
X140238690Y-73106227D01*
X140106227Y-73238690D01*
X140027818Y-73291081D01*
X139950466Y-73342766D01*
X139777395Y-73414454D01*
X139593667Y-73451000D01*
X139406333Y-73451000D01*
X139222605Y-73414454D01*
X139049534Y-73342766D01*
X138972182Y-73291081D01*
X138893773Y-73238690D01*
X138761310Y-73106227D01*
X138657235Y-72950467D01*
X138657234Y-72950466D01*
X138585546Y-72777395D01*
X138549000Y-72593667D01*
X138549000Y-72406333D01*
X138585546Y-72222605D01*
X138657234Y-72049534D01*
X138761309Y-71893775D01*
X138761310Y-71893773D01*
X138893773Y-71761310D01*
X139049533Y-71657235D01*
X139049534Y-71657234D01*
X139222605Y-71585546D01*
X139406333Y-71549000D01*
X139593667Y-71549000D01*
X139777395Y-71585546D01*
G37*
G36*
X124777395Y-71585546D02*
G01*
X124950466Y-71657234D01*
X124950467Y-71657235D01*
X125106227Y-71761310D01*
X125238690Y-71893773D01*
X125238691Y-71893775D01*
X125342766Y-72049534D01*
X125414454Y-72222605D01*
X125451000Y-72406333D01*
X125451000Y-72593667D01*
X125414454Y-72777395D01*
X125342766Y-72950466D01*
X125342765Y-72950467D01*
X125238690Y-73106227D01*
X125106227Y-73238690D01*
X125027818Y-73291081D01*
X124950466Y-73342766D01*
X124777395Y-73414454D01*
X124593667Y-73451000D01*
X124406333Y-73451000D01*
X124222605Y-73414454D01*
X124049534Y-73342766D01*
X123972182Y-73291081D01*
X123893773Y-73238690D01*
X123761310Y-73106227D01*
X123657235Y-72950467D01*
X123657234Y-72950466D01*
X123585546Y-72777395D01*
X123549000Y-72593667D01*
X123549000Y-72406333D01*
X123585546Y-72222605D01*
X123657234Y-72049534D01*
X123761309Y-71893775D01*
X123761310Y-71893773D01*
X123893773Y-71761310D01*
X124049533Y-71657235D01*
X124049534Y-71657234D01*
X124222605Y-71585546D01*
X124406333Y-71549000D01*
X124593667Y-71549000D01*
X124777395Y-71585546D01*
G37*
G36*
X122277395Y-71585546D02*
G01*
X122450466Y-71657234D01*
X122450467Y-71657235D01*
X122606227Y-71761310D01*
X122738690Y-71893773D01*
X122738691Y-71893775D01*
X122842766Y-72049534D01*
X122914454Y-72222605D01*
X122951000Y-72406333D01*
X122951000Y-72593667D01*
X122914454Y-72777395D01*
X122842766Y-72950466D01*
X122842765Y-72950467D01*
X122738690Y-73106227D01*
X122606227Y-73238690D01*
X122527818Y-73291081D01*
X122450466Y-73342766D01*
X122277395Y-73414454D01*
X122093667Y-73451000D01*
X121906333Y-73451000D01*
X121722605Y-73414454D01*
X121549534Y-73342766D01*
X121472182Y-73291081D01*
X121393773Y-73238690D01*
X121261310Y-73106227D01*
X121157235Y-72950467D01*
X121157234Y-72950466D01*
X121085546Y-72777395D01*
X121049000Y-72593667D01*
X121049000Y-72406333D01*
X121085546Y-72222605D01*
X121157234Y-72049534D01*
X121261309Y-71893775D01*
X121261310Y-71893773D01*
X121393773Y-71761310D01*
X121549533Y-71657235D01*
X121549534Y-71657234D01*
X121722605Y-71585546D01*
X121906333Y-71549000D01*
X122093667Y-71549000D01*
X122277395Y-71585546D01*
G37*
G36*
X80152143Y-67856481D02*
G01*
X80304049Y-67871442D01*
X80596414Y-67960130D01*
X80596416Y-67960131D01*
X80865858Y-68104150D01*
X81102029Y-68297971D01*
X81295850Y-68534142D01*
X81439869Y-68803584D01*
X81439870Y-68803586D01*
X81528558Y-69095951D01*
X81558504Y-69400000D01*
X81528558Y-69704049D01*
X81439870Y-69996414D01*
X81439869Y-69996416D01*
X81295850Y-70265858D01*
X81102029Y-70502029D01*
X80865858Y-70695850D01*
X80596416Y-70839869D01*
X80596414Y-70839870D01*
X80304049Y-70928558D01*
X80152143Y-70943519D01*
X80076191Y-70951000D01*
X78923809Y-70951000D01*
X78847857Y-70943519D01*
X78695951Y-70928558D01*
X78403586Y-70839870D01*
X78403584Y-70839869D01*
X78134142Y-70695850D01*
X77897971Y-70502029D01*
X77704150Y-70265858D01*
X77560131Y-69996416D01*
X77560130Y-69996414D01*
X77471442Y-69704049D01*
X77441496Y-69400000D01*
X77471442Y-69095951D01*
X77560130Y-68803586D01*
X77560131Y-68803584D01*
X77704150Y-68534142D01*
X77897971Y-68297971D01*
X78134142Y-68104150D01*
X78403584Y-67960131D01*
X78403586Y-67960130D01*
X78695951Y-67871442D01*
X78847857Y-67856481D01*
X78923809Y-67849000D01*
X80076191Y-67849000D01*
X80152143Y-67856481D01*
G37*
G36*
X61152143Y-67856481D02*
G01*
X61304049Y-67871442D01*
X61596414Y-67960130D01*
X61596416Y-67960131D01*
X61865858Y-68104150D01*
X62102029Y-68297971D01*
X62295850Y-68534142D01*
X62439869Y-68803584D01*
X62439870Y-68803586D01*
X62528558Y-69095951D01*
X62558504Y-69400000D01*
X62528558Y-69704049D01*
X62439870Y-69996414D01*
X62439869Y-69996416D01*
X62295850Y-70265858D01*
X62102029Y-70502029D01*
X61865858Y-70695850D01*
X61596416Y-70839869D01*
X61596414Y-70839870D01*
X61304049Y-70928558D01*
X61152143Y-70943519D01*
X61076191Y-70951000D01*
X59923809Y-70951000D01*
X59847857Y-70943519D01*
X59695951Y-70928558D01*
X59403586Y-70839870D01*
X59403584Y-70839869D01*
X59134142Y-70695850D01*
X58897971Y-70502029D01*
X58704150Y-70265858D01*
X58560131Y-69996416D01*
X58560130Y-69996414D01*
X58471442Y-69704049D01*
X58441496Y-69400000D01*
X58471442Y-69095951D01*
X58560130Y-68803586D01*
X58560131Y-68803584D01*
X58704150Y-68534142D01*
X58897971Y-68297971D01*
X59134142Y-68104150D01*
X59403584Y-67960131D01*
X59403586Y-67960130D01*
X59695951Y-67871442D01*
X59847857Y-67856481D01*
X59923809Y-67849000D01*
X61076191Y-67849000D01*
X61152143Y-67856481D01*
G37*
G36*
X103152143Y-67856481D02*
G01*
X103304049Y-67871442D01*
X103596414Y-67960130D01*
X103596416Y-67960131D01*
X103865858Y-68104150D01*
X104102029Y-68297971D01*
X104295850Y-68534142D01*
X104439869Y-68803584D01*
X104439870Y-68803586D01*
X104528558Y-69095951D01*
X104558504Y-69400000D01*
X104528558Y-69704049D01*
X104439870Y-69996414D01*
X104439869Y-69996416D01*
X104295850Y-70265858D01*
X104102029Y-70502029D01*
X103865858Y-70695850D01*
X103596416Y-70839869D01*
X103596414Y-70839870D01*
X103304049Y-70928558D01*
X103152143Y-70943519D01*
X103076191Y-70951000D01*
X101923809Y-70951000D01*
X101847857Y-70943519D01*
X101695951Y-70928558D01*
X101403586Y-70839870D01*
X101403584Y-70839869D01*
X101134142Y-70695850D01*
X100897971Y-70502029D01*
X100704150Y-70265858D01*
X100560131Y-69996416D01*
X100560130Y-69996414D01*
X100471442Y-69704049D01*
X100441496Y-69400000D01*
X100471442Y-69095951D01*
X100560130Y-68803586D01*
X100560131Y-68803584D01*
X100704150Y-68534142D01*
X100897971Y-68297971D01*
X101134142Y-68104150D01*
X101403584Y-67960131D01*
X101403586Y-67960130D01*
X101695951Y-67871442D01*
X101847857Y-67856481D01*
X101923809Y-67849000D01*
X103076191Y-67849000D01*
X103152143Y-67856481D01*
G37*
G36*
X72777395Y-66585546D02*
G01*
X72950466Y-66657234D01*
X72950467Y-66657235D01*
X73106227Y-66761310D01*
X73238690Y-66893773D01*
X73238691Y-66893775D01*
X73342766Y-67049534D01*
X73414454Y-67222605D01*
X73451000Y-67406333D01*
X73451000Y-67593667D01*
X73414454Y-67777395D01*
X73342766Y-67950466D01*
X73336308Y-67960131D01*
X73238690Y-68106227D01*
X73106227Y-68238690D01*
X73027818Y-68291081D01*
X72950466Y-68342766D01*
X72777395Y-68414454D01*
X72593667Y-68451000D01*
X72406333Y-68451000D01*
X72222605Y-68414454D01*
X72049534Y-68342766D01*
X71972182Y-68291081D01*
X71893773Y-68238690D01*
X71761310Y-68106227D01*
X71663692Y-67960131D01*
X71657234Y-67950466D01*
X71585546Y-67777395D01*
X71549000Y-67593667D01*
X71549000Y-67406333D01*
X71585546Y-67222605D01*
X71657234Y-67049534D01*
X71761309Y-66893775D01*
X71761310Y-66893773D01*
X71893773Y-66761310D01*
X72049533Y-66657235D01*
X72049534Y-66657234D01*
X72222605Y-66585546D01*
X72406333Y-66549000D01*
X72593667Y-66549000D01*
X72777395Y-66585546D01*
G37*
G36*
X109777395Y-66585546D02*
G01*
X109950466Y-66657234D01*
X109950467Y-66657235D01*
X110106227Y-66761310D01*
X110238690Y-66893773D01*
X110238691Y-66893775D01*
X110342766Y-67049534D01*
X110414454Y-67222605D01*
X110451000Y-67406333D01*
X110451000Y-67593667D01*
X110414454Y-67777395D01*
X110342766Y-67950466D01*
X110336308Y-67960131D01*
X110238690Y-68106227D01*
X110106227Y-68238690D01*
X110027818Y-68291081D01*
X109950466Y-68342766D01*
X109777395Y-68414454D01*
X109593667Y-68451000D01*
X109406333Y-68451000D01*
X109222605Y-68414454D01*
X109049534Y-68342766D01*
X108972182Y-68291081D01*
X108893773Y-68238690D01*
X108761310Y-68106227D01*
X108663692Y-67960131D01*
X108657234Y-67950466D01*
X108585546Y-67777395D01*
X108549000Y-67593667D01*
X108549000Y-67406333D01*
X108585546Y-67222605D01*
X108657234Y-67049534D01*
X108761309Y-66893775D01*
X108761310Y-66893773D01*
X108893773Y-66761310D01*
X109049533Y-66657235D01*
X109049534Y-66657234D01*
X109222605Y-66585546D01*
X109406333Y-66549000D01*
X109593667Y-66549000D01*
X109777395Y-66585546D01*
G37*
G36*
X67777395Y-66585546D02*
G01*
X67950466Y-66657234D01*
X67950467Y-66657235D01*
X68106227Y-66761310D01*
X68238690Y-66893773D01*
X68238691Y-66893775D01*
X68342766Y-67049534D01*
X68414454Y-67222605D01*
X68451000Y-67406333D01*
X68451000Y-67593667D01*
X68414454Y-67777395D01*
X68342766Y-67950466D01*
X68336308Y-67960131D01*
X68238690Y-68106227D01*
X68106227Y-68238690D01*
X68027818Y-68291081D01*
X67950466Y-68342766D01*
X67777395Y-68414454D01*
X67593667Y-68451000D01*
X67406333Y-68451000D01*
X67222605Y-68414454D01*
X67049534Y-68342766D01*
X66972182Y-68291081D01*
X66893773Y-68238690D01*
X66761310Y-68106227D01*
X66663692Y-67960131D01*
X66657234Y-67950466D01*
X66585546Y-67777395D01*
X66549000Y-67593667D01*
X66549000Y-67406333D01*
X66585546Y-67222605D01*
X66657234Y-67049534D01*
X66761309Y-66893775D01*
X66761310Y-66893773D01*
X66893773Y-66761310D01*
X67049533Y-66657235D01*
X67049534Y-66657234D01*
X67222605Y-66585546D01*
X67406333Y-66549000D01*
X67593667Y-66549000D01*
X67777395Y-66585546D01*
G37*
G36*
X126704048Y-63471442D02*
G01*
X126996413Y-63560130D01*
X126996415Y-63560131D01*
X127265856Y-63704150D01*
X127265858Y-63704151D01*
X127265857Y-63704151D01*
X127502029Y-63897971D01*
X127589395Y-64004426D01*
X127695850Y-64134142D01*
X127763822Y-64261310D01*
X127839870Y-64403586D01*
X127928558Y-64695951D01*
X127951000Y-64923810D01*
X127951000Y-66076190D01*
X127928558Y-66304049D01*
X127843166Y-66585547D01*
X127839869Y-66596416D01*
X127695850Y-66865858D01*
X127502029Y-67102029D01*
X127265858Y-67295850D01*
X126996416Y-67439869D01*
X126996414Y-67439870D01*
X126704049Y-67528558D01*
X126400000Y-67558504D01*
X126095952Y-67528558D01*
X125803587Y-67439870D01*
X125803585Y-67439869D01*
X125534143Y-67295850D01*
X125297972Y-67102029D01*
X125104151Y-66865858D01*
X124960130Y-66596414D01*
X124871442Y-66304049D01*
X124849000Y-66076190D01*
X124849000Y-64923811D01*
X124871442Y-64695952D01*
X124960130Y-64403587D01*
X124965376Y-64393773D01*
X125104150Y-64134144D01*
X125174026Y-64049000D01*
X125297971Y-63897971D01*
X125404426Y-63810605D01*
X125534142Y-63704150D01*
X125803584Y-63560131D01*
X125803586Y-63560130D01*
X126095951Y-63471442D01*
X126400000Y-63441496D01*
X126704048Y-63471442D01*
G37*
G36*
X117904048Y-63471442D02*
G01*
X118196413Y-63560130D01*
X118196415Y-63560131D01*
X118465856Y-63704150D01*
X118465858Y-63704151D01*
X118465857Y-63704151D01*
X118702029Y-63897971D01*
X118789395Y-64004426D01*
X118895850Y-64134142D01*
X118963822Y-64261310D01*
X119039870Y-64403586D01*
X119128558Y-64695951D01*
X119151000Y-64923810D01*
X119151000Y-66076190D01*
X119128558Y-66304049D01*
X119043166Y-66585547D01*
X119039869Y-66596416D01*
X118895850Y-66865858D01*
X118702029Y-67102029D01*
X118465858Y-67295850D01*
X118196416Y-67439869D01*
X118196414Y-67439870D01*
X117904049Y-67528558D01*
X117600000Y-67558504D01*
X117295952Y-67528558D01*
X117003587Y-67439870D01*
X117003585Y-67439869D01*
X116734143Y-67295850D01*
X116497972Y-67102029D01*
X116304151Y-66865858D01*
X116160130Y-66596414D01*
X116071442Y-66304049D01*
X116049000Y-66076190D01*
X116049000Y-64923811D01*
X116071442Y-64695952D01*
X116160130Y-64403587D01*
X116165376Y-64393773D01*
X116304150Y-64134144D01*
X116374026Y-64049000D01*
X116497971Y-63897971D01*
X116604426Y-63810605D01*
X116734142Y-63704150D01*
X117003584Y-63560131D01*
X117003586Y-63560130D01*
X117295951Y-63471442D01*
X117600000Y-63441496D01*
X117904048Y-63471442D01*
G37*
G36*
X146704048Y-63471442D02*
G01*
X146996413Y-63560130D01*
X146996415Y-63560131D01*
X147265856Y-63704150D01*
X147265858Y-63704151D01*
X147265857Y-63704151D01*
X147502029Y-63897971D01*
X147589395Y-64004426D01*
X147695850Y-64134142D01*
X147763822Y-64261310D01*
X147839870Y-64403586D01*
X147928558Y-64695951D01*
X147951000Y-64923810D01*
X147951000Y-66076190D01*
X147928558Y-66304049D01*
X147843166Y-66585547D01*
X147839869Y-66596416D01*
X147695850Y-66865858D01*
X147502029Y-67102029D01*
X147265858Y-67295850D01*
X146996416Y-67439869D01*
X146996414Y-67439870D01*
X146704049Y-67528558D01*
X146400000Y-67558504D01*
X146095952Y-67528558D01*
X145803587Y-67439870D01*
X145803585Y-67439869D01*
X145534143Y-67295850D01*
X145297972Y-67102029D01*
X145104151Y-66865858D01*
X144960130Y-66596414D01*
X144871442Y-66304049D01*
X144849000Y-66076190D01*
X144849000Y-64923811D01*
X144871442Y-64695952D01*
X144960130Y-64403587D01*
X144965376Y-64393773D01*
X145104150Y-64134144D01*
X145174026Y-64049000D01*
X145297971Y-63897971D01*
X145404426Y-63810605D01*
X145534142Y-63704150D01*
X145803584Y-63560131D01*
X145803586Y-63560130D01*
X146095951Y-63471442D01*
X146400000Y-63441496D01*
X146704048Y-63471442D01*
G37*
G36*
X137904048Y-63471442D02*
G01*
X138196413Y-63560130D01*
X138196415Y-63560131D01*
X138465856Y-63704150D01*
X138465858Y-63704151D01*
X138465857Y-63704151D01*
X138702029Y-63897971D01*
X138789395Y-64004426D01*
X138895850Y-64134142D01*
X138963822Y-64261310D01*
X139039870Y-64403586D01*
X139128558Y-64695951D01*
X139151000Y-64923810D01*
X139151000Y-66076190D01*
X139128558Y-66304049D01*
X139043166Y-66585547D01*
X139039869Y-66596416D01*
X138895850Y-66865858D01*
X138702029Y-67102029D01*
X138465858Y-67295850D01*
X138196416Y-67439869D01*
X138196414Y-67439870D01*
X137904049Y-67528558D01*
X137600000Y-67558504D01*
X137295952Y-67528558D01*
X137003587Y-67439870D01*
X137003585Y-67439869D01*
X136734143Y-67295850D01*
X136497972Y-67102029D01*
X136304151Y-66865858D01*
X136160130Y-66596414D01*
X136071442Y-66304049D01*
X136049000Y-66076190D01*
X136049000Y-64923811D01*
X136071442Y-64695952D01*
X136160130Y-64403587D01*
X136165376Y-64393773D01*
X136304150Y-64134144D01*
X136374026Y-64049000D01*
X136497971Y-63897971D01*
X136604426Y-63810605D01*
X136734142Y-63704150D01*
X137003584Y-63560131D01*
X137003586Y-63560130D01*
X137295951Y-63471442D01*
X137600000Y-63441496D01*
X137904048Y-63471442D01*
G37*
G36*
X109777395Y-64085546D02*
G01*
X109950466Y-64157234D01*
X109950467Y-64157235D01*
X110106227Y-64261310D01*
X110238690Y-64393773D01*
X110238691Y-64393775D01*
X110342766Y-64549534D01*
X110414454Y-64722605D01*
X110451000Y-64906333D01*
X110451000Y-65093667D01*
X110414454Y-65277395D01*
X110342766Y-65450466D01*
X110342765Y-65450467D01*
X110238690Y-65606227D01*
X110106227Y-65738690D01*
X110027818Y-65791081D01*
X109950466Y-65842766D01*
X109777395Y-65914454D01*
X109593667Y-65951000D01*
X109406333Y-65951000D01*
X109222605Y-65914454D01*
X109049534Y-65842766D01*
X108972182Y-65791081D01*
X108893773Y-65738690D01*
X108761310Y-65606227D01*
X108657235Y-65450467D01*
X108657234Y-65450466D01*
X108585546Y-65277395D01*
X108549000Y-65093667D01*
X108549000Y-64906333D01*
X108585546Y-64722605D01*
X108657234Y-64549534D01*
X108761309Y-64393775D01*
X108761310Y-64393773D01*
X108893773Y-64261310D01*
X109049533Y-64157235D01*
X109049534Y-64157234D01*
X109222605Y-64085546D01*
X109406333Y-64049000D01*
X109593667Y-64049000D01*
X109777395Y-64085546D01*
G37*
G36*
X67777395Y-64085546D02*
G01*
X67950466Y-64157234D01*
X67950467Y-64157235D01*
X68106227Y-64261310D01*
X68238690Y-64393773D01*
X68238691Y-64393775D01*
X68342766Y-64549534D01*
X68414454Y-64722605D01*
X68451000Y-64906333D01*
X68451000Y-65093667D01*
X68414454Y-65277395D01*
X68342766Y-65450466D01*
X68342765Y-65450467D01*
X68238690Y-65606227D01*
X68106227Y-65738690D01*
X68027818Y-65791081D01*
X67950466Y-65842766D01*
X67777395Y-65914454D01*
X67593667Y-65951000D01*
X67406333Y-65951000D01*
X67222605Y-65914454D01*
X67049534Y-65842766D01*
X66972182Y-65791081D01*
X66893773Y-65738690D01*
X66761310Y-65606227D01*
X66657235Y-65450467D01*
X66657234Y-65450466D01*
X66585546Y-65277395D01*
X66549000Y-65093667D01*
X66549000Y-64906333D01*
X66585546Y-64722605D01*
X66657234Y-64549534D01*
X66761309Y-64393775D01*
X66761310Y-64393773D01*
X66893773Y-64261310D01*
X67049533Y-64157235D01*
X67049534Y-64157234D01*
X67222605Y-64085546D01*
X67406333Y-64049000D01*
X67593667Y-64049000D01*
X67777395Y-64085546D01*
G37*
G36*
X72777395Y-64085546D02*
G01*
X72950466Y-64157234D01*
X72950467Y-64157235D01*
X73106227Y-64261310D01*
X73238690Y-64393773D01*
X73238691Y-64393775D01*
X73342766Y-64549534D01*
X73414454Y-64722605D01*
X73451000Y-64906333D01*
X73451000Y-65093667D01*
X73414454Y-65277395D01*
X73342766Y-65450466D01*
X73342765Y-65450467D01*
X73238690Y-65606227D01*
X73106227Y-65738690D01*
X73027818Y-65791081D01*
X72950466Y-65842766D01*
X72777395Y-65914454D01*
X72593667Y-65951000D01*
X72406333Y-65951000D01*
X72222605Y-65914454D01*
X72049534Y-65842766D01*
X71972182Y-65791081D01*
X71893773Y-65738690D01*
X71761310Y-65606227D01*
X71657235Y-65450467D01*
X71657234Y-65450466D01*
X71585546Y-65277395D01*
X71549000Y-65093667D01*
X71549000Y-64906333D01*
X71585546Y-64722605D01*
X71657234Y-64549534D01*
X71761309Y-64393775D01*
X71761310Y-64393773D01*
X71893773Y-64261310D01*
X72049533Y-64157235D01*
X72049534Y-64157234D01*
X72222605Y-64085546D01*
X72406333Y-64049000D01*
X72593667Y-64049000D01*
X72777395Y-64085546D01*
G37*
G36*
X109777395Y-61585546D02*
G01*
X109950466Y-61657234D01*
X109950467Y-61657235D01*
X110106227Y-61761310D01*
X110238690Y-61893773D01*
X110291081Y-61972182D01*
X110342766Y-62049534D01*
X110414454Y-62222605D01*
X110451000Y-62406333D01*
X110451000Y-62593667D01*
X110414454Y-62777395D01*
X110342766Y-62950466D01*
X110342765Y-62950467D01*
X110238690Y-63106227D01*
X110106227Y-63238690D01*
X110027818Y-63291081D01*
X109950466Y-63342766D01*
X109777395Y-63414454D01*
X109593667Y-63451000D01*
X109406333Y-63451000D01*
X109222605Y-63414454D01*
X109049534Y-63342766D01*
X108972182Y-63291081D01*
X108893773Y-63238690D01*
X108761310Y-63106227D01*
X108657235Y-62950467D01*
X108657234Y-62950466D01*
X108585546Y-62777395D01*
X108549000Y-62593667D01*
X108549000Y-62406333D01*
X108585546Y-62222605D01*
X108657234Y-62049534D01*
X108708919Y-61972182D01*
X108761310Y-61893773D01*
X108893773Y-61761310D01*
X109049533Y-61657235D01*
X109049534Y-61657234D01*
X109222605Y-61585546D01*
X109406333Y-61549000D01*
X109593667Y-61549000D01*
X109777395Y-61585546D01*
G37*
G36*
X72777395Y-61585546D02*
G01*
X72950466Y-61657234D01*
X72950467Y-61657235D01*
X73106227Y-61761310D01*
X73238690Y-61893773D01*
X73291081Y-61972182D01*
X73342766Y-62049534D01*
X73414454Y-62222605D01*
X73451000Y-62406333D01*
X73451000Y-62593667D01*
X73414454Y-62777395D01*
X73342766Y-62950466D01*
X73342765Y-62950467D01*
X73238690Y-63106227D01*
X73106227Y-63238690D01*
X73027818Y-63291081D01*
X72950466Y-63342766D01*
X72777395Y-63414454D01*
X72593667Y-63451000D01*
X72406333Y-63451000D01*
X72222605Y-63414454D01*
X72049534Y-63342766D01*
X71972182Y-63291081D01*
X71893773Y-63238690D01*
X71761310Y-63106227D01*
X71657235Y-62950467D01*
X71657234Y-62950466D01*
X71585546Y-62777395D01*
X71549000Y-62593667D01*
X71549000Y-62406333D01*
X71585546Y-62222605D01*
X71657234Y-62049534D01*
X71708919Y-61972182D01*
X71761310Y-61893773D01*
X71893773Y-61761310D01*
X72049533Y-61657235D01*
X72049534Y-61657234D01*
X72222605Y-61585546D01*
X72406333Y-61549000D01*
X72593667Y-61549000D01*
X72777395Y-61585546D01*
G37*
G36*
X67777395Y-61585546D02*
G01*
X67950466Y-61657234D01*
X67950467Y-61657235D01*
X68106227Y-61761310D01*
X68238690Y-61893773D01*
X68291081Y-61972182D01*
X68342766Y-62049534D01*
X68414454Y-62222605D01*
X68451000Y-62406333D01*
X68451000Y-62593667D01*
X68414454Y-62777395D01*
X68342766Y-62950466D01*
X68342765Y-62950467D01*
X68238690Y-63106227D01*
X68106227Y-63238690D01*
X68027818Y-63291081D01*
X67950466Y-63342766D01*
X67777395Y-63414454D01*
X67593667Y-63451000D01*
X67406333Y-63451000D01*
X67222605Y-63414454D01*
X67049534Y-63342766D01*
X66972182Y-63291081D01*
X66893773Y-63238690D01*
X66761310Y-63106227D01*
X66657235Y-62950467D01*
X66657234Y-62950466D01*
X66585546Y-62777395D01*
X66549000Y-62593667D01*
X66549000Y-62406333D01*
X66585546Y-62222605D01*
X66657234Y-62049534D01*
X66708919Y-61972182D01*
X66761310Y-61893773D01*
X66893773Y-61761310D01*
X67049533Y-61657235D01*
X67049534Y-61657234D01*
X67222605Y-61585546D01*
X67406333Y-61549000D01*
X67593667Y-61549000D01*
X67777395Y-61585546D01*
G37*
G36*
X136651000Y-63151000D02*
G01*
X135649000Y-63151000D01*
X135649000Y-61849000D01*
X136651000Y-61849000D01*
X136651000Y-63151000D01*
G37*
G36*
X133351000Y-63151000D02*
G01*
X132349000Y-63151000D01*
X132349000Y-61849000D01*
X133351000Y-61849000D01*
X133351000Y-63151000D01*
G37*
G36*
X131651000Y-63151000D02*
G01*
X130649000Y-63151000D01*
X130649000Y-61849000D01*
X131651000Y-61849000D01*
X131651000Y-63151000D01*
G37*
G36*
X128351000Y-63151000D02*
G01*
X127349000Y-63151000D01*
X127349000Y-61849000D01*
X128351000Y-61849000D01*
X128351000Y-63151000D01*
G37*
G36*
X61152143Y-59056481D02*
G01*
X61304049Y-59071442D01*
X61596414Y-59160130D01*
X61596416Y-59160131D01*
X61865858Y-59304150D01*
X62102029Y-59497971D01*
X62295850Y-59734142D01*
X62439869Y-60003584D01*
X62439870Y-60003586D01*
X62528558Y-60295951D01*
X62558504Y-60600000D01*
X62528558Y-60904049D01*
X62439870Y-61196414D01*
X62439869Y-61196416D01*
X62295850Y-61465858D01*
X62102029Y-61702029D01*
X61865858Y-61895850D01*
X61596416Y-62039869D01*
X61596414Y-62039870D01*
X61304049Y-62128558D01*
X61152143Y-62143519D01*
X61076191Y-62151000D01*
X59923809Y-62151000D01*
X59847857Y-62143519D01*
X59695951Y-62128558D01*
X59403586Y-62039870D01*
X59403584Y-62039869D01*
X59134142Y-61895850D01*
X58897971Y-61702029D01*
X58704150Y-61465858D01*
X58560131Y-61196416D01*
X58560130Y-61196414D01*
X58471442Y-60904049D01*
X58441496Y-60600000D01*
X58471442Y-60295951D01*
X58560130Y-60003586D01*
X58560131Y-60003584D01*
X58704150Y-59734142D01*
X58897971Y-59497971D01*
X59134142Y-59304150D01*
X59403584Y-59160131D01*
X59403586Y-59160130D01*
X59695951Y-59071442D01*
X59847857Y-59056481D01*
X59923809Y-59049000D01*
X61076191Y-59049000D01*
X61152143Y-59056481D01*
G37*
G36*
X103152143Y-59056481D02*
G01*
X103304049Y-59071442D01*
X103596414Y-59160130D01*
X103596416Y-59160131D01*
X103865858Y-59304150D01*
X104102029Y-59497971D01*
X104295850Y-59734142D01*
X104439869Y-60003584D01*
X104439870Y-60003586D01*
X104528558Y-60295951D01*
X104558504Y-60600000D01*
X104528558Y-60904049D01*
X104439870Y-61196414D01*
X104439869Y-61196416D01*
X104295850Y-61465858D01*
X104102029Y-61702029D01*
X103865858Y-61895850D01*
X103596416Y-62039869D01*
X103596414Y-62039870D01*
X103304049Y-62128558D01*
X103152143Y-62143519D01*
X103076191Y-62151000D01*
X101923809Y-62151000D01*
X101847857Y-62143519D01*
X101695951Y-62128558D01*
X101403586Y-62039870D01*
X101403584Y-62039869D01*
X101134142Y-61895850D01*
X100897971Y-61702029D01*
X100704150Y-61465858D01*
X100560131Y-61196416D01*
X100560130Y-61196414D01*
X100471442Y-60904049D01*
X100441496Y-60600000D01*
X100471442Y-60295951D01*
X100560130Y-60003586D01*
X100560131Y-60003584D01*
X100704150Y-59734142D01*
X100897971Y-59497971D01*
X101134142Y-59304150D01*
X101403584Y-59160131D01*
X101403586Y-59160130D01*
X101695951Y-59071442D01*
X101847857Y-59056481D01*
X101923809Y-59049000D01*
X103076191Y-59049000D01*
X103152143Y-59056481D01*
G37*
G36*
X80152143Y-59056481D02*
G01*
X80304049Y-59071442D01*
X80596414Y-59160130D01*
X80596416Y-59160131D01*
X80865858Y-59304150D01*
X81102029Y-59497971D01*
X81295850Y-59734142D01*
X81439869Y-60003584D01*
X81439870Y-60003586D01*
X81528558Y-60295951D01*
X81558504Y-60600000D01*
X81528558Y-60904049D01*
X81439870Y-61196414D01*
X81439869Y-61196416D01*
X81295850Y-61465858D01*
X81102029Y-61702029D01*
X80865858Y-61895850D01*
X80596416Y-62039869D01*
X80596414Y-62039870D01*
X80304049Y-62128558D01*
X80152143Y-62143519D01*
X80076191Y-62151000D01*
X78923809Y-62151000D01*
X78847857Y-62143519D01*
X78695951Y-62128558D01*
X78403586Y-62039870D01*
X78403584Y-62039869D01*
X78134142Y-61895850D01*
X77897971Y-61702029D01*
X77704150Y-61465858D01*
X77560131Y-61196416D01*
X77560130Y-61196414D01*
X77471442Y-60904049D01*
X77441496Y-60600000D01*
X77471442Y-60295951D01*
X77560130Y-60003586D01*
X77560131Y-60003584D01*
X77704150Y-59734142D01*
X77897971Y-59497971D01*
X78134142Y-59304150D01*
X78403584Y-59160131D01*
X78403586Y-59160130D01*
X78695951Y-59071442D01*
X78847857Y-59056481D01*
X78923809Y-59049000D01*
X80076191Y-59049000D01*
X80152143Y-59056481D01*
G37*
G36*
X136588062Y-58078181D02*
G01*
X136622981Y-58088774D01*
X136655163Y-58105976D01*
X136683373Y-58129127D01*
X136706524Y-58157337D01*
X136723726Y-58189519D01*
X136734319Y-58224438D01*
X136738500Y-58266895D01*
X136738500Y-59733105D01*
X136734319Y-59775562D01*
X136723726Y-59810481D01*
X136706524Y-59842663D01*
X136683373Y-59870873D01*
X136655163Y-59894024D01*
X136622981Y-59911226D01*
X136588062Y-59921819D01*
X136545605Y-59926000D01*
X135404395Y-59926000D01*
X135361938Y-59921819D01*
X135327019Y-59911226D01*
X135294837Y-59894024D01*
X135266627Y-59870873D01*
X135243476Y-59842663D01*
X135226274Y-59810481D01*
X135215681Y-59775562D01*
X135211500Y-59733105D01*
X135211500Y-58266895D01*
X135215681Y-58224438D01*
X135226274Y-58189519D01*
X135243476Y-58157337D01*
X135266627Y-58129127D01*
X135294837Y-58105976D01*
X135327019Y-58088774D01*
X135361938Y-58078181D01*
X135404395Y-58074000D01*
X136545605Y-58074000D01*
X136588062Y-58078181D01*
G37*
G36*
X128625562Y-58078181D02*
G01*
X128660481Y-58088774D01*
X128692663Y-58105976D01*
X128720873Y-58129127D01*
X128744024Y-58157337D01*
X128761226Y-58189519D01*
X128771819Y-58224438D01*
X128776000Y-58266895D01*
X128776000Y-59733105D01*
X128771819Y-59775562D01*
X128761226Y-59810481D01*
X128744024Y-59842663D01*
X128720873Y-59870873D01*
X128692663Y-59894024D01*
X128660481Y-59911226D01*
X128625562Y-59921819D01*
X128583105Y-59926000D01*
X127441895Y-59926000D01*
X127399438Y-59921819D01*
X127364519Y-59911226D01*
X127332337Y-59894024D01*
X127304127Y-59870873D01*
X127280976Y-59842663D01*
X127263774Y-59810481D01*
X127253181Y-59775562D01*
X127249000Y-59733105D01*
X127249000Y-58266895D01*
X127253181Y-58224438D01*
X127263774Y-58189519D01*
X127280976Y-58157337D01*
X127304127Y-58129127D01*
X127332337Y-58105976D01*
X127364519Y-58088774D01*
X127399438Y-58078181D01*
X127441895Y-58074000D01*
X128583105Y-58074000D01*
X128625562Y-58078181D01*
G37*
G36*
X133613062Y-58078181D02*
G01*
X133647981Y-58088774D01*
X133680163Y-58105976D01*
X133708373Y-58129127D01*
X133731524Y-58157337D01*
X133748726Y-58189519D01*
X133759319Y-58224438D01*
X133763500Y-58266895D01*
X133763500Y-59733105D01*
X133759319Y-59775562D01*
X133748726Y-59810481D01*
X133731524Y-59842663D01*
X133708373Y-59870873D01*
X133680163Y-59894024D01*
X133647981Y-59911226D01*
X133613062Y-59921819D01*
X133570605Y-59926000D01*
X132429395Y-59926000D01*
X132386938Y-59921819D01*
X132352019Y-59911226D01*
X132319837Y-59894024D01*
X132291627Y-59870873D01*
X132268476Y-59842663D01*
X132251274Y-59810481D01*
X132240681Y-59775562D01*
X132236500Y-59733105D01*
X132236500Y-58266895D01*
X132240681Y-58224438D01*
X132251274Y-58189519D01*
X132268476Y-58157337D01*
X132291627Y-58129127D01*
X132319837Y-58105976D01*
X132352019Y-58088774D01*
X132386938Y-58078181D01*
X132429395Y-58074000D01*
X133570605Y-58074000D01*
X133613062Y-58078181D01*
G37*
G36*
X131600562Y-58078181D02*
G01*
X131635481Y-58088774D01*
X131667663Y-58105976D01*
X131695873Y-58129127D01*
X131719024Y-58157337D01*
X131736226Y-58189519D01*
X131746819Y-58224438D01*
X131751000Y-58266895D01*
X131751000Y-59733105D01*
X131746819Y-59775562D01*
X131736226Y-59810481D01*
X131719024Y-59842663D01*
X131695873Y-59870873D01*
X131667663Y-59894024D01*
X131635481Y-59911226D01*
X131600562Y-59921819D01*
X131558105Y-59926000D01*
X130416895Y-59926000D01*
X130374438Y-59921819D01*
X130339519Y-59911226D01*
X130307337Y-59894024D01*
X130279127Y-59870873D01*
X130255976Y-59842663D01*
X130238774Y-59810481D01*
X130228181Y-59775562D01*
X130224000Y-59733105D01*
X130224000Y-58266895D01*
X130228181Y-58224438D01*
X130238774Y-58189519D01*
X130255976Y-58157337D01*
X130279127Y-58129127D01*
X130307337Y-58105976D01*
X130339519Y-58088774D01*
X130374438Y-58078181D01*
X130416895Y-58074000D01*
X131558105Y-58074000D01*
X131600562Y-58078181D01*
G37*
G36*
X105875562Y-57578181D02*
G01*
X105910481Y-57588774D01*
X105942663Y-57605976D01*
X105970873Y-57629127D01*
X105994024Y-57657337D01*
X106011226Y-57689519D01*
X106021819Y-57724438D01*
X106026000Y-57766895D01*
X106026000Y-59233105D01*
X106021819Y-59275562D01*
X106011226Y-59310481D01*
X105994024Y-59342663D01*
X105970873Y-59370873D01*
X105942663Y-59394024D01*
X105910481Y-59411226D01*
X105875562Y-59421819D01*
X105833105Y-59426000D01*
X104691895Y-59426000D01*
X104649438Y-59421819D01*
X104614519Y-59411226D01*
X104582337Y-59394024D01*
X104554127Y-59370873D01*
X104530976Y-59342663D01*
X104513774Y-59310481D01*
X104503181Y-59275562D01*
X104499000Y-59233105D01*
X104499000Y-57766895D01*
X104503181Y-57724438D01*
X104513774Y-57689519D01*
X104530976Y-57657337D01*
X104554127Y-57629127D01*
X104582337Y-57605976D01*
X104614519Y-57588774D01*
X104649438Y-57578181D01*
X104691895Y-57574000D01*
X105833105Y-57574000D01*
X105875562Y-57578181D01*
G37*
G36*
X100350562Y-57578181D02*
G01*
X100385481Y-57588774D01*
X100417663Y-57605976D01*
X100445873Y-57629127D01*
X100469024Y-57657337D01*
X100486226Y-57689519D01*
X100496819Y-57724438D01*
X100501000Y-57766895D01*
X100501000Y-59233105D01*
X100496819Y-59275562D01*
X100486226Y-59310481D01*
X100469024Y-59342663D01*
X100445873Y-59370873D01*
X100417663Y-59394024D01*
X100385481Y-59411226D01*
X100350562Y-59421819D01*
X100308105Y-59426000D01*
X99166895Y-59426000D01*
X99124438Y-59421819D01*
X99089519Y-59411226D01*
X99057337Y-59394024D01*
X99029127Y-59370873D01*
X99005976Y-59342663D01*
X98988774Y-59310481D01*
X98978181Y-59275562D01*
X98974000Y-59233105D01*
X98974000Y-57766895D01*
X98978181Y-57724438D01*
X98988774Y-57689519D01*
X99005976Y-57657337D01*
X99029127Y-57629127D01*
X99057337Y-57605976D01*
X99089519Y-57588774D01*
X99124438Y-57578181D01*
X99166895Y-57574000D01*
X100308105Y-57574000D01*
X100350562Y-57578181D01*
G37*
G36*
X97375562Y-57578181D02*
G01*
X97410481Y-57588774D01*
X97442663Y-57605976D01*
X97470873Y-57629127D01*
X97494024Y-57657337D01*
X97511226Y-57689519D01*
X97521819Y-57724438D01*
X97526000Y-57766895D01*
X97526000Y-59233105D01*
X97521819Y-59275562D01*
X97511226Y-59310481D01*
X97494024Y-59342663D01*
X97470873Y-59370873D01*
X97442663Y-59394024D01*
X97410481Y-59411226D01*
X97375562Y-59421819D01*
X97333105Y-59426000D01*
X96191895Y-59426000D01*
X96149438Y-59421819D01*
X96114519Y-59411226D01*
X96082337Y-59394024D01*
X96054127Y-59370873D01*
X96030976Y-59342663D01*
X96013774Y-59310481D01*
X96003181Y-59275562D01*
X95999000Y-59233105D01*
X95999000Y-57766895D01*
X96003181Y-57724438D01*
X96013774Y-57689519D01*
X96030976Y-57657337D01*
X96054127Y-57629127D01*
X96082337Y-57605976D01*
X96114519Y-57588774D01*
X96149438Y-57578181D01*
X96191895Y-57574000D01*
X97333105Y-57574000D01*
X97375562Y-57578181D01*
G37*
G36*
X108850562Y-57578181D02*
G01*
X108885481Y-57588774D01*
X108917663Y-57605976D01*
X108945873Y-57629127D01*
X108969024Y-57657337D01*
X108986226Y-57689519D01*
X108996819Y-57724438D01*
X109001000Y-57766895D01*
X109001000Y-59233105D01*
X108996819Y-59275562D01*
X108986226Y-59310481D01*
X108969024Y-59342663D01*
X108945873Y-59370873D01*
X108917663Y-59394024D01*
X108885481Y-59411226D01*
X108850562Y-59421819D01*
X108808105Y-59426000D01*
X107666895Y-59426000D01*
X107624438Y-59421819D01*
X107589519Y-59411226D01*
X107557337Y-59394024D01*
X107529127Y-59370873D01*
X107505976Y-59342663D01*
X107488774Y-59310481D01*
X107478181Y-59275562D01*
X107474000Y-59233105D01*
X107474000Y-57766895D01*
X107478181Y-57724438D01*
X107488774Y-57689519D01*
X107505976Y-57657337D01*
X107529127Y-57629127D01*
X107557337Y-57605976D01*
X107589519Y-57588774D01*
X107624438Y-57578181D01*
X107666895Y-57574000D01*
X108808105Y-57574000D01*
X108850562Y-57578181D01*
G37*
G36*
X68185563Y-57553182D02*
G01*
X68220482Y-57563775D01*
X68252664Y-57580977D01*
X68280874Y-57604128D01*
X68304025Y-57632338D01*
X68321227Y-57664520D01*
X68331820Y-57699439D01*
X68336001Y-57741896D01*
X68336001Y-59208106D01*
X68331820Y-59250563D01*
X68321227Y-59285482D01*
X68304025Y-59317664D01*
X68280874Y-59345874D01*
X68252664Y-59369025D01*
X68220482Y-59386227D01*
X68185563Y-59396820D01*
X68143106Y-59401001D01*
X67001896Y-59401001D01*
X66959439Y-59396820D01*
X66924520Y-59386227D01*
X66892338Y-59369025D01*
X66864128Y-59345874D01*
X66840977Y-59317664D01*
X66823775Y-59285482D01*
X66813182Y-59250563D01*
X66809001Y-59208106D01*
X66809001Y-57741896D01*
X66813182Y-57699439D01*
X66823775Y-57664520D01*
X66840977Y-57632338D01*
X66864128Y-57604128D01*
X66892338Y-57580977D01*
X66924520Y-57563775D01*
X66959439Y-57553182D01*
X67001896Y-57549001D01*
X68143106Y-57549001D01*
X68185563Y-57553182D01*
G37*
G36*
X75600562Y-57553182D02*
G01*
X75635481Y-57563775D01*
X75667663Y-57580977D01*
X75695873Y-57604128D01*
X75719024Y-57632338D01*
X75736226Y-57664520D01*
X75746819Y-57699439D01*
X75751000Y-57741896D01*
X75751000Y-59208106D01*
X75746819Y-59250563D01*
X75736226Y-59285482D01*
X75719024Y-59317664D01*
X75695873Y-59345874D01*
X75667663Y-59369025D01*
X75635481Y-59386227D01*
X75600562Y-59396820D01*
X75558105Y-59401001D01*
X74416895Y-59401001D01*
X74374438Y-59396820D01*
X74339519Y-59386227D01*
X74307337Y-59369025D01*
X74279127Y-59345874D01*
X74255976Y-59317664D01*
X74238774Y-59285482D01*
X74228181Y-59250563D01*
X74224000Y-59208106D01*
X74224000Y-57741896D01*
X74228181Y-57699439D01*
X74238774Y-57664520D01*
X74255976Y-57632338D01*
X74279127Y-57604128D01*
X74307337Y-57580977D01*
X74339519Y-57563775D01*
X74374438Y-57553182D01*
X74416895Y-57549001D01*
X75558105Y-57549001D01*
X75600562Y-57553182D01*
G37*
G36*
X65210563Y-57553182D02*
G01*
X65245482Y-57563775D01*
X65277664Y-57580977D01*
X65305874Y-57604128D01*
X65329025Y-57632338D01*
X65346227Y-57664520D01*
X65356820Y-57699439D01*
X65361001Y-57741896D01*
X65361001Y-59208106D01*
X65356820Y-59250563D01*
X65346227Y-59285482D01*
X65329025Y-59317664D01*
X65305874Y-59345874D01*
X65277664Y-59369025D01*
X65245482Y-59386227D01*
X65210563Y-59396820D01*
X65168106Y-59401001D01*
X64026896Y-59401001D01*
X63984439Y-59396820D01*
X63949520Y-59386227D01*
X63917338Y-59369025D01*
X63889128Y-59345874D01*
X63865977Y-59317664D01*
X63848775Y-59285482D01*
X63838182Y-59250563D01*
X63834001Y-59208106D01*
X63834001Y-57741896D01*
X63838182Y-57699439D01*
X63848775Y-57664520D01*
X63865977Y-57632338D01*
X63889128Y-57604128D01*
X63917338Y-57580977D01*
X63949520Y-57563775D01*
X63984439Y-57553182D01*
X64026896Y-57549001D01*
X65168106Y-57549001D01*
X65210563Y-57553182D01*
G37*
G36*
X72625562Y-57553182D02*
G01*
X72660481Y-57563775D01*
X72692663Y-57580977D01*
X72720873Y-57604128D01*
X72744024Y-57632338D01*
X72761226Y-57664520D01*
X72771819Y-57699439D01*
X72776000Y-57741896D01*
X72776000Y-59208106D01*
X72771819Y-59250563D01*
X72761226Y-59285482D01*
X72744024Y-59317664D01*
X72720873Y-59345874D01*
X72692663Y-59369025D01*
X72660481Y-59386227D01*
X72625562Y-59396820D01*
X72583105Y-59401001D01*
X71441895Y-59401001D01*
X71399438Y-59396820D01*
X71364519Y-59386227D01*
X71332337Y-59369025D01*
X71304127Y-59345874D01*
X71280976Y-59317664D01*
X71263774Y-59285482D01*
X71253181Y-59250563D01*
X71249000Y-59208106D01*
X71249000Y-57741896D01*
X71253181Y-57699439D01*
X71263774Y-57664520D01*
X71280976Y-57632338D01*
X71304127Y-57604128D01*
X71332337Y-57580977D01*
X71364519Y-57563775D01*
X71399438Y-57553182D01*
X71441895Y-57549001D01*
X72583105Y-57549001D01*
X72625562Y-57553182D01*
G37*
G36*
X70186778Y-55120547D02*
G01*
X70353224Y-55189491D01*
X70503022Y-55289583D01*
X70630417Y-55416978D01*
X70730509Y-55566776D01*
X70799453Y-55733222D01*
X70834600Y-55909918D01*
X70834600Y-56090082D01*
X70799453Y-56266778D01*
X70730509Y-56433224D01*
X70630417Y-56583022D01*
X70503022Y-56710417D01*
X70353224Y-56810509D01*
X70186778Y-56879453D01*
X70010082Y-56914600D01*
X69829918Y-56914600D01*
X69653222Y-56879453D01*
X69486776Y-56810509D01*
X69336978Y-56710417D01*
X69209583Y-56583022D01*
X69109491Y-56433224D01*
X69040547Y-56266778D01*
X69005400Y-56090082D01*
X69005400Y-55909918D01*
X69040547Y-55733222D01*
X69109491Y-55566776D01*
X69209583Y-55416978D01*
X69336978Y-55289583D01*
X69486776Y-55189491D01*
X69653222Y-55120547D01*
X69829918Y-55085400D01*
X70010082Y-55085400D01*
X70186778Y-55120547D01*
G37*
G36*
X72726778Y-55120547D02*
G01*
X72893224Y-55189491D01*
X73043022Y-55289583D01*
X73170417Y-55416978D01*
X73270509Y-55566776D01*
X73339453Y-55733222D01*
X73374600Y-55909918D01*
X73374600Y-56090082D01*
X73339453Y-56266778D01*
X73270509Y-56433224D01*
X73170417Y-56583022D01*
X73043022Y-56710417D01*
X72893224Y-56810509D01*
X72726778Y-56879453D01*
X72550082Y-56914600D01*
X72369918Y-56914600D01*
X72193222Y-56879453D01*
X72026776Y-56810509D01*
X71876978Y-56710417D01*
X71749583Y-56583022D01*
X71649491Y-56433224D01*
X71580547Y-56266778D01*
X71545400Y-56090082D01*
X71545400Y-55909918D01*
X71580547Y-55733222D01*
X71649491Y-55566776D01*
X71749583Y-55416978D01*
X71876978Y-55289583D01*
X72026776Y-55189491D01*
X72193222Y-55120547D01*
X72369918Y-55085400D01*
X72550082Y-55085400D01*
X72726778Y-55120547D01*
G37*
G36*
X67646778Y-55120547D02*
G01*
X67813224Y-55189491D01*
X67963022Y-55289583D01*
X68090417Y-55416978D01*
X68190509Y-55566776D01*
X68259453Y-55733222D01*
X68294600Y-55909918D01*
X68294600Y-56090082D01*
X68259453Y-56266778D01*
X68190509Y-56433224D01*
X68090417Y-56583022D01*
X67963022Y-56710417D01*
X67813224Y-56810509D01*
X67646778Y-56879453D01*
X67470082Y-56914600D01*
X67289918Y-56914600D01*
X67113222Y-56879453D01*
X66946776Y-56810509D01*
X66796978Y-56710417D01*
X66669583Y-56583022D01*
X66569491Y-56433224D01*
X66500547Y-56266778D01*
X66465400Y-56090082D01*
X66465400Y-55909918D01*
X66500547Y-55733222D01*
X66569491Y-55566776D01*
X66669583Y-55416978D01*
X66796978Y-55289583D01*
X66946776Y-55189491D01*
X67113222Y-55120547D01*
X67289918Y-55085400D01*
X67470082Y-55085400D01*
X67646778Y-55120547D01*
G37*
G36*
X75914600Y-56914600D02*
G01*
X74085400Y-56914600D01*
X74085400Y-55085400D01*
X75914600Y-55085400D01*
X75914600Y-56914600D01*
G37*
G36*
X97106778Y-55120547D02*
G01*
X97273224Y-55189491D01*
X97423022Y-55289583D01*
X97550417Y-55416978D01*
X97650509Y-55566776D01*
X97719453Y-55733222D01*
X97754600Y-55909918D01*
X97754600Y-56090082D01*
X97719453Y-56266778D01*
X97650509Y-56433224D01*
X97550417Y-56583022D01*
X97423022Y-56710417D01*
X97273224Y-56810509D01*
X97106778Y-56879453D01*
X96930082Y-56914600D01*
X96749918Y-56914600D01*
X96573222Y-56879453D01*
X96406776Y-56810509D01*
X96256978Y-56710417D01*
X96129583Y-56583022D01*
X96029491Y-56433224D01*
X95960547Y-56266778D01*
X95925400Y-56090082D01*
X95925400Y-55909918D01*
X95960547Y-55733222D01*
X96029491Y-55566776D01*
X96129583Y-55416978D01*
X96256978Y-55289583D01*
X96406776Y-55189491D01*
X96573222Y-55120547D01*
X96749918Y-55085400D01*
X96930082Y-55085400D01*
X97106778Y-55120547D01*
G37*
G36*
X99646778Y-55120547D02*
G01*
X99813224Y-55189491D01*
X99963022Y-55289583D01*
X100090417Y-55416978D01*
X100190509Y-55566776D01*
X100259453Y-55733222D01*
X100294600Y-55909918D01*
X100294600Y-56090082D01*
X100259453Y-56266778D01*
X100190509Y-56433224D01*
X100090417Y-56583022D01*
X99963022Y-56710417D01*
X99813224Y-56810509D01*
X99646778Y-56879453D01*
X99470082Y-56914600D01*
X99289918Y-56914600D01*
X99113222Y-56879453D01*
X98946776Y-56810509D01*
X98796978Y-56710417D01*
X98669583Y-56583022D01*
X98569491Y-56433224D01*
X98500547Y-56266778D01*
X98465400Y-56090082D01*
X98465400Y-55909918D01*
X98500547Y-55733222D01*
X98569491Y-55566776D01*
X98669583Y-55416978D01*
X98796978Y-55289583D01*
X98946776Y-55189491D01*
X99113222Y-55120547D01*
X99289918Y-55085400D01*
X99470082Y-55085400D01*
X99646778Y-55120547D01*
G37*
G36*
X102186778Y-55120547D02*
G01*
X102353224Y-55189491D01*
X102503022Y-55289583D01*
X102630417Y-55416978D01*
X102730509Y-55566776D01*
X102799453Y-55733222D01*
X102834600Y-55909918D01*
X102834600Y-56090082D01*
X102799453Y-56266778D01*
X102730509Y-56433224D01*
X102630417Y-56583022D01*
X102503022Y-56710417D01*
X102353224Y-56810509D01*
X102186778Y-56879453D01*
X102010082Y-56914600D01*
X101829918Y-56914600D01*
X101653222Y-56879453D01*
X101486776Y-56810509D01*
X101336978Y-56710417D01*
X101209583Y-56583022D01*
X101109491Y-56433224D01*
X101040547Y-56266778D01*
X101005400Y-56090082D01*
X101005400Y-55909918D01*
X101040547Y-55733222D01*
X101109491Y-55566776D01*
X101209583Y-55416978D01*
X101336978Y-55289583D01*
X101486776Y-55189491D01*
X101653222Y-55120547D01*
X101829918Y-55085400D01*
X102010082Y-55085400D01*
X102186778Y-55120547D01*
G37*
G36*
X107914600Y-56914600D02*
G01*
X106085400Y-56914600D01*
X106085400Y-55085400D01*
X107914600Y-55085400D01*
X107914600Y-56914600D01*
G37*
G36*
X137914600Y-56914600D02*
G01*
X136085400Y-56914600D01*
X136085400Y-55085400D01*
X137914600Y-55085400D01*
X137914600Y-56914600D01*
G37*
G36*
X134726778Y-55120547D02*
G01*
X134893224Y-55189491D01*
X135043022Y-55289583D01*
X135170417Y-55416978D01*
X135270509Y-55566776D01*
X135339453Y-55733222D01*
X135374600Y-55909918D01*
X135374600Y-56090082D01*
X135339453Y-56266778D01*
X135270509Y-56433224D01*
X135170417Y-56583022D01*
X135043022Y-56710417D01*
X134893224Y-56810509D01*
X134726778Y-56879453D01*
X134550082Y-56914600D01*
X134369918Y-56914600D01*
X134193222Y-56879453D01*
X134026776Y-56810509D01*
X133876978Y-56710417D01*
X133749583Y-56583022D01*
X133649491Y-56433224D01*
X133580547Y-56266778D01*
X133545400Y-56090082D01*
X133545400Y-55909918D01*
X133580547Y-55733222D01*
X133649491Y-55566776D01*
X133749583Y-55416978D01*
X133876978Y-55289583D01*
X134026776Y-55189491D01*
X134193222Y-55120547D01*
X134369918Y-55085400D01*
X134550082Y-55085400D01*
X134726778Y-55120547D01*
G37*
G36*
X132186778Y-55120547D02*
G01*
X132353224Y-55189491D01*
X132503022Y-55289583D01*
X132630417Y-55416978D01*
X132730509Y-55566776D01*
X132799453Y-55733222D01*
X132834600Y-55909918D01*
X132834600Y-56090082D01*
X132799453Y-56266778D01*
X132730509Y-56433224D01*
X132630417Y-56583022D01*
X132503022Y-56710417D01*
X132353224Y-56810509D01*
X132186778Y-56879453D01*
X132010082Y-56914600D01*
X131829918Y-56914600D01*
X131653222Y-56879453D01*
X131486776Y-56810509D01*
X131336978Y-56710417D01*
X131209583Y-56583022D01*
X131109491Y-56433224D01*
X131040547Y-56266778D01*
X131005400Y-56090082D01*
X131005400Y-55909918D01*
X131040547Y-55733222D01*
X131109491Y-55566776D01*
X131209583Y-55416978D01*
X131336978Y-55289583D01*
X131486776Y-55189491D01*
X131653222Y-55120547D01*
X131829918Y-55085400D01*
X132010082Y-55085400D01*
X132186778Y-55120547D01*
G37*
G36*
X129646778Y-55120547D02*
G01*
X129813224Y-55189491D01*
X129963022Y-55289583D01*
X130090417Y-55416978D01*
X130190509Y-55566776D01*
X130259453Y-55733222D01*
X130294600Y-55909918D01*
X130294600Y-56090082D01*
X130259453Y-56266778D01*
X130190509Y-56433224D01*
X130090417Y-56583022D01*
X129963022Y-56710417D01*
X129813224Y-56810509D01*
X129646778Y-56879453D01*
X129470082Y-56914600D01*
X129289918Y-56914600D01*
X129113222Y-56879453D01*
X128946776Y-56810509D01*
X128796978Y-56710417D01*
X128669583Y-56583022D01*
X128569491Y-56433224D01*
X128500547Y-56266778D01*
X128465400Y-56090082D01*
X128465400Y-55909918D01*
X128500547Y-55733222D01*
X128569491Y-55566776D01*
X128669583Y-55416978D01*
X128796978Y-55289583D01*
X128946776Y-55189491D01*
X129113222Y-55120547D01*
X129289918Y-55085400D01*
X129470082Y-55085400D01*
X129646778Y-55120547D01*
G37*
G36*
X127106778Y-55120547D02*
G01*
X127273224Y-55189491D01*
X127423022Y-55289583D01*
X127550417Y-55416978D01*
X127650509Y-55566776D01*
X127719453Y-55733222D01*
X127754600Y-55909918D01*
X127754600Y-56090082D01*
X127719453Y-56266778D01*
X127650509Y-56433224D01*
X127550417Y-56583022D01*
X127423022Y-56710417D01*
X127273224Y-56810509D01*
X127106778Y-56879453D01*
X126930082Y-56914600D01*
X126749918Y-56914600D01*
X126573222Y-56879453D01*
X126406776Y-56810509D01*
X126256978Y-56710417D01*
X126129583Y-56583022D01*
X126029491Y-56433224D01*
X125960547Y-56266778D01*
X125925400Y-56090082D01*
X125925400Y-55909918D01*
X125960547Y-55733222D01*
X126029491Y-55566776D01*
X126129583Y-55416978D01*
X126256978Y-55289583D01*
X126406776Y-55189491D01*
X126573222Y-55120547D01*
X126749918Y-55085400D01*
X126930082Y-55085400D01*
X127106778Y-55120547D01*
G37*
G36*
X65106778Y-55120547D02*
G01*
X65273224Y-55189491D01*
X65423022Y-55289583D01*
X65550417Y-55416978D01*
X65650509Y-55566776D01*
X65719453Y-55733222D01*
X65754600Y-55909918D01*
X65754600Y-56090082D01*
X65719453Y-56266778D01*
X65650509Y-56433224D01*
X65550417Y-56583022D01*
X65423022Y-56710417D01*
X65273224Y-56810509D01*
X65106778Y-56879453D01*
X64930082Y-56914600D01*
X64749918Y-56914600D01*
X64573222Y-56879453D01*
X64406776Y-56810509D01*
X64256978Y-56710417D01*
X64129583Y-56583022D01*
X64029491Y-56433224D01*
X63960547Y-56266778D01*
X63925400Y-56090082D01*
X63925400Y-55909918D01*
X63960547Y-55733222D01*
X64029491Y-55566776D01*
X64129583Y-55416978D01*
X64256978Y-55289583D01*
X64406776Y-55189491D01*
X64573222Y-55120547D01*
X64749918Y-55085400D01*
X64930082Y-55085400D01*
X65106778Y-55120547D01*
G37*
G36*
X104726778Y-55120547D02*
G01*
X104893224Y-55189491D01*
X105043022Y-55289583D01*
X105170417Y-55416978D01*
X105270509Y-55566776D01*
X105339453Y-55733222D01*
X105374600Y-55909918D01*
X105374600Y-56090082D01*
X105339453Y-56266778D01*
X105270509Y-56433224D01*
X105170417Y-56583022D01*
X105043022Y-56710417D01*
X104893224Y-56810509D01*
X104726778Y-56879453D01*
X104550082Y-56914600D01*
X104369918Y-56914600D01*
X104193222Y-56879453D01*
X104026776Y-56810509D01*
X103876978Y-56710417D01*
X103749583Y-56583022D01*
X103649491Y-56433224D01*
X103580547Y-56266778D01*
X103545400Y-56090082D01*
X103545400Y-55909918D01*
X103580547Y-55733222D01*
X103649491Y-55566776D01*
X103749583Y-55416978D01*
X103876978Y-55289583D01*
X104026776Y-55189491D01*
X104193222Y-55120547D01*
X104369918Y-55085400D01*
X104550082Y-55085400D01*
X104726778Y-55120547D01*
G37*
G36*
X79651000Y-56901000D02*
G01*
X78349000Y-56901000D01*
X78349000Y-55899000D01*
X79651000Y-55899000D01*
X79651000Y-56901000D01*
G37*
G36*
X61901000Y-56901000D02*
G01*
X60599000Y-56901000D01*
X60599000Y-55899000D01*
X61901000Y-55899000D01*
X61901000Y-56901000D01*
G37*
G36*
X111401000Y-56901000D02*
G01*
X110099000Y-56901000D01*
X110099000Y-55899000D01*
X111401000Y-55899000D01*
X111401000Y-56901000D01*
G37*
G36*
X93901000Y-56901000D02*
G01*
X92599000Y-56901000D01*
X92599000Y-55899000D01*
X93901000Y-55899000D01*
X93901000Y-56901000D01*
G37*
G36*
X70186778Y-52580547D02*
G01*
X70353224Y-52649491D01*
X70503022Y-52749583D01*
X70630417Y-52876978D01*
X70730509Y-53026776D01*
X70799453Y-53193222D01*
X70834600Y-53369918D01*
X70834600Y-53550082D01*
X70799453Y-53726778D01*
X70730509Y-53893224D01*
X70630417Y-54043022D01*
X70503022Y-54170417D01*
X70353224Y-54270509D01*
X70186778Y-54339453D01*
X70010082Y-54374600D01*
X69829918Y-54374600D01*
X69653222Y-54339453D01*
X69486776Y-54270509D01*
X69336978Y-54170417D01*
X69209583Y-54043022D01*
X69109491Y-53893224D01*
X69040547Y-53726778D01*
X69005400Y-53550082D01*
X69005400Y-53369918D01*
X69040547Y-53193222D01*
X69109491Y-53026776D01*
X69209583Y-52876978D01*
X69336978Y-52749583D01*
X69486776Y-52649491D01*
X69653222Y-52580547D01*
X69829918Y-52545400D01*
X70010082Y-52545400D01*
X70186778Y-52580547D01*
G37*
G36*
X104726778Y-52580547D02*
G01*
X104893224Y-52649491D01*
X105043022Y-52749583D01*
X105170417Y-52876978D01*
X105270509Y-53026776D01*
X105339453Y-53193222D01*
X105374600Y-53369918D01*
X105374600Y-53550082D01*
X105339453Y-53726778D01*
X105270509Y-53893224D01*
X105170417Y-54043022D01*
X105043022Y-54170417D01*
X104893224Y-54270509D01*
X104726778Y-54339453D01*
X104550082Y-54374600D01*
X104369918Y-54374600D01*
X104193222Y-54339453D01*
X104026776Y-54270509D01*
X103876978Y-54170417D01*
X103749583Y-54043022D01*
X103649491Y-53893224D01*
X103580547Y-53726778D01*
X103545400Y-53550082D01*
X103545400Y-53369918D01*
X103580547Y-53193222D01*
X103649491Y-53026776D01*
X103749583Y-52876978D01*
X103876978Y-52749583D01*
X104026776Y-52649491D01*
X104193222Y-52580547D01*
X104369918Y-52545400D01*
X104550082Y-52545400D01*
X104726778Y-52580547D01*
G37*
G36*
X67646778Y-52580547D02*
G01*
X67813224Y-52649491D01*
X67963022Y-52749583D01*
X68090417Y-52876978D01*
X68190509Y-53026776D01*
X68259453Y-53193222D01*
X68294600Y-53369918D01*
X68294600Y-53550082D01*
X68259453Y-53726778D01*
X68190509Y-53893224D01*
X68090417Y-54043022D01*
X67963022Y-54170417D01*
X67813224Y-54270509D01*
X67646778Y-54339453D01*
X67470082Y-54374600D01*
X67289918Y-54374600D01*
X67113222Y-54339453D01*
X66946776Y-54270509D01*
X66796978Y-54170417D01*
X66669583Y-54043022D01*
X66569491Y-53893224D01*
X66500547Y-53726778D01*
X66465400Y-53550082D01*
X66465400Y-53369918D01*
X66500547Y-53193222D01*
X66569491Y-53026776D01*
X66669583Y-52876978D01*
X66796978Y-52749583D01*
X66946776Y-52649491D01*
X67113222Y-52580547D01*
X67289918Y-52545400D01*
X67470082Y-52545400D01*
X67646778Y-52580547D01*
G37*
G36*
X97106778Y-52580547D02*
G01*
X97273224Y-52649491D01*
X97423022Y-52749583D01*
X97550417Y-52876978D01*
X97650509Y-53026776D01*
X97719453Y-53193222D01*
X97754600Y-53369918D01*
X97754600Y-53550082D01*
X97719453Y-53726778D01*
X97650509Y-53893224D01*
X97550417Y-54043022D01*
X97423022Y-54170417D01*
X97273224Y-54270509D01*
X97106778Y-54339453D01*
X96930082Y-54374600D01*
X96749918Y-54374600D01*
X96573222Y-54339453D01*
X96406776Y-54270509D01*
X96256978Y-54170417D01*
X96129583Y-54043022D01*
X96029491Y-53893224D01*
X95960547Y-53726778D01*
X95925400Y-53550082D01*
X95925400Y-53369918D01*
X95960547Y-53193222D01*
X96029491Y-53026776D01*
X96129583Y-52876978D01*
X96256978Y-52749583D01*
X96406776Y-52649491D01*
X96573222Y-52580547D01*
X96749918Y-52545400D01*
X96930082Y-52545400D01*
X97106778Y-52580547D01*
G37*
G36*
X102186778Y-52580547D02*
G01*
X102353224Y-52649491D01*
X102503022Y-52749583D01*
X102630417Y-52876978D01*
X102730509Y-53026776D01*
X102799453Y-53193222D01*
X102834600Y-53369918D01*
X102834600Y-53550082D01*
X102799453Y-53726778D01*
X102730509Y-53893224D01*
X102630417Y-54043022D01*
X102503022Y-54170417D01*
X102353224Y-54270509D01*
X102186778Y-54339453D01*
X102010082Y-54374600D01*
X101829918Y-54374600D01*
X101653222Y-54339453D01*
X101486776Y-54270509D01*
X101336978Y-54170417D01*
X101209583Y-54043022D01*
X101109491Y-53893224D01*
X101040547Y-53726778D01*
X101005400Y-53550082D01*
X101005400Y-53369918D01*
X101040547Y-53193222D01*
X101109491Y-53026776D01*
X101209583Y-52876978D01*
X101336978Y-52749583D01*
X101486776Y-52649491D01*
X101653222Y-52580547D01*
X101829918Y-52545400D01*
X102010082Y-52545400D01*
X102186778Y-52580547D01*
G37*
G36*
X65106778Y-52580547D02*
G01*
X65273224Y-52649491D01*
X65423022Y-52749583D01*
X65550417Y-52876978D01*
X65650509Y-53026776D01*
X65719453Y-53193222D01*
X65754600Y-53369918D01*
X65754600Y-53550082D01*
X65719453Y-53726778D01*
X65650509Y-53893224D01*
X65550417Y-54043022D01*
X65423022Y-54170417D01*
X65273224Y-54270509D01*
X65106778Y-54339453D01*
X64930082Y-54374600D01*
X64749918Y-54374600D01*
X64573222Y-54339453D01*
X64406776Y-54270509D01*
X64256978Y-54170417D01*
X64129583Y-54043022D01*
X64029491Y-53893224D01*
X63960547Y-53726778D01*
X63925400Y-53550082D01*
X63925400Y-53369918D01*
X63960547Y-53193222D01*
X64029491Y-53026776D01*
X64129583Y-52876978D01*
X64256978Y-52749583D01*
X64406776Y-52649491D01*
X64573222Y-52580547D01*
X64749918Y-52545400D01*
X64930082Y-52545400D01*
X65106778Y-52580547D01*
G37*
G36*
X99646778Y-52580547D02*
G01*
X99813224Y-52649491D01*
X99963022Y-52749583D01*
X100090417Y-52876978D01*
X100190509Y-53026776D01*
X100259453Y-53193222D01*
X100294600Y-53369918D01*
X100294600Y-53550082D01*
X100259453Y-53726778D01*
X100190509Y-53893224D01*
X100090417Y-54043022D01*
X99963022Y-54170417D01*
X99813224Y-54270509D01*
X99646778Y-54339453D01*
X99470082Y-54374600D01*
X99289918Y-54374600D01*
X99113222Y-54339453D01*
X98946776Y-54270509D01*
X98796978Y-54170417D01*
X98669583Y-54043022D01*
X98569491Y-53893224D01*
X98500547Y-53726778D01*
X98465400Y-53550082D01*
X98465400Y-53369918D01*
X98500547Y-53193222D01*
X98569491Y-53026776D01*
X98669583Y-52876978D01*
X98796978Y-52749583D01*
X98946776Y-52649491D01*
X99113222Y-52580547D01*
X99289918Y-52545400D01*
X99470082Y-52545400D01*
X99646778Y-52580547D01*
G37*
G36*
X137266778Y-52580547D02*
G01*
X137433224Y-52649491D01*
X137583022Y-52749583D01*
X137710417Y-52876978D01*
X137810509Y-53026776D01*
X137879453Y-53193222D01*
X137914600Y-53369918D01*
X137914600Y-53550082D01*
X137879453Y-53726778D01*
X137810509Y-53893224D01*
X137710417Y-54043022D01*
X137583022Y-54170417D01*
X137433224Y-54270509D01*
X137266778Y-54339453D01*
X137090082Y-54374600D01*
X136909918Y-54374600D01*
X136733222Y-54339453D01*
X136566776Y-54270509D01*
X136416978Y-54170417D01*
X136289583Y-54043022D01*
X136189491Y-53893224D01*
X136120547Y-53726778D01*
X136085400Y-53550082D01*
X136085400Y-53369918D01*
X136120547Y-53193222D01*
X136189491Y-53026776D01*
X136289583Y-52876978D01*
X136416978Y-52749583D01*
X136566776Y-52649491D01*
X136733222Y-52580547D01*
X136909918Y-52545400D01*
X137090082Y-52545400D01*
X137266778Y-52580547D01*
G37*
G36*
X134726778Y-52580547D02*
G01*
X134893224Y-52649491D01*
X135043022Y-52749583D01*
X135170417Y-52876978D01*
X135270509Y-53026776D01*
X135339453Y-53193222D01*
X135374600Y-53369918D01*
X135374600Y-53550082D01*
X135339453Y-53726778D01*
X135270509Y-53893224D01*
X135170417Y-54043022D01*
X135043022Y-54170417D01*
X134893224Y-54270509D01*
X134726778Y-54339453D01*
X134550082Y-54374600D01*
X134369918Y-54374600D01*
X134193222Y-54339453D01*
X134026776Y-54270509D01*
X133876978Y-54170417D01*
X133749583Y-54043022D01*
X133649491Y-53893224D01*
X133580547Y-53726778D01*
X133545400Y-53550082D01*
X133545400Y-53369918D01*
X133580547Y-53193222D01*
X133649491Y-53026776D01*
X133749583Y-52876978D01*
X133876978Y-52749583D01*
X134026776Y-52649491D01*
X134193222Y-52580547D01*
X134369918Y-52545400D01*
X134550082Y-52545400D01*
X134726778Y-52580547D01*
G37*
G36*
X132186778Y-52580547D02*
G01*
X132353224Y-52649491D01*
X132503022Y-52749583D01*
X132630417Y-52876978D01*
X132730509Y-53026776D01*
X132799453Y-53193222D01*
X132834600Y-53369918D01*
X132834600Y-53550082D01*
X132799453Y-53726778D01*
X132730509Y-53893224D01*
X132630417Y-54043022D01*
X132503022Y-54170417D01*
X132353224Y-54270509D01*
X132186778Y-54339453D01*
X132010082Y-54374600D01*
X131829918Y-54374600D01*
X131653222Y-54339453D01*
X131486776Y-54270509D01*
X131336978Y-54170417D01*
X131209583Y-54043022D01*
X131109491Y-53893224D01*
X131040547Y-53726778D01*
X131005400Y-53550082D01*
X131005400Y-53369918D01*
X131040547Y-53193222D01*
X131109491Y-53026776D01*
X131209583Y-52876978D01*
X131336978Y-52749583D01*
X131486776Y-52649491D01*
X131653222Y-52580547D01*
X131829918Y-52545400D01*
X132010082Y-52545400D01*
X132186778Y-52580547D01*
G37*
G36*
X129646778Y-52580547D02*
G01*
X129813224Y-52649491D01*
X129963022Y-52749583D01*
X130090417Y-52876978D01*
X130190509Y-53026776D01*
X130259453Y-53193222D01*
X130294600Y-53369918D01*
X130294600Y-53550082D01*
X130259453Y-53726778D01*
X130190509Y-53893224D01*
X130090417Y-54043022D01*
X129963022Y-54170417D01*
X129813224Y-54270509D01*
X129646778Y-54339453D01*
X129470082Y-54374600D01*
X129289918Y-54374600D01*
X129113222Y-54339453D01*
X128946776Y-54270509D01*
X128796978Y-54170417D01*
X128669583Y-54043022D01*
X128569491Y-53893224D01*
X128500547Y-53726778D01*
X128465400Y-53550082D01*
X128465400Y-53369918D01*
X128500547Y-53193222D01*
X128569491Y-53026776D01*
X128669583Y-52876978D01*
X128796978Y-52749583D01*
X128946776Y-52649491D01*
X129113222Y-52580547D01*
X129289918Y-52545400D01*
X129470082Y-52545400D01*
X129646778Y-52580547D01*
G37*
G36*
X127106778Y-52580547D02*
G01*
X127273224Y-52649491D01*
X127423022Y-52749583D01*
X127550417Y-52876978D01*
X127650509Y-53026776D01*
X127719453Y-53193222D01*
X127754600Y-53369918D01*
X127754600Y-53550082D01*
X127719453Y-53726778D01*
X127650509Y-53893224D01*
X127550417Y-54043022D01*
X127423022Y-54170417D01*
X127273224Y-54270509D01*
X127106778Y-54339453D01*
X126930082Y-54374600D01*
X126749918Y-54374600D01*
X126573222Y-54339453D01*
X126406776Y-54270509D01*
X126256978Y-54170417D01*
X126129583Y-54043022D01*
X126029491Y-53893224D01*
X125960547Y-53726778D01*
X125925400Y-53550082D01*
X125925400Y-53369918D01*
X125960547Y-53193222D01*
X126029491Y-53026776D01*
X126129583Y-52876978D01*
X126256978Y-52749583D01*
X126406776Y-52649491D01*
X126573222Y-52580547D01*
X126749918Y-52545400D01*
X126930082Y-52545400D01*
X127106778Y-52580547D01*
G37*
G36*
X107266778Y-52580547D02*
G01*
X107433224Y-52649491D01*
X107583022Y-52749583D01*
X107710417Y-52876978D01*
X107810509Y-53026776D01*
X107879453Y-53193222D01*
X107914600Y-53369918D01*
X107914600Y-53550082D01*
X107879453Y-53726778D01*
X107810509Y-53893224D01*
X107710417Y-54043022D01*
X107583022Y-54170417D01*
X107433224Y-54270509D01*
X107266778Y-54339453D01*
X107090082Y-54374600D01*
X106909918Y-54374600D01*
X106733222Y-54339453D01*
X106566776Y-54270509D01*
X106416978Y-54170417D01*
X106289583Y-54043022D01*
X106189491Y-53893224D01*
X106120547Y-53726778D01*
X106085400Y-53550082D01*
X106085400Y-53369918D01*
X106120547Y-53193222D01*
X106189491Y-53026776D01*
X106289583Y-52876978D01*
X106416978Y-52749583D01*
X106566776Y-52649491D01*
X106733222Y-52580547D01*
X106909918Y-52545400D01*
X107090082Y-52545400D01*
X107266778Y-52580547D01*
G37*
G36*
X75266778Y-52580547D02*
G01*
X75433224Y-52649491D01*
X75583022Y-52749583D01*
X75710417Y-52876978D01*
X75810509Y-53026776D01*
X75879453Y-53193222D01*
X75914600Y-53369918D01*
X75914600Y-53550082D01*
X75879453Y-53726778D01*
X75810509Y-53893224D01*
X75710417Y-54043022D01*
X75583022Y-54170417D01*
X75433224Y-54270509D01*
X75266778Y-54339453D01*
X75090082Y-54374600D01*
X74909918Y-54374600D01*
X74733222Y-54339453D01*
X74566776Y-54270509D01*
X74416978Y-54170417D01*
X74289583Y-54043022D01*
X74189491Y-53893224D01*
X74120547Y-53726778D01*
X74085400Y-53550082D01*
X74085400Y-53369918D01*
X74120547Y-53193222D01*
X74189491Y-53026776D01*
X74289583Y-52876978D01*
X74416978Y-52749583D01*
X74566776Y-52649491D01*
X74733222Y-52580547D01*
X74909918Y-52545400D01*
X75090082Y-52545400D01*
X75266778Y-52580547D01*
G37*
G36*
X72726778Y-52580547D02*
G01*
X72893224Y-52649491D01*
X73043022Y-52749583D01*
X73170417Y-52876978D01*
X73270509Y-53026776D01*
X73339453Y-53193222D01*
X73374600Y-53369918D01*
X73374600Y-53550082D01*
X73339453Y-53726778D01*
X73270509Y-53893224D01*
X73170417Y-54043022D01*
X73043022Y-54170417D01*
X72893224Y-54270509D01*
X72726778Y-54339453D01*
X72550082Y-54374600D01*
X72369918Y-54374600D01*
X72193222Y-54339453D01*
X72026776Y-54270509D01*
X71876978Y-54170417D01*
X71749583Y-54043022D01*
X71649491Y-53893224D01*
X71580547Y-53726778D01*
X71545400Y-53550082D01*
X71545400Y-53369918D01*
X71580547Y-53193222D01*
X71649491Y-53026776D01*
X71749583Y-52876978D01*
X71876978Y-52749583D01*
X72026776Y-52649491D01*
X72193222Y-52580547D01*
X72369918Y-52545400D01*
X72550082Y-52545400D01*
X72726778Y-52580547D01*
G37*
G36*
X79651000Y-53601000D02*
G01*
X78349000Y-53601000D01*
X78349000Y-52599000D01*
X79651000Y-52599000D01*
X79651000Y-53601000D01*
G37*
G36*
X93901000Y-53601000D02*
G01*
X92599000Y-53601000D01*
X92599000Y-52599000D01*
X93901000Y-52599000D01*
X93901000Y-53601000D01*
G37*
G36*
X111401000Y-53601000D02*
G01*
X110099000Y-53601000D01*
X110099000Y-52599000D01*
X111401000Y-52599000D01*
X111401000Y-53601000D01*
G37*
G36*
X61901000Y-53601000D02*
G01*
X60599000Y-53601000D01*
X60599000Y-52599000D01*
X61901000Y-52599000D01*
X61901000Y-53601000D01*
G37*
G36*
X132988674Y-50253465D02*
G01*
X133026367Y-50264899D01*
X133061103Y-50283466D01*
X133091548Y-50308452D01*
X133116534Y-50338897D01*
X133135101Y-50373633D01*
X133146535Y-50411326D01*
X133151000Y-50456661D01*
X133151000Y-51543339D01*
X133146535Y-51588674D01*
X133135101Y-51626367D01*
X133116534Y-51661103D01*
X133091548Y-51691548D01*
X133061103Y-51716534D01*
X133026367Y-51735101D01*
X132988674Y-51746535D01*
X132943339Y-51751000D01*
X132106661Y-51751000D01*
X132061326Y-51746535D01*
X132023633Y-51735101D01*
X131988897Y-51716534D01*
X131958452Y-51691548D01*
X131933466Y-51661103D01*
X131914899Y-51626367D01*
X131903465Y-51588674D01*
X131899000Y-51543339D01*
X131899000Y-50456661D01*
X131903465Y-50411326D01*
X131914899Y-50373633D01*
X131933466Y-50338897D01*
X131958452Y-50308452D01*
X131988897Y-50283466D01*
X132023633Y-50264899D01*
X132061326Y-50253465D01*
X132106661Y-50249000D01*
X132943339Y-50249000D01*
X132988674Y-50253465D01*
G37*
G36*
X128988674Y-50253465D02*
G01*
X129026367Y-50264899D01*
X129061103Y-50283466D01*
X129091548Y-50308452D01*
X129116534Y-50338897D01*
X129135101Y-50373633D01*
X129146535Y-50411326D01*
X129151000Y-50456661D01*
X129151000Y-51543339D01*
X129146535Y-51588674D01*
X129135101Y-51626367D01*
X129116534Y-51661103D01*
X129091548Y-51691548D01*
X129061103Y-51716534D01*
X129026367Y-51735101D01*
X128988674Y-51746535D01*
X128943339Y-51751000D01*
X128106661Y-51751000D01*
X128061326Y-51746535D01*
X128023633Y-51735101D01*
X127988897Y-51716534D01*
X127958452Y-51691548D01*
X127933466Y-51661103D01*
X127914899Y-51626367D01*
X127903465Y-51588674D01*
X127899000Y-51543339D01*
X127899000Y-50456661D01*
X127903465Y-50411326D01*
X127914899Y-50373633D01*
X127933466Y-50338897D01*
X127958452Y-50308452D01*
X127988897Y-50283466D01*
X128023633Y-50264899D01*
X128061326Y-50253465D01*
X128106661Y-50249000D01*
X128943339Y-50249000D01*
X128988674Y-50253465D01*
G37*
G36*
X126938674Y-50253465D02*
G01*
X126976367Y-50264899D01*
X127011103Y-50283466D01*
X127041548Y-50308452D01*
X127066534Y-50338897D01*
X127085101Y-50373633D01*
X127096535Y-50411326D01*
X127101000Y-50456661D01*
X127101000Y-51543339D01*
X127096535Y-51588674D01*
X127085101Y-51626367D01*
X127066534Y-51661103D01*
X127041548Y-51691548D01*
X127011103Y-51716534D01*
X126976367Y-51735101D01*
X126938674Y-51746535D01*
X126893339Y-51751000D01*
X126056661Y-51751000D01*
X126011326Y-51746535D01*
X125973633Y-51735101D01*
X125938897Y-51716534D01*
X125908452Y-51691548D01*
X125883466Y-51661103D01*
X125864899Y-51626367D01*
X125853465Y-51588674D01*
X125849000Y-51543339D01*
X125849000Y-50456661D01*
X125853465Y-50411326D01*
X125864899Y-50373633D01*
X125883466Y-50338897D01*
X125908452Y-50308452D01*
X125938897Y-50283466D01*
X125973633Y-50264899D01*
X126011326Y-50253465D01*
X126056661Y-50249000D01*
X126893339Y-50249000D01*
X126938674Y-50253465D01*
G37*
G36*
X103488674Y-50253465D02*
G01*
X103526367Y-50264899D01*
X103561103Y-50283466D01*
X103591548Y-50308452D01*
X103616534Y-50338897D01*
X103635101Y-50373633D01*
X103646535Y-50411326D01*
X103651000Y-50456661D01*
X103651000Y-51543339D01*
X103646535Y-51588674D01*
X103635101Y-51626367D01*
X103616534Y-51661103D01*
X103591548Y-51691548D01*
X103561103Y-51716534D01*
X103526367Y-51735101D01*
X103488674Y-51746535D01*
X103443339Y-51751000D01*
X102606661Y-51751000D01*
X102561326Y-51746535D01*
X102523633Y-51735101D01*
X102488897Y-51716534D01*
X102458452Y-51691548D01*
X102433466Y-51661103D01*
X102414899Y-51626367D01*
X102403465Y-51588674D01*
X102399000Y-51543339D01*
X102399000Y-50456661D01*
X102403465Y-50411326D01*
X102414899Y-50373633D01*
X102433466Y-50338897D01*
X102458452Y-50308452D01*
X102488897Y-50283466D01*
X102523633Y-50264899D01*
X102561326Y-50253465D01*
X102606661Y-50249000D01*
X103443339Y-50249000D01*
X103488674Y-50253465D01*
G37*
G36*
X99488674Y-50253465D02*
G01*
X99526367Y-50264899D01*
X99561103Y-50283466D01*
X99591548Y-50308452D01*
X99616534Y-50338897D01*
X99635101Y-50373633D01*
X99646535Y-50411326D01*
X99651000Y-50456661D01*
X99651000Y-51543339D01*
X99646535Y-51588674D01*
X99635101Y-51626367D01*
X99616534Y-51661103D01*
X99591548Y-51691548D01*
X99561103Y-51716534D01*
X99526367Y-51735101D01*
X99488674Y-51746535D01*
X99443339Y-51751000D01*
X98606661Y-51751000D01*
X98561326Y-51746535D01*
X98523633Y-51735101D01*
X98488897Y-51716534D01*
X98458452Y-51691548D01*
X98433466Y-51661103D01*
X98414899Y-51626367D01*
X98403465Y-51588674D01*
X98399000Y-51543339D01*
X98399000Y-50456661D01*
X98403465Y-50411326D01*
X98414899Y-50373633D01*
X98433466Y-50338897D01*
X98458452Y-50308452D01*
X98488897Y-50283466D01*
X98523633Y-50264899D01*
X98561326Y-50253465D01*
X98606661Y-50249000D01*
X99443339Y-50249000D01*
X99488674Y-50253465D01*
G37*
G36*
X97438674Y-50253465D02*
G01*
X97476367Y-50264899D01*
X97511103Y-50283466D01*
X97541548Y-50308452D01*
X97566534Y-50338897D01*
X97585101Y-50373633D01*
X97596535Y-50411326D01*
X97601000Y-50456661D01*
X97601000Y-51543339D01*
X97596535Y-51588674D01*
X97585101Y-51626367D01*
X97566534Y-51661103D01*
X97541548Y-51691548D01*
X97511103Y-51716534D01*
X97476367Y-51735101D01*
X97438674Y-51746535D01*
X97393339Y-51751000D01*
X96556661Y-51751000D01*
X96511326Y-51746535D01*
X96473633Y-51735101D01*
X96438897Y-51716534D01*
X96408452Y-51691548D01*
X96383466Y-51661103D01*
X96364899Y-51626367D01*
X96353465Y-51588674D01*
X96349000Y-51543339D01*
X96349000Y-50456661D01*
X96353465Y-50411326D01*
X96364899Y-50373633D01*
X96383466Y-50338897D01*
X96408452Y-50308452D01*
X96438897Y-50283466D01*
X96473633Y-50264899D01*
X96511326Y-50253465D01*
X96556661Y-50249000D01*
X97393339Y-50249000D01*
X97438674Y-50253465D01*
G37*
G36*
X71488674Y-50253465D02*
G01*
X71526367Y-50264899D01*
X71561103Y-50283466D01*
X71591548Y-50308452D01*
X71616534Y-50338897D01*
X71635101Y-50373633D01*
X71646535Y-50411326D01*
X71651000Y-50456661D01*
X71651000Y-51543339D01*
X71646535Y-51588674D01*
X71635101Y-51626367D01*
X71616534Y-51661103D01*
X71591548Y-51691548D01*
X71561103Y-51716534D01*
X71526367Y-51735101D01*
X71488674Y-51746535D01*
X71443339Y-51751000D01*
X70606661Y-51751000D01*
X70561326Y-51746535D01*
X70523633Y-51735101D01*
X70488897Y-51716534D01*
X70458452Y-51691548D01*
X70433466Y-51661103D01*
X70414899Y-51626367D01*
X70403465Y-51588674D01*
X70399000Y-51543339D01*
X70399000Y-50456661D01*
X70403465Y-50411326D01*
X70414899Y-50373633D01*
X70433466Y-50338897D01*
X70458452Y-50308452D01*
X70488897Y-50283466D01*
X70523633Y-50264899D01*
X70561326Y-50253465D01*
X70606661Y-50249000D01*
X71443339Y-50249000D01*
X71488674Y-50253465D01*
G37*
G36*
X69438674Y-50253465D02*
G01*
X69476367Y-50264899D01*
X69511103Y-50283466D01*
X69541548Y-50308452D01*
X69566534Y-50338897D01*
X69585101Y-50373633D01*
X69596535Y-50411326D01*
X69601000Y-50456661D01*
X69601000Y-51543339D01*
X69596535Y-51588674D01*
X69585101Y-51626367D01*
X69566534Y-51661103D01*
X69541548Y-51691548D01*
X69511103Y-51716534D01*
X69476367Y-51735101D01*
X69438674Y-51746535D01*
X69393339Y-51751000D01*
X68556661Y-51751000D01*
X68511326Y-51746535D01*
X68473633Y-51735101D01*
X68438897Y-51716534D01*
X68408452Y-51691548D01*
X68383466Y-51661103D01*
X68364899Y-51626367D01*
X68353465Y-51588674D01*
X68349000Y-51543339D01*
X68349000Y-50456661D01*
X68353465Y-50411326D01*
X68364899Y-50373633D01*
X68383466Y-50338897D01*
X68408452Y-50308452D01*
X68438897Y-50283466D01*
X68473633Y-50264899D01*
X68511326Y-50253465D01*
X68556661Y-50249000D01*
X69393339Y-50249000D01*
X69438674Y-50253465D01*
G37*
G36*
X65188674Y-50253465D02*
G01*
X65226367Y-50264899D01*
X65261103Y-50283466D01*
X65291548Y-50308452D01*
X65316534Y-50338897D01*
X65335101Y-50373633D01*
X65346535Y-50411326D01*
X65351000Y-50456661D01*
X65351000Y-51543339D01*
X65346535Y-51588674D01*
X65335101Y-51626367D01*
X65316534Y-51661103D01*
X65291548Y-51691548D01*
X65261103Y-51716534D01*
X65226367Y-51735101D01*
X65188674Y-51746535D01*
X65143339Y-51751000D01*
X64306661Y-51751000D01*
X64261326Y-51746535D01*
X64223633Y-51735101D01*
X64188897Y-51716534D01*
X64158452Y-51691548D01*
X64133466Y-51661103D01*
X64114899Y-51626367D01*
X64103465Y-51588674D01*
X64099000Y-51543339D01*
X64099000Y-50456661D01*
X64103465Y-50411326D01*
X64114899Y-50373633D01*
X64133466Y-50338897D01*
X64158452Y-50308452D01*
X64188897Y-50283466D01*
X64223633Y-50264899D01*
X64261326Y-50253465D01*
X64306661Y-50249000D01*
X65143339Y-50249000D01*
X65188674Y-50253465D01*
G37*
G36*
X101438674Y-50253465D02*
G01*
X101476367Y-50264899D01*
X101511103Y-50283466D01*
X101541548Y-50308452D01*
X101566534Y-50338897D01*
X101585101Y-50373633D01*
X101596535Y-50411326D01*
X101601000Y-50456661D01*
X101601000Y-51543339D01*
X101596535Y-51588674D01*
X101585101Y-51626367D01*
X101566534Y-51661103D01*
X101541548Y-51691548D01*
X101511103Y-51716534D01*
X101476367Y-51735101D01*
X101438674Y-51746535D01*
X101393339Y-51751000D01*
X100556661Y-51751000D01*
X100511326Y-51746535D01*
X100473633Y-51735101D01*
X100438897Y-51716534D01*
X100408452Y-51691548D01*
X100383466Y-51661103D01*
X100364899Y-51626367D01*
X100353465Y-51588674D01*
X100349000Y-51543339D01*
X100349000Y-50456661D01*
X100353465Y-50411326D01*
X100364899Y-50373633D01*
X100383466Y-50338897D01*
X100408452Y-50308452D01*
X100438897Y-50283466D01*
X100473633Y-50264899D01*
X100511326Y-50253465D01*
X100556661Y-50249000D01*
X101393339Y-50249000D01*
X101438674Y-50253465D01*
G37*
G36*
X130938674Y-50253465D02*
G01*
X130976367Y-50264899D01*
X131011103Y-50283466D01*
X131041548Y-50308452D01*
X131066534Y-50338897D01*
X131085101Y-50373633D01*
X131096535Y-50411326D01*
X131101000Y-50456661D01*
X131101000Y-51543339D01*
X131096535Y-51588674D01*
X131085101Y-51626367D01*
X131066534Y-51661103D01*
X131041548Y-51691548D01*
X131011103Y-51716534D01*
X130976367Y-51735101D01*
X130938674Y-51746535D01*
X130893339Y-51751000D01*
X130056661Y-51751000D01*
X130011326Y-51746535D01*
X129973633Y-51735101D01*
X129938897Y-51716534D01*
X129908452Y-51691548D01*
X129883466Y-51661103D01*
X129864899Y-51626367D01*
X129853465Y-51588674D01*
X129849000Y-51543339D01*
X129849000Y-50456661D01*
X129853465Y-50411326D01*
X129864899Y-50373633D01*
X129883466Y-50338897D01*
X129908452Y-50308452D01*
X129938897Y-50283466D01*
X129973633Y-50264899D01*
X130011326Y-50253465D01*
X130056661Y-50249000D01*
X130893339Y-50249000D01*
X130938674Y-50253465D01*
G37*
G36*
X67238674Y-50253465D02*
G01*
X67276367Y-50264899D01*
X67311103Y-50283466D01*
X67341548Y-50308452D01*
X67366534Y-50338897D01*
X67385101Y-50373633D01*
X67396535Y-50411326D01*
X67401000Y-50456661D01*
X67401000Y-51543339D01*
X67396535Y-51588674D01*
X67385101Y-51626367D01*
X67366534Y-51661103D01*
X67341548Y-51691548D01*
X67311103Y-51716534D01*
X67276367Y-51735101D01*
X67238674Y-51746535D01*
X67193339Y-51751000D01*
X66356661Y-51751000D01*
X66311326Y-51746535D01*
X66273633Y-51735101D01*
X66238897Y-51716534D01*
X66208452Y-51691548D01*
X66183466Y-51661103D01*
X66164899Y-51626367D01*
X66153465Y-51588674D01*
X66149000Y-51543339D01*
X66149000Y-50456661D01*
X66153465Y-50411326D01*
X66164899Y-50373633D01*
X66183466Y-50338897D01*
X66208452Y-50308452D01*
X66238897Y-50283466D01*
X66273633Y-50264899D01*
X66311326Y-50253465D01*
X66356661Y-50249000D01*
X67193339Y-50249000D01*
X67238674Y-50253465D01*
G37*
M02*
